%TF.GenerationSoftware,KiCad,Pcbnew,9.0.5*%
%TF.CreationDate,2025-11-11T22:55:07+01:00*%
%TF.ProjectId,power_motherboard,706f7765-725f-46d6-9f74-686572626f61,rev?*%
%TF.SameCoordinates,Original*%
%TF.FileFunction,Paste,Bot*%
%TF.FilePolarity,Positive*%
%FSLAX46Y46*%
G04 Gerber Fmt 4.6, Leading zero omitted, Abs format (unit mm)*
G04 Created by KiCad (PCBNEW 9.0.5) date 2025-11-11 22:55:07*
%MOMM*%
%LPD*%
G01*
G04 APERTURE LIST*
G04 Aperture macros list*
%AMRoundRect*
0 Rectangle with rounded corners*
0 $1 Rounding radius*
0 $2 $3 $4 $5 $6 $7 $8 $9 X,Y pos of 4 corners*
0 Add a 4 corners polygon primitive as box body*
4,1,4,$2,$3,$4,$5,$6,$7,$8,$9,$2,$3,0*
0 Add four circle primitives for the rounded corners*
1,1,$1+$1,$2,$3*
1,1,$1+$1,$4,$5*
1,1,$1+$1,$6,$7*
1,1,$1+$1,$8,$9*
0 Add four rect primitives between the rounded corners*
20,1,$1+$1,$2,$3,$4,$5,0*
20,1,$1+$1,$4,$5,$6,$7,0*
20,1,$1+$1,$6,$7,$8,$9,0*
20,1,$1+$1,$8,$9,$2,$3,0*%
G04 Aperture macros list end*
%ADD10RoundRect,0.200000X-0.200000X-0.275000X0.200000X-0.275000X0.200000X0.275000X-0.200000X0.275000X0*%
%ADD11RoundRect,0.250000X-0.300000X0.300000X-0.300000X-0.300000X0.300000X-0.300000X0.300000X0.300000X0*%
%ADD12RoundRect,0.150000X-0.512500X-0.150000X0.512500X-0.150000X0.512500X0.150000X-0.512500X0.150000X0*%
%ADD13RoundRect,0.200000X-0.275000X0.200000X-0.275000X-0.200000X0.275000X-0.200000X0.275000X0.200000X0*%
%ADD14RoundRect,0.162500X0.825000X0.162500X-0.825000X0.162500X-0.825000X-0.162500X0.825000X-0.162500X0*%
%ADD15RoundRect,0.250000X0.300000X0.300000X-0.300000X0.300000X-0.300000X-0.300000X0.300000X-0.300000X0*%
%ADD16RoundRect,0.162500X0.162500X-0.825000X0.162500X0.825000X-0.162500X0.825000X-0.162500X-0.825000X0*%
%ADD17RoundRect,0.200000X0.200000X0.275000X-0.200000X0.275000X-0.200000X-0.275000X0.200000X-0.275000X0*%
%ADD18RoundRect,0.225000X0.250000X-0.225000X0.250000X0.225000X-0.250000X0.225000X-0.250000X-0.225000X0*%
%ADD19RoundRect,0.225000X-0.250000X0.225000X-0.250000X-0.225000X0.250000X-0.225000X0.250000X0.225000X0*%
%ADD20RoundRect,0.225000X0.225000X0.250000X-0.225000X0.250000X-0.225000X-0.250000X0.225000X-0.250000X0*%
G04 APERTURE END LIST*
D10*
%TO.C,R_G12VS_1*%
X133890000Y-86580000D03*
X135540000Y-86580000D03*
%TD*%
%TO.C,R_G24VS_1*%
X133855000Y-88260000D03*
X135505000Y-88260000D03*
%TD*%
D11*
%TO.C,D_24V_INV1*%
X127400000Y-91700000D03*
X127400000Y-94500000D03*
%TD*%
D12*
%TO.C,U1*%
X148030000Y-87880000D03*
X148030000Y-86930000D03*
X148030000Y-85980000D03*
X150305000Y-85980000D03*
X150305000Y-86930000D03*
X150305000Y-87880000D03*
%TD*%
D13*
%TO.C,R_SE_1*%
X157580000Y-87520000D03*
X157580000Y-89170000D03*
%TD*%
D14*
%TO.C,Q_24VP_1*%
X120137500Y-91862500D03*
X120137500Y-93132500D03*
X120137500Y-94402500D03*
X120137500Y-95672500D03*
X115062500Y-95672500D03*
X115062500Y-94402500D03*
X115062500Y-93132500D03*
X115062500Y-91862500D03*
%TD*%
D15*
%TO.C,D_12V_INV1*%
X120627500Y-98080000D03*
X117827500Y-98080000D03*
%TD*%
D16*
%TO.C,Q_1*%
X144712500Y-89062500D03*
X143442500Y-89062500D03*
X142172500Y-89062500D03*
X140902500Y-89062500D03*
X140902500Y-83987500D03*
X142172500Y-83987500D03*
X143442500Y-83987500D03*
X144712500Y-83987500D03*
%TD*%
D17*
%TO.C,R_CAN_1*%
X111875000Y-85225000D03*
X110225000Y-85225000D03*
%TD*%
D18*
%TO.C,C_U2*%
X129000000Y-80075000D03*
X129000000Y-78525000D03*
%TD*%
D16*
%TO.C,Q_2*%
X163117500Y-91827500D03*
X161847500Y-91827500D03*
X160577500Y-91827500D03*
X159307500Y-91827500D03*
X159307500Y-86752500D03*
X160577500Y-86752500D03*
X161847500Y-86752500D03*
X163117500Y-86752500D03*
%TD*%
D19*
%TO.C,C_U3*%
X114125000Y-76850000D03*
X114125000Y-78400000D03*
%TD*%
D20*
%TO.C,C_Q_2*%
X123775000Y-85280000D03*
X122225000Y-85280000D03*
%TD*%
%TO.C,C_Q_1*%
X123775000Y-80400000D03*
X122225000Y-80400000D03*
%TD*%
M02*
