%TF.GenerationSoftware,KiCad,Pcbnew,9.0.5*%
%TF.CreationDate,2025-11-11T22:55:07+01:00*%
%TF.ProjectId,power_motherboard,706f7765-725f-46d6-9f74-686572626f61,rev?*%
%TF.SameCoordinates,Original*%
%TF.FileFunction,Soldermask,Top*%
%TF.FilePolarity,Negative*%
%FSLAX46Y46*%
G04 Gerber Fmt 4.6, Leading zero omitted, Abs format (unit mm)*
G04 Created by KiCad (PCBNEW 9.0.5) date 2025-11-11 22:55:07*
%MOMM*%
%LPD*%
G01*
G04 APERTURE LIST*
G04 Aperture macros list*
%AMRoundRect*
0 Rectangle with rounded corners*
0 $1 Rounding radius*
0 $2 $3 $4 $5 $6 $7 $8 $9 X,Y pos of 4 corners*
0 Add a 4 corners polygon primitive as box body*
4,1,4,$2,$3,$4,$5,$6,$7,$8,$9,$2,$3,0*
0 Add four circle primitives for the rounded corners*
1,1,$1+$1,$2,$3*
1,1,$1+$1,$4,$5*
1,1,$1+$1,$6,$7*
1,1,$1+$1,$8,$9*
0 Add four rect primitives between the rounded corners*
20,1,$1+$1,$2,$3,$4,$5,0*
20,1,$1+$1,$4,$5,$6,$7,0*
20,1,$1+$1,$6,$7,$8,$9,0*
20,1,$1+$1,$8,$9,$2,$3,0*%
G04 Aperture macros list end*
%ADD10C,0.010000*%
%ADD11RoundRect,0.200000X-0.200000X-0.275000X0.200000X-0.275000X0.200000X0.275000X-0.200000X0.275000X0*%
%ADD12RoundRect,0.100000X-0.637500X-0.100000X0.637500X-0.100000X0.637500X0.100000X-0.637500X0.100000X0*%
%ADD13RoundRect,0.225000X-0.225000X-0.250000X0.225000X-0.250000X0.225000X0.250000X-0.225000X0.250000X0*%
%ADD14RoundRect,0.250000X-1.550000X0.650000X-1.550000X-0.650000X1.550000X-0.650000X1.550000X0.650000X0*%
%ADD15O,3.600000X1.800000*%
%ADD16RoundRect,0.250000X0.625000X-0.350000X0.625000X0.350000X-0.625000X0.350000X-0.625000X-0.350000X0*%
%ADD17O,1.750000X1.200000*%
%ADD18C,2.700000*%
%ADD19RoundRect,0.114300X-2.005700X-1.790700X2.005700X-1.790700X2.005700X1.790700X-2.005700X1.790700X0*%
%ADD20C,1.500000*%
%ADD21RoundRect,0.250000X1.100000X-0.325000X1.100000X0.325000X-1.100000X0.325000X-1.100000X-0.325000X0*%
%ADD22RoundRect,0.250000X-1.100000X0.325000X-1.100000X-0.325000X1.100000X-0.325000X1.100000X0.325000X0*%
%ADD23C,1.020000*%
%ADD24RoundRect,0.250001X0.499999X-0.499999X0.499999X0.499999X-0.499999X0.499999X-0.499999X-0.499999X0*%
%ADD25RoundRect,0.250000X-0.625000X0.350000X-0.625000X-0.350000X0.625000X-0.350000X0.625000X0.350000X0*%
%ADD26RoundRect,0.243750X-0.456250X0.243750X-0.456250X-0.243750X0.456250X-0.243750X0.456250X0.243750X0*%
%ADD27RoundRect,0.150000X0.825000X0.150000X-0.825000X0.150000X-0.825000X-0.150000X0.825000X-0.150000X0*%
%ADD28R,1.350000X1.350000*%
%ADD29C,1.350000*%
%ADD30RoundRect,0.243750X0.243750X0.456250X-0.243750X0.456250X-0.243750X-0.456250X0.243750X-0.456250X0*%
%ADD31R,0.920000X3.520000*%
%ADD32RoundRect,0.243750X0.456250X-0.243750X0.456250X0.243750X-0.456250X0.243750X-0.456250X-0.243750X0*%
%ADD33C,3.400000*%
%ADD34RoundRect,0.250000X0.350000X0.625000X-0.350000X0.625000X-0.350000X-0.625000X0.350000X-0.625000X0*%
%ADD35O,1.200000X1.750000*%
%ADD36RoundRect,0.200000X-0.275000X0.200000X-0.275000X-0.200000X0.275000X-0.200000X0.275000X0.200000X0*%
%ADD37RoundRect,0.200000X0.275000X-0.200000X0.275000X0.200000X-0.275000X0.200000X-0.275000X-0.200000X0*%
%ADD38RoundRect,0.162500X0.825000X0.162500X-0.825000X0.162500X-0.825000X-0.162500X0.825000X-0.162500X0*%
%ADD39RoundRect,0.250000X1.550000X-0.650000X1.550000X0.650000X-1.550000X0.650000X-1.550000X-0.650000X0*%
%ADD40R,1.700000X1.700000*%
%ADD41C,1.700000*%
G04 APERTURE END LIST*
D10*
%TO.C,U4*%
X146265160Y-67750000D02*
X145565160Y-67750000D01*
X145565160Y-67350000D01*
X146265160Y-67350000D01*
X146265160Y-67750000D01*
G36*
X146265160Y-67750000D02*
G01*
X145565160Y-67750000D01*
X145565160Y-67350000D01*
X146265160Y-67350000D01*
X146265160Y-67750000D01*
G37*
X146265160Y-68750000D02*
X145565160Y-68750000D01*
X145565160Y-68350000D01*
X146265160Y-68350000D01*
X146265160Y-68750000D01*
G36*
X146265160Y-68750000D02*
G01*
X145565160Y-68750000D01*
X145565160Y-68350000D01*
X146265160Y-68350000D01*
X146265160Y-68750000D01*
G37*
X146265160Y-69550000D02*
X145565160Y-69550000D01*
X145565160Y-69150000D01*
X146265160Y-69150000D01*
X146265160Y-69550000D01*
G36*
X146265160Y-69550000D02*
G01*
X145565160Y-69550000D01*
X145565160Y-69150000D01*
X146265160Y-69150000D01*
X146265160Y-69550000D01*
G37*
X147765160Y-73350000D02*
X147365160Y-73350000D01*
X147365160Y-72650000D01*
X147765160Y-72650000D01*
X147765160Y-73350000D01*
G36*
X147765160Y-73350000D02*
G01*
X147365160Y-73350000D01*
X147365160Y-72650000D01*
X147765160Y-72650000D01*
X147765160Y-73350000D01*
G37*
X148865160Y-60270000D02*
X147865160Y-60270000D01*
X147865160Y-58830000D01*
X148865160Y-58830000D01*
X148865160Y-60270000D01*
G36*
X148865160Y-60270000D02*
G01*
X147865160Y-60270000D01*
X147865160Y-58830000D01*
X148865160Y-58830000D01*
X148865160Y-60270000D01*
G37*
X148865160Y-63470000D02*
X147865160Y-63470000D01*
X147865160Y-62030000D01*
X148865160Y-62030000D01*
X148865160Y-63470000D01*
G36*
X148865160Y-63470000D02*
G01*
X147865160Y-63470000D01*
X147865160Y-62030000D01*
X148865160Y-62030000D01*
X148865160Y-63470000D01*
G37*
X148565160Y-73350000D02*
X148165160Y-73350000D01*
X148165160Y-72650000D01*
X148565160Y-72650000D01*
X148565160Y-73350000D01*
G36*
X148565160Y-73350000D02*
G01*
X148165160Y-73350000D01*
X148165160Y-72650000D01*
X148565160Y-72650000D01*
X148565160Y-73350000D01*
G37*
X149365160Y-73350000D02*
X148965160Y-73350000D01*
X148965160Y-72650000D01*
X149365160Y-72650000D01*
X149365160Y-73350000D01*
G36*
X149365160Y-73350000D02*
G01*
X148965160Y-73350000D01*
X148965160Y-72650000D01*
X149365160Y-72650000D01*
X149365160Y-73350000D01*
G37*
X150165160Y-73350000D02*
X149765160Y-73350000D01*
X149765160Y-72650000D01*
X150165160Y-72650000D01*
X150165160Y-73350000D01*
G36*
X150165160Y-73350000D02*
G01*
X149765160Y-73350000D01*
X149765160Y-72650000D01*
X150165160Y-72650000D01*
X150165160Y-73350000D01*
G37*
X151975160Y-68900000D02*
X150225160Y-68900000D01*
X150225160Y-66980000D01*
X151975160Y-66980000D01*
X151975160Y-68900000D01*
G36*
X151975160Y-68900000D02*
G01*
X150225160Y-68900000D01*
X150225160Y-66980000D01*
X151975160Y-66980000D01*
X151975160Y-68900000D01*
G37*
X151975160Y-71220000D02*
X150225160Y-71220000D01*
X150225160Y-69300000D01*
X151975160Y-69300000D01*
X151975160Y-71220000D01*
G36*
X151975160Y-71220000D02*
G01*
X150225160Y-71220000D01*
X150225160Y-69300000D01*
X151975160Y-69300000D01*
X151975160Y-71220000D01*
G37*
X151265160Y-60270000D02*
X150265160Y-60270000D01*
X150265160Y-58830000D01*
X151265160Y-58830000D01*
X151265160Y-60270000D01*
G36*
X151265160Y-60270000D02*
G01*
X150265160Y-60270000D01*
X150265160Y-58830000D01*
X151265160Y-58830000D01*
X151265160Y-60270000D01*
G37*
X151265160Y-63470000D02*
X150265160Y-63470000D01*
X150265160Y-62030000D01*
X151265160Y-62030000D01*
X151265160Y-63470000D01*
G36*
X151265160Y-63470000D02*
G01*
X150265160Y-63470000D01*
X150265160Y-62030000D01*
X151265160Y-62030000D01*
X151265160Y-63470000D01*
G37*
X153665160Y-60270000D02*
X152665160Y-60270000D01*
X152665160Y-58830000D01*
X153665160Y-58830000D01*
X153665160Y-60270000D01*
G36*
X153665160Y-60270000D02*
G01*
X152665160Y-60270000D01*
X152665160Y-58830000D01*
X153665160Y-58830000D01*
X153665160Y-60270000D01*
G37*
X153665160Y-63470000D02*
X152665160Y-63470000D01*
X152665160Y-62030000D01*
X153665160Y-62030000D01*
X153665160Y-63470000D01*
G36*
X153665160Y-63470000D02*
G01*
X152665160Y-63470000D01*
X152665160Y-62030000D01*
X153665160Y-62030000D01*
X153665160Y-63470000D01*
G37*
X153365160Y-73350000D02*
X152965160Y-73350000D01*
X152965160Y-72650000D01*
X153365160Y-72650000D01*
X153365160Y-73350000D01*
G36*
X153365160Y-73350000D02*
G01*
X152965160Y-73350000D01*
X152965160Y-72650000D01*
X153365160Y-72650000D01*
X153365160Y-73350000D01*
G37*
X154865160Y-67250000D02*
X153765160Y-67250000D01*
X153765160Y-66250000D01*
X154865160Y-66250000D01*
X154865160Y-67250000D01*
G36*
X154865160Y-67250000D02*
G01*
X153765160Y-67250000D01*
X153765160Y-66250000D01*
X154865160Y-66250000D01*
X154865160Y-67250000D01*
G37*
X154865160Y-69450000D02*
X153765160Y-69450000D01*
X153765160Y-68450000D01*
X154865160Y-68450000D01*
X154865160Y-69450000D01*
G36*
X154865160Y-69450000D02*
G01*
X153765160Y-69450000D01*
X153765160Y-68450000D01*
X154865160Y-68450000D01*
X154865160Y-69450000D01*
G37*
X154165160Y-73350000D02*
X153765160Y-73350000D01*
X153765160Y-72650000D01*
X154165160Y-72650000D01*
X154165160Y-73350000D01*
G36*
X154165160Y-73350000D02*
G01*
X153765160Y-73350000D01*
X153765160Y-72650000D01*
X154165160Y-72650000D01*
X154165160Y-73350000D01*
G37*
X155965160Y-70550000D02*
X155265160Y-70550000D01*
X155265160Y-70150000D01*
X155965160Y-70150000D01*
X155965160Y-70550000D01*
G36*
X155965160Y-70550000D02*
G01*
X155265160Y-70550000D01*
X155265160Y-70150000D01*
X155965160Y-70150000D01*
X155965160Y-70550000D01*
G37*
X155965160Y-71350000D02*
X155265160Y-71350000D01*
X155265160Y-70950000D01*
X155965160Y-70950000D01*
X155965160Y-71350000D01*
G36*
X155965160Y-71350000D02*
G01*
X155265160Y-71350000D01*
X155265160Y-70950000D01*
X155965160Y-70950000D01*
X155965160Y-71350000D01*
G37*
X146965160Y-58550000D02*
X145565160Y-58550000D01*
X145565160Y-58150000D01*
X145995160Y-58150000D01*
X145995160Y-57380000D01*
X146965160Y-57380000D01*
X146965160Y-58550000D01*
G36*
X146965160Y-58550000D02*
G01*
X145565160Y-58550000D01*
X145565160Y-58150000D01*
X145995160Y-58150000D01*
X145995160Y-57380000D01*
X146965160Y-57380000D01*
X146965160Y-58550000D01*
G37*
X146965160Y-72920000D02*
X145995160Y-72920000D01*
X145995160Y-72150000D01*
X145565160Y-72150000D01*
X145565160Y-71750000D01*
X146965160Y-71750000D01*
X146965160Y-72920000D01*
G36*
X146965160Y-72920000D02*
G01*
X145995160Y-72920000D01*
X145995160Y-72150000D01*
X145565160Y-72150000D01*
X145565160Y-71750000D01*
X146965160Y-71750000D01*
X146965160Y-72920000D01*
G37*
X155535160Y-58150000D02*
X155965160Y-58150000D01*
X155965160Y-58550000D01*
X154565160Y-58550000D01*
X154565160Y-57380000D01*
X155535160Y-57380000D01*
X155535160Y-58150000D01*
G36*
X155535160Y-58150000D02*
G01*
X155965160Y-58150000D01*
X155965160Y-58550000D01*
X154565160Y-58550000D01*
X154565160Y-57380000D01*
X155535160Y-57380000D01*
X155535160Y-58150000D01*
G37*
X155965160Y-72150000D02*
X155535160Y-72150000D01*
X155535160Y-72920000D01*
X154565160Y-72920000D01*
X154565160Y-71750000D01*
X155965160Y-71750000D01*
X155965160Y-72150000D01*
G36*
X155965160Y-72150000D02*
G01*
X155535160Y-72150000D01*
X155535160Y-72920000D01*
X154565160Y-72920000D01*
X154565160Y-71750000D01*
X155965160Y-71750000D01*
X155965160Y-72150000D01*
G37*
X146265160Y-60150000D02*
X145565160Y-60150000D01*
X145565160Y-59750000D01*
X145995160Y-59750000D01*
X145995160Y-59350000D01*
X145565160Y-59350000D01*
X145565160Y-58950000D01*
X146265160Y-58950000D01*
X146265160Y-60150000D01*
G36*
X146265160Y-60150000D02*
G01*
X145565160Y-60150000D01*
X145565160Y-59750000D01*
X145995160Y-59750000D01*
X145995160Y-59350000D01*
X145565160Y-59350000D01*
X145565160Y-58950000D01*
X146265160Y-58950000D01*
X146265160Y-60150000D01*
G37*
X146265160Y-61750000D02*
X145565160Y-61750000D01*
X145565160Y-61350000D01*
X145995160Y-61350000D01*
X145995160Y-60950000D01*
X145565160Y-60950000D01*
X145565160Y-60550000D01*
X146265160Y-60550000D01*
X146265160Y-61750000D01*
G36*
X146265160Y-61750000D02*
G01*
X145565160Y-61750000D01*
X145565160Y-61350000D01*
X145995160Y-61350000D01*
X145995160Y-60950000D01*
X145565160Y-60950000D01*
X145565160Y-60550000D01*
X146265160Y-60550000D01*
X146265160Y-61750000D01*
G37*
X146265160Y-63350000D02*
X145565160Y-63350000D01*
X145565160Y-62950000D01*
X145995160Y-62950000D01*
X145995160Y-62550000D01*
X145565160Y-62550000D01*
X145565160Y-62150000D01*
X146265160Y-62150000D01*
X146265160Y-63350000D01*
G36*
X146265160Y-63350000D02*
G01*
X145565160Y-63350000D01*
X145565160Y-62950000D01*
X145995160Y-62950000D01*
X145995160Y-62550000D01*
X145565160Y-62550000D01*
X145565160Y-62150000D01*
X146265160Y-62150000D01*
X146265160Y-63350000D01*
G37*
X146265160Y-64950000D02*
X145565160Y-64950000D01*
X145565160Y-64550000D01*
X145995160Y-64550000D01*
X145995160Y-64150000D01*
X145565160Y-64150000D01*
X145565160Y-63750000D01*
X146265160Y-63750000D01*
X146265160Y-64950000D01*
G36*
X146265160Y-64950000D02*
G01*
X145565160Y-64950000D01*
X145565160Y-64550000D01*
X145995160Y-64550000D01*
X145995160Y-64150000D01*
X145565160Y-64150000D01*
X145565160Y-63750000D01*
X146265160Y-63750000D01*
X146265160Y-64950000D01*
G37*
X146265160Y-66950000D02*
X145565160Y-66950000D01*
X145565160Y-66550000D01*
X145995160Y-66550000D01*
X145995160Y-66150000D01*
X145565160Y-66150000D01*
X145565160Y-65750000D01*
X146265160Y-65750000D01*
X146265160Y-66950000D01*
G36*
X146265160Y-66950000D02*
G01*
X145565160Y-66950000D01*
X145565160Y-66550000D01*
X145995160Y-66550000D01*
X145995160Y-66150000D01*
X145565160Y-66150000D01*
X145565160Y-65750000D01*
X146265160Y-65750000D01*
X146265160Y-66950000D01*
G37*
X146265160Y-71350000D02*
X145565160Y-71350000D01*
X145565160Y-70950000D01*
X145995160Y-70950000D01*
X145995160Y-70550000D01*
X145565160Y-70550000D01*
X145565160Y-70150000D01*
X146265160Y-70150000D01*
X146265160Y-71350000D01*
G36*
X146265160Y-71350000D02*
G01*
X145565160Y-71350000D01*
X145565160Y-70950000D01*
X145995160Y-70950000D01*
X145995160Y-70550000D01*
X145565160Y-70550000D01*
X145565160Y-70150000D01*
X146265160Y-70150000D01*
X146265160Y-71350000D01*
G37*
X155965160Y-59350000D02*
X155535160Y-59350000D01*
X155535160Y-59750000D01*
X155965160Y-59750000D01*
X155965160Y-60150000D01*
X155265160Y-60150000D01*
X155265160Y-58950000D01*
X155965160Y-58950000D01*
X155965160Y-59350000D01*
G36*
X155965160Y-59350000D02*
G01*
X155535160Y-59350000D01*
X155535160Y-59750000D01*
X155965160Y-59750000D01*
X155965160Y-60150000D01*
X155265160Y-60150000D01*
X155265160Y-58950000D01*
X155965160Y-58950000D01*
X155965160Y-59350000D01*
G37*
X155965160Y-60950000D02*
X155535160Y-60950000D01*
X155535160Y-61350000D01*
X155965160Y-61350000D01*
X155965160Y-61750000D01*
X155265160Y-61750000D01*
X155265160Y-60550000D01*
X155965160Y-60550000D01*
X155965160Y-60950000D01*
G36*
X155965160Y-60950000D02*
G01*
X155535160Y-60950000D01*
X155535160Y-61350000D01*
X155965160Y-61350000D01*
X155965160Y-61750000D01*
X155265160Y-61750000D01*
X155265160Y-60550000D01*
X155965160Y-60550000D01*
X155965160Y-60950000D01*
G37*
X155965160Y-62550000D02*
X155535160Y-62550000D01*
X155535160Y-62950000D01*
X155965160Y-62950000D01*
X155965160Y-63350000D01*
X155265160Y-63350000D01*
X155265160Y-62150000D01*
X155965160Y-62150000D01*
X155965160Y-62550000D01*
G36*
X155965160Y-62550000D02*
G01*
X155535160Y-62550000D01*
X155535160Y-62950000D01*
X155965160Y-62950000D01*
X155965160Y-63350000D01*
X155265160Y-63350000D01*
X155265160Y-62150000D01*
X155965160Y-62150000D01*
X155965160Y-62550000D01*
G37*
X155965160Y-64150000D02*
X155535160Y-64150000D01*
X155535160Y-64550000D01*
X155965160Y-64550000D01*
X155965160Y-64950000D01*
X155265160Y-64950000D01*
X155265160Y-63750000D01*
X155965160Y-63750000D01*
X155965160Y-64150000D01*
G36*
X155965160Y-64150000D02*
G01*
X155535160Y-64150000D01*
X155535160Y-64550000D01*
X155965160Y-64550000D01*
X155965160Y-64950000D01*
X155265160Y-64950000D01*
X155265160Y-63750000D01*
X155965160Y-63750000D01*
X155965160Y-64150000D01*
G37*
X155965160Y-68750000D02*
X155535160Y-68750000D01*
X155535160Y-69150000D01*
X155965160Y-69150000D01*
X155965160Y-69550000D01*
X155265160Y-69550000D01*
X155265160Y-68350000D01*
X155965160Y-68350000D01*
X155965160Y-68750000D01*
G36*
X155965160Y-68750000D02*
G01*
X155535160Y-68750000D01*
X155535160Y-69150000D01*
X155965160Y-69150000D01*
X155965160Y-69550000D01*
X155265160Y-69550000D01*
X155265160Y-68350000D01*
X155965160Y-68350000D01*
X155965160Y-68750000D01*
G37*
X147765160Y-57380000D02*
X148165160Y-57380000D01*
X148165160Y-56950000D01*
X148565160Y-56950000D01*
X148565160Y-57380000D01*
X148965160Y-57380000D01*
X148965160Y-56950000D01*
X149365160Y-56950000D01*
X149365160Y-57650000D01*
X147365160Y-57650000D01*
X147365160Y-56950000D01*
X147765160Y-56950000D01*
X147765160Y-57380000D01*
G36*
X147765160Y-57380000D02*
G01*
X148165160Y-57380000D01*
X148165160Y-56950000D01*
X148565160Y-56950000D01*
X148565160Y-57380000D01*
X148965160Y-57380000D01*
X148965160Y-56950000D01*
X149365160Y-56950000D01*
X149365160Y-57650000D01*
X147365160Y-57650000D01*
X147365160Y-56950000D01*
X147765160Y-56950000D01*
X147765160Y-57380000D01*
G37*
X152565160Y-73350000D02*
X152165160Y-73350000D01*
X152165160Y-72920000D01*
X151765160Y-72920000D01*
X151765160Y-73350000D01*
X151365160Y-73350000D01*
X151365160Y-72920000D01*
X150965160Y-72920000D01*
X150965160Y-73350000D01*
X150565160Y-73350000D01*
X150565160Y-72650000D01*
X152565160Y-72650000D01*
X152565160Y-73350000D01*
G36*
X152565160Y-73350000D02*
G01*
X152165160Y-73350000D01*
X152165160Y-72920000D01*
X151765160Y-72920000D01*
X151765160Y-73350000D01*
X151365160Y-73350000D01*
X151365160Y-72920000D01*
X150965160Y-72920000D01*
X150965160Y-73350000D01*
X150565160Y-73350000D01*
X150565160Y-72650000D01*
X152565160Y-72650000D01*
X152565160Y-73350000D01*
G37*
X150165160Y-57380000D02*
X150565160Y-57380000D01*
X150565160Y-56950000D01*
X150965160Y-56950000D01*
X150965160Y-57380000D01*
X151365160Y-57380000D01*
X151365160Y-56950000D01*
X151765160Y-56950000D01*
X151765160Y-57650000D01*
X149765160Y-57650000D01*
X149765160Y-56950000D01*
X150165160Y-56950000D01*
X150165160Y-57380000D01*
G36*
X150165160Y-57380000D02*
G01*
X150565160Y-57380000D01*
X150565160Y-56950000D01*
X150965160Y-56950000D01*
X150965160Y-57380000D01*
X151365160Y-57380000D01*
X151365160Y-56950000D01*
X151765160Y-56950000D01*
X151765160Y-57650000D01*
X149765160Y-57650000D01*
X149765160Y-56950000D01*
X150165160Y-56950000D01*
X150165160Y-57380000D01*
G37*
X152565160Y-57380000D02*
X152965160Y-57380000D01*
X152965160Y-56950000D01*
X153365160Y-56950000D01*
X153365160Y-57380000D01*
X153765160Y-57380000D01*
X153765160Y-56950000D01*
X154165160Y-56950000D01*
X154165160Y-57650000D01*
X152165160Y-57650000D01*
X152165160Y-56950000D01*
X152565160Y-56950000D01*
X152565160Y-57380000D01*
G36*
X152565160Y-57380000D02*
G01*
X152965160Y-57380000D01*
X152965160Y-56950000D01*
X153365160Y-56950000D01*
X153365160Y-57380000D01*
X153765160Y-57380000D01*
X153765160Y-56950000D01*
X154165160Y-56950000D01*
X154165160Y-57650000D01*
X152165160Y-57650000D01*
X152165160Y-56950000D01*
X152565160Y-56950000D01*
X152565160Y-57380000D01*
G37*
X155965160Y-66150000D02*
X155535160Y-66150000D01*
X155535160Y-66550000D01*
X155965160Y-66550000D01*
X155965160Y-66950000D01*
X155535160Y-66950000D01*
X155535160Y-67350000D01*
X155965160Y-67350000D01*
X155965160Y-67750000D01*
X155265160Y-67750000D01*
X155265160Y-65750000D01*
X155965160Y-65750000D01*
X155965160Y-66150000D01*
G36*
X155965160Y-66150000D02*
G01*
X155535160Y-66150000D01*
X155535160Y-66550000D01*
X155965160Y-66550000D01*
X155965160Y-66950000D01*
X155535160Y-66950000D01*
X155535160Y-67350000D01*
X155965160Y-67350000D01*
X155965160Y-67750000D01*
X155265160Y-67750000D01*
X155265160Y-65750000D01*
X155965160Y-65750000D01*
X155965160Y-66150000D01*
G37*
%TD*%
D11*
%TO.C,R_LED_R_2*%
X136950000Y-51800000D03*
X138600000Y-51800000D03*
%TD*%
D12*
%TO.C,U2*%
X124450000Y-77525000D03*
X124450000Y-78175000D03*
X124450000Y-78825000D03*
X124450000Y-79475000D03*
X124450000Y-80125000D03*
X124450000Y-80775000D03*
X124450000Y-81425000D03*
X124450000Y-82075000D03*
X124450000Y-82725000D03*
X124450000Y-83375000D03*
X130175000Y-83375000D03*
X130175000Y-82725000D03*
X130175000Y-82075000D03*
X130175000Y-81425000D03*
X130175000Y-80775000D03*
X130175000Y-80125000D03*
X130175000Y-79475000D03*
X130175000Y-78825000D03*
X130175000Y-78175000D03*
X130175000Y-77525000D03*
%TD*%
D13*
%TO.C,CFF1*%
X146319130Y-77610819D03*
X147869130Y-77610819D03*
%TD*%
D14*
%TO.C,BAT_12V_1*%
X132270625Y-93295000D03*
D15*
X132270625Y-97105000D03*
%TD*%
D16*
%TO.C,JAU_1*%
X139625000Y-70350000D03*
D17*
X139625000Y-68350000D03*
%TD*%
D18*
%TO.C,MH2*%
X161500000Y-47500000D03*
%TD*%
D19*
%TO.C,F_12VE2*%
X139886875Y-98067500D03*
X146256875Y-98067500D03*
%TD*%
D20*
%TO.C,Y1*%
X120425000Y-80400000D03*
X120425000Y-85280000D03*
%TD*%
D21*
%TO.C,x2*%
X161544339Y-70115500D03*
X161544339Y-67165500D03*
%TD*%
D22*
%TO.C,x2.2*%
X158144339Y-62315500D03*
X158144339Y-65265500D03*
%TD*%
D23*
%TO.C,J2*%
X113540000Y-99200000D03*
X113540000Y-84200000D03*
D24*
X109600000Y-96200000D03*
D20*
X109600000Y-93200000D03*
X109600000Y-90200000D03*
X109600000Y-87200000D03*
X112600000Y-96200000D03*
X112600000Y-93200000D03*
X112600000Y-90200000D03*
X112600000Y-87200000D03*
%TD*%
D11*
%TO.C,R_LED_R_1*%
X136987500Y-53875000D03*
X138637500Y-53875000D03*
%TD*%
D25*
%TO.C,JFAN1*%
X103750000Y-76800000D03*
D17*
X103750000Y-78800000D03*
%TD*%
D26*
%TO.C,LED_24V1*%
X162074339Y-72293000D03*
X162074339Y-74168000D03*
%TD*%
D27*
%TO.C,U3*%
X116225000Y-82130000D03*
X116225000Y-80860000D03*
X116225000Y-79590000D03*
X116225000Y-78320000D03*
X111275000Y-78320000D03*
X111275000Y-79590000D03*
X111275000Y-80860000D03*
X111275000Y-82130000D03*
%TD*%
D25*
%TO.C,LCD1*%
X103750000Y-53300000D03*
D17*
X103750000Y-55300000D03*
X103750000Y-57300000D03*
X103750000Y-59300000D03*
%TD*%
D16*
%TO.C,IO6*%
X139625000Y-63325000D03*
D17*
X139625000Y-61325000D03*
X139625000Y-59325000D03*
X139625000Y-57325000D03*
%TD*%
D28*
%TO.C,JBP_1*%
X145675000Y-91425000D03*
D29*
X147675000Y-91425000D03*
%TD*%
D30*
%TO.C,LED_R_2*%
X142012500Y-51700000D03*
X140137500Y-51700000D03*
%TD*%
D22*
%TO.C,x2.3*%
X161544339Y-62315500D03*
X161544339Y-65265500D03*
%TD*%
D31*
%TO.C,C12V_1*%
X138450000Y-79815000D03*
X138450000Y-87935000D03*
%TD*%
D32*
%TO.C,LED_24VS1*%
X117510000Y-99330000D03*
X117510000Y-97455000D03*
%TD*%
D33*
%TO.C,FAN1*%
X112225000Y-53875000D03*
X112225000Y-73875000D03*
X132225000Y-53875000D03*
X132225000Y-73875000D03*
%TD*%
D34*
%TO.C,IO12*%
X151850000Y-54025000D03*
D35*
X149850000Y-54025000D03*
X147850000Y-54025000D03*
X145850000Y-54025000D03*
%TD*%
D11*
%TO.C,R_T1*%
X146900160Y-74450000D03*
X148550160Y-74450000D03*
%TD*%
%TO.C,R_FBB_1*%
X149960160Y-74450000D03*
X151610160Y-74450000D03*
%TD*%
D36*
%TO.C,R_L24VS1*%
X117240000Y-94325000D03*
X117240000Y-95975000D03*
%TD*%
D37*
%TO.C,R_L12VS1*%
X118770000Y-95475000D03*
X118770000Y-93825000D03*
%TD*%
D18*
%TO.C,MH3*%
X103500000Y-96500000D03*
%TD*%
%TO.C,MH1*%
X103500000Y-47500000D03*
%TD*%
D11*
%TO.C,R_RESET_2*%
X107600000Y-82167500D03*
X109250000Y-82167500D03*
%TD*%
D31*
%TO.C,C24V_2*%
X159830000Y-79815000D03*
X159830000Y-87935000D03*
%TD*%
D34*
%TO.C,TB_1*%
X163025000Y-54000000D03*
D35*
X161025000Y-54000000D03*
X159025000Y-54000000D03*
X157025000Y-54000000D03*
%TD*%
D21*
%TO.C,C24_V3*%
X142174339Y-77605500D03*
X142174339Y-74655500D03*
%TD*%
D26*
%TO.C,LED_12VS1*%
X117480000Y-90462500D03*
X117480000Y-92337500D03*
%TD*%
D31*
%TO.C,C24V_1*%
X149175000Y-79815000D03*
X149175000Y-87935000D03*
%TD*%
D25*
%TO.C,IO17*%
X103750000Y-65050000D03*
D17*
X103750000Y-67050000D03*
X103750000Y-69050000D03*
X103750000Y-71050000D03*
%TD*%
D30*
%TO.C,LED_R_1*%
X142012500Y-53800000D03*
X140137500Y-53800000D03*
%TD*%
D14*
%TO.C,V_WALL1*%
X153532500Y-93312500D03*
D15*
X153532500Y-97122500D03*
%TD*%
D11*
%TO.C,R_FBT_1*%
X146275000Y-76000000D03*
X147925000Y-76000000D03*
%TD*%
D38*
%TO.C,Q_12VP_1*%
X131012500Y-89155000D03*
X131012500Y-87885000D03*
X131012500Y-86615000D03*
X131012500Y-85345000D03*
X125937500Y-85345000D03*
X125937500Y-86615000D03*
X125937500Y-87885000D03*
X125937500Y-89155000D03*
%TD*%
D18*
%TO.C,MH4*%
X161500000Y-96500000D03*
%TD*%
D11*
%TO.C,R_RESET_1*%
X131950000Y-77800000D03*
X133600000Y-77800000D03*
%TD*%
D37*
%TO.C,R_L24V1*%
X162074339Y-77418000D03*
X162074339Y-75768000D03*
%TD*%
D39*
%TO.C,BAT_12V_2*%
X124320000Y-97070000D03*
D15*
X124320000Y-93260000D03*
%TD*%
D40*
%TO.C,J1*%
X108370000Y-48770000D03*
D41*
X108370000Y-46230000D03*
X110910000Y-48770000D03*
X110910000Y-46230000D03*
X113450000Y-48770000D03*
X113450000Y-46230000D03*
X115990000Y-48770000D03*
X115990000Y-46230000D03*
X118530000Y-48770000D03*
X118530000Y-46230000D03*
X121070000Y-48770000D03*
X121070000Y-46230000D03*
X123610000Y-48770000D03*
X123610000Y-46230000D03*
X126150000Y-48770000D03*
X126150000Y-46230000D03*
X128690000Y-48770000D03*
X128690000Y-46230000D03*
X131230000Y-48770000D03*
X131230000Y-46230000D03*
X133770000Y-48770000D03*
X133770000Y-46230000D03*
X136310000Y-48770000D03*
X136310000Y-46230000D03*
X138850000Y-48770000D03*
X138850000Y-46230000D03*
X141390000Y-48770000D03*
X141390000Y-46230000D03*
X143930000Y-48770000D03*
X143930000Y-46230000D03*
X146470000Y-48770000D03*
X146470000Y-46230000D03*
X149010000Y-48770000D03*
X149010000Y-46230000D03*
X151550000Y-48770000D03*
X151550000Y-46230000D03*
X154090000Y-48770000D03*
X154090000Y-46230000D03*
X156630000Y-48770000D03*
X156630000Y-46230000D03*
%TD*%
M02*
