%TF.GenerationSoftware,KiCad,Pcbnew,9.0.5*%
%TF.CreationDate,2025-11-11T22:55:07+01:00*%
%TF.ProjectId,power_motherboard,706f7765-725f-46d6-9f74-686572626f61,rev?*%
%TF.SameCoordinates,Original*%
%TF.FileFunction,Copper,L2,Inr*%
%TF.FilePolarity,Positive*%
%FSLAX46Y46*%
G04 Gerber Fmt 4.6, Leading zero omitted, Abs format (unit mm)*
G04 Created by KiCad (PCBNEW 9.0.5) date 2025-11-11 22:55:07*
%MOMM*%
%LPD*%
G01*
G04 APERTURE LIST*
G04 Aperture macros list*
%AMRoundRect*
0 Rectangle with rounded corners*
0 $1 Rounding radius*
0 $2 $3 $4 $5 $6 $7 $8 $9 X,Y pos of 4 corners*
0 Add a 4 corners polygon primitive as box body*
4,1,4,$2,$3,$4,$5,$6,$7,$8,$9,$2,$3,0*
0 Add four circle primitives for the rounded corners*
1,1,$1+$1,$2,$3*
1,1,$1+$1,$4,$5*
1,1,$1+$1,$6,$7*
1,1,$1+$1,$8,$9*
0 Add four rect primitives between the rounded corners*
20,1,$1+$1,$2,$3,$4,$5,0*
20,1,$1+$1,$4,$5,$6,$7,0*
20,1,$1+$1,$6,$7,$8,$9,0*
20,1,$1+$1,$8,$9,$2,$3,0*%
G04 Aperture macros list end*
%TA.AperFunction,ComponentPad*%
%ADD10RoundRect,0.250000X-1.550000X0.650000X-1.550000X-0.650000X1.550000X-0.650000X1.550000X0.650000X0*%
%TD*%
%TA.AperFunction,ComponentPad*%
%ADD11O,3.600000X1.800000*%
%TD*%
%TA.AperFunction,ComponentPad*%
%ADD12RoundRect,0.250000X0.625000X-0.350000X0.625000X0.350000X-0.625000X0.350000X-0.625000X-0.350000X0*%
%TD*%
%TA.AperFunction,ComponentPad*%
%ADD13O,1.750000X1.200000*%
%TD*%
%TA.AperFunction,ComponentPad*%
%ADD14C,1.500000*%
%TD*%
%TA.AperFunction,ComponentPad*%
%ADD15RoundRect,0.250001X0.499999X-0.499999X0.499999X0.499999X-0.499999X0.499999X-0.499999X-0.499999X0*%
%TD*%
%TA.AperFunction,ComponentPad*%
%ADD16RoundRect,0.250000X-0.625000X0.350000X-0.625000X-0.350000X0.625000X-0.350000X0.625000X0.350000X0*%
%TD*%
%TA.AperFunction,ComponentPad*%
%ADD17R,1.350000X1.350000*%
%TD*%
%TA.AperFunction,ComponentPad*%
%ADD18C,1.350000*%
%TD*%
%TA.AperFunction,ComponentPad*%
%ADD19C,3.400000*%
%TD*%
%TA.AperFunction,ComponentPad*%
%ADD20RoundRect,0.250000X0.350000X0.625000X-0.350000X0.625000X-0.350000X-0.625000X0.350000X-0.625000X0*%
%TD*%
%TA.AperFunction,ComponentPad*%
%ADD21O,1.200000X1.750000*%
%TD*%
%TA.AperFunction,ComponentPad*%
%ADD22RoundRect,0.250000X1.550000X-0.650000X1.550000X0.650000X-1.550000X0.650000X-1.550000X-0.650000X0*%
%TD*%
%TA.AperFunction,ComponentPad*%
%ADD23R,1.700000X1.700000*%
%TD*%
%TA.AperFunction,ComponentPad*%
%ADD24C,1.700000*%
%TD*%
%TA.AperFunction,ViaPad*%
%ADD25C,0.450000*%
%TD*%
%TA.AperFunction,ViaPad*%
%ADD26C,0.500000*%
%TD*%
%TA.AperFunction,Conductor*%
%ADD27C,0.280000*%
%TD*%
%TA.AperFunction,Conductor*%
%ADD28C,0.200000*%
%TD*%
%TA.AperFunction,Conductor*%
%ADD29C,0.300000*%
%TD*%
%TA.AperFunction,Conductor*%
%ADD30C,0.400000*%
%TD*%
G04 APERTURE END LIST*
D10*
%TO.N,Net-(BAT_12V_1-Pin_1)*%
%TO.C,BAT_12V_1*%
X132270625Y-93295000D03*
D11*
%TO.N,12V*%
X132270625Y-97105000D03*
%TD*%
D12*
%TO.N,AU*%
%TO.C,JAU_1*%
X139625000Y-70350000D03*
D13*
%TO.N,GND*%
X139625000Y-68350000D03*
%TD*%
D14*
%TO.N,Net-(U2-OSC2)*%
%TO.C,Y1*%
X120425000Y-80400000D03*
%TO.N,Net-(U2-OSC1)*%
X120425000Y-85280000D03*
%TD*%
D15*
%TO.N,GND*%
%TO.C,J2*%
X109600000Y-96200000D03*
D14*
X109600000Y-93200000D03*
%TO.N,unconnected-(J2-Pin_3-Pad3)*%
X109600000Y-90200000D03*
%TO.N,CAN_L*%
X109600000Y-87200000D03*
%TO.N,24V_S*%
X112600000Y-96200000D03*
%TO.N,12V_S*%
X112600000Y-93200000D03*
%TO.N,12V*%
X112600000Y-90200000D03*
%TO.N,CAN_H*%
X112600000Y-87200000D03*
%TD*%
D16*
%TO.N,GND*%
%TO.C,JFAN1*%
X103750000Y-76800000D03*
D13*
%TO.N,12V*%
X103750000Y-78800000D03*
%TD*%
D16*
%TO.N,SCL*%
%TO.C,LCD1*%
X103750000Y-53300000D03*
D13*
%TO.N,SDA*%
X103750000Y-55300000D03*
%TO.N,5V*%
X103750000Y-57300000D03*
%TO.N,GND*%
X103750000Y-59300000D03*
%TD*%
D12*
%TO.N,5V*%
%TO.C,IO6*%
X139625000Y-63325000D03*
D13*
%TO.N,R_IO6*%
X139625000Y-61325000D03*
%TO.N,GND*%
X139625000Y-59325000D03*
%TO.N,3_3V*%
X139625000Y-57325000D03*
%TD*%
D17*
%TO.N,24V_BAT*%
%TO.C,JBP_1*%
X145675000Y-91425000D03*
D18*
%TO.N,24V*%
X147675000Y-91425000D03*
%TD*%
D19*
%TO.N,GND*%
%TO.C,FAN1*%
X112225000Y-53875000D03*
X112225000Y-73875000D03*
X132225000Y-53875000D03*
X132225000Y-73875000D03*
%TD*%
D20*
%TO.N,5V*%
%TO.C,IO12*%
X151850000Y-54025000D03*
D21*
%TO.N,R_IO12*%
X149850000Y-54025000D03*
%TO.N,GND*%
X147850000Y-54025000D03*
%TO.N,3_3V*%
X145850000Y-54025000D03*
%TD*%
D20*
%TO.N,R_IO21*%
%TO.C,TB_1*%
X163025000Y-54000000D03*
D21*
%TO.N,R_IO20*%
X161025000Y-54000000D03*
%TO.N,R_IO16*%
X159025000Y-54000000D03*
%TO.N,GND*%
X157025000Y-54000000D03*
%TD*%
D16*
%TO.N,5V*%
%TO.C,IO17*%
X103750000Y-65050000D03*
D13*
%TO.N,R_IO17*%
X103750000Y-67050000D03*
%TO.N,GND*%
X103750000Y-69050000D03*
%TO.N,3_3V*%
X103750000Y-71050000D03*
%TD*%
D10*
%TO.N,Net-(BAT_12V_1-Pin_1)*%
%TO.C,V_WALL1*%
X153532500Y-93312500D03*
D11*
%TO.N,WALL_20V*%
X153532500Y-97122500D03*
%TD*%
D22*
%TO.N,12V*%
%TO.C,BAT_12V_2*%
X124320000Y-97070000D03*
D11*
%TO.N,24V_BAT*%
X124320000Y-93260000D03*
%TD*%
D23*
%TO.N,3_3V*%
%TO.C,J1*%
X108370000Y-48770000D03*
D24*
%TO.N,5V*%
X108370000Y-46230000D03*
%TO.N,SDA*%
X110910000Y-48770000D03*
%TO.N,5V*%
X110910000Y-46230000D03*
%TO.N,SCL*%
X113450000Y-48770000D03*
%TO.N,GND*%
X113450000Y-46230000D03*
%TO.N,/GPIO4{slash}GPCLK0*%
X115990000Y-48770000D03*
%TO.N,R_IO14*%
X115990000Y-46230000D03*
%TO.N,GND*%
X118530000Y-48770000D03*
%TO.N,/GPIO15{slash}RXD0*%
X118530000Y-46230000D03*
%TO.N,R_IO17*%
X121070000Y-48770000D03*
%TO.N,/GPIO18{slash}PCM.CLK*%
X121070000Y-46230000D03*
%TO.N,/GPIO27*%
X123610000Y-48770000D03*
%TO.N,GND*%
X123610000Y-46230000D03*
%TO.N,/GPIO22*%
X126150000Y-48770000D03*
%TO.N,/GPIO23*%
X126150000Y-46230000D03*
%TO.N,3_3V*%
X128690000Y-48770000D03*
%TO.N,/GPIO24*%
X128690000Y-46230000D03*
%TO.N,R_MOSI*%
X131230000Y-48770000D03*
%TO.N,GND*%
X131230000Y-46230000D03*
%TO.N,R_MISO*%
X133770000Y-48770000D03*
%TO.N,R_IO25*%
X133770000Y-46230000D03*
%TO.N,R_CLK*%
X136310000Y-48770000D03*
%TO.N,R_CEO*%
X136310000Y-46230000D03*
%TO.N,GND*%
X138850000Y-48770000D03*
%TO.N,/GPIO7{slash}SPI0.CE1*%
X138850000Y-46230000D03*
%TO.N,/ID_SDA*%
X141390000Y-48770000D03*
%TO.N,/ID_SCL*%
X141390000Y-46230000D03*
%TO.N,/GPIO5*%
X143930000Y-48770000D03*
%TO.N,GND*%
X143930000Y-46230000D03*
%TO.N,R_IO6*%
X146470000Y-48770000D03*
%TO.N,R_IO12*%
X146470000Y-46230000D03*
%TO.N,/GPIO13{slash}PWM1*%
X149010000Y-48770000D03*
%TO.N,GND*%
X149010000Y-46230000D03*
%TO.N,/GPIO19{slash}PCM.FS*%
X151550000Y-48770000D03*
%TO.N,R_IO16*%
X151550000Y-46230000D03*
%TO.N,/GPIO26*%
X154090000Y-48770000D03*
%TO.N,R_IO20*%
X154090000Y-46230000D03*
%TO.N,GND*%
X156630000Y-48770000D03*
%TO.N,R_IO21*%
X156630000Y-46230000D03*
%TD*%
D25*
%TO.N,R_MOSI*%
X131298668Y-80150001D03*
%TO.N,R_MISO*%
X131300000Y-79500000D03*
%TO.N,R_IO25*%
X136671232Y-64021232D03*
%TO.N,R_CLK*%
X131300000Y-81495448D03*
%TO.N,R_CEO*%
X136015000Y-64000000D03*
%TO.N,GND*%
X151985160Y-66390000D03*
X162315000Y-66250000D03*
X147760000Y-98690000D03*
X151595160Y-68400000D03*
X144700000Y-73700000D03*
X144260000Y-95190000D03*
X151595160Y-58800000D03*
X149995160Y-66000000D03*
X144300000Y-75000000D03*
X148760000Y-96690000D03*
X146760000Y-96690000D03*
X148760000Y-98690000D03*
X149995160Y-60400000D03*
X157595000Y-66750000D03*
X141174339Y-73030500D03*
X151595160Y-64400000D03*
X152385160Y-65990000D03*
X153585160Y-67190000D03*
X143260000Y-99190000D03*
X159775000Y-66250000D03*
X149995160Y-68400000D03*
X145260000Y-98190000D03*
X152785160Y-67190000D03*
X150395160Y-65600000D03*
X142674339Y-73530500D03*
X136850000Y-50150000D03*
X151195160Y-65600000D03*
X145760000Y-95690000D03*
X138940000Y-90270000D03*
X154785160Y-67590000D03*
X150395160Y-60800000D03*
X147400000Y-89300000D03*
X155420000Y-78200000D03*
X157870000Y-66250000D03*
X143760000Y-95690000D03*
X150395160Y-64000000D03*
X144760000Y-97690000D03*
X149995160Y-70800000D03*
X151595160Y-67600000D03*
X156580000Y-78200000D03*
X146260000Y-95190000D03*
X156960000Y-66750000D03*
X149660000Y-90330000D03*
X151595160Y-60400000D03*
X151595160Y-70000000D03*
X151595160Y-62000000D03*
X150795160Y-66000000D03*
X150795160Y-67600000D03*
X150395160Y-68000000D03*
X151195160Y-58400000D03*
X147760000Y-99690000D03*
X143760000Y-98690000D03*
X106450000Y-82200000D03*
X149995160Y-63600000D03*
X160310000Y-90350000D03*
X151195160Y-70400000D03*
X158230000Y-66750000D03*
X149995160Y-69200000D03*
X151195160Y-67200000D03*
X151195160Y-66400000D03*
X149260000Y-99190000D03*
X147260000Y-97190000D03*
X148760000Y-97690000D03*
X149995160Y-59600000D03*
X146725000Y-68575000D03*
X154385160Y-66390000D03*
X150795160Y-68400000D03*
X145760000Y-98690000D03*
X146260000Y-97190000D03*
X151595160Y-66000000D03*
X147260000Y-95190000D03*
X146260000Y-98190000D03*
X164000000Y-78300000D03*
X145260000Y-95190000D03*
X122975000Y-83600000D03*
X154385160Y-67190000D03*
X150395160Y-70400000D03*
X109750000Y-49750000D03*
X149995160Y-70000000D03*
X152385160Y-67590000D03*
X150795160Y-70800000D03*
X144760000Y-95690000D03*
X153585160Y-66390000D03*
X160410000Y-66250000D03*
X143760000Y-97690000D03*
X144760000Y-96690000D03*
X152385160Y-66790000D03*
X155185160Y-67190000D03*
X141674339Y-73530500D03*
X146760000Y-95690000D03*
X143760000Y-99690000D03*
X159375000Y-90345000D03*
X147760000Y-96690000D03*
X153100000Y-78200000D03*
X151595160Y-58000000D03*
X136800000Y-62150000D03*
X152785160Y-66390000D03*
X143260000Y-95190000D03*
X136250000Y-51825000D03*
X158505000Y-66250000D03*
X150795160Y-69200000D03*
X149260000Y-95190000D03*
X151985160Y-67190000D03*
X149995160Y-65200000D03*
X136275000Y-53875000D03*
X150395160Y-61600000D03*
X156600000Y-66250000D03*
X150795160Y-61200000D03*
X150395160Y-58400000D03*
X143260000Y-97190000D03*
X154260000Y-78200000D03*
X158865000Y-66750000D03*
X151195160Y-64800000D03*
X162100000Y-78300000D03*
X159835000Y-90010000D03*
X138465000Y-89930000D03*
X148260000Y-95190000D03*
X155585160Y-65990000D03*
X150395160Y-66400000D03*
X144300000Y-74100000D03*
X150795160Y-70000000D03*
X151195160Y-69600000D03*
X153985160Y-67590000D03*
X149185000Y-89990000D03*
X150395160Y-64800000D03*
X143760000Y-96690000D03*
X149995160Y-58000000D03*
X149995160Y-61200000D03*
X136050000Y-50450000D03*
X143174339Y-73030500D03*
X149995160Y-62800000D03*
X147760000Y-97690000D03*
X151195160Y-60800000D03*
X151595160Y-62800000D03*
X153185160Y-65990000D03*
X149260000Y-97190000D03*
X151595160Y-70800000D03*
X150395160Y-68800000D03*
X161680000Y-66250000D03*
X151195160Y-68000000D03*
X136050000Y-63150000D03*
X148760000Y-95690000D03*
X155585160Y-67590000D03*
X140674339Y-73530500D03*
X149995160Y-64400000D03*
X148760000Y-99690000D03*
X150395160Y-69600000D03*
X162950000Y-66250000D03*
X157740000Y-78200000D03*
X150795160Y-64400000D03*
X158900000Y-78200000D03*
X151595160Y-61200000D03*
X143260000Y-98190000D03*
X155585160Y-66790000D03*
X149995160Y-58800000D03*
X145760000Y-97690000D03*
X118061942Y-94778058D03*
X144700000Y-74500000D03*
X146760000Y-99690000D03*
X151595160Y-59600000D03*
X147760000Y-95690000D03*
X151595160Y-63600000D03*
X151195160Y-61600000D03*
X150395160Y-67200000D03*
X147260000Y-99190000D03*
X164000000Y-79300000D03*
X138005000Y-90265000D03*
X143674339Y-73530500D03*
X145760000Y-99690000D03*
X149260000Y-96190000D03*
X150795160Y-66800000D03*
X146760000Y-98690000D03*
X153985160Y-65990000D03*
X144760000Y-99690000D03*
X145260000Y-99190000D03*
X150795160Y-65200000D03*
X144760000Y-98690000D03*
X114750000Y-80875000D03*
X151595160Y-65200000D03*
X150795160Y-58000000D03*
X145760000Y-96690000D03*
X146260000Y-99190000D03*
X154785160Y-66790000D03*
X147260000Y-98190000D03*
X142174339Y-73030500D03*
X149995160Y-67600000D03*
X147100000Y-78400000D03*
X157235000Y-66250000D03*
X155185160Y-66390000D03*
X113100000Y-50050000D03*
X149995160Y-62000000D03*
X153185160Y-66790000D03*
X151195160Y-64000000D03*
X159140000Y-66250000D03*
X161045000Y-66250000D03*
X159500000Y-66750000D03*
X149995160Y-66800000D03*
X154785160Y-65990000D03*
X148725000Y-90325000D03*
X146760000Y-97690000D03*
X145260000Y-97190000D03*
X153985160Y-66790000D03*
X151195160Y-68800000D03*
X153185160Y-67590000D03*
X151595160Y-69200000D03*
X151595160Y-66800000D03*
X143260000Y-96190000D03*
X149260000Y-98190000D03*
%TO.N,3_3V*%
X139512500Y-64587500D03*
X114700000Y-79600000D03*
X128950000Y-77500000D03*
%TO.N,5V*%
X152765160Y-64410000D03*
X157486589Y-61115000D03*
X162058017Y-61115000D03*
X152387660Y-63101429D03*
X162972303Y-60360000D03*
X153897660Y-63071429D03*
X159747303Y-60737500D03*
X153142660Y-64900000D03*
X161143732Y-60360000D03*
X153520160Y-61675000D03*
X153142660Y-61242857D03*
X158400874Y-61115000D03*
X160229446Y-60360000D03*
X153897660Y-62157143D03*
X152387660Y-62187143D03*
X153897660Y-63985714D03*
X162472303Y-60737500D03*
X160229446Y-61115000D03*
X160655636Y-60737500D03*
X153897660Y-60328571D03*
X152387660Y-58530000D03*
X153500000Y-57925000D03*
X153142660Y-58500000D03*
X153520160Y-64400000D03*
X157486589Y-60360000D03*
X161143732Y-61115000D03*
X152745000Y-57935000D03*
X152387660Y-61272857D03*
X162058017Y-60360000D03*
X161563970Y-60737500D03*
X144850000Y-71300000D03*
X153897660Y-59414286D03*
X159315160Y-61115000D03*
X157930636Y-60737500D03*
X152765160Y-61680000D03*
X162972303Y-61115000D03*
X156572303Y-60360000D03*
X153142660Y-63985714D03*
X152387660Y-64015714D03*
X153897660Y-58500000D03*
X158838970Y-60737500D03*
X153520160Y-60766667D03*
X152387660Y-59444286D03*
X156572303Y-61115000D03*
X152765160Y-60770000D03*
X152387660Y-60358571D03*
X159315160Y-60360000D03*
X145425000Y-75650000D03*
X157022303Y-60742500D03*
X153897660Y-61242857D03*
X153897660Y-64900000D03*
X158400874Y-60360000D03*
X152387660Y-64930000D03*
D26*
%TO.N,24V_BAT*%
X141700000Y-91350000D03*
X142700000Y-90350000D03*
X144200000Y-90850000D03*
X143700000Y-91350000D03*
X142200000Y-91850000D03*
X144700000Y-90350000D03*
X142700000Y-91350000D03*
X141700000Y-90350000D03*
X144200000Y-91850000D03*
X142200000Y-90850000D03*
X143200000Y-90850000D03*
X143200000Y-91850000D03*
X143700000Y-90350000D03*
D25*
%TO.N,Net-(Q_12VP_1-G)*%
X132450000Y-85700000D03*
%TO.N,AU*%
X134875000Y-87525000D03*
%TO.N,Net-(Q_1-G)*%
X148450000Y-85020000D03*
X140900000Y-87470000D03*
%TO.N,Net-(Q_2-G)*%
X151640000Y-86300000D03*
X156490000Y-88994000D03*
%TO.N,Net-(Q_24VP_1-G)*%
X121890000Y-95420000D03*
X128500000Y-95450000D03*
D26*
%TO.N,12V*%
X131900000Y-89850000D03*
X129400000Y-89150000D03*
X131000000Y-89850000D03*
X132600000Y-89250000D03*
X132600000Y-88200000D03*
X130000000Y-89850000D03*
X129400000Y-88300000D03*
%TO.N,24V*%
X121990000Y-91300000D03*
X145893750Y-82922500D03*
X144646250Y-81680000D03*
D25*
X154280160Y-68560000D03*
D26*
X146593750Y-82298750D03*
X140903750Y-81680000D03*
X122010000Y-92490000D03*
D25*
X154631827Y-68950000D03*
D26*
X144022500Y-82380000D03*
D25*
X153532660Y-69340000D03*
D26*
X145270000Y-82380000D03*
D25*
X155775160Y-69340000D03*
X160400000Y-71000000D03*
X153532660Y-68560000D03*
D26*
X158700000Y-85050000D03*
D25*
X119900000Y-93750000D03*
D26*
X121540000Y-91880000D03*
X161818750Y-84350000D03*
X162442500Y-85050000D03*
D25*
X155775160Y-68560000D03*
X153125160Y-68950000D03*
D26*
X120750000Y-91250000D03*
D25*
X119900000Y-92450000D03*
D26*
X121990000Y-93800000D03*
X161195000Y-85050000D03*
D25*
X152785160Y-69340000D03*
D26*
X163690000Y-85050000D03*
X159947500Y-85050000D03*
X121550000Y-90800000D03*
X146593750Y-83546250D03*
D25*
X161233333Y-71000000D03*
X120750000Y-93750000D03*
D26*
X140280000Y-82380000D03*
X143398750Y-81680000D03*
X145893750Y-84170000D03*
X145860000Y-81700000D03*
X121520000Y-94420000D03*
D25*
X154280160Y-69340000D03*
X153878493Y-68950000D03*
D26*
X163066250Y-84350000D03*
X160571250Y-84350000D03*
D25*
X152785160Y-68560000D03*
D26*
X121540000Y-93150000D03*
D25*
X162066667Y-71000000D03*
D26*
X141527500Y-82380000D03*
D25*
X120750000Y-92440000D03*
D26*
X142775000Y-82380000D03*
X159323750Y-84350000D03*
D25*
X162900000Y-71000000D03*
D26*
X142151250Y-81680000D03*
X151640000Y-87890000D03*
D25*
%TO.N,SW*%
X146825000Y-59200000D03*
X149125000Y-66725000D03*
X148625000Y-58500000D03*
X147625000Y-58500000D03*
X146800000Y-63000000D03*
X148625000Y-64225000D03*
X146800000Y-61000000D03*
X148125000Y-66725000D03*
X147625000Y-65225000D03*
X147325000Y-60700000D03*
X148125000Y-64725000D03*
X147625000Y-66225000D03*
X146625000Y-64225000D03*
X146625000Y-65225000D03*
X147125000Y-66725000D03*
X148125000Y-58000000D03*
X146825000Y-60200000D03*
X149125000Y-58000000D03*
X147625000Y-64225000D03*
X148625000Y-65225000D03*
X147125000Y-64725000D03*
X149125000Y-65725000D03*
X147300000Y-63500000D03*
X149125000Y-64725000D03*
X148625000Y-66225000D03*
X146800000Y-62000000D03*
X146625000Y-66225000D03*
X148125000Y-65725000D03*
X147300000Y-61500000D03*
X147125000Y-65725000D03*
X147300000Y-62500000D03*
X147325000Y-59700000D03*
%TO.N,AGND*%
X152674339Y-70230500D03*
X148900000Y-76500000D03*
X145974339Y-74430500D03*
X147574339Y-72030500D03*
X152300000Y-76400000D03*
X147100000Y-76500000D03*
X155974339Y-76400000D03*
X151574339Y-73730500D03*
%TD*%
D27*
%TO.N,R_MISO*%
X134366000Y-55985565D02*
X134366000Y-59887722D01*
X134366000Y-76484000D02*
X131350000Y-79500000D01*
X133770335Y-71421932D02*
X134126000Y-71421932D01*
X133770346Y-70221932D02*
X134366000Y-70221932D01*
X133530346Y-69861932D02*
X133530346Y-69981932D01*
X134366000Y-73613512D02*
X134366000Y-76484000D01*
X134366000Y-71661932D02*
X134366000Y-71781932D01*
X131350000Y-79500000D02*
X131300000Y-79500000D01*
X134366000Y-70821932D02*
X134126000Y-70821932D01*
D28*
X134326000Y-49326000D02*
X133770000Y-48770000D01*
D27*
X133770000Y-48770000D02*
X134366000Y-49366000D01*
X134366000Y-49366000D02*
X134366000Y-55985565D01*
X134366000Y-59887722D02*
X134366000Y-68781932D01*
X133530335Y-71061932D02*
X133530335Y-71181932D01*
X134366000Y-71781932D02*
X134366000Y-73613512D01*
X134577748Y-70821932D02*
X134366000Y-70821932D01*
X134366000Y-70221932D02*
X134577748Y-70221932D01*
X134573260Y-69621932D02*
X134366000Y-69621932D01*
X134126000Y-70821932D02*
X133770335Y-70821932D01*
X134780520Y-69196452D02*
X134780520Y-69414672D01*
X134789495Y-70433679D02*
X134789495Y-70610185D01*
X134366000Y-69621932D02*
X133770346Y-69621932D01*
X133770335Y-70821932D02*
G75*
G03*
X133530332Y-71061932I-35J-239968D01*
G01*
X134577748Y-70221932D02*
G75*
G02*
X134789468Y-70433679I-48J-211768D01*
G01*
X133530346Y-69981932D02*
G75*
G03*
X133770346Y-70221854I239954J32D01*
G01*
X134780520Y-69414672D02*
G75*
G02*
X134573260Y-69621920I-207220J-28D01*
G01*
X134573260Y-68989192D02*
G75*
G02*
X134780608Y-69196452I40J-207308D01*
G01*
X134789495Y-70610185D02*
G75*
G02*
X134577748Y-70821995I-211795J-15D01*
G01*
X134126000Y-71421932D02*
G75*
G02*
X134365968Y-71661932I0J-239968D01*
G01*
X134366000Y-68781932D02*
G75*
G03*
X134573260Y-68989200I207300J32D01*
G01*
X133770346Y-69621932D02*
G75*
G03*
X133530332Y-69861932I-46J-239968D01*
G01*
X133530335Y-71181932D02*
G75*
G03*
X133770335Y-71421865I239965J32D01*
G01*
D28*
%TO.N,R_IO25*%
X136671232Y-64021232D02*
X137461000Y-63231464D01*
X137461000Y-48293240D02*
X136717760Y-47550000D01*
X137461000Y-63231464D02*
X137461000Y-48293240D01*
X135090000Y-47550000D02*
X133770000Y-46230000D01*
X136717760Y-47550000D02*
X135090000Y-47550000D01*
D27*
%TO.N,R_CLK*%
X135450000Y-49630000D02*
X135450000Y-56138943D01*
X135690000Y-56978943D02*
X135450000Y-56978943D01*
X135450000Y-60417126D02*
X135450000Y-77300000D01*
X135450000Y-57811911D02*
X135450000Y-57938943D01*
X136310000Y-48770000D02*
X135450000Y-49630000D01*
X135450000Y-56978943D02*
X135217032Y-56978943D01*
D28*
X136099000Y-48981000D02*
X136310000Y-48770000D01*
D27*
X135450000Y-57938943D02*
X135450000Y-60417126D01*
X135450000Y-77300000D02*
X131300000Y-81450000D01*
X134984064Y-57211911D02*
X134984064Y-57345975D01*
X136080515Y-56978943D02*
X135690000Y-56978943D01*
X136320515Y-56618943D02*
X136320515Y-56738943D01*
X135690000Y-56378943D02*
X136080515Y-56378943D01*
X136320515Y-56738943D02*
G75*
G02*
X136080515Y-56978915I-240015J43D01*
G01*
X135217032Y-57578943D02*
G75*
G02*
X135449957Y-57811911I-32J-232957D01*
G01*
X134984064Y-57345975D02*
G75*
G03*
X135217032Y-57578936I232936J-25D01*
G01*
X135450000Y-56138943D02*
G75*
G03*
X135690000Y-56378900I240000J43D01*
G01*
X136080515Y-56378943D02*
G75*
G02*
X136320457Y-56618943I-15J-239957D01*
G01*
X135217032Y-56978943D02*
G75*
G03*
X134984043Y-57211911I-32J-232957D01*
G01*
D28*
%TO.N,GND*%
X164000000Y-79300000D02*
X160000000Y-79300000D01*
X158149000Y-88324000D02*
X159835000Y-90010000D01*
X147400000Y-78700000D02*
X147400000Y-89300000D01*
X147100000Y-78400000D02*
X147200000Y-78300000D01*
X153000000Y-78300000D02*
X153100000Y-78200000D01*
X150219000Y-90330000D02*
X158149000Y-82400000D01*
X144700000Y-73700000D02*
X144700000Y-75700000D01*
X144300000Y-74100000D02*
X144700000Y-73700000D01*
X155420000Y-78200000D02*
X156580000Y-78200000D01*
X154260000Y-78200000D02*
X155420000Y-78200000D01*
X149660000Y-90330000D02*
X150219000Y-90330000D01*
X156580000Y-78200000D02*
X157740000Y-78200000D01*
X144300000Y-75000000D02*
X144300000Y-74100000D01*
X144700000Y-74900000D02*
X144600000Y-75000000D01*
X147100000Y-78400000D02*
X147400000Y-78700000D01*
X158900000Y-78200000D02*
X157740000Y-78200000D01*
X160000000Y-79300000D02*
X158900000Y-78200000D01*
X158149000Y-82251000D02*
X158149000Y-82400000D01*
X144600000Y-75000000D02*
X144300000Y-75000000D01*
X153100000Y-78200000D02*
X154260000Y-78200000D01*
X144700000Y-74500000D02*
X144700000Y-74900000D01*
X164000000Y-79300000D02*
X164000000Y-78300000D01*
X147200000Y-78300000D02*
X153000000Y-78300000D01*
X147100000Y-78100000D02*
X147100000Y-78400000D01*
X158149000Y-82400000D02*
X158149000Y-88324000D01*
X144700000Y-75700000D02*
X147100000Y-78100000D01*
%TO.N,3_3V*%
X128950000Y-81650000D02*
X129950000Y-82650000D01*
X142150000Y-70450000D02*
X142150000Y-67225000D01*
D29*
X101350000Y-50900000D02*
X105050000Y-50900000D01*
D28*
X128950000Y-77500000D02*
X128950000Y-81650000D01*
D27*
X107180000Y-48770000D02*
X105050000Y-50900000D01*
D28*
X139575000Y-73025000D02*
X142150000Y-70450000D01*
D29*
X114700000Y-79600000D02*
X106150000Y-71050000D01*
X101350000Y-68650000D02*
X101350000Y-50900000D01*
D28*
X142550000Y-57325000D02*
X145850000Y-54025000D01*
X139625000Y-57325000D02*
X142550000Y-57325000D01*
D29*
X103750000Y-71050000D02*
X101350000Y-68650000D01*
D28*
X140801000Y-58501000D02*
X139625000Y-57325000D01*
D29*
X116800000Y-77500000D02*
X114700000Y-79600000D01*
D28*
X140123660Y-64587500D02*
X140801000Y-63910160D01*
X139575000Y-76350000D02*
X139575000Y-73025000D01*
X129950000Y-82650000D02*
X133275000Y-82650000D01*
X142150000Y-67225000D02*
X139512500Y-64587500D01*
D29*
X128950000Y-77500000D02*
X116800000Y-77500000D01*
D28*
X139512500Y-64587500D02*
X140123660Y-64587500D01*
X133275000Y-82650000D02*
X139575000Y-76350000D01*
D27*
X108370000Y-48770000D02*
X107180000Y-48770000D01*
D28*
X140801000Y-63910160D02*
X140801000Y-58501000D01*
D29*
X106150000Y-71050000D02*
X103750000Y-71050000D01*
D27*
%TO.N,SDA*%
X110910000Y-49940000D02*
X105550000Y-55300000D01*
X105550000Y-55300000D02*
X103875000Y-55300000D01*
X110910000Y-48770000D02*
X110910000Y-49940000D01*
%TO.N,5V*%
X145408339Y-72008339D02*
X145100000Y-71700000D01*
X145100000Y-71700000D02*
X144850000Y-71450000D01*
X145425000Y-75650000D02*
X145408339Y-75633339D01*
X144850000Y-71450000D02*
X144850000Y-71300000D01*
X145408339Y-75633339D02*
X145408339Y-72008339D01*
D30*
%TO.N,24V_BAT*%
X141280000Y-91770000D02*
X141700000Y-91350000D01*
X125827500Y-91325000D02*
X123875000Y-93277500D01*
X129900000Y-91770000D02*
X141280000Y-91770000D01*
X142140000Y-90910000D02*
X142200000Y-90850000D01*
X128392500Y-93277500D02*
X123875000Y-93277500D01*
X126242500Y-90910000D02*
X123875000Y-93277500D01*
X126242500Y-90910000D02*
X142140000Y-90910000D01*
X129900000Y-91770000D02*
X128392500Y-93277500D01*
%TO.N,12V*%
X112600000Y-90200000D02*
X119487500Y-97087500D01*
X119487500Y-97087500D02*
X123875000Y-97087500D01*
D28*
%TO.N,AGND*%
X145974339Y-74430500D02*
X150874339Y-74430500D01*
X150874339Y-74430500D02*
X151574339Y-73730500D01*
%TD*%
%TA.AperFunction,Conductor*%
%TO.N,5V*%
G36*
X155901329Y-56899682D02*
G01*
X155968317Y-56919539D01*
X156013936Y-56972460D01*
X156025010Y-57023832D01*
X156021500Y-59930000D01*
X155565160Y-59930000D01*
X155575673Y-63700000D01*
X156016947Y-63700000D01*
X156016611Y-63977727D01*
X156014727Y-63999111D01*
X155860670Y-64872741D01*
X155829642Y-64935343D01*
X155769695Y-64971233D01*
X155738872Y-64975207D01*
X154265413Y-64978986D01*
X154243735Y-64980190D01*
X154243711Y-64980192D01*
X154217683Y-64983025D01*
X154141434Y-65006957D01*
X154141428Y-65006959D01*
X154101501Y-65028763D01*
X154080114Y-65040442D01*
X154080112Y-65040443D01*
X154080111Y-65040444D01*
X154037855Y-65072078D01*
X154025541Y-65080201D01*
X153996712Y-65096845D01*
X153966812Y-65109230D01*
X153948241Y-65114207D01*
X153942396Y-65115773D01*
X153910299Y-65120000D01*
X153885023Y-65120000D01*
X153852926Y-65115774D01*
X153828506Y-65109230D01*
X153798606Y-65096845D01*
X153773339Y-65082258D01*
X153752529Y-65067168D01*
X153747343Y-65062515D01*
X153747331Y-65062505D01*
X153726439Y-65045712D01*
X153655089Y-65008562D01*
X153588006Y-64989049D01*
X153587997Y-64989047D01*
X153530077Y-64980871D01*
X153530076Y-64980871D01*
X153530073Y-64980871D01*
X153527257Y-64980878D01*
X153508465Y-64980927D01*
X153493497Y-64981758D01*
X153493432Y-64981763D01*
X153486782Y-64982133D01*
X153479077Y-64982971D01*
X153479049Y-64982974D01*
X153460740Y-64984967D01*
X153454808Y-64986208D01*
X153454756Y-64985962D01*
X153446024Y-64987957D01*
X153444315Y-64988207D01*
X153444302Y-64988211D01*
X153416845Y-64998533D01*
X153413595Y-64999754D01*
X153384561Y-65008861D01*
X153382114Y-65010196D01*
X153382745Y-65011353D01*
X153365773Y-65017734D01*
X153365764Y-65017739D01*
X153362566Y-65018941D01*
X153362565Y-65018941D01*
X153347367Y-65028763D01*
X153340261Y-65033025D01*
X153337817Y-65034382D01*
X153337758Y-65034395D01*
X153337232Y-65034682D01*
X153337060Y-65034799D01*
X153323177Y-65042381D01*
X153285695Y-65070439D01*
X153273386Y-65078558D01*
X153241714Y-65096844D01*
X153211813Y-65109230D01*
X153187390Y-65115774D01*
X153155299Y-65120000D01*
X153130023Y-65120000D01*
X153097926Y-65115774D01*
X153073506Y-65109230D01*
X153043605Y-65096844D01*
X153011169Y-65078118D01*
X152995359Y-65067280D01*
X152978951Y-65054057D01*
X152976433Y-65052439D01*
X152948358Y-65034395D01*
X152934583Y-65025542D01*
X152925639Y-65020112D01*
X152925638Y-65020111D01*
X152925637Y-65020111D01*
X152896901Y-65011354D01*
X152838156Y-64993451D01*
X152768475Y-64988468D01*
X152768474Y-64988467D01*
X152768461Y-64988467D01*
X152743326Y-64988211D01*
X152743325Y-64988211D01*
X152743322Y-64988211D01*
X152655319Y-65013079D01*
X152593994Y-65046565D01*
X152547171Y-65081617D01*
X152547164Y-65081623D01*
X152534284Y-65094503D01*
X152508603Y-65114207D01*
X152486714Y-65126844D01*
X152456816Y-65139229D01*
X152443701Y-65142744D01*
X152432395Y-65145773D01*
X152400299Y-65150000D01*
X152375025Y-65150000D01*
X152342932Y-65145775D01*
X152342925Y-65145773D01*
X152316338Y-65138649D01*
X152311035Y-65137353D01*
X152307464Y-65136481D01*
X152296791Y-65134123D01*
X152296789Y-65134122D01*
X152232860Y-65130757D01*
X152166949Y-65107575D01*
X152124033Y-65052439D01*
X152115380Y-65006783D01*
X152125010Y-57014167D01*
X152144775Y-56947153D01*
X152197634Y-56901462D01*
X152249326Y-56890318D01*
X155901329Y-56899682D01*
G37*
%TD.AperFunction*%
%TD*%
%TA.AperFunction,Conductor*%
%TO.N,24V*%
G36*
X152829890Y-68344225D02*
G01*
X152854310Y-68350768D01*
X152884210Y-68363152D01*
X152907226Y-68376440D01*
X152923037Y-68387916D01*
X152923334Y-68387548D01*
X152960122Y-68417195D01*
X153004486Y-68445707D01*
X153011075Y-68449707D01*
X153013433Y-68451139D01*
X153085198Y-68473009D01*
X153100913Y-68477798D01*
X153100917Y-68477799D01*
X153170609Y-68482783D01*
X153195744Y-68483039D01*
X153236108Y-68471633D01*
X153283748Y-68458171D01*
X153283749Y-68458170D01*
X153283754Y-68458169D01*
X153345077Y-68424684D01*
X153384680Y-68395037D01*
X153395451Y-68386974D01*
X153395564Y-68387125D01*
X153410451Y-68376521D01*
X153433602Y-68363155D01*
X153463506Y-68350768D01*
X153479452Y-68346496D01*
X153487934Y-68344224D01*
X153520022Y-68340000D01*
X153545298Y-68340000D01*
X153577390Y-68344225D01*
X153601810Y-68350768D01*
X153631710Y-68363152D01*
X153654726Y-68376440D01*
X153670537Y-68387916D01*
X153670834Y-68387548D01*
X153707622Y-68417195D01*
X153751986Y-68445707D01*
X153758575Y-68449707D01*
X153760933Y-68451139D01*
X153832698Y-68473009D01*
X153848413Y-68477798D01*
X153848417Y-68477799D01*
X153918109Y-68482783D01*
X153943244Y-68483039D01*
X153983608Y-68471633D01*
X154031248Y-68458171D01*
X154031249Y-68458170D01*
X154031254Y-68458169D01*
X154092577Y-68424684D01*
X154132180Y-68395037D01*
X154142951Y-68386974D01*
X154143064Y-68387125D01*
X154157951Y-68376521D01*
X154181102Y-68363155D01*
X154211006Y-68350768D01*
X154226952Y-68346496D01*
X154235434Y-68344224D01*
X154267522Y-68340000D01*
X154292798Y-68340000D01*
X154324890Y-68344225D01*
X154349310Y-68350768D01*
X154379213Y-68363153D01*
X154401107Y-68375794D01*
X154426786Y-68395498D01*
X154451974Y-68420686D01*
X154465960Y-68437565D01*
X154466481Y-68438126D01*
X154466482Y-68438127D01*
X154537985Y-68495149D01*
X154613351Y-68512351D01*
X154627143Y-68515499D01*
X154627148Y-68515500D01*
X155428168Y-68515500D01*
X155428172Y-68515500D01*
X155428177Y-68515499D01*
X155428192Y-68515499D01*
X155442080Y-68514457D01*
X155458792Y-68513206D01*
X155543928Y-68479796D01*
X155543930Y-68479794D01*
X155544429Y-68479454D01*
X155579943Y-68444000D01*
X155579987Y-68444044D01*
X155628608Y-68395421D01*
X155628689Y-68395377D01*
X155654205Y-68375797D01*
X155676105Y-68363153D01*
X155706006Y-68350768D01*
X155721952Y-68346496D01*
X155730434Y-68344224D01*
X155762522Y-68340000D01*
X155787798Y-68340000D01*
X155819890Y-68344225D01*
X155844310Y-68350768D01*
X155874213Y-68363153D01*
X155896107Y-68375794D01*
X155921786Y-68395498D01*
X155946974Y-68420686D01*
X155960961Y-68437565D01*
X155961481Y-68438126D01*
X155968472Y-68443701D01*
X156008613Y-68500889D01*
X156015160Y-68540649D01*
X156015160Y-69466704D01*
X155995475Y-69533743D01*
X155942671Y-69579498D01*
X155891867Y-69590702D01*
X152629867Y-69609289D01*
X152562716Y-69589987D01*
X152516661Y-69537444D01*
X152505160Y-69485291D01*
X152505160Y-68556318D01*
X152506389Y-68552130D01*
X152505448Y-68547867D01*
X152516148Y-68518896D01*
X152524845Y-68489279D01*
X152528570Y-68485265D01*
X152529656Y-68482325D01*
X152541220Y-68471633D01*
X152554533Y-68457289D01*
X152558733Y-68454123D01*
X152615704Y-68418327D01*
X152644663Y-68389367D01*
X152651583Y-68384153D01*
X152654988Y-68382870D01*
X152664205Y-68375797D01*
X152686104Y-68363154D01*
X152716003Y-68350769D01*
X152740434Y-68344223D01*
X152772522Y-68340000D01*
X152797798Y-68340000D01*
X152829890Y-68344225D01*
G37*
%TD.AperFunction*%
%TD*%
%TA.AperFunction,Conductor*%
%TO.N,GND*%
G36*
X145067839Y-72305812D02*
G01*
X145067839Y-74716835D01*
X144767247Y-75482753D01*
X143091586Y-75782753D01*
X140720858Y-75782753D01*
X140665404Y-75769662D01*
X140160132Y-75517026D01*
X140108973Y-75469439D01*
X140091586Y-75406117D01*
X140091586Y-73545251D01*
X140111271Y-73478212D01*
X140141825Y-73445575D01*
X140375000Y-73273022D01*
X140767247Y-72982753D01*
X144417247Y-72300000D01*
X145067839Y-72305812D01*
G37*
%TD.AperFunction*%
%TA.AperFunction,Conductor*%
G36*
X146010763Y-72314237D02*
G01*
X145748839Y-72981627D01*
X145748839Y-72311896D01*
X146010763Y-72314237D01*
G37*
%TD.AperFunction*%
%TD*%
%TA.AperFunction,Conductor*%
%TO.N,GND*%
G36*
X151758574Y-57125185D02*
G01*
X151804329Y-57177989D01*
X151815534Y-57229357D01*
X151824976Y-65528955D01*
X149711149Y-65501446D01*
X149705562Y-57477769D01*
X149714376Y-57431777D01*
X149813331Y-57183575D01*
X149856443Y-57128595D01*
X149922437Y-57105649D01*
X149928513Y-57105500D01*
X151691535Y-57105500D01*
X151758574Y-57125185D01*
G37*
%TD.AperFunction*%
%TD*%
%TA.AperFunction,Conductor*%
%TO.N,GND*%
G36*
X163093033Y-63819216D02*
G01*
X163138791Y-63872017D01*
X163150000Y-63923536D01*
X163150000Y-68200000D01*
X163100000Y-68310000D01*
X156122148Y-68310000D01*
X156115645Y-68298737D01*
X156036423Y-68219515D01*
X155939397Y-68163497D01*
X155831178Y-68134500D01*
X155719142Y-68134500D01*
X155610923Y-68163497D01*
X155610920Y-68163498D01*
X155513900Y-68219513D01*
X155513894Y-68219517D01*
X155434677Y-68298734D01*
X155434673Y-68298740D01*
X155428172Y-68310000D01*
X154627148Y-68310000D01*
X154620645Y-68298737D01*
X154541423Y-68219515D01*
X154444397Y-68163497D01*
X154336178Y-68134500D01*
X154224142Y-68134500D01*
X154115923Y-68163497D01*
X154115920Y-68163498D01*
X154018900Y-68219513D01*
X154018894Y-68219517D01*
X153994091Y-68244321D01*
X153932768Y-68277806D01*
X153863076Y-68272822D01*
X153818729Y-68244321D01*
X153793925Y-68219517D01*
X153793923Y-68219515D01*
X153696897Y-68163497D01*
X153588678Y-68134500D01*
X153476642Y-68134500D01*
X153368423Y-68163497D01*
X153368420Y-68163498D01*
X153271400Y-68219513D01*
X153271394Y-68219517D01*
X153246591Y-68244321D01*
X153185268Y-68277806D01*
X153115576Y-68272822D01*
X153071229Y-68244321D01*
X153046425Y-68219517D01*
X153046423Y-68219515D01*
X152949397Y-68163497D01*
X152841178Y-68134500D01*
X152729142Y-68134500D01*
X152620923Y-68163497D01*
X152620920Y-68163498D01*
X152523900Y-68219513D01*
X152523894Y-68219517D01*
X152470395Y-68273015D01*
X152035160Y-67810000D01*
X152107125Y-65453140D01*
X152128846Y-65386733D01*
X152183022Y-65342611D01*
X152252452Y-65334783D01*
X152263150Y-65337147D01*
X152331642Y-65355500D01*
X152331644Y-65355500D01*
X152443676Y-65355500D01*
X152443678Y-65355500D01*
X152551897Y-65326503D01*
X152648923Y-65270485D01*
X152692479Y-65226929D01*
X152753802Y-65193444D01*
X152823494Y-65198428D01*
X152867841Y-65226929D01*
X152881397Y-65240485D01*
X152978423Y-65296503D01*
X153086642Y-65325500D01*
X153086644Y-65325500D01*
X153198676Y-65325500D01*
X153198678Y-65325500D01*
X153306897Y-65296503D01*
X153403923Y-65240485D01*
X153421663Y-65222744D01*
X153448456Y-65208113D01*
X153474106Y-65191537D01*
X153480534Y-65190595D01*
X153482981Y-65189260D01*
X153509018Y-65186426D01*
X153530606Y-65186370D01*
X153597693Y-65205884D01*
X153618601Y-65222689D01*
X153636397Y-65240485D01*
X153733423Y-65296503D01*
X153841642Y-65325500D01*
X153841644Y-65325500D01*
X153953676Y-65325500D01*
X153953678Y-65325500D01*
X154061897Y-65296503D01*
X154158923Y-65240485D01*
X154178604Y-65220803D01*
X154239922Y-65187319D01*
X154265956Y-65184485D01*
X156015160Y-65180000D01*
X156240449Y-63902422D01*
X156271477Y-63839821D01*
X156331424Y-63803931D01*
X156362553Y-63799957D01*
X163025994Y-63799536D01*
X163093033Y-63819216D01*
G37*
%TD.AperFunction*%
%TD*%
%TA.AperFunction,Conductor*%
%TO.N,AGND*%
G36*
X156217378Y-69950185D02*
G01*
X156263133Y-70002989D01*
X156274339Y-70054500D01*
X156274339Y-76576000D01*
X156254654Y-76643039D01*
X156201850Y-76688794D01*
X156150339Y-76700000D01*
X146176333Y-76700000D01*
X146109294Y-76680315D01*
X146088652Y-76663681D01*
X145628846Y-76203875D01*
X145595361Y-76142552D01*
X145600345Y-76072860D01*
X145642217Y-76016927D01*
X145654521Y-76008811D01*
X145686263Y-75990485D01*
X145765485Y-75911263D01*
X145821503Y-75814237D01*
X145850500Y-75706018D01*
X145850500Y-75593982D01*
X145821503Y-75485763D01*
X145765485Y-75388737D01*
X145765452Y-75388679D01*
X145748839Y-75326679D01*
X145748839Y-73620722D01*
X145768524Y-73553683D01*
X145821328Y-73507928D01*
X145839643Y-73501248D01*
X147174339Y-73130500D01*
X147174339Y-71854500D01*
X147194024Y-71787461D01*
X147246828Y-71741706D01*
X147298339Y-71730500D01*
X152374339Y-71730500D01*
X152374339Y-70054500D01*
X152394024Y-69987461D01*
X152446828Y-69941706D01*
X152498339Y-69930500D01*
X156150339Y-69930500D01*
X156217378Y-69950185D01*
G37*
%TD.AperFunction*%
%TD*%
%TA.AperFunction,Conductor*%
%TO.N,5V*%
G36*
X163158523Y-59949685D02*
G01*
X163204278Y-60002489D01*
X163215484Y-60053675D01*
X163224450Y-63479139D01*
X163204941Y-63546230D01*
X163152257Y-63592123D01*
X163083124Y-63602248D01*
X163082811Y-63602203D01*
X163025983Y-63594036D01*
X163025981Y-63594036D01*
X163025141Y-63594036D01*
X156362541Y-63594456D01*
X156339642Y-63595913D01*
X156336530Y-63596111D01*
X156305401Y-63600085D01*
X156305398Y-63600085D01*
X156305397Y-63600086D01*
X156225865Y-63627614D01*
X156225861Y-63627616D01*
X156165927Y-63663498D01*
X156165924Y-63663500D01*
X156144322Y-63678299D01*
X156077891Y-63699946D01*
X156074244Y-63700000D01*
X156016947Y-63700000D01*
X155575673Y-63700000D01*
X155565160Y-59930000D01*
X156021501Y-59930000D01*
X163091484Y-59930000D01*
X163158523Y-59949685D01*
G37*
%TD.AperFunction*%
%TD*%
%TA.AperFunction,Conductor*%
%TO.N,GND*%
G36*
X163582583Y-65681965D02*
G01*
X164078612Y-65688421D01*
X164145389Y-65708976D01*
X164190453Y-65762371D01*
X164200994Y-65811394D01*
X164299996Y-77899511D01*
X164299997Y-77900000D01*
X146900000Y-77900000D01*
X146900000Y-78185244D01*
X146028337Y-78199535D01*
X145974277Y-78188110D01*
X144876727Y-77680798D01*
X140770379Y-75782753D01*
X143091586Y-75782753D01*
X144767247Y-75482753D01*
X145067839Y-74716835D01*
X145067839Y-75384394D01*
X145051227Y-75446393D01*
X145028497Y-75485762D01*
X145028497Y-75485763D01*
X144999500Y-75593982D01*
X144999500Y-75706018D01*
X145028497Y-75814237D01*
X145084515Y-75911263D01*
X145163737Y-75990485D01*
X145260763Y-76046503D01*
X145300304Y-76057098D01*
X145359963Y-76093461D01*
X145385111Y-76145229D01*
X145387716Y-76144494D01*
X145414996Y-76241034D01*
X145448485Y-76302364D01*
X145483525Y-76349171D01*
X145483529Y-76349175D01*
X145483536Y-76349185D01*
X145483543Y-76349192D01*
X145943336Y-76808986D01*
X145943337Y-76808987D01*
X145959687Y-76823674D01*
X145959701Y-76823686D01*
X145959709Y-76823693D01*
X145968107Y-76830460D01*
X145980350Y-76840327D01*
X146051395Y-76877490D01*
X146118427Y-76897173D01*
X146118429Y-76897173D01*
X146118435Y-76897175D01*
X146176333Y-76905500D01*
X146953015Y-76905500D01*
X146985107Y-76909725D01*
X147008257Y-76915927D01*
X147043982Y-76925500D01*
X147043984Y-76925500D01*
X147156016Y-76925500D01*
X147156018Y-76925500D01*
X147197748Y-76914318D01*
X147214893Y-76909725D01*
X147246985Y-76905500D01*
X148753015Y-76905500D01*
X148785107Y-76909725D01*
X148808257Y-76915927D01*
X148843982Y-76925500D01*
X148843984Y-76925500D01*
X148956016Y-76925500D01*
X148956018Y-76925500D01*
X148997748Y-76914318D01*
X149014893Y-76909725D01*
X149046985Y-76905500D01*
X156150330Y-76905500D01*
X156150339Y-76905500D01*
X156194023Y-76900803D01*
X156223214Y-76894452D01*
X156245513Y-76889602D01*
X156245529Y-76889598D01*
X156245534Y-76889597D01*
X156255712Y-76887110D01*
X156336424Y-76844100D01*
X156389228Y-76798345D01*
X156407182Y-76780754D01*
X156451829Y-76700937D01*
X156471514Y-76633898D01*
X156479839Y-76576000D01*
X156479839Y-70943982D01*
X159974500Y-70943982D01*
X159974500Y-71056018D01*
X160003497Y-71164237D01*
X160059515Y-71261263D01*
X160138737Y-71340485D01*
X160235763Y-71396503D01*
X160343982Y-71425500D01*
X160343984Y-71425500D01*
X160456016Y-71425500D01*
X160456018Y-71425500D01*
X160564237Y-71396503D01*
X160661263Y-71340485D01*
X160728988Y-71272759D01*
X160790307Y-71239277D01*
X160859999Y-71244261D01*
X160904347Y-71272762D01*
X160972070Y-71340485D01*
X161069096Y-71396503D01*
X161177315Y-71425500D01*
X161177317Y-71425500D01*
X161289349Y-71425500D01*
X161289351Y-71425500D01*
X161397570Y-71396503D01*
X161494596Y-71340485D01*
X161562319Y-71272762D01*
X161623642Y-71239277D01*
X161693334Y-71244261D01*
X161737681Y-71272762D01*
X161805404Y-71340485D01*
X161902430Y-71396503D01*
X162010649Y-71425500D01*
X162010651Y-71425500D01*
X162122683Y-71425500D01*
X162122685Y-71425500D01*
X162230904Y-71396503D01*
X162327930Y-71340485D01*
X162395655Y-71272759D01*
X162456974Y-71239277D01*
X162526666Y-71244261D01*
X162571014Y-71272762D01*
X162638737Y-71340485D01*
X162735763Y-71396503D01*
X162843982Y-71425500D01*
X162843984Y-71425500D01*
X162956016Y-71425500D01*
X162956018Y-71425500D01*
X163064237Y-71396503D01*
X163161263Y-71340485D01*
X163240485Y-71261263D01*
X163296503Y-71164237D01*
X163325500Y-71056018D01*
X163325500Y-70943982D01*
X163296503Y-70835763D01*
X163240485Y-70738737D01*
X163161263Y-70659515D01*
X163064237Y-70603497D01*
X162956018Y-70574500D01*
X162843982Y-70574500D01*
X162735763Y-70603497D01*
X162735760Y-70603498D01*
X162638740Y-70659513D01*
X162638738Y-70659514D01*
X162571014Y-70727238D01*
X162509690Y-70760722D01*
X162439999Y-70755737D01*
X162395652Y-70727237D01*
X162327932Y-70659517D01*
X162327930Y-70659515D01*
X162230904Y-70603497D01*
X162122685Y-70574500D01*
X162010649Y-70574500D01*
X161902430Y-70603497D01*
X161902427Y-70603498D01*
X161805407Y-70659513D01*
X161805401Y-70659517D01*
X161737681Y-70727238D01*
X161676358Y-70760723D01*
X161606666Y-70755739D01*
X161562319Y-70727238D01*
X161494598Y-70659517D01*
X161494596Y-70659515D01*
X161397570Y-70603497D01*
X161289351Y-70574500D01*
X161177315Y-70574500D01*
X161069096Y-70603497D01*
X161069093Y-70603498D01*
X160972073Y-70659513D01*
X160972071Y-70659514D01*
X160904347Y-70727238D01*
X160843023Y-70760722D01*
X160773332Y-70755737D01*
X160728985Y-70727237D01*
X160661265Y-70659517D01*
X160661263Y-70659515D01*
X160564237Y-70603497D01*
X160456018Y-70574500D01*
X160343982Y-70574500D01*
X160235763Y-70603497D01*
X160235760Y-70603498D01*
X160138740Y-70659513D01*
X160138734Y-70659517D01*
X160059517Y-70738734D01*
X160059513Y-70738740D01*
X160003498Y-70835760D01*
X160003497Y-70835763D01*
X159974500Y-70943982D01*
X156479839Y-70943982D01*
X156479839Y-70054500D01*
X156475142Y-70010816D01*
X156471236Y-69992864D01*
X156463941Y-69959325D01*
X156463687Y-69958289D01*
X156461449Y-69949127D01*
X156418439Y-69868415D01*
X156372684Y-69815611D01*
X156372678Y-69815604D01*
X156355096Y-69797660D01*
X156355095Y-69797659D01*
X156355093Y-69797657D01*
X156355091Y-69797656D01*
X156355089Y-69797654D01*
X156275279Y-69753011D01*
X156275274Y-69753009D01*
X156274901Y-69752900D01*
X156274496Y-69752781D01*
X156274056Y-69752498D01*
X156268852Y-69750311D01*
X156269235Y-69749399D01*
X156215721Y-69715006D01*
X156186697Y-69651450D01*
X156193412Y-69599120D01*
X156190688Y-69598321D01*
X156192648Y-69591642D01*
X156192650Y-69591641D01*
X156212335Y-69524602D01*
X156220660Y-69466704D01*
X156220660Y-68540649D01*
X156220660Y-68540641D01*
X156217929Y-68507261D01*
X156217929Y-68507260D01*
X156211382Y-68467500D01*
X156211382Y-68467498D01*
X156176814Y-68382827D01*
X156136673Y-68325639D01*
X156122441Y-68310509D01*
X156122147Y-68310000D01*
X163100000Y-68310000D01*
X163150000Y-68200000D01*
X163150000Y-65676335D01*
X163582583Y-65681965D01*
G37*
%TD.AperFunction*%
%TA.AperFunction,Conductor*%
G36*
X152104699Y-65532595D02*
G01*
X152035160Y-67810000D01*
X152466797Y-68269188D01*
X152449390Y-68280126D01*
X152435044Y-68290014D01*
X152430842Y-68293182D01*
X152408554Y-68313300D01*
X152408544Y-68313309D01*
X152403910Y-68317493D01*
X152397658Y-68324228D01*
X152396079Y-68325812D01*
X152395795Y-68325967D01*
X152392469Y-68329289D01*
X152390076Y-68331502D01*
X152386875Y-68334527D01*
X152382186Y-68340140D01*
X152382030Y-68340009D01*
X152376804Y-68346699D01*
X152374234Y-68349468D01*
X152372317Y-68351563D01*
X152353760Y-68384736D01*
X152351694Y-68388428D01*
X152336887Y-68411118D01*
X152335801Y-68414058D01*
X152337090Y-68414534D01*
X152328044Y-68430707D01*
X152328044Y-68430708D01*
X152327673Y-68431370D01*
X152327668Y-68431383D01*
X152322139Y-68450210D01*
X152319498Y-68458192D01*
X152318021Y-68462195D01*
X152318019Y-68462196D01*
X152318014Y-68462212D01*
X152318013Y-68462211D01*
X152318011Y-68462223D01*
X152312675Y-68476672D01*
X152305431Y-68500711D01*
X152305375Y-68508548D01*
X152304118Y-68525281D01*
X152299661Y-68556306D01*
X152299660Y-68556325D01*
X152299660Y-69485283D01*
X152299661Y-69485306D01*
X152304480Y-69529532D01*
X152304481Y-69529542D01*
X152315985Y-69581708D01*
X152318654Y-69592431D01*
X152318655Y-69592434D01*
X152334700Y-69622135D01*
X152340712Y-69633264D01*
X152355256Y-69701604D01*
X152330544Y-69766957D01*
X152312816Y-69785913D01*
X152259444Y-69832160D01*
X152241499Y-69849742D01*
X152241493Y-69849749D01*
X152196850Y-69929559D01*
X152196848Y-69929564D01*
X152177165Y-69996596D01*
X152177164Y-69996601D01*
X152177164Y-69996602D01*
X152168841Y-70054492D01*
X152168839Y-70054503D01*
X152168839Y-71401000D01*
X152149154Y-71468039D01*
X152096350Y-71513794D01*
X152044839Y-71525000D01*
X147298331Y-71525000D01*
X147254652Y-71529697D01*
X147203164Y-71540897D01*
X147192966Y-71543390D01*
X147192963Y-71543391D01*
X147112255Y-71586399D01*
X147112252Y-71586401D01*
X147059443Y-71632160D01*
X147041499Y-71649742D01*
X147041493Y-71649749D01*
X146996850Y-71729559D01*
X146996848Y-71729564D01*
X146977165Y-71796596D01*
X146968839Y-71854503D01*
X146968839Y-72880051D01*
X146949154Y-72947090D01*
X146896350Y-72992845D01*
X146878027Y-72999527D01*
X145906027Y-73269527D01*
X145836165Y-73268503D01*
X145777946Y-73229872D01*
X145749856Y-73165898D01*
X145748839Y-73150051D01*
X145748839Y-72981627D01*
X146010763Y-72314237D01*
X145748839Y-72311896D01*
X145748839Y-71963512D01*
X145748839Y-71963511D01*
X145725634Y-71876911D01*
X145680807Y-71799267D01*
X145617411Y-71735871D01*
X145311819Y-71430279D01*
X145278334Y-71368956D01*
X145275500Y-71342598D01*
X145275500Y-71243984D01*
X145275500Y-71243982D01*
X145246503Y-71135763D01*
X145190485Y-71038737D01*
X145111263Y-70959515D01*
X145014237Y-70903497D01*
X144906018Y-70874500D01*
X144793982Y-70874500D01*
X144685763Y-70903497D01*
X144685760Y-70903498D01*
X144588740Y-70959513D01*
X144588734Y-70959517D01*
X144509517Y-71038734D01*
X144509513Y-71038740D01*
X144453498Y-71135760D01*
X144453497Y-71135763D01*
X144424500Y-71243982D01*
X144424500Y-71356018D01*
X144453497Y-71464237D01*
X144509515Y-71561263D01*
X144509517Y-71561265D01*
X144525291Y-71577039D01*
X144544997Y-71602720D01*
X144577529Y-71659068D01*
X144577533Y-71659073D01*
X145031520Y-72113060D01*
X145065005Y-72174383D01*
X145067839Y-72200741D01*
X145067839Y-72305812D01*
X144417247Y-72300000D01*
X140767247Y-72982753D01*
X140387397Y-73263848D01*
X140393045Y-73256494D01*
X140399781Y-73250494D01*
X140430334Y-73217858D01*
X140432843Y-73215129D01*
X140477490Y-73135312D01*
X140497175Y-73068273D01*
X140505500Y-73010375D01*
X140505500Y-72874603D01*
X140525185Y-72807564D01*
X140545316Y-72783559D01*
X145318902Y-68369941D01*
X145348770Y-68335420D01*
X145379772Y-68290295D01*
X145401282Y-68250033D01*
X145410111Y-68227887D01*
X145453220Y-68172904D01*
X145505805Y-68151349D01*
X149600000Y-67500000D01*
X149600000Y-65625623D01*
X149619685Y-65558584D01*
X149672489Y-65512829D01*
X149706984Y-65505560D01*
X149711147Y-65501446D01*
X152104699Y-65532595D01*
G37*
%TD.AperFunction*%
%TD*%
%TA.AperFunction,Conductor*%
%TO.N,GND*%
G36*
X114440272Y-46521263D02*
G01*
X114487400Y-46572845D01*
X114500000Y-46627306D01*
X114500000Y-48041811D01*
X114480315Y-48108850D01*
X114427511Y-48154605D01*
X114358353Y-48164549D01*
X114294797Y-48135524D01*
X114272899Y-48110703D01*
X114265979Y-48100347D01*
X114265974Y-48100341D01*
X114119657Y-47954024D01*
X114033626Y-47896541D01*
X113947598Y-47839059D01*
X113756420Y-47759870D01*
X113756412Y-47759868D01*
X113553469Y-47719500D01*
X113553465Y-47719500D01*
X113346535Y-47719500D01*
X113346530Y-47719500D01*
X113143587Y-47759868D01*
X113143579Y-47759870D01*
X112952403Y-47839058D01*
X112780342Y-47954024D01*
X112634024Y-48100342D01*
X112519058Y-48272403D01*
X112439870Y-48463579D01*
X112439868Y-48463587D01*
X112399500Y-48666530D01*
X112399500Y-48873469D01*
X112439868Y-49076412D01*
X112439870Y-49076420D01*
X112519058Y-49267596D01*
X112634024Y-49439657D01*
X112780342Y-49585975D01*
X112780345Y-49585977D01*
X112952402Y-49700941D01*
X113143580Y-49780130D01*
X113346530Y-49820499D01*
X113346534Y-49820500D01*
X113346535Y-49820500D01*
X113553466Y-49820500D01*
X113553467Y-49820499D01*
X113756420Y-49780130D01*
X113947598Y-49700941D01*
X114119655Y-49585977D01*
X114265977Y-49439655D01*
X114272897Y-49429299D01*
X114326508Y-49384493D01*
X114395833Y-49375784D01*
X114458861Y-49405938D01*
X114495581Y-49465381D01*
X114500000Y-49498188D01*
X114500000Y-50043077D01*
X114480315Y-50110116D01*
X114427511Y-50155871D01*
X114424643Y-50157138D01*
X109347001Y-52322602D01*
X109277614Y-52330793D01*
X109214812Y-52300171D01*
X109178536Y-52240457D01*
X109180302Y-52170609D01*
X109210674Y-52120864D01*
X111108862Y-50222675D01*
X111108867Y-50222672D01*
X111119070Y-50212468D01*
X111119072Y-50212468D01*
X111182468Y-50149072D01*
X111227295Y-50071428D01*
X111250500Y-49984828D01*
X111250500Y-49848867D01*
X111270185Y-49781828D01*
X111322989Y-49736073D01*
X111327048Y-49734306D01*
X111342842Y-49727763D01*
X111407598Y-49700941D01*
X111579655Y-49585977D01*
X111725977Y-49439655D01*
X111840941Y-49267598D01*
X111920130Y-49076420D01*
X111960500Y-48873465D01*
X111960500Y-48666535D01*
X111920130Y-48463580D01*
X111840941Y-48272402D01*
X111725977Y-48100345D01*
X111725975Y-48100342D01*
X111579657Y-47954024D01*
X111493626Y-47896541D01*
X111407598Y-47839059D01*
X111216420Y-47759870D01*
X111216412Y-47759868D01*
X111013469Y-47719500D01*
X111013465Y-47719500D01*
X110806535Y-47719500D01*
X110806530Y-47719500D01*
X110603587Y-47759868D01*
X110603580Y-47759870D01*
X110561099Y-47777465D01*
X110561074Y-47777476D01*
X110412402Y-47839059D01*
X110372699Y-47865586D01*
X110372689Y-47865592D01*
X110240345Y-47954022D01*
X110240341Y-47954025D01*
X110094024Y-48100342D01*
X109979058Y-48272403D01*
X109899870Y-48463579D01*
X109899868Y-48463587D01*
X109859500Y-48666530D01*
X109859500Y-48873469D01*
X109899868Y-49076412D01*
X109899870Y-49076420D01*
X109979058Y-49267596D01*
X110094024Y-49439657D01*
X110240342Y-49585975D01*
X110240345Y-49585977D01*
X110412402Y-49700941D01*
X110415235Y-49702114D01*
X110421343Y-49704645D01*
X110475747Y-49748485D01*
X110497812Y-49814779D01*
X110480533Y-49882479D01*
X110461572Y-49906887D01*
X107669085Y-52699373D01*
X107607762Y-52732858D01*
X107596483Y-52734772D01*
X106338849Y-52888849D01*
X105048535Y-54789711D01*
X104970179Y-54905143D01*
X104964403Y-54909898D01*
X104961296Y-54916703D01*
X104937803Y-54931800D01*
X104916241Y-54949555D01*
X104907348Y-54951372D01*
X104902518Y-54954477D01*
X104867583Y-54959500D01*
X104826518Y-54959500D01*
X104759479Y-54939815D01*
X104723416Y-54904391D01*
X104646789Y-54789711D01*
X104646786Y-54789707D01*
X104535292Y-54678213D01*
X104535288Y-54678210D01*
X104404185Y-54590609D01*
X104404172Y-54590602D01*
X104258501Y-54530264D01*
X104258489Y-54530261D01*
X104103845Y-54499500D01*
X104103842Y-54499500D01*
X103396158Y-54499500D01*
X103396155Y-54499500D01*
X103241510Y-54530261D01*
X103241498Y-54530264D01*
X103095827Y-54590602D01*
X103095814Y-54590609D01*
X102964711Y-54678210D01*
X102964707Y-54678213D01*
X102853213Y-54789707D01*
X102853210Y-54789711D01*
X102765609Y-54920814D01*
X102765602Y-54920827D01*
X102705264Y-55066498D01*
X102705261Y-55066510D01*
X102674500Y-55221153D01*
X102674500Y-55378846D01*
X102705261Y-55533489D01*
X102705264Y-55533501D01*
X102765602Y-55679172D01*
X102765609Y-55679185D01*
X102853210Y-55810288D01*
X102853213Y-55810292D01*
X102964707Y-55921786D01*
X102964711Y-55921789D01*
X103095814Y-56009390D01*
X103095827Y-56009397D01*
X103241498Y-56069735D01*
X103241503Y-56069737D01*
X103396153Y-56100499D01*
X103396156Y-56100500D01*
X103924722Y-56100500D01*
X103934908Y-56103491D01*
X103945451Y-56102245D01*
X103967853Y-56113164D01*
X103991761Y-56120185D01*
X103998711Y-56128206D01*
X104008256Y-56132859D01*
X104021198Y-56154157D01*
X104037516Y-56172989D01*
X104039026Y-56183496D01*
X104044540Y-56192569D01*
X104043913Y-56217480D01*
X104047460Y-56242147D01*
X104043003Y-56253651D01*
X104042783Y-56262417D01*
X104027318Y-56294142D01*
X103924819Y-56445142D01*
X103870881Y-56489554D01*
X103822223Y-56499500D01*
X103396155Y-56499500D01*
X103241510Y-56530261D01*
X103241498Y-56530264D01*
X103095827Y-56590602D01*
X103095814Y-56590609D01*
X102964711Y-56678210D01*
X102964707Y-56678213D01*
X102853213Y-56789707D01*
X102849753Y-56794887D01*
X102796142Y-56839694D01*
X102746648Y-56850000D01*
X102062222Y-56850000D01*
X101995183Y-56830315D01*
X101949428Y-56777511D01*
X101939484Y-56708353D01*
X101942567Y-56693462D01*
X101946714Y-56678213D01*
X102655144Y-54073016D01*
X102691728Y-54013496D01*
X102754688Y-53983200D01*
X102824032Y-53991753D01*
X102848424Y-54005785D01*
X102912118Y-54052793D01*
X102954845Y-54067744D01*
X103040299Y-54097646D01*
X103070730Y-54100500D01*
X103070734Y-54100500D01*
X104429270Y-54100500D01*
X104459699Y-54097646D01*
X104459701Y-54097646D01*
X104530088Y-54073016D01*
X104587882Y-54052793D01*
X104697150Y-53972150D01*
X104777793Y-53862882D01*
X104800219Y-53798790D01*
X104822646Y-53734701D01*
X104822646Y-53734699D01*
X104825500Y-53704269D01*
X104825500Y-52895730D01*
X104822646Y-52865300D01*
X104822646Y-52865298D01*
X104777793Y-52737119D01*
X104777792Y-52737117D01*
X104697150Y-52627850D01*
X104587882Y-52547207D01*
X104587880Y-52547206D01*
X104459700Y-52502353D01*
X104429270Y-52499500D01*
X104429266Y-52499500D01*
X103245253Y-52499500D01*
X103178214Y-52479815D01*
X103132459Y-52427011D01*
X103122515Y-52357853D01*
X103125598Y-52342962D01*
X103131135Y-52322602D01*
X103397800Y-51341962D01*
X103434386Y-51282437D01*
X103497346Y-51252141D01*
X103517455Y-51250500D01*
X105096142Y-51250500D01*
X105096144Y-51250500D01*
X105185288Y-51226614D01*
X105265212Y-51180469D01*
X105330469Y-51115212D01*
X105341625Y-51095887D01*
X105361327Y-51070211D01*
X105807856Y-50623683D01*
X105867571Y-50590561D01*
X109195339Y-49820500D01*
X109239748Y-49820500D01*
X109298231Y-49808867D01*
X109326109Y-49790239D01*
X109500000Y-49750000D01*
X109500000Y-48078893D01*
X109519685Y-48011854D01*
X109571461Y-47966574D01*
X111042973Y-47278286D01*
X111071294Y-47268997D01*
X111216420Y-47240130D01*
X111407598Y-47160941D01*
X111579655Y-47045977D01*
X111599419Y-47026212D01*
X111634555Y-47001578D01*
X112576578Y-46560955D01*
X112625846Y-46549319D01*
X114372738Y-46503349D01*
X114440272Y-46521263D01*
G37*
%TD.AperFunction*%
%TD*%
%TA.AperFunction,Conductor*%
%TO.N,GND*%
G36*
X137695331Y-46311645D02*
G01*
X137762053Y-46332374D01*
X137806977Y-46385887D01*
X137815009Y-46411439D01*
X137839868Y-46536412D01*
X137839870Y-46536420D01*
X137919058Y-46727596D01*
X138034024Y-46899657D01*
X138180342Y-47045975D01*
X138180345Y-47045977D01*
X138352402Y-47160941D01*
X138543580Y-47240130D01*
X138746530Y-47280499D01*
X138746534Y-47280500D01*
X138746535Y-47280500D01*
X138953466Y-47280500D01*
X138953467Y-47280499D01*
X139156420Y-47240130D01*
X139347598Y-47160941D01*
X139519655Y-47045977D01*
X139665977Y-46899655D01*
X139780941Y-46727598D01*
X139860130Y-46536420D01*
X139877823Y-46447468D01*
X139892971Y-46418508D01*
X139907006Y-46389005D01*
X139909075Y-46387720D01*
X139910205Y-46385561D01*
X139938605Y-46369388D01*
X139966367Y-46352154D01*
X139969594Y-46351741D01*
X139970921Y-46350986D01*
X140001369Y-46347677D01*
X140027939Y-46348092D01*
X140094661Y-46368822D01*
X140139585Y-46422334D01*
X140150000Y-46472077D01*
X140150000Y-49137999D01*
X140130315Y-49205038D01*
X140100400Y-49237199D01*
X138749999Y-50249999D01*
X138929388Y-56573461D01*
X138911613Y-56641031D01*
X138874330Y-56680078D01*
X138839713Y-56703208D01*
X138839707Y-56703213D01*
X138728213Y-56814707D01*
X138728210Y-56814711D01*
X138640609Y-56945814D01*
X138640602Y-56945827D01*
X138580264Y-57091498D01*
X138580261Y-57091510D01*
X138549500Y-57246153D01*
X138549500Y-57403846D01*
X138580261Y-57558489D01*
X138580264Y-57558501D01*
X138640602Y-57704172D01*
X138640609Y-57704185D01*
X138728210Y-57835288D01*
X138728213Y-57835292D01*
X138839705Y-57946784D01*
X138839708Y-57946786D01*
X138839711Y-57946789D01*
X138894892Y-57983660D01*
X138939695Y-58037269D01*
X138950000Y-58086760D01*
X138950000Y-60563238D01*
X138930315Y-60630277D01*
X138894891Y-60666340D01*
X138839711Y-60703210D01*
X138839707Y-60703213D01*
X138728213Y-60814707D01*
X138728210Y-60814711D01*
X138640609Y-60945814D01*
X138640602Y-60945827D01*
X138580264Y-61091498D01*
X138580261Y-61091510D01*
X138549500Y-61246153D01*
X138549500Y-61403846D01*
X138580261Y-61558489D01*
X138580264Y-61558501D01*
X138640602Y-61704172D01*
X138640609Y-61704185D01*
X138728210Y-61835288D01*
X138728213Y-61835292D01*
X138839705Y-61946784D01*
X138839708Y-61946786D01*
X138839711Y-61946789D01*
X138894892Y-61983660D01*
X138939695Y-62037269D01*
X138950000Y-62086760D01*
X138950000Y-62427229D01*
X138930315Y-62494268D01*
X138877511Y-62540023D01*
X138866956Y-62544270D01*
X138787117Y-62572207D01*
X138677850Y-62652850D01*
X138597207Y-62762117D01*
X138597206Y-62762119D01*
X138552353Y-62890298D01*
X138552353Y-62890300D01*
X138549500Y-62920730D01*
X138549500Y-63729269D01*
X138552353Y-63759699D01*
X138552353Y-63759701D01*
X138591159Y-63870598D01*
X138597207Y-63887882D01*
X138677850Y-63997150D01*
X138787118Y-64077793D01*
X138866957Y-64105730D01*
X138923731Y-64146450D01*
X138949478Y-64211403D01*
X138950000Y-64222770D01*
X138950000Y-69452229D01*
X138930315Y-69519268D01*
X138877511Y-69565023D01*
X138866956Y-69569270D01*
X138787117Y-69597207D01*
X138677850Y-69677850D01*
X138597207Y-69787117D01*
X138597206Y-69787119D01*
X138552353Y-69915298D01*
X138552353Y-69915300D01*
X138549500Y-69945730D01*
X138549500Y-70754269D01*
X138552353Y-70784699D01*
X138552353Y-70784701D01*
X138597206Y-70912880D01*
X138597207Y-70912882D01*
X138677850Y-71022150D01*
X138787118Y-71102793D01*
X138866957Y-71130730D01*
X138923731Y-71171450D01*
X138949478Y-71236403D01*
X138950000Y-71247770D01*
X138950000Y-76498666D01*
X138930315Y-76565705D01*
X138913681Y-76586347D01*
X138530980Y-76969047D01*
X138501967Y-76990609D01*
X136250001Y-78199999D01*
X136249996Y-78200003D01*
X131941171Y-82315173D01*
X131879094Y-82347240D01*
X131855528Y-82349500D01*
X130422760Y-82349500D01*
X130355721Y-82329815D01*
X130309966Y-82277011D01*
X130298762Y-82226186D01*
X130285814Y-79885845D01*
X130246924Y-72856522D01*
X130266236Y-72789379D01*
X130288289Y-72763385D01*
X130472551Y-72598719D01*
X130948719Y-72122551D01*
X131397439Y-71620434D01*
X131817299Y-71093946D01*
X132206978Y-70544745D01*
X132565250Y-69974558D01*
X132890988Y-69385180D01*
X133183167Y-68778464D01*
X133440867Y-68156321D01*
X133663278Y-67520707D01*
X133782347Y-67107407D01*
X133819820Y-67048440D01*
X133883227Y-67019092D01*
X133952435Y-67028682D01*
X134005472Y-67074167D01*
X134025498Y-67141106D01*
X134025500Y-67141738D01*
X134025500Y-68728030D01*
X134025492Y-68728055D01*
X134025500Y-68778739D01*
X134025500Y-68834369D01*
X134025514Y-68834598D01*
X134025515Y-68843691D01*
X134052989Y-68964004D01*
X134052992Y-68964013D01*
X134106546Y-69075203D01*
X134110465Y-69080117D01*
X134136875Y-69144803D01*
X134124121Y-69213499D01*
X134076251Y-69264394D01*
X134013520Y-69281432D01*
X133718238Y-69281432D01*
X133718154Y-69281436D01*
X133705000Y-69281434D01*
X133704992Y-69281435D01*
X133577439Y-69310529D01*
X133459562Y-69367282D01*
X133357274Y-69448844D01*
X133275699Y-69551135D01*
X133275697Y-69551137D01*
X133218938Y-69669013D01*
X133189839Y-69796556D01*
X133189838Y-69796562D01*
X133189846Y-69861886D01*
X133189846Y-69918439D01*
X133189838Y-69918543D01*
X133189839Y-69930538D01*
X133189761Y-69930803D01*
X133189777Y-70047388D01*
X133189777Y-70047392D01*
X133218908Y-70174934D01*
X133218909Y-70174936D01*
X133275684Y-70292787D01*
X133275685Y-70292788D01*
X133275687Y-70292792D01*
X133357272Y-70395062D01*
X133394806Y-70424984D01*
X133434956Y-70482166D01*
X133437817Y-70551977D01*
X133402481Y-70612253D01*
X133394821Y-70618892D01*
X133357255Y-70648849D01*
X133357248Y-70648856D01*
X133275690Y-70751129D01*
X133275687Y-70751133D01*
X133218929Y-70869008D01*
X133189827Y-70996564D01*
X133189835Y-71061886D01*
X133189835Y-71118439D01*
X133189827Y-71118543D01*
X133189828Y-71130549D01*
X133189761Y-71130777D01*
X133189777Y-71247385D01*
X133189778Y-71247395D01*
X133218903Y-71374922D01*
X133218904Y-71374925D01*
X133275679Y-71492780D01*
X133275681Y-71492783D01*
X133275682Y-71492784D01*
X133357262Y-71595053D01*
X133459554Y-71676604D01*
X133577428Y-71733349D01*
X133704974Y-71762441D01*
X133704974Y-71762440D01*
X133704975Y-71762441D01*
X133770385Y-71762432D01*
X133901500Y-71762432D01*
X133968539Y-71782117D01*
X134014294Y-71834921D01*
X134025500Y-71886432D01*
X134025500Y-76291598D01*
X134005815Y-76358637D01*
X133989181Y-76379279D01*
X131330279Y-79038181D01*
X131268956Y-79071666D01*
X131250154Y-79073687D01*
X131243982Y-79074500D01*
X131135763Y-79103497D01*
X131135760Y-79103498D01*
X131038740Y-79159513D01*
X131038734Y-79159517D01*
X130959517Y-79238734D01*
X130959513Y-79238740D01*
X130903498Y-79335760D01*
X130903497Y-79335763D01*
X130874500Y-79443982D01*
X130874500Y-79556018D01*
X130886514Y-79600853D01*
X130903497Y-79664236D01*
X130903498Y-79664239D01*
X130959851Y-79761846D01*
X130976324Y-79829747D01*
X130959852Y-79885845D01*
X130902165Y-79985763D01*
X130902165Y-79985764D01*
X130873168Y-80093983D01*
X130873168Y-80206019D01*
X130902165Y-80314238D01*
X130958183Y-80411264D01*
X131037405Y-80490486D01*
X131134431Y-80546504D01*
X131242650Y-80575501D01*
X131242652Y-80575501D01*
X131354682Y-80575501D01*
X131354686Y-80575501D01*
X131369770Y-80571459D01*
X131439615Y-80573120D01*
X131497479Y-80612280D01*
X131524986Y-80676508D01*
X131513401Y-80745410D01*
X131489544Y-80778914D01*
X131205362Y-81063096D01*
X131149780Y-81095188D01*
X131135765Y-81098943D01*
X131135759Y-81098946D01*
X131038740Y-81154960D01*
X131038734Y-81154965D01*
X130959517Y-81234182D01*
X130959513Y-81234188D01*
X130903498Y-81331208D01*
X130903497Y-81331211D01*
X130874500Y-81439430D01*
X130874500Y-81551466D01*
X130903497Y-81659685D01*
X130959515Y-81756711D01*
X131038737Y-81835933D01*
X131135763Y-81891951D01*
X131243982Y-81920948D01*
X131243984Y-81920948D01*
X131356016Y-81920948D01*
X131356018Y-81920948D01*
X131464237Y-81891951D01*
X131561263Y-81835933D01*
X131640485Y-81756711D01*
X131696503Y-81659685D01*
X131725500Y-81551466D01*
X131725500Y-81551457D01*
X131726561Y-81543406D01*
X131729496Y-81543792D01*
X131745185Y-81490363D01*
X131761819Y-81469721D01*
X133675523Y-79556017D01*
X135722468Y-77509072D01*
X135767295Y-77431428D01*
X135790500Y-77344828D01*
X135790500Y-77255172D01*
X135790500Y-64541955D01*
X135810185Y-64474916D01*
X135862989Y-64429161D01*
X135932147Y-64419217D01*
X135946586Y-64422178D01*
X135958982Y-64425500D01*
X135958984Y-64425500D01*
X136071016Y-64425500D01*
X136071018Y-64425500D01*
X136179237Y-64396503D01*
X136265168Y-64346890D01*
X136333066Y-64330417D01*
X136399093Y-64353269D01*
X136403408Y-64356919D01*
X136403523Y-64356770D01*
X136409962Y-64361710D01*
X136409969Y-64361717D01*
X136506995Y-64417735D01*
X136615214Y-64446732D01*
X136615216Y-64446732D01*
X136727248Y-64446732D01*
X136727250Y-64446732D01*
X136835469Y-64417735D01*
X136932495Y-64361717D01*
X137011717Y-64282495D01*
X137067735Y-64185469D01*
X137096732Y-64077250D01*
X137096732Y-64072065D01*
X137116417Y-64005026D01*
X137133051Y-63984384D01*
X137391786Y-63725649D01*
X137701460Y-63415975D01*
X137741022Y-63347452D01*
X137761500Y-63271026D01*
X137761500Y-63191902D01*
X137761500Y-48253678D01*
X137741021Y-48177251D01*
X137723524Y-48146945D01*
X137701464Y-48108735D01*
X137701458Y-48108727D01*
X136902272Y-47309541D01*
X136895820Y-47304590D01*
X136897113Y-47302904D01*
X136856658Y-47260481D01*
X136843430Y-47191875D01*
X136869393Y-47127008D01*
X136897975Y-47100552D01*
X136979655Y-47045977D01*
X137125977Y-46899655D01*
X137240941Y-46727598D01*
X137320130Y-46536420D01*
X137345693Y-46407907D01*
X137378078Y-46345996D01*
X137438793Y-46311422D01*
X137469245Y-46308113D01*
X137695331Y-46311645D01*
G37*
%TD.AperFunction*%
%TA.AperFunction,Conductor*%
G36*
X137101667Y-49591633D02*
G01*
X137148357Y-49643612D01*
X137160500Y-49697128D01*
X137160500Y-63055631D01*
X137140815Y-63122670D01*
X137124181Y-63143312D01*
X136708080Y-63559413D01*
X136646757Y-63592898D01*
X136620399Y-63595732D01*
X136615214Y-63595732D01*
X136506995Y-63624729D01*
X136506992Y-63624730D01*
X136421064Y-63674341D01*
X136353164Y-63690814D01*
X136287137Y-63667961D01*
X136282823Y-63664312D01*
X136282709Y-63664462D01*
X136276267Y-63659519D01*
X136276263Y-63659515D01*
X136179237Y-63603497D01*
X136071018Y-63574500D01*
X135958982Y-63574500D01*
X135958977Y-63574500D01*
X135946588Y-63577820D01*
X135876738Y-63576154D01*
X135818877Y-63536989D01*
X135791376Y-63472759D01*
X135790500Y-63458044D01*
X135790500Y-57759136D01*
X135790459Y-57758543D01*
X135790461Y-57747318D01*
X135761715Y-57621337D01*
X135705657Y-57504911D01*
X135705656Y-57504910D01*
X135702636Y-57498637D01*
X135703511Y-57498215D01*
X135700686Y-57494954D01*
X135696840Y-57468207D01*
X135689486Y-57442199D01*
X135691941Y-57434137D01*
X135690742Y-57425796D01*
X135701969Y-57401210D01*
X135709843Y-57375360D01*
X135716265Y-57369906D01*
X135719767Y-57362240D01*
X135742502Y-57347629D01*
X135763103Y-57330137D01*
X135772984Y-57328039D01*
X135778545Y-57324466D01*
X135813480Y-57319443D01*
X136016590Y-57319443D01*
X136016640Y-57319446D01*
X136026604Y-57319445D01*
X136026606Y-57319446D01*
X136080536Y-57319443D01*
X136125343Y-57319443D01*
X136133497Y-57319443D01*
X136133955Y-57319412D01*
X136145932Y-57319412D01*
X136145935Y-57319412D01*
X136273451Y-57290303D01*
X136391295Y-57233554D01*
X136493559Y-57152007D01*
X136575117Y-57049753D01*
X136631881Y-56931915D01*
X136658651Y-56814707D01*
X136661003Y-56804407D01*
X136661003Y-56804406D01*
X136661004Y-56804402D01*
X136661007Y-56783799D01*
X136661015Y-56783771D01*
X136661015Y-56738882D01*
X136661024Y-56685074D01*
X136661023Y-56685072D01*
X136661025Y-56675500D01*
X136661015Y-56675358D01*
X136661015Y-56566285D01*
X136660965Y-56565542D01*
X136660968Y-56553597D01*
X136631880Y-56426059D01*
X136575140Y-56308192D01*
X136493592Y-56205908D01*
X136493588Y-56205905D01*
X136493587Y-56205903D01*
X136391329Y-56124336D01*
X136391323Y-56124332D01*
X136273474Y-56067566D01*
X136273469Y-56067564D01*
X136145941Y-56038447D01*
X136145945Y-56038447D01*
X136132959Y-56038446D01*
X136132959Y-56038445D01*
X136125349Y-56038444D01*
X136125343Y-56038443D01*
X136080536Y-56038443D01*
X136080527Y-56038442D01*
X136016640Y-56038439D01*
X136016590Y-56038443D01*
X135914500Y-56038443D01*
X135847461Y-56018758D01*
X135801706Y-55965954D01*
X135790500Y-55914443D01*
X135790500Y-49877448D01*
X135810185Y-49810409D01*
X135862989Y-49764654D01*
X135932147Y-49754710D01*
X135961950Y-49762886D01*
X136003580Y-49780130D01*
X136155804Y-49810409D01*
X136206530Y-49820499D01*
X136206534Y-49820500D01*
X136206535Y-49820500D01*
X136413466Y-49820500D01*
X136413467Y-49820499D01*
X136616420Y-49780130D01*
X136807598Y-49700941D01*
X136807599Y-49700940D01*
X136807600Y-49700940D01*
X136967610Y-49594026D01*
X137034287Y-49573148D01*
X137101667Y-49591633D01*
G37*
%TD.AperFunction*%
%TA.AperFunction,Conductor*%
G36*
X132678118Y-46319685D02*
G01*
X132723873Y-46372489D01*
X132732696Y-46399809D01*
X132759868Y-46536412D01*
X132759870Y-46536420D01*
X132839058Y-46727596D01*
X132954024Y-46899657D01*
X133100342Y-47045975D01*
X133100345Y-47045977D01*
X133272402Y-47160941D01*
X133463580Y-47240130D01*
X133666530Y-47280499D01*
X133666534Y-47280500D01*
X133666535Y-47280500D01*
X133873466Y-47280500D01*
X133873467Y-47280499D01*
X134076420Y-47240130D01*
X134196974Y-47190194D01*
X134266438Y-47182726D01*
X134328918Y-47214000D01*
X134332104Y-47217075D01*
X134849540Y-47734511D01*
X134905489Y-47790460D01*
X134905491Y-47790461D01*
X134905495Y-47790464D01*
X134974004Y-47830017D01*
X134974011Y-47830021D01*
X135050438Y-47850500D01*
X135444505Y-47850500D01*
X135511544Y-47870185D01*
X135557299Y-47922989D01*
X135567243Y-47992147D01*
X135538218Y-48055703D01*
X135532186Y-48062181D01*
X135494025Y-48100341D01*
X135494024Y-48100342D01*
X135379058Y-48272403D01*
X135299870Y-48463579D01*
X135299868Y-48463587D01*
X135259500Y-48666530D01*
X135259500Y-48873469D01*
X135299868Y-49076412D01*
X135299870Y-49076420D01*
X135333235Y-49156969D01*
X135335371Y-49176844D01*
X135342358Y-49195575D01*
X135339030Y-49210872D01*
X135340704Y-49226438D01*
X135331756Y-49244313D01*
X135327507Y-49263848D01*
X135310819Y-49286140D01*
X135309429Y-49288918D01*
X135306356Y-49292103D01*
X135240928Y-49357531D01*
X135223488Y-49374972D01*
X135223485Y-49374973D01*
X135177533Y-49420926D01*
X135177531Y-49420928D01*
X135132705Y-49498571D01*
X135109500Y-49585173D01*
X135109500Y-56075449D01*
X135109492Y-56085067D01*
X135109491Y-56085074D01*
X135109491Y-56087216D01*
X135109491Y-56087703D01*
X135109448Y-56087848D01*
X135109467Y-56204401D01*
X135109468Y-56204408D01*
X135138595Y-56331933D01*
X135138596Y-56331935D01*
X135195365Y-56449778D01*
X135199074Y-56455679D01*
X135197120Y-56456906D01*
X135219414Y-56511490D01*
X135206670Y-56580187D01*
X135158807Y-56631089D01*
X135123641Y-56645030D01*
X135026459Y-56667200D01*
X134910021Y-56723262D01*
X134910010Y-56723269D01*
X134907801Y-56725031D01*
X134906104Y-56725723D01*
X134904120Y-56726970D01*
X134903901Y-56726622D01*
X134843112Y-56751432D01*
X134774418Y-56738668D01*
X134723530Y-56690791D01*
X134706500Y-56628075D01*
X134706500Y-49321175D01*
X134706500Y-49321172D01*
X134706497Y-49321160D01*
X134706497Y-49321152D01*
X134705439Y-49313115D01*
X134706691Y-49312950D01*
X134708152Y-49251314D01*
X134711695Y-49241635D01*
X134780130Y-49076420D01*
X134820500Y-48873465D01*
X134820500Y-48666535D01*
X134780130Y-48463580D01*
X134700941Y-48272402D01*
X134585977Y-48100345D01*
X134585975Y-48100342D01*
X134439657Y-47954024D01*
X134353626Y-47896541D01*
X134267598Y-47839059D01*
X134245778Y-47830021D01*
X134076420Y-47759870D01*
X134076412Y-47759868D01*
X133873469Y-47719500D01*
X133873465Y-47719500D01*
X133666535Y-47719500D01*
X133666530Y-47719500D01*
X133463587Y-47759868D01*
X133463579Y-47759870D01*
X133272403Y-47839058D01*
X133100342Y-47954024D01*
X132954024Y-48100342D01*
X132839058Y-48272403D01*
X132759870Y-48463579D01*
X132759868Y-48463587D01*
X132719500Y-48666530D01*
X132719500Y-48873469D01*
X132759868Y-49076412D01*
X132759870Y-49076420D01*
X132839059Y-49267598D01*
X132874856Y-49321172D01*
X132954024Y-49439657D01*
X133100342Y-49585975D01*
X133100345Y-49585977D01*
X133272402Y-49700941D01*
X133463580Y-49780130D01*
X133615804Y-49810409D01*
X133666530Y-49820499D01*
X133666534Y-49820500D01*
X133666535Y-49820500D01*
X133873467Y-49820500D01*
X133877308Y-49819736D01*
X133879360Y-49819919D01*
X133879530Y-49819903D01*
X133879533Y-49819935D01*
X133946899Y-49825963D01*
X134002077Y-49868825D01*
X134025322Y-49934715D01*
X134025500Y-49941353D01*
X134025500Y-60608261D01*
X134005815Y-60675300D01*
X133953011Y-60721055D01*
X133883853Y-60730999D01*
X133820297Y-60701974D01*
X133782523Y-60643196D01*
X133782391Y-60642743D01*
X133663278Y-60229293D01*
X133440867Y-59593679D01*
X133183167Y-58971536D01*
X132890988Y-58364820D01*
X132565250Y-57775442D01*
X132232676Y-57246153D01*
X132206975Y-57205250D01*
X131817302Y-56656058D01*
X131808507Y-56645030D01*
X131397439Y-56129566D01*
X130948719Y-55627449D01*
X130472551Y-55151281D01*
X130188426Y-54897371D01*
X130151556Y-54838022D01*
X130147057Y-54805606D01*
X130117177Y-49404847D01*
X130136490Y-49337702D01*
X130189040Y-49291655D01*
X130258143Y-49281329D01*
X130321858Y-49310002D01*
X130344278Y-49335273D01*
X130414024Y-49439657D01*
X130560342Y-49585975D01*
X130560345Y-49585977D01*
X130732402Y-49700941D01*
X130923580Y-49780130D01*
X131075804Y-49810409D01*
X131126530Y-49820499D01*
X131126534Y-49820500D01*
X131126535Y-49820500D01*
X131333466Y-49820500D01*
X131333467Y-49820499D01*
X131536420Y-49780130D01*
X131727598Y-49700941D01*
X131899655Y-49585977D01*
X132045977Y-49439655D01*
X132160941Y-49267598D01*
X132240130Y-49076420D01*
X132280500Y-48873465D01*
X132280500Y-48666535D01*
X132240130Y-48463580D01*
X132160941Y-48272402D01*
X132045977Y-48100345D01*
X132045975Y-48100342D01*
X131899657Y-47954024D01*
X131813626Y-47896541D01*
X131727598Y-47839059D01*
X131705778Y-47830021D01*
X131536420Y-47759870D01*
X131536412Y-47759868D01*
X131333469Y-47719500D01*
X131333465Y-47719500D01*
X131126535Y-47719500D01*
X131126530Y-47719500D01*
X130923587Y-47759868D01*
X130923579Y-47759870D01*
X130732403Y-47839058D01*
X130560342Y-47954024D01*
X130414025Y-48100341D01*
X130414022Y-48100345D01*
X130337317Y-48215142D01*
X130283704Y-48259947D01*
X130214379Y-48268654D01*
X130151352Y-48238499D01*
X130114633Y-48179056D01*
X130110218Y-48146945D01*
X130100690Y-46424686D01*
X130120003Y-46357539D01*
X130172553Y-46311492D01*
X130224688Y-46300000D01*
X132611079Y-46300000D01*
X132678118Y-46319685D01*
G37*
%TD.AperFunction*%
%TD*%
%TA.AperFunction,Conductor*%
%TO.N,24V_BAT*%
G36*
X129678575Y-90169685D02*
G01*
X129699217Y-90186319D01*
X129723387Y-90210489D01*
X129826114Y-90269799D01*
X129940691Y-90300500D01*
X129940694Y-90300500D01*
X130059306Y-90300500D01*
X130059309Y-90300500D01*
X130173886Y-90269799D01*
X130276613Y-90210489D01*
X130300783Y-90186319D01*
X130327710Y-90171615D01*
X130353529Y-90155023D01*
X130359729Y-90154131D01*
X130362106Y-90152834D01*
X130388464Y-90150000D01*
X130611536Y-90150000D01*
X130678575Y-90169685D01*
X130699217Y-90186319D01*
X130723387Y-90210489D01*
X130826114Y-90269799D01*
X130940691Y-90300500D01*
X130940694Y-90300500D01*
X131059306Y-90300500D01*
X131059309Y-90300500D01*
X131173886Y-90269799D01*
X131276613Y-90210489D01*
X131300783Y-90186319D01*
X131327710Y-90171615D01*
X131353529Y-90155023D01*
X131359729Y-90154131D01*
X131362106Y-90152834D01*
X131388464Y-90150000D01*
X131511536Y-90150000D01*
X131578575Y-90169685D01*
X131599217Y-90186319D01*
X131623387Y-90210489D01*
X131726114Y-90269799D01*
X131840691Y-90300500D01*
X131840694Y-90300500D01*
X131959306Y-90300500D01*
X131959309Y-90300500D01*
X132073886Y-90269799D01*
X132176613Y-90210489D01*
X132200783Y-90186319D01*
X132262106Y-90152834D01*
X132288464Y-90150000D01*
X135090099Y-90150000D01*
X135109775Y-90151571D01*
X137667656Y-90562659D01*
X137730719Y-90592730D01*
X137735657Y-90597405D01*
X137743737Y-90605485D01*
X137840763Y-90661503D01*
X137948982Y-90690500D01*
X137948984Y-90690500D01*
X138061016Y-90690500D01*
X138061018Y-90690500D01*
X138169237Y-90661503D01*
X138246989Y-90616613D01*
X138308989Y-90600000D01*
X138627351Y-90600000D01*
X138689351Y-90616613D01*
X138775763Y-90666503D01*
X138883982Y-90695500D01*
X138883984Y-90695500D01*
X138996016Y-90695500D01*
X138996018Y-90695500D01*
X139104237Y-90666503D01*
X139201263Y-90610485D01*
X139201263Y-90610484D01*
X139208302Y-90606421D01*
X139209616Y-90608698D01*
X139259913Y-90588685D01*
X142543666Y-90250651D01*
X142556364Y-90250000D01*
X144957183Y-90250000D01*
X145024222Y-90269685D01*
X145033695Y-90276420D01*
X146811824Y-91670635D01*
X146849873Y-91720761D01*
X146899142Y-91839705D01*
X146899145Y-91839711D01*
X146994954Y-91983098D01*
X146994957Y-91983102D01*
X147116897Y-92105042D01*
X147116902Y-92105046D01*
X147144889Y-92123746D01*
X147189695Y-92177357D01*
X147200000Y-92226849D01*
X147200000Y-92820331D01*
X147180315Y-92887370D01*
X147127511Y-92933125D01*
X147070461Y-92944207D01*
X134234943Y-92370298D01*
X134168850Y-92347639D01*
X134149801Y-92328965D01*
X134149346Y-92329421D01*
X134142776Y-92322851D01*
X134112491Y-92300500D01*
X134033507Y-92242207D01*
X134033505Y-92242206D01*
X133905325Y-92197353D01*
X133874895Y-92194500D01*
X133874891Y-92194500D01*
X130666359Y-92194500D01*
X130666355Y-92194500D01*
X130635929Y-92197353D01*
X130628038Y-92200114D01*
X130581551Y-92206946D01*
X130426191Y-92200000D01*
X130426190Y-92200000D01*
X130426189Y-92200000D01*
X130426189Y-92200001D01*
X128987172Y-94149638D01*
X128931523Y-94191886D01*
X128887405Y-94200000D01*
X122674000Y-94200000D01*
X122606961Y-94180315D01*
X122561206Y-94127511D01*
X122550000Y-94076000D01*
X122550000Y-92472465D01*
X122569685Y-92405426D01*
X122613132Y-92364432D01*
X126085433Y-90408206D01*
X126116221Y-90395944D01*
X127085192Y-90153702D01*
X127115266Y-90150000D01*
X129611536Y-90150000D01*
X129678575Y-90169685D01*
G37*
%TD.AperFunction*%
%TD*%
%TA.AperFunction,Conductor*%
%TO.N,GND*%
G36*
X164300000Y-77900527D02*
G01*
X164300000Y-84742778D01*
X164280315Y-84809817D01*
X164227511Y-84855572D01*
X164158353Y-84865516D01*
X164094797Y-84836491D01*
X164068613Y-84804779D01*
X164050489Y-84773387D01*
X163966613Y-84689511D01*
X163863886Y-84630201D01*
X163749309Y-84599500D01*
X163630691Y-84599500D01*
X163627388Y-84599500D01*
X163560349Y-84579815D01*
X163514594Y-84527011D01*
X163504650Y-84457853D01*
X163507610Y-84443416D01*
X163516750Y-84409309D01*
X163516750Y-84290691D01*
X163486049Y-84176114D01*
X163426739Y-84073387D01*
X163342863Y-83989511D01*
X163240136Y-83930201D01*
X163125559Y-83899500D01*
X163006941Y-83899500D01*
X162892364Y-83930201D01*
X162892362Y-83930201D01*
X162892362Y-83930202D01*
X162789637Y-83989511D01*
X162789634Y-83989513D01*
X162705763Y-84073384D01*
X162705761Y-84073387D01*
X162646451Y-84176114D01*
X162615750Y-84290691D01*
X162615750Y-84409309D01*
X162624886Y-84443408D01*
X162624291Y-84468401D01*
X162627850Y-84493147D01*
X162623474Y-84502727D01*
X162623224Y-84513256D01*
X162609211Y-84533960D01*
X162598825Y-84556703D01*
X162589965Y-84562396D01*
X162584062Y-84571119D01*
X162561078Y-84580960D01*
X162540047Y-84594477D01*
X162524191Y-84596756D01*
X162519833Y-84598623D01*
X162505112Y-84599500D01*
X162379888Y-84599500D01*
X162312849Y-84579815D01*
X162267094Y-84527011D01*
X162257150Y-84457853D01*
X162260110Y-84443416D01*
X162269250Y-84409309D01*
X162269250Y-84290691D01*
X162238549Y-84176114D01*
X162179239Y-84073387D01*
X162095363Y-83989511D01*
X161992636Y-83930201D01*
X161878059Y-83899500D01*
X161759441Y-83899500D01*
X161644864Y-83930201D01*
X161644862Y-83930201D01*
X161644862Y-83930202D01*
X161542137Y-83989511D01*
X161542134Y-83989513D01*
X161458263Y-84073384D01*
X161458261Y-84073387D01*
X161398951Y-84176114D01*
X161368250Y-84290691D01*
X161368250Y-84409309D01*
X161377386Y-84443408D01*
X161376791Y-84468401D01*
X161380350Y-84493147D01*
X161375974Y-84502727D01*
X161375724Y-84513256D01*
X161361711Y-84533960D01*
X161351325Y-84556703D01*
X161342465Y-84562396D01*
X161336562Y-84571119D01*
X161313578Y-84580960D01*
X161292547Y-84594477D01*
X161276691Y-84596756D01*
X161272333Y-84598623D01*
X161257612Y-84599500D01*
X161132388Y-84599500D01*
X161065349Y-84579815D01*
X161019594Y-84527011D01*
X161009650Y-84457853D01*
X161012610Y-84443416D01*
X161021750Y-84409309D01*
X161021750Y-84290691D01*
X160991049Y-84176114D01*
X160931739Y-84073387D01*
X160847863Y-83989511D01*
X160745136Y-83930201D01*
X160630559Y-83899500D01*
X160511941Y-83899500D01*
X160397364Y-83930201D01*
X160397362Y-83930201D01*
X160397362Y-83930202D01*
X160294637Y-83989511D01*
X160294634Y-83989513D01*
X160210763Y-84073384D01*
X160210761Y-84073387D01*
X160151451Y-84176114D01*
X160120750Y-84290691D01*
X160120750Y-84409309D01*
X160129886Y-84443408D01*
X160129291Y-84468401D01*
X160132850Y-84493147D01*
X160128474Y-84502727D01*
X160128224Y-84513256D01*
X160114211Y-84533960D01*
X160103825Y-84556703D01*
X160094965Y-84562396D01*
X160089062Y-84571119D01*
X160066078Y-84580960D01*
X160045047Y-84594477D01*
X160029191Y-84596756D01*
X160024833Y-84598623D01*
X160010112Y-84599500D01*
X159884888Y-84599500D01*
X159817849Y-84579815D01*
X159772094Y-84527011D01*
X159762150Y-84457853D01*
X159765110Y-84443416D01*
X159774250Y-84409309D01*
X159774250Y-84290691D01*
X159743549Y-84176114D01*
X159684239Y-84073387D01*
X159600363Y-83989511D01*
X159497636Y-83930201D01*
X159383059Y-83899500D01*
X159264441Y-83899500D01*
X159149864Y-83930201D01*
X159149862Y-83930201D01*
X159149862Y-83930202D01*
X159047137Y-83989511D01*
X159047134Y-83989513D01*
X158963263Y-84073384D01*
X158963261Y-84073387D01*
X158903951Y-84176114D01*
X158873250Y-84290691D01*
X158873250Y-84409309D01*
X158882386Y-84443408D01*
X158880724Y-84513256D01*
X158841562Y-84571119D01*
X158777333Y-84598623D01*
X158762612Y-84599500D01*
X158759309Y-84599500D01*
X158640691Y-84599500D01*
X158526114Y-84630201D01*
X158526112Y-84630201D01*
X158526112Y-84630202D01*
X158423387Y-84689511D01*
X158423384Y-84689513D01*
X158339513Y-84773384D01*
X158339511Y-84773387D01*
X158302436Y-84837603D01*
X158280201Y-84876114D01*
X158249500Y-84990691D01*
X158249500Y-85109309D01*
X158280201Y-85223886D01*
X158339511Y-85326613D01*
X158423387Y-85410489D01*
X158526114Y-85469799D01*
X158640691Y-85500500D01*
X158640694Y-85500500D01*
X158759306Y-85500500D01*
X158759309Y-85500500D01*
X158873886Y-85469799D01*
X158976613Y-85410489D01*
X159060489Y-85326613D01*
X159119799Y-85223886D01*
X159150500Y-85109309D01*
X159150500Y-84990691D01*
X159141363Y-84956591D01*
X159141958Y-84931598D01*
X159138400Y-84906853D01*
X159142775Y-84897272D01*
X159143026Y-84886744D01*
X159157038Y-84866039D01*
X159167425Y-84843297D01*
X159176284Y-84837603D01*
X159182188Y-84828881D01*
X159205171Y-84819039D01*
X159226203Y-84805523D01*
X159242058Y-84803243D01*
X159246417Y-84801377D01*
X159261138Y-84800500D01*
X159386362Y-84800500D01*
X159453401Y-84820185D01*
X159499156Y-84872989D01*
X159509100Y-84942147D01*
X159506139Y-84956583D01*
X159497000Y-84990691D01*
X159497000Y-85109309D01*
X159527701Y-85223886D01*
X159587011Y-85326613D01*
X159670887Y-85410489D01*
X159773614Y-85469799D01*
X159888191Y-85500500D01*
X159888194Y-85500500D01*
X160006806Y-85500500D01*
X160006809Y-85500500D01*
X160121386Y-85469799D01*
X160224113Y-85410489D01*
X160307989Y-85326613D01*
X160367299Y-85223886D01*
X160398000Y-85109309D01*
X160398000Y-84990691D01*
X160388863Y-84956591D01*
X160389458Y-84931598D01*
X160385900Y-84906853D01*
X160390275Y-84897272D01*
X160390526Y-84886744D01*
X160404538Y-84866039D01*
X160414925Y-84843297D01*
X160423784Y-84837603D01*
X160429688Y-84828881D01*
X160452671Y-84819039D01*
X160473703Y-84805523D01*
X160489558Y-84803243D01*
X160493917Y-84801377D01*
X160508638Y-84800500D01*
X160633862Y-84800500D01*
X160700901Y-84820185D01*
X160746656Y-84872989D01*
X160756600Y-84942147D01*
X160753639Y-84956583D01*
X160744500Y-84990691D01*
X160744500Y-85109309D01*
X160775201Y-85223886D01*
X160834511Y-85326613D01*
X160918387Y-85410489D01*
X161021114Y-85469799D01*
X161135691Y-85500500D01*
X161135694Y-85500500D01*
X161254306Y-85500500D01*
X161254309Y-85500500D01*
X161368886Y-85469799D01*
X161471613Y-85410489D01*
X161555489Y-85326613D01*
X161614799Y-85223886D01*
X161645500Y-85109309D01*
X161645500Y-84990691D01*
X161636363Y-84956591D01*
X161636958Y-84931598D01*
X161633400Y-84906853D01*
X161637775Y-84897272D01*
X161638026Y-84886744D01*
X161652038Y-84866039D01*
X161662425Y-84843297D01*
X161671284Y-84837603D01*
X161677188Y-84828881D01*
X161700171Y-84819039D01*
X161721203Y-84805523D01*
X161737058Y-84803243D01*
X161741417Y-84801377D01*
X161756138Y-84800500D01*
X161881362Y-84800500D01*
X161948401Y-84820185D01*
X161994156Y-84872989D01*
X162004100Y-84942147D01*
X162001139Y-84956583D01*
X161992000Y-84990691D01*
X161992000Y-85109309D01*
X162022701Y-85223886D01*
X162082011Y-85326613D01*
X162165887Y-85410489D01*
X162268614Y-85469799D01*
X162383191Y-85500500D01*
X162383194Y-85500500D01*
X162501806Y-85500500D01*
X162501809Y-85500500D01*
X162616386Y-85469799D01*
X162719113Y-85410489D01*
X162802989Y-85326613D01*
X162862299Y-85223886D01*
X162893000Y-85109309D01*
X162893000Y-84990691D01*
X162883863Y-84956591D01*
X162884458Y-84931598D01*
X162880900Y-84906853D01*
X162885275Y-84897272D01*
X162885526Y-84886744D01*
X162899538Y-84866039D01*
X162909925Y-84843297D01*
X162918784Y-84837603D01*
X162924688Y-84828881D01*
X162947671Y-84819039D01*
X162968703Y-84805523D01*
X162984558Y-84803243D01*
X162988917Y-84801377D01*
X163003638Y-84800500D01*
X163128862Y-84800500D01*
X163195901Y-84820185D01*
X163241656Y-84872989D01*
X163251600Y-84942147D01*
X163248639Y-84956583D01*
X163239500Y-84990691D01*
X163239500Y-85109309D01*
X163270201Y-85223886D01*
X163329511Y-85326613D01*
X163413387Y-85410489D01*
X163516114Y-85469799D01*
X163630691Y-85500500D01*
X163630694Y-85500500D01*
X163749306Y-85500500D01*
X163749309Y-85500500D01*
X163863886Y-85469799D01*
X163966613Y-85410489D01*
X164050489Y-85326613D01*
X164068613Y-85295220D01*
X164119180Y-85247006D01*
X164187787Y-85233782D01*
X164252651Y-85259750D01*
X164293180Y-85316664D01*
X164300000Y-85357221D01*
X164300000Y-87744042D01*
X164280315Y-87811081D01*
X164258041Y-87837022D01*
X160935585Y-90768601D01*
X160872293Y-90798195D01*
X160852544Y-90799617D01*
X148545301Y-90700365D01*
X148478422Y-90680140D01*
X148465603Y-90670517D01*
X147142268Y-89536230D01*
X147104179Y-89477656D01*
X147098988Y-89444343D01*
X147089781Y-88937982D01*
X156064500Y-88937982D01*
X156064500Y-89050018D01*
X156093497Y-89158237D01*
X156149515Y-89255263D01*
X156228737Y-89334485D01*
X156325763Y-89390503D01*
X156433982Y-89419500D01*
X156433984Y-89419500D01*
X156546016Y-89419500D01*
X156546018Y-89419500D01*
X156654237Y-89390503D01*
X156751263Y-89334485D01*
X156830485Y-89255263D01*
X156886503Y-89158237D01*
X156915500Y-89050018D01*
X156915500Y-88937982D01*
X156886503Y-88829763D01*
X156830485Y-88732737D01*
X156751263Y-88653515D01*
X156654237Y-88597497D01*
X156546018Y-88568500D01*
X156433982Y-88568500D01*
X156325763Y-88597497D01*
X156325760Y-88597498D01*
X156228740Y-88653513D01*
X156228734Y-88653517D01*
X156149517Y-88732734D01*
X156149513Y-88732740D01*
X156093498Y-88829760D01*
X156093497Y-88829763D01*
X156064500Y-88937982D01*
X147089781Y-88937982D01*
X147069649Y-87830691D01*
X151189500Y-87830691D01*
X151189500Y-87949309D01*
X151220201Y-88063886D01*
X151279511Y-88166613D01*
X151363387Y-88250489D01*
X151466114Y-88309799D01*
X151580691Y-88340500D01*
X151580694Y-88340500D01*
X151699306Y-88340500D01*
X151699309Y-88340500D01*
X151813886Y-88309799D01*
X151916613Y-88250489D01*
X152000489Y-88166613D01*
X152059799Y-88063886D01*
X152090500Y-87949309D01*
X152090500Y-87830691D01*
X152059799Y-87716114D01*
X152000489Y-87613387D01*
X151916613Y-87529511D01*
X151813886Y-87470201D01*
X151699309Y-87439500D01*
X151580691Y-87439500D01*
X151466114Y-87470201D01*
X151466112Y-87470201D01*
X151466112Y-87470202D01*
X151363387Y-87529511D01*
X151363384Y-87529513D01*
X151279513Y-87613384D01*
X151279511Y-87613387D01*
X151220201Y-87716114D01*
X151189500Y-87830691D01*
X147069649Y-87830691D01*
X147040800Y-86243982D01*
X151214500Y-86243982D01*
X151214500Y-86356018D01*
X151243497Y-86464237D01*
X151299515Y-86561263D01*
X151378737Y-86640485D01*
X151475763Y-86696503D01*
X151583982Y-86725500D01*
X151583984Y-86725500D01*
X151696016Y-86725500D01*
X151696018Y-86725500D01*
X151804237Y-86696503D01*
X151901263Y-86640485D01*
X151980485Y-86561263D01*
X152036503Y-86464237D01*
X152065500Y-86356018D01*
X152065500Y-86243982D01*
X152036503Y-86135763D01*
X151980485Y-86038737D01*
X151901263Y-85959515D01*
X151804237Y-85903497D01*
X151696018Y-85874500D01*
X151583982Y-85874500D01*
X151475763Y-85903497D01*
X151475760Y-85903498D01*
X151378740Y-85959513D01*
X151378734Y-85959517D01*
X151299517Y-86038734D01*
X151299513Y-86038740D01*
X151243498Y-86135760D01*
X151243497Y-86135763D01*
X151214500Y-86243982D01*
X147040800Y-86243982D01*
X147017527Y-84963982D01*
X148024500Y-84963982D01*
X148024500Y-85076018D01*
X148053497Y-85184237D01*
X148109515Y-85281263D01*
X148188737Y-85360485D01*
X148285763Y-85416503D01*
X148393982Y-85445500D01*
X148393984Y-85445500D01*
X148506016Y-85445500D01*
X148506018Y-85445500D01*
X148614237Y-85416503D01*
X148711263Y-85360485D01*
X148790485Y-85281263D01*
X148846503Y-85184237D01*
X148875500Y-85076018D01*
X148875500Y-84963982D01*
X148846503Y-84855763D01*
X148790485Y-84758737D01*
X148711263Y-84679515D01*
X148646579Y-84642169D01*
X148614239Y-84623498D01*
X148614238Y-84623497D01*
X148614237Y-84623497D01*
X148506018Y-84594500D01*
X148393982Y-84594500D01*
X148285763Y-84623497D01*
X148285760Y-84623498D01*
X148188740Y-84679513D01*
X148188734Y-84679517D01*
X148109517Y-84758734D01*
X148109513Y-84758740D01*
X148053498Y-84855760D01*
X148053497Y-84855763D01*
X148024500Y-84963982D01*
X147017527Y-84963982D01*
X146996106Y-83785859D01*
X147011073Y-83727906D01*
X147010439Y-83727644D01*
X147012304Y-83723140D01*
X147012701Y-83721605D01*
X147012801Y-83721429D01*
X147013549Y-83720136D01*
X147044250Y-83605559D01*
X147044250Y-83486941D01*
X147013549Y-83372364D01*
X147003785Y-83355452D01*
X146987194Y-83295716D01*
X146974117Y-82576442D01*
X146990708Y-82512196D01*
X147013549Y-82472636D01*
X147044250Y-82358059D01*
X147044250Y-82239441D01*
X147013549Y-82124864D01*
X147013547Y-82124861D01*
X147013547Y-82124859D01*
X147013546Y-82124858D01*
X146980368Y-82067393D01*
X146963775Y-82007651D01*
X146900020Y-78501100D01*
X146900000Y-78498846D01*
X146900000Y-78185244D01*
X146900000Y-77900000D01*
X164299998Y-77900000D01*
X164300000Y-77900527D01*
G37*
%TD.AperFunction*%
%TD*%
%TA.AperFunction,Conductor*%
%TO.N,3_3V*%
G36*
X159615753Y-43430185D02*
G01*
X159661508Y-43482989D01*
X159672709Y-43535494D01*
X159671310Y-43710000D01*
X159600354Y-52555750D01*
X159580132Y-52622629D01*
X159571710Y-52634027D01*
X159345271Y-52906399D01*
X159287277Y-52945366D01*
X159225728Y-52948744D01*
X159103845Y-52924500D01*
X159103842Y-52924500D01*
X158946158Y-52924500D01*
X158946155Y-52924500D01*
X158791510Y-52955261D01*
X158791498Y-52955264D01*
X158645827Y-53015602D01*
X158645814Y-53015609D01*
X158514711Y-53103210D01*
X158514707Y-53103213D01*
X158403213Y-53214707D01*
X158403210Y-53214711D01*
X158315609Y-53345814D01*
X158315602Y-53345827D01*
X158255264Y-53491498D01*
X158255261Y-53491510D01*
X158224500Y-53646153D01*
X158224500Y-54209708D01*
X158217399Y-54233888D01*
X158214323Y-54258905D01*
X158206143Y-54272223D01*
X158204815Y-54276747D01*
X158195852Y-54288980D01*
X158038241Y-54478562D01*
X157980247Y-54517529D01*
X157910391Y-54518956D01*
X157850854Y-54482390D01*
X157820537Y-54419440D01*
X157821272Y-54375097D01*
X157825500Y-54353843D01*
X157825500Y-53646155D01*
X157825499Y-53646153D01*
X157794738Y-53491510D01*
X157794737Y-53491503D01*
X157744752Y-53370827D01*
X157734397Y-53345827D01*
X157734390Y-53345814D01*
X157646789Y-53214711D01*
X157646786Y-53214707D01*
X157535292Y-53103213D01*
X157535288Y-53103210D01*
X157404185Y-53015609D01*
X157404172Y-53015602D01*
X157258501Y-52955264D01*
X157258489Y-52955261D01*
X157103845Y-52924500D01*
X157103842Y-52924500D01*
X156946158Y-52924500D01*
X156946155Y-52924500D01*
X156791510Y-52955261D01*
X156791498Y-52955264D01*
X156645827Y-53015602D01*
X156645814Y-53015609D01*
X156514711Y-53103210D01*
X156514707Y-53103213D01*
X156403213Y-53214707D01*
X156403210Y-53214711D01*
X156315609Y-53345814D01*
X156315602Y-53345827D01*
X156255264Y-53491498D01*
X156255261Y-53491510D01*
X156224500Y-53646153D01*
X156224500Y-54353846D01*
X156255261Y-54508489D01*
X156255264Y-54508501D01*
X156315602Y-54654172D01*
X156315609Y-54654185D01*
X156403210Y-54785288D01*
X156403213Y-54785292D01*
X156514707Y-54896786D01*
X156514711Y-54896789D01*
X156645814Y-54984390D01*
X156645827Y-54984397D01*
X156783727Y-55041516D01*
X156791503Y-55044737D01*
X156917176Y-55069735D01*
X156946153Y-55075499D01*
X156946156Y-55075500D01*
X156946158Y-55075500D01*
X157103844Y-55075500D01*
X157103845Y-55075499D01*
X157258497Y-55044737D01*
X157266273Y-55041515D01*
X157335741Y-55034044D01*
X157398221Y-55065317D01*
X157433876Y-55125404D01*
X157431385Y-55195229D01*
X157409081Y-55235347D01*
X156192263Y-56698998D01*
X156134269Y-56737965D01*
X156064414Y-56739392D01*
X156036102Y-56727792D01*
X156026721Y-56722513D01*
X156026717Y-56722512D01*
X156026716Y-56722511D01*
X155959733Y-56702656D01*
X155959721Y-56702653D01*
X155901868Y-56694184D01*
X155901858Y-56694183D01*
X152249853Y-56684819D01*
X152206028Y-56689431D01*
X152206003Y-56689436D01*
X152154356Y-56700569D01*
X152144011Y-56703081D01*
X152144007Y-56703083D01*
X152063251Y-56745990D01*
X152010378Y-56791693D01*
X151992411Y-56809254D01*
X151977035Y-56836666D01*
X151927069Y-56885504D01*
X151868889Y-56900000D01*
X149705159Y-56900000D01*
X149452024Y-57534921D01*
X149408912Y-57589904D01*
X149342918Y-57612850D01*
X149297268Y-57604926D01*
X149297088Y-57605601D01*
X149289614Y-57603598D01*
X149289387Y-57603559D01*
X149289240Y-57603498D01*
X149289237Y-57603497D01*
X149181018Y-57574500D01*
X149068982Y-57574500D01*
X148960763Y-57603497D01*
X148960760Y-57603498D01*
X148863740Y-57659513D01*
X148863734Y-57659517D01*
X148784517Y-57738734D01*
X148784513Y-57738740D01*
X148732387Y-57829025D01*
X148681820Y-57877241D01*
X148613213Y-57890463D01*
X148548348Y-57864495D01*
X148517613Y-57829025D01*
X148497363Y-57793952D01*
X148465485Y-57738737D01*
X148386263Y-57659515D01*
X148305437Y-57612850D01*
X148289239Y-57603498D01*
X148289238Y-57603497D01*
X148289237Y-57603497D01*
X148181018Y-57574500D01*
X148068982Y-57574500D01*
X147960763Y-57603497D01*
X147960760Y-57603498D01*
X147863740Y-57659513D01*
X147863734Y-57659517D01*
X147784517Y-57738734D01*
X147784513Y-57738740D01*
X147728498Y-57835760D01*
X147728497Y-57835763D01*
X147699500Y-57943982D01*
X147699500Y-57950500D01*
X147679815Y-58017539D01*
X147627011Y-58063294D01*
X147575500Y-58074500D01*
X147568982Y-58074500D01*
X147460763Y-58103497D01*
X147460760Y-58103498D01*
X147363740Y-58159513D01*
X147363734Y-58159517D01*
X147284517Y-58238734D01*
X147284513Y-58238740D01*
X147228498Y-58335760D01*
X147228497Y-58335763D01*
X147199500Y-58443982D01*
X147199500Y-58556018D01*
X147220868Y-58635763D01*
X147228497Y-58664236D01*
X147228499Y-58664241D01*
X147237343Y-58679560D01*
X147253814Y-58747460D01*
X147230961Y-58813487D01*
X147176039Y-58856676D01*
X147106486Y-58863317D01*
X147067955Y-58848945D01*
X147061385Y-58845152D01*
X146989237Y-58803497D01*
X146881018Y-58774500D01*
X146768982Y-58774500D01*
X146660763Y-58803497D01*
X146660760Y-58803498D01*
X146563740Y-58859513D01*
X146563734Y-58859517D01*
X146484517Y-58938734D01*
X146484513Y-58938740D01*
X146428498Y-59035760D01*
X146428497Y-59035763D01*
X146399500Y-59143982D01*
X146399500Y-59256018D01*
X146427233Y-59359517D01*
X146428497Y-59364236D01*
X146428498Y-59364239D01*
X146447169Y-59396579D01*
X146484515Y-59461263D01*
X146563737Y-59540485D01*
X146594935Y-59558497D01*
X146654025Y-59592613D01*
X146702241Y-59643180D01*
X146715463Y-59711787D01*
X146689495Y-59776652D01*
X146654025Y-59807387D01*
X146563740Y-59859513D01*
X146563734Y-59859517D01*
X146484517Y-59938734D01*
X146484513Y-59938740D01*
X146428498Y-60035760D01*
X146428497Y-60035763D01*
X146399500Y-60143982D01*
X146399500Y-60256018D01*
X146428497Y-60364237D01*
X146484515Y-60461263D01*
X146484517Y-60461265D01*
X146523071Y-60499819D01*
X146556556Y-60561142D01*
X146551572Y-60630834D01*
X146523071Y-60675181D01*
X146459517Y-60738734D01*
X146459513Y-60738740D01*
X146403498Y-60835760D01*
X146403497Y-60835763D01*
X146374500Y-60943982D01*
X146374500Y-61056018D01*
X146403497Y-61164237D01*
X146459515Y-61261263D01*
X146538737Y-61340485D01*
X146610654Y-61382006D01*
X146629025Y-61392613D01*
X146677241Y-61443180D01*
X146690463Y-61511787D01*
X146664495Y-61576652D01*
X146629025Y-61607387D01*
X146538740Y-61659513D01*
X146538734Y-61659517D01*
X146459517Y-61738734D01*
X146459513Y-61738740D01*
X146403498Y-61835760D01*
X146403497Y-61835763D01*
X146374500Y-61943982D01*
X146374500Y-62056018D01*
X146403497Y-62164237D01*
X146459515Y-62261263D01*
X146538737Y-62340485D01*
X146610654Y-62382006D01*
X146629025Y-62392613D01*
X146677241Y-62443180D01*
X146690463Y-62511787D01*
X146664495Y-62576652D01*
X146629025Y-62607387D01*
X146538740Y-62659513D01*
X146538734Y-62659517D01*
X146459517Y-62738734D01*
X146459513Y-62738740D01*
X146403498Y-62835760D01*
X146403497Y-62835763D01*
X146374500Y-62943982D01*
X146374500Y-63056018D01*
X146403497Y-63164237D01*
X146459515Y-63261263D01*
X146538737Y-63340485D01*
X146635763Y-63396503D01*
X146743982Y-63425500D01*
X146743984Y-63425500D01*
X146750500Y-63425500D01*
X146817539Y-63445185D01*
X146863294Y-63497989D01*
X146871425Y-63522055D01*
X146874500Y-63535603D01*
X146874500Y-63556018D01*
X146903497Y-63664237D01*
X146903821Y-63664799D01*
X146905315Y-63671379D01*
X146903278Y-63703953D01*
X146902502Y-63736581D01*
X146901110Y-63738636D01*
X146900956Y-63741113D01*
X146881634Y-63767411D01*
X146863339Y-63794443D01*
X146861057Y-63795420D01*
X146859588Y-63797420D01*
X146829104Y-63809102D01*
X146799110Y-63821947D01*
X146796144Y-63821734D01*
X146794346Y-63822424D01*
X146788361Y-63821178D01*
X146752297Y-63818599D01*
X146716853Y-63809102D01*
X146681018Y-63799500D01*
X146568982Y-63799500D01*
X146460763Y-63828497D01*
X146460760Y-63828498D01*
X146363740Y-63884513D01*
X146363734Y-63884517D01*
X146284517Y-63963734D01*
X146284513Y-63963740D01*
X146228498Y-64060760D01*
X146228497Y-64060763D01*
X146199500Y-64168982D01*
X146199500Y-64281018D01*
X146228497Y-64389237D01*
X146284515Y-64486263D01*
X146363737Y-64565485D01*
X146450021Y-64615301D01*
X146454024Y-64617612D01*
X146502240Y-64668179D01*
X146515463Y-64736786D01*
X146489495Y-64801651D01*
X146454025Y-64832385D01*
X146363743Y-64884510D01*
X146363734Y-64884517D01*
X146284517Y-64963734D01*
X146284513Y-64963740D01*
X146228498Y-65060760D01*
X146228497Y-65060763D01*
X146199500Y-65168982D01*
X146199500Y-65281018D01*
X146221799Y-65364237D01*
X146228497Y-65389236D01*
X146228499Y-65389241D01*
X146252923Y-65431546D01*
X146269394Y-65499446D01*
X146260718Y-65539466D01*
X145210394Y-68173928D01*
X145179392Y-68219053D01*
X140300000Y-72730499D01*
X140300000Y-73010375D01*
X140280315Y-73077414D01*
X140249762Y-73110050D01*
X140019581Y-73280388D01*
X139991816Y-73305122D01*
X139991794Y-73305142D01*
X139961264Y-73337754D01*
X139958744Y-73340495D01*
X139958743Y-73340497D01*
X139914096Y-73420314D01*
X139914096Y-73420315D01*
X139914095Y-73420315D01*
X139894412Y-73487347D01*
X139886086Y-73545254D01*
X139886086Y-75406122D01*
X139893420Y-75460524D01*
X139910808Y-75523854D01*
X139917584Y-75544277D01*
X139917585Y-75544279D01*
X139944025Y-75583162D01*
X139969011Y-75619907D01*
X140020165Y-75667490D01*
X140020176Y-75667498D01*
X140068225Y-75700828D01*
X140068227Y-75700829D01*
X140068230Y-75700831D01*
X140152532Y-75742982D01*
X140231454Y-75782443D01*
X140242936Y-75793123D01*
X140257203Y-75799639D01*
X140267996Y-75816433D01*
X140282613Y-75830030D01*
X140286998Y-75846002D01*
X140294977Y-75858417D01*
X140300000Y-75893352D01*
X140300000Y-76128107D01*
X140280315Y-76195146D01*
X140268971Y-76210158D01*
X133387626Y-84007365D01*
X133328507Y-84044604D01*
X133293140Y-84049305D01*
X123487125Y-83929460D01*
X123420331Y-83908957D01*
X123375225Y-83855598D01*
X123366127Y-83786323D01*
X123370077Y-83772269D01*
X123369399Y-83772088D01*
X123371503Y-83764237D01*
X123400500Y-83656018D01*
X123400500Y-83543982D01*
X123371503Y-83435763D01*
X123315485Y-83338737D01*
X123236263Y-83259515D01*
X123139237Y-83203497D01*
X123031018Y-83174500D01*
X122918982Y-83174500D01*
X122810763Y-83203497D01*
X122810760Y-83203498D01*
X122713740Y-83259513D01*
X122713734Y-83259517D01*
X122634517Y-83338734D01*
X122634513Y-83338740D01*
X122578498Y-83435760D01*
X122578497Y-83435763D01*
X122549500Y-83543982D01*
X122549500Y-83656017D01*
X122577570Y-83760778D01*
X122575907Y-83830628D01*
X122536744Y-83888490D01*
X122472515Y-83915994D01*
X122456280Y-83916862D01*
X114067574Y-83814340D01*
X114000780Y-83793837D01*
X113981408Y-83778030D01*
X113929174Y-83725796D01*
X113929170Y-83725793D01*
X113829186Y-83658985D01*
X113829177Y-83658980D01*
X113718076Y-83612961D01*
X113718068Y-83612959D01*
X113600133Y-83589500D01*
X113600129Y-83589500D01*
X113479871Y-83589500D01*
X113479866Y-83589500D01*
X113361931Y-83612959D01*
X113361923Y-83612961D01*
X113250822Y-83658980D01*
X113250813Y-83658985D01*
X113150832Y-83725791D01*
X113150826Y-83725795D01*
X113111365Y-83765256D01*
X113050041Y-83798740D01*
X113022171Y-83801564D01*
X100897985Y-83653388D01*
X100831191Y-83632885D01*
X100786085Y-83579526D01*
X100775500Y-83529397D01*
X100775500Y-82143982D01*
X106024500Y-82143982D01*
X106024500Y-82256018D01*
X106053497Y-82364237D01*
X106109515Y-82461263D01*
X106188737Y-82540485D01*
X106285763Y-82596503D01*
X106393982Y-82625500D01*
X106393984Y-82625500D01*
X106506016Y-82625500D01*
X106506018Y-82625500D01*
X106614237Y-82596503D01*
X106711263Y-82540485D01*
X106790485Y-82461263D01*
X106846503Y-82364237D01*
X106875500Y-82256018D01*
X106875500Y-82143982D01*
X106846503Y-82035763D01*
X106790485Y-81938737D01*
X106711263Y-81859515D01*
X106614237Y-81803497D01*
X106506018Y-81774500D01*
X106393982Y-81774500D01*
X106285763Y-81803497D01*
X106285760Y-81803498D01*
X106188740Y-81859513D01*
X106188734Y-81859517D01*
X106109517Y-81938734D01*
X106109513Y-81938740D01*
X106053498Y-82035760D01*
X106053497Y-82035763D01*
X106024500Y-82143982D01*
X100775500Y-82143982D01*
X100775500Y-80818982D01*
X114324500Y-80818982D01*
X114324500Y-80931018D01*
X114353497Y-81039237D01*
X114409515Y-81136263D01*
X114488737Y-81215485D01*
X114585763Y-81271503D01*
X114693982Y-81300500D01*
X114693984Y-81300500D01*
X114806016Y-81300500D01*
X114806018Y-81300500D01*
X114914237Y-81271503D01*
X115011263Y-81215485D01*
X115090485Y-81136263D01*
X115146503Y-81039237D01*
X115175500Y-80931018D01*
X115175500Y-80818982D01*
X115146503Y-80710763D01*
X115090485Y-80613737D01*
X115011263Y-80534515D01*
X114914237Y-80478497D01*
X114806018Y-80449500D01*
X114693982Y-80449500D01*
X114585763Y-80478497D01*
X114585760Y-80478498D01*
X114488740Y-80534513D01*
X114488734Y-80534517D01*
X114409517Y-80613734D01*
X114409513Y-80613740D01*
X114353498Y-80710760D01*
X114353497Y-80710763D01*
X114324500Y-80818982D01*
X100775500Y-80818982D01*
X100775500Y-80306379D01*
X119474500Y-80306379D01*
X119474500Y-80493620D01*
X119511025Y-80677243D01*
X119511027Y-80677251D01*
X119582676Y-80850228D01*
X119582681Y-80850237D01*
X119686697Y-81005907D01*
X119686700Y-81005911D01*
X119819088Y-81138299D01*
X119819092Y-81138302D01*
X119974762Y-81242318D01*
X119974768Y-81242321D01*
X119974769Y-81242322D01*
X120147749Y-81313973D01*
X120331379Y-81350499D01*
X120331383Y-81350500D01*
X120331384Y-81350500D01*
X120518617Y-81350500D01*
X120518618Y-81350499D01*
X120702251Y-81313973D01*
X120875231Y-81242322D01*
X121030908Y-81138302D01*
X121163302Y-81005908D01*
X121267322Y-80850231D01*
X121338973Y-80677251D01*
X121375500Y-80493616D01*
X121375500Y-80306384D01*
X121338973Y-80122749D01*
X121267322Y-79949769D01*
X121267321Y-79949768D01*
X121267318Y-79949762D01*
X121163302Y-79794092D01*
X121163299Y-79794088D01*
X121030911Y-79661700D01*
X121030907Y-79661697D01*
X120875237Y-79557681D01*
X120875228Y-79557676D01*
X120702251Y-79486027D01*
X120702243Y-79486025D01*
X120518620Y-79449500D01*
X120518616Y-79449500D01*
X120331384Y-79449500D01*
X120331379Y-79449500D01*
X120147756Y-79486025D01*
X120147748Y-79486027D01*
X119974771Y-79557676D01*
X119974762Y-79557681D01*
X119819092Y-79661697D01*
X119819088Y-79661700D01*
X119686700Y-79794088D01*
X119686697Y-79794092D01*
X119582681Y-79949762D01*
X119582676Y-79949771D01*
X119511027Y-80122748D01*
X119511025Y-80122756D01*
X119474500Y-80306379D01*
X100775500Y-80306379D01*
X100775500Y-78721153D01*
X102674500Y-78721153D01*
X102674500Y-78878846D01*
X102705261Y-79033489D01*
X102705264Y-79033501D01*
X102765602Y-79179172D01*
X102765609Y-79179185D01*
X102853210Y-79310288D01*
X102853213Y-79310292D01*
X102964707Y-79421786D01*
X102964711Y-79421789D01*
X103095814Y-79509390D01*
X103095827Y-79509397D01*
X103212397Y-79557681D01*
X103241503Y-79569737D01*
X103396153Y-79600499D01*
X103396156Y-79600500D01*
X103396158Y-79600500D01*
X104103844Y-79600500D01*
X104103845Y-79600499D01*
X104258497Y-79569737D01*
X104404179Y-79509394D01*
X104535289Y-79421789D01*
X104646789Y-79310289D01*
X104734394Y-79179179D01*
X104794737Y-79033497D01*
X104825500Y-78878842D01*
X104825500Y-78721158D01*
X104825500Y-78721155D01*
X104825499Y-78721153D01*
X104794738Y-78566510D01*
X104794737Y-78566503D01*
X104748973Y-78456018D01*
X104734397Y-78420827D01*
X104734390Y-78420814D01*
X104646789Y-78289711D01*
X104646786Y-78289707D01*
X104535292Y-78178213D01*
X104535288Y-78178210D01*
X104404185Y-78090609D01*
X104404172Y-78090602D01*
X104258501Y-78030264D01*
X104258489Y-78030261D01*
X104103845Y-77999500D01*
X104103842Y-77999500D01*
X103396158Y-77999500D01*
X103396155Y-77999500D01*
X103241510Y-78030261D01*
X103241498Y-78030264D01*
X103095827Y-78090602D01*
X103095814Y-78090609D01*
X102964711Y-78178210D01*
X102964707Y-78178213D01*
X102853213Y-78289707D01*
X102853210Y-78289711D01*
X102765609Y-78420814D01*
X102765602Y-78420827D01*
X102705264Y-78566498D01*
X102705261Y-78566510D01*
X102674500Y-78721153D01*
X100775500Y-78721153D01*
X100775500Y-76395730D01*
X102674500Y-76395730D01*
X102674500Y-77204269D01*
X102677353Y-77234699D01*
X102677353Y-77234701D01*
X102722206Y-77362880D01*
X102722207Y-77362882D01*
X102802850Y-77472150D01*
X102912118Y-77552793D01*
X102954845Y-77567744D01*
X103040299Y-77597646D01*
X103070730Y-77600500D01*
X103070734Y-77600500D01*
X104429270Y-77600500D01*
X104459699Y-77597646D01*
X104459701Y-77597646D01*
X104523790Y-77575219D01*
X104587882Y-77552793D01*
X104697150Y-77472150D01*
X104777793Y-77362882D01*
X104800219Y-77298790D01*
X104822646Y-77234701D01*
X104822646Y-77234699D01*
X104825500Y-77204269D01*
X104825500Y-76395730D01*
X104822646Y-76365300D01*
X104822646Y-76365298D01*
X104777793Y-76237119D01*
X104777792Y-76237117D01*
X104697150Y-76127850D01*
X104587882Y-76047207D01*
X104587880Y-76047206D01*
X104459700Y-76002353D01*
X104429270Y-75999500D01*
X104429266Y-75999500D01*
X103070734Y-75999500D01*
X103070730Y-75999500D01*
X103040300Y-76002353D01*
X103040298Y-76002353D01*
X102912119Y-76047206D01*
X102912117Y-76047207D01*
X102802850Y-76127850D01*
X102722207Y-76237117D01*
X102722206Y-76237119D01*
X102677353Y-76365298D01*
X102677353Y-76365300D01*
X102674500Y-76395730D01*
X100775500Y-76395730D01*
X100775500Y-68971153D01*
X102674500Y-68971153D01*
X102674500Y-69128846D01*
X102705261Y-69283489D01*
X102705264Y-69283501D01*
X102765602Y-69429172D01*
X102765609Y-69429185D01*
X102853210Y-69560288D01*
X102853213Y-69560292D01*
X102964707Y-69671786D01*
X102964711Y-69671789D01*
X103095814Y-69759390D01*
X103095827Y-69759397D01*
X103204618Y-69804459D01*
X103241503Y-69819737D01*
X103392367Y-69849746D01*
X103396153Y-69850499D01*
X103396156Y-69850500D01*
X103396158Y-69850500D01*
X104103844Y-69850500D01*
X104103845Y-69850499D01*
X104258497Y-69819737D01*
X104404179Y-69759394D01*
X104535289Y-69671789D01*
X104646789Y-69560289D01*
X104734394Y-69429179D01*
X104794737Y-69283497D01*
X104825500Y-69128842D01*
X104825500Y-68971158D01*
X104825500Y-68971155D01*
X104825499Y-68971153D01*
X104803447Y-68860292D01*
X104794737Y-68816503D01*
X104778981Y-68778464D01*
X104734397Y-68670827D01*
X104734390Y-68670814D01*
X104646789Y-68539711D01*
X104646786Y-68539707D01*
X104535292Y-68428213D01*
X104535288Y-68428210D01*
X104404185Y-68340609D01*
X104404172Y-68340602D01*
X104258501Y-68280264D01*
X104258489Y-68280261D01*
X104103845Y-68249500D01*
X104103842Y-68249500D01*
X103396158Y-68249500D01*
X103396155Y-68249500D01*
X103241510Y-68280261D01*
X103241498Y-68280264D01*
X103095827Y-68340602D01*
X103095814Y-68340609D01*
X102964711Y-68428210D01*
X102964707Y-68428213D01*
X102853213Y-68539707D01*
X102853210Y-68539711D01*
X102765609Y-68670814D01*
X102765602Y-68670827D01*
X102705264Y-68816498D01*
X102705261Y-68816510D01*
X102674500Y-68971153D01*
X100775500Y-68971153D01*
X100775500Y-66971153D01*
X102674500Y-66971153D01*
X102674500Y-67128846D01*
X102705261Y-67283489D01*
X102705264Y-67283501D01*
X102765602Y-67429172D01*
X102765609Y-67429185D01*
X102853210Y-67560288D01*
X102853213Y-67560292D01*
X102964707Y-67671786D01*
X102964711Y-67671789D01*
X103095814Y-67759390D01*
X103095827Y-67759397D01*
X103241498Y-67819735D01*
X103241503Y-67819737D01*
X103396153Y-67850499D01*
X103396156Y-67850500D01*
X103396158Y-67850500D01*
X104103844Y-67850500D01*
X104103845Y-67850499D01*
X104258497Y-67819737D01*
X104404179Y-67759394D01*
X104535289Y-67671789D01*
X104646789Y-67560289D01*
X104734394Y-67429179D01*
X104794737Y-67283497D01*
X104825500Y-67128842D01*
X104825500Y-66971158D01*
X104825500Y-66971155D01*
X104825499Y-66971153D01*
X104796452Y-66825127D01*
X104794737Y-66816503D01*
X104764698Y-66743982D01*
X104734397Y-66670827D01*
X104734390Y-66670814D01*
X104646789Y-66539711D01*
X104646786Y-66539707D01*
X104535292Y-66428213D01*
X104535288Y-66428210D01*
X104404185Y-66340609D01*
X104404172Y-66340602D01*
X104258501Y-66280264D01*
X104258489Y-66280261D01*
X104103845Y-66249500D01*
X104103842Y-66249500D01*
X103396158Y-66249500D01*
X103396155Y-66249500D01*
X103241510Y-66280261D01*
X103241498Y-66280264D01*
X103095827Y-66340602D01*
X103095814Y-66340609D01*
X102964711Y-66428210D01*
X102964707Y-66428213D01*
X102853213Y-66539707D01*
X102853210Y-66539711D01*
X102765609Y-66670814D01*
X102765602Y-66670827D01*
X102705264Y-66816498D01*
X102705261Y-66816510D01*
X102674500Y-66971153D01*
X100775500Y-66971153D01*
X100775500Y-64645730D01*
X102674500Y-64645730D01*
X102674500Y-65454269D01*
X102677353Y-65484699D01*
X102677353Y-65484701D01*
X102717699Y-65600000D01*
X102722207Y-65612882D01*
X102802850Y-65722150D01*
X102912118Y-65802793D01*
X102922038Y-65806264D01*
X103040299Y-65847646D01*
X103070730Y-65850500D01*
X103070734Y-65850500D01*
X104429270Y-65850500D01*
X104459699Y-65847646D01*
X104459701Y-65847646D01*
X104523790Y-65825219D01*
X104587882Y-65802793D01*
X104697150Y-65722150D01*
X104777793Y-65612882D01*
X104818444Y-65496708D01*
X104822646Y-65484701D01*
X104822646Y-65484699D01*
X104825500Y-65454269D01*
X104825500Y-64645730D01*
X104822646Y-64615300D01*
X104822646Y-64615298D01*
X104777793Y-64487119D01*
X104777792Y-64487117D01*
X104754840Y-64456018D01*
X104697150Y-64377850D01*
X104587882Y-64297207D01*
X104587880Y-64297206D01*
X104459700Y-64252353D01*
X104429270Y-64249500D01*
X104429266Y-64249500D01*
X103070734Y-64249500D01*
X103070730Y-64249500D01*
X103040300Y-64252353D01*
X103040298Y-64252353D01*
X102912119Y-64297206D01*
X102912117Y-64297207D01*
X102802850Y-64377850D01*
X102722207Y-64487117D01*
X102722206Y-64487119D01*
X102677353Y-64615298D01*
X102677353Y-64615300D01*
X102674500Y-64645730D01*
X100775500Y-64645730D01*
X100775500Y-63538298D01*
X110224500Y-63538298D01*
X110224500Y-63549677D01*
X110224500Y-64211702D01*
X110260880Y-64859515D01*
X110262259Y-64884059D01*
X110337649Y-65553169D01*
X110337655Y-65553216D01*
X110450452Y-66217097D01*
X110600297Y-66873612D01*
X110626406Y-66964237D01*
X110786722Y-67520707D01*
X111009133Y-68156321D01*
X111246418Y-68729179D01*
X111266833Y-68778463D01*
X111266843Y-68778486D01*
X111558998Y-69385153D01*
X111559008Y-69385172D01*
X111559012Y-69385180D01*
X111868818Y-69945730D01*
X111884752Y-69974561D01*
X112243024Y-70544749D01*
X112581758Y-71022149D01*
X112632701Y-71093946D01*
X113052561Y-71620434D01*
X113455657Y-72071498D01*
X113501280Y-72122550D01*
X113608664Y-72229934D01*
X113642149Y-72291257D01*
X113637165Y-72360949D01*
X113595293Y-72416882D01*
X113529829Y-72441299D01*
X113461556Y-72426447D01*
X113445497Y-72415991D01*
X113283126Y-72291400D01*
X113067376Y-72166837D01*
X113067361Y-72166830D01*
X112837207Y-72071498D01*
X112596561Y-72007017D01*
X112349575Y-71974501D01*
X112349570Y-71974500D01*
X112349565Y-71974500D01*
X112100435Y-71974500D01*
X112100429Y-71974500D01*
X112100424Y-71974501D01*
X111853438Y-72007017D01*
X111612792Y-72071498D01*
X111382638Y-72166830D01*
X111382623Y-72166837D01*
X111166873Y-72291400D01*
X110969225Y-72443060D01*
X110969218Y-72443066D01*
X110793066Y-72619218D01*
X110793060Y-72619225D01*
X110641400Y-72816873D01*
X110516837Y-73032623D01*
X110516830Y-73032638D01*
X110421498Y-73262792D01*
X110357017Y-73503438D01*
X110324501Y-73750424D01*
X110324500Y-73750441D01*
X110324500Y-73999558D01*
X110324501Y-73999575D01*
X110357017Y-74246561D01*
X110421498Y-74487207D01*
X110516830Y-74717361D01*
X110516837Y-74717376D01*
X110641400Y-74933126D01*
X110793060Y-75130774D01*
X110793066Y-75130781D01*
X110969218Y-75306933D01*
X110969225Y-75306939D01*
X111166873Y-75458599D01*
X111382623Y-75583162D01*
X111382638Y-75583169D01*
X111471332Y-75619907D01*
X111612793Y-75678502D01*
X111853435Y-75742982D01*
X112100435Y-75775500D01*
X112100442Y-75775500D01*
X112349558Y-75775500D01*
X112349565Y-75775500D01*
X112596565Y-75742982D01*
X112837207Y-75678502D01*
X113067373Y-75583164D01*
X113283127Y-75458599D01*
X113480776Y-75306938D01*
X113656938Y-75130776D01*
X113808599Y-74933127D01*
X113933164Y-74717373D01*
X114028502Y-74487207D01*
X114092982Y-74246565D01*
X114125500Y-73999565D01*
X114125500Y-73750435D01*
X114092982Y-73503435D01*
X114028502Y-73262793D01*
X113965234Y-73110050D01*
X113933169Y-73032638D01*
X113933162Y-73032623D01*
X113808599Y-72816873D01*
X113684008Y-72654502D01*
X113658814Y-72589333D01*
X113672852Y-72520888D01*
X113721666Y-72470899D01*
X113789758Y-72455235D01*
X113855508Y-72478872D01*
X113870065Y-72491335D01*
X113977449Y-72598719D01*
X114479566Y-73047439D01*
X114814911Y-73314868D01*
X115006058Y-73467302D01*
X115555250Y-73856975D01*
X115555255Y-73856978D01*
X116125442Y-74215250D01*
X116714820Y-74540988D01*
X116714836Y-74540996D01*
X116714846Y-74541001D01*
X117069558Y-74711821D01*
X117321536Y-74833167D01*
X117943679Y-75090867D01*
X118579293Y-75313278D01*
X119226378Y-75499700D01*
X119882897Y-75649546D01*
X119882899Y-75649546D01*
X119882902Y-75649547D01*
X119988555Y-75667498D01*
X120546786Y-75762345D01*
X121215955Y-75837742D01*
X121888298Y-75875500D01*
X121888315Y-75875500D01*
X122561685Y-75875500D01*
X122561702Y-75875500D01*
X123234045Y-75837742D01*
X123903214Y-75762345D01*
X124567103Y-75649546D01*
X125223622Y-75499700D01*
X125870707Y-75313278D01*
X126506321Y-75090867D01*
X127128464Y-74833167D01*
X127735180Y-74540988D01*
X128324558Y-74215250D01*
X128894745Y-73856978D01*
X129443946Y-73467299D01*
X129842265Y-73149650D01*
X129906950Y-73123242D01*
X129975645Y-73135999D01*
X130026539Y-73183869D01*
X130043574Y-73245912D01*
X130093264Y-82227321D01*
X130093264Y-82227322D01*
X130098079Y-82270421D01*
X130109281Y-82321237D01*
X130111650Y-82330874D01*
X130154659Y-82411583D01*
X130154661Y-82411586D01*
X130200420Y-82464395D01*
X130207872Y-82472000D01*
X130218006Y-82482343D01*
X130218007Y-82482344D01*
X130218009Y-82482345D01*
X130274364Y-82513868D01*
X130297823Y-82526990D01*
X130364862Y-82546675D01*
X130422760Y-82555000D01*
X130422764Y-82555000D01*
X131855528Y-82555000D01*
X131875146Y-82554061D01*
X131898712Y-82551801D01*
X131973408Y-82529819D01*
X132035485Y-82497752D01*
X132083103Y-82463785D01*
X136359620Y-78379470D01*
X136386592Y-78359903D01*
X138599195Y-77171653D01*
X138624546Y-77155547D01*
X138653559Y-77133985D01*
X138676290Y-77114358D01*
X139058991Y-76731658D01*
X139073693Y-76715290D01*
X139073698Y-76715282D01*
X139073704Y-76715277D01*
X139090325Y-76694651D01*
X139090325Y-76694650D01*
X139090327Y-76694648D01*
X139127490Y-76623603D01*
X139147175Y-76556564D01*
X139155500Y-76498666D01*
X139155500Y-71274500D01*
X139175185Y-71207461D01*
X139227989Y-71161706D01*
X139279500Y-71150500D01*
X140304270Y-71150500D01*
X140334699Y-71147646D01*
X140334701Y-71147646D01*
X140398790Y-71125219D01*
X140462882Y-71102793D01*
X140572150Y-71022150D01*
X140652793Y-70912882D01*
X140694493Y-70793711D01*
X140697646Y-70784701D01*
X140697646Y-70784699D01*
X140700500Y-70754269D01*
X140700500Y-69945730D01*
X140697646Y-69915300D01*
X140697646Y-69915298D01*
X140652793Y-69787119D01*
X140652792Y-69787117D01*
X140632334Y-69759397D01*
X140572150Y-69677850D01*
X140462882Y-69597207D01*
X140462880Y-69597206D01*
X140334700Y-69552353D01*
X140304270Y-69549500D01*
X140304266Y-69549500D01*
X139279500Y-69549500D01*
X139270814Y-69546949D01*
X139261853Y-69548238D01*
X139237812Y-69537259D01*
X139212461Y-69529815D01*
X139206533Y-69522974D01*
X139198297Y-69519213D01*
X139184007Y-69496978D01*
X139166706Y-69477011D01*
X139164418Y-69466496D01*
X139160523Y-69460435D01*
X139155500Y-69425500D01*
X139155500Y-69274500D01*
X139175185Y-69207461D01*
X139227989Y-69161706D01*
X139279500Y-69150500D01*
X139978844Y-69150500D01*
X139978845Y-69150499D01*
X140133497Y-69119737D01*
X140279179Y-69059394D01*
X140410289Y-68971789D01*
X140521789Y-68860289D01*
X140609394Y-68729179D01*
X140669737Y-68583497D01*
X140700500Y-68428842D01*
X140700500Y-68271158D01*
X140700500Y-68271155D01*
X140700499Y-68271153D01*
X140693211Y-68234515D01*
X140669737Y-68116503D01*
X140622929Y-68003497D01*
X140609397Y-67970827D01*
X140609390Y-67970814D01*
X140521789Y-67839711D01*
X140521786Y-67839707D01*
X140410292Y-67728213D01*
X140410288Y-67728210D01*
X140279185Y-67640609D01*
X140279172Y-67640602D01*
X140133501Y-67580264D01*
X140133489Y-67580261D01*
X139978845Y-67549500D01*
X139978842Y-67549500D01*
X139279500Y-67549500D01*
X139212461Y-67529815D01*
X139166706Y-67477011D01*
X139155500Y-67425500D01*
X139155500Y-64249500D01*
X139175185Y-64182461D01*
X139227989Y-64136706D01*
X139279500Y-64125500D01*
X140304270Y-64125500D01*
X140334699Y-64122646D01*
X140334701Y-64122646D01*
X140398790Y-64100219D01*
X140462882Y-64077793D01*
X140572150Y-63997150D01*
X140652793Y-63887882D01*
X140685489Y-63794443D01*
X140697646Y-63759701D01*
X140697646Y-63759699D01*
X140700500Y-63729269D01*
X140700500Y-62920730D01*
X140697646Y-62890300D01*
X140697646Y-62890298D01*
X140652793Y-62762119D01*
X140652792Y-62762117D01*
X140635537Y-62738737D01*
X140572150Y-62652850D01*
X140462882Y-62572207D01*
X140462880Y-62572206D01*
X140334700Y-62527353D01*
X140304270Y-62524500D01*
X140304266Y-62524500D01*
X139279500Y-62524500D01*
X139270814Y-62521949D01*
X139261853Y-62523238D01*
X139237812Y-62512259D01*
X139212461Y-62504815D01*
X139206533Y-62497974D01*
X139198297Y-62494213D01*
X139184007Y-62471978D01*
X139166706Y-62452011D01*
X139164418Y-62441496D01*
X139160523Y-62435435D01*
X139155500Y-62400500D01*
X139155500Y-62249500D01*
X139175185Y-62182461D01*
X139227989Y-62136706D01*
X139279500Y-62125500D01*
X139978844Y-62125500D01*
X139978845Y-62125499D01*
X140133497Y-62094737D01*
X140279179Y-62034394D01*
X140410289Y-61946789D01*
X140521789Y-61835289D01*
X140609394Y-61704179D01*
X140617069Y-61685651D01*
X140649486Y-61607387D01*
X140669737Y-61558497D01*
X140700500Y-61403842D01*
X140700500Y-61246158D01*
X140700500Y-61246155D01*
X140700499Y-61246153D01*
X140699024Y-61238737D01*
X140669737Y-61091503D01*
X140655039Y-61056018D01*
X140609397Y-60945827D01*
X140609390Y-60945814D01*
X140521789Y-60814711D01*
X140521786Y-60814707D01*
X140410292Y-60703213D01*
X140410288Y-60703210D01*
X140279185Y-60615609D01*
X140279172Y-60615602D01*
X140133501Y-60555264D01*
X140133489Y-60555261D01*
X139978845Y-60524500D01*
X139978842Y-60524500D01*
X139279500Y-60524500D01*
X139270814Y-60521949D01*
X139261853Y-60523238D01*
X139237812Y-60512259D01*
X139212461Y-60504815D01*
X139206533Y-60497974D01*
X139198297Y-60494213D01*
X139184007Y-60471978D01*
X139166706Y-60452011D01*
X139164418Y-60441496D01*
X139160523Y-60435435D01*
X139155500Y-60400500D01*
X139155500Y-60249500D01*
X139175185Y-60182461D01*
X139227989Y-60136706D01*
X139279500Y-60125500D01*
X139978844Y-60125500D01*
X139978845Y-60125499D01*
X140133497Y-60094737D01*
X140246166Y-60048067D01*
X140279172Y-60034397D01*
X140279172Y-60034396D01*
X140279179Y-60034394D01*
X140410289Y-59946789D01*
X140521789Y-59835289D01*
X140609394Y-59704179D01*
X140669737Y-59558497D01*
X140700500Y-59403842D01*
X140700500Y-59246158D01*
X140700500Y-59246155D01*
X140700499Y-59246153D01*
X140695527Y-59221158D01*
X140669737Y-59091503D01*
X140646648Y-59035760D01*
X140609397Y-58945827D01*
X140609390Y-58945814D01*
X140521789Y-58814711D01*
X140521786Y-58814707D01*
X140410292Y-58703213D01*
X140410288Y-58703210D01*
X140279185Y-58615609D01*
X140279172Y-58615602D01*
X140133501Y-58555264D01*
X140133489Y-58555261D01*
X139978845Y-58524500D01*
X139978842Y-58524500D01*
X139279500Y-58524500D01*
X139212461Y-58504815D01*
X139166706Y-58452011D01*
X139155500Y-58400500D01*
X139155500Y-58086760D01*
X139153747Y-58069738D01*
X139151185Y-58044869D01*
X139143799Y-58009397D01*
X139140885Y-57995401D01*
X139138940Y-57986955D01*
X139138940Y-57986954D01*
X139097378Y-57905488D01*
X139052575Y-57851879D01*
X139034634Y-57835763D01*
X139009066Y-57812796D01*
X139005319Y-57810292D01*
X138980860Y-57793949D01*
X138962075Y-57778532D01*
X138896467Y-57712925D01*
X138881046Y-57694133D01*
X138829501Y-57616990D01*
X138818044Y-57595558D01*
X138782536Y-57509832D01*
X138775483Y-57486579D01*
X138757383Y-57395583D01*
X138755000Y-57371392D01*
X138755000Y-57278605D01*
X138757383Y-57254414D01*
X138768774Y-57197147D01*
X138775484Y-57163412D01*
X138782535Y-57140168D01*
X138818046Y-57054435D01*
X138829501Y-57033007D01*
X138863018Y-56982845D01*
X138881047Y-56955861D01*
X138896461Y-56937078D01*
X138962076Y-56871463D01*
X138980870Y-56856043D01*
X138988499Y-56850946D01*
X139022959Y-56821992D01*
X139060242Y-56782945D01*
X139067987Y-56774363D01*
X139110352Y-56693311D01*
X139128127Y-56625741D01*
X139134805Y-56567634D01*
X139132781Y-56496305D01*
X139054438Y-53734699D01*
X139052635Y-53671153D01*
X147049500Y-53671153D01*
X147049500Y-54378846D01*
X147080261Y-54533489D01*
X147080264Y-54533501D01*
X147140602Y-54679172D01*
X147140609Y-54679185D01*
X147228210Y-54810288D01*
X147228213Y-54810292D01*
X147339707Y-54921786D01*
X147339711Y-54921789D01*
X147470814Y-55009390D01*
X147470827Y-55009397D01*
X147575596Y-55052793D01*
X147616503Y-55069737D01*
X147756810Y-55097646D01*
X147771153Y-55100499D01*
X147771156Y-55100500D01*
X147771158Y-55100500D01*
X147928844Y-55100500D01*
X147928845Y-55100499D01*
X148083497Y-55069737D01*
X148229179Y-55009394D01*
X148360289Y-54921789D01*
X148471789Y-54810289D01*
X148559394Y-54679179D01*
X148565903Y-54663466D01*
X148619735Y-54533501D01*
X148619737Y-54533497D01*
X148650500Y-54378842D01*
X148650500Y-53671158D01*
X148650500Y-53671155D01*
X148650499Y-53671153D01*
X149049500Y-53671153D01*
X149049500Y-54378846D01*
X149080261Y-54533489D01*
X149080264Y-54533501D01*
X149140602Y-54679172D01*
X149140609Y-54679185D01*
X149228210Y-54810288D01*
X149228213Y-54810292D01*
X149339707Y-54921786D01*
X149339711Y-54921789D01*
X149470814Y-55009390D01*
X149470827Y-55009397D01*
X149575596Y-55052793D01*
X149616503Y-55069737D01*
X149756810Y-55097646D01*
X149771153Y-55100499D01*
X149771156Y-55100500D01*
X149771158Y-55100500D01*
X149928844Y-55100500D01*
X149928845Y-55100499D01*
X150083497Y-55069737D01*
X150229179Y-55009394D01*
X150360289Y-54921789D01*
X150471789Y-54810289D01*
X150559394Y-54679179D01*
X150565903Y-54663466D01*
X150619735Y-54533501D01*
X150619737Y-54533497D01*
X150650500Y-54378842D01*
X150650500Y-53671158D01*
X150650500Y-53671155D01*
X150650499Y-53671153D01*
X150645527Y-53646158D01*
X150619737Y-53516503D01*
X150559394Y-53370821D01*
X150559391Y-53370816D01*
X150559390Y-53370814D01*
X150542629Y-53345730D01*
X151049500Y-53345730D01*
X151049500Y-54704269D01*
X151052353Y-54734699D01*
X151052353Y-54734701D01*
X151097206Y-54862880D01*
X151097207Y-54862882D01*
X151177850Y-54972150D01*
X151287118Y-55052793D01*
X151322910Y-55065317D01*
X151415299Y-55097646D01*
X151445730Y-55100500D01*
X151445734Y-55100500D01*
X152254270Y-55100500D01*
X152284699Y-55097646D01*
X152284701Y-55097646D01*
X152348790Y-55075219D01*
X152412882Y-55052793D01*
X152522150Y-54972150D01*
X152602793Y-54862882D01*
X152635013Y-54770802D01*
X152647646Y-54734701D01*
X152647646Y-54734699D01*
X152650500Y-54704269D01*
X152650500Y-53345730D01*
X152647646Y-53315300D01*
X152647646Y-53315298D01*
X152602793Y-53187119D01*
X152602792Y-53187117D01*
X152522150Y-53077850D01*
X152412882Y-52997207D01*
X152412880Y-52997206D01*
X152284700Y-52952353D01*
X152254270Y-52949500D01*
X152254266Y-52949500D01*
X151445734Y-52949500D01*
X151445730Y-52949500D01*
X151415300Y-52952353D01*
X151415298Y-52952353D01*
X151287119Y-52997206D01*
X151287117Y-52997207D01*
X151177850Y-53077850D01*
X151097207Y-53187117D01*
X151097206Y-53187119D01*
X151052353Y-53315298D01*
X151052353Y-53315300D01*
X151049500Y-53345730D01*
X150542629Y-53345730D01*
X150471789Y-53239711D01*
X150471786Y-53239707D01*
X150360292Y-53128213D01*
X150360288Y-53128210D01*
X150229185Y-53040609D01*
X150229172Y-53040602D01*
X150083501Y-52980264D01*
X150083489Y-52980261D01*
X149928845Y-52949500D01*
X149928842Y-52949500D01*
X149771158Y-52949500D01*
X149771155Y-52949500D01*
X149616510Y-52980261D01*
X149616498Y-52980264D01*
X149470827Y-53040602D01*
X149470814Y-53040609D01*
X149339711Y-53128210D01*
X149339707Y-53128213D01*
X149228213Y-53239707D01*
X149228210Y-53239711D01*
X149140609Y-53370814D01*
X149140602Y-53370827D01*
X149080264Y-53516498D01*
X149080261Y-53516510D01*
X149049500Y-53671153D01*
X148650499Y-53671153D01*
X148645527Y-53646158D01*
X148619737Y-53516503D01*
X148567458Y-53390289D01*
X148559397Y-53370827D01*
X148559390Y-53370814D01*
X148471789Y-53239711D01*
X148471786Y-53239707D01*
X148360292Y-53128213D01*
X148360288Y-53128210D01*
X148229185Y-53040609D01*
X148229172Y-53040602D01*
X148083501Y-52980264D01*
X148083489Y-52980261D01*
X147928845Y-52949500D01*
X147928842Y-52949500D01*
X147771158Y-52949500D01*
X147771155Y-52949500D01*
X147616510Y-52980261D01*
X147616498Y-52980264D01*
X147470827Y-53040602D01*
X147470814Y-53040609D01*
X147339711Y-53128210D01*
X147339707Y-53128213D01*
X147228213Y-53239707D01*
X147228210Y-53239711D01*
X147140609Y-53370814D01*
X147140602Y-53370827D01*
X147080264Y-53516498D01*
X147080261Y-53516510D01*
X147049500Y-53671153D01*
X139052635Y-53671153D01*
X138960253Y-50414730D01*
X138978028Y-50347164D01*
X139009798Y-50312022D01*
X140223700Y-49401599D01*
X140250870Y-49377160D01*
X140280785Y-49344999D01*
X140282843Y-49342753D01*
X140287183Y-49334993D01*
X140337089Y-49286094D01*
X140405509Y-49271938D01*
X140470722Y-49297021D01*
X140498505Y-49326634D01*
X140536917Y-49384121D01*
X140574024Y-49439657D01*
X140720342Y-49585975D01*
X140720345Y-49585977D01*
X140892402Y-49700941D01*
X141083580Y-49780130D01*
X141286530Y-49820499D01*
X141286534Y-49820500D01*
X141286535Y-49820500D01*
X141493466Y-49820500D01*
X141493467Y-49820499D01*
X141696420Y-49780130D01*
X141887598Y-49700941D01*
X142059655Y-49585977D01*
X142205977Y-49439655D01*
X142320941Y-49267598D01*
X142400130Y-49076420D01*
X142440500Y-48873465D01*
X142440500Y-48666535D01*
X142440499Y-48666530D01*
X142879500Y-48666530D01*
X142879500Y-48873469D01*
X142919868Y-49076412D01*
X142919870Y-49076420D01*
X142979575Y-49220561D01*
X142999059Y-49267598D01*
X143019340Y-49297951D01*
X143114024Y-49439657D01*
X143260342Y-49585975D01*
X143260345Y-49585977D01*
X143432402Y-49700941D01*
X143623580Y-49780130D01*
X143826530Y-49820499D01*
X143826534Y-49820500D01*
X143826535Y-49820500D01*
X144033466Y-49820500D01*
X144033467Y-49820499D01*
X144236420Y-49780130D01*
X144427598Y-49700941D01*
X144599655Y-49585977D01*
X144745977Y-49439655D01*
X144860941Y-49267598D01*
X144940130Y-49076420D01*
X144980500Y-48873465D01*
X144980500Y-48666535D01*
X144980499Y-48666530D01*
X145419500Y-48666530D01*
X145419500Y-48873469D01*
X145459868Y-49076412D01*
X145459870Y-49076420D01*
X145519575Y-49220561D01*
X145539059Y-49267598D01*
X145559340Y-49297951D01*
X145654024Y-49439657D01*
X145800342Y-49585975D01*
X145800345Y-49585977D01*
X145972402Y-49700941D01*
X146163580Y-49780130D01*
X146366530Y-49820499D01*
X146366534Y-49820500D01*
X146366535Y-49820500D01*
X146573466Y-49820500D01*
X146573467Y-49820499D01*
X146776420Y-49780130D01*
X146967598Y-49700941D01*
X147139655Y-49585977D01*
X147285977Y-49439655D01*
X147400941Y-49267598D01*
X147480130Y-49076420D01*
X147520500Y-48873465D01*
X147520500Y-48666535D01*
X147520499Y-48666530D01*
X147959500Y-48666530D01*
X147959500Y-48873469D01*
X147999868Y-49076412D01*
X147999870Y-49076420D01*
X148059575Y-49220561D01*
X148079059Y-49267598D01*
X148099340Y-49297951D01*
X148194024Y-49439657D01*
X148340342Y-49585975D01*
X148340345Y-49585977D01*
X148512402Y-49700941D01*
X148703580Y-49780130D01*
X148906530Y-49820499D01*
X148906534Y-49820500D01*
X148906535Y-49820500D01*
X149113466Y-49820500D01*
X149113467Y-49820499D01*
X149316420Y-49780130D01*
X149507598Y-49700941D01*
X149679655Y-49585977D01*
X149825977Y-49439655D01*
X149940941Y-49267598D01*
X150020130Y-49076420D01*
X150060500Y-48873465D01*
X150060500Y-48666535D01*
X150060499Y-48666530D01*
X150499500Y-48666530D01*
X150499500Y-48873469D01*
X150539868Y-49076412D01*
X150539870Y-49076420D01*
X150599575Y-49220561D01*
X150619059Y-49267598D01*
X150639340Y-49297951D01*
X150734024Y-49439657D01*
X150880342Y-49585975D01*
X150880345Y-49585977D01*
X151052402Y-49700941D01*
X151243580Y-49780130D01*
X151446530Y-49820499D01*
X151446534Y-49820500D01*
X151446535Y-49820500D01*
X151653466Y-49820500D01*
X151653467Y-49820499D01*
X151856420Y-49780130D01*
X152047598Y-49700941D01*
X152219655Y-49585977D01*
X152365977Y-49439655D01*
X152480941Y-49267598D01*
X152560130Y-49076420D01*
X152600500Y-48873465D01*
X152600500Y-48666535D01*
X152600499Y-48666530D01*
X153039500Y-48666530D01*
X153039500Y-48873469D01*
X153079868Y-49076412D01*
X153079870Y-49076420D01*
X153139575Y-49220561D01*
X153159059Y-49267598D01*
X153179340Y-49297951D01*
X153274024Y-49439657D01*
X153420342Y-49585975D01*
X153420345Y-49585977D01*
X153592402Y-49700941D01*
X153783580Y-49780130D01*
X153986530Y-49820499D01*
X153986534Y-49820500D01*
X153986535Y-49820500D01*
X154193466Y-49820500D01*
X154193467Y-49820499D01*
X154396420Y-49780130D01*
X154587598Y-49700941D01*
X154759655Y-49585977D01*
X154905977Y-49439655D01*
X155020941Y-49267598D01*
X155100130Y-49076420D01*
X155140500Y-48873465D01*
X155140500Y-48666535D01*
X155140499Y-48666530D01*
X155579500Y-48666530D01*
X155579500Y-48873469D01*
X155619868Y-49076412D01*
X155619870Y-49076420D01*
X155679575Y-49220561D01*
X155699059Y-49267598D01*
X155719340Y-49297951D01*
X155814024Y-49439657D01*
X155960342Y-49585975D01*
X155960345Y-49585977D01*
X156132402Y-49700941D01*
X156323580Y-49780130D01*
X156526530Y-49820499D01*
X156526534Y-49820500D01*
X156526535Y-49820500D01*
X156733466Y-49820500D01*
X156733467Y-49820499D01*
X156936420Y-49780130D01*
X157127598Y-49700941D01*
X157299655Y-49585977D01*
X157445977Y-49439655D01*
X157560941Y-49267598D01*
X157640130Y-49076420D01*
X157680500Y-48873465D01*
X157680500Y-48666535D01*
X157640130Y-48463580D01*
X157560941Y-48272402D01*
X157445977Y-48100345D01*
X157445975Y-48100342D01*
X157299657Y-47954024D01*
X157154694Y-47857164D01*
X157127598Y-47839059D01*
X157061987Y-47811882D01*
X156936420Y-47759870D01*
X156936412Y-47759868D01*
X156733469Y-47719500D01*
X156733465Y-47719500D01*
X156526535Y-47719500D01*
X156526530Y-47719500D01*
X156323587Y-47759868D01*
X156323579Y-47759870D01*
X156132403Y-47839058D01*
X155960342Y-47954024D01*
X155814024Y-48100342D01*
X155699058Y-48272403D01*
X155619870Y-48463579D01*
X155619868Y-48463587D01*
X155579500Y-48666530D01*
X155140499Y-48666530D01*
X155100130Y-48463580D01*
X155020941Y-48272402D01*
X154905977Y-48100345D01*
X154905975Y-48100342D01*
X154759657Y-47954024D01*
X154614694Y-47857164D01*
X154587598Y-47839059D01*
X154521987Y-47811882D01*
X154396420Y-47759870D01*
X154396412Y-47759868D01*
X154193469Y-47719500D01*
X154193465Y-47719500D01*
X153986535Y-47719500D01*
X153986530Y-47719500D01*
X153783587Y-47759868D01*
X153783579Y-47759870D01*
X153592403Y-47839058D01*
X153420342Y-47954024D01*
X153274024Y-48100342D01*
X153159058Y-48272403D01*
X153079870Y-48463579D01*
X153079868Y-48463587D01*
X153039500Y-48666530D01*
X152600499Y-48666530D01*
X152560130Y-48463580D01*
X152480941Y-48272402D01*
X152365977Y-48100345D01*
X152365975Y-48100342D01*
X152219657Y-47954024D01*
X152074694Y-47857164D01*
X152047598Y-47839059D01*
X151981987Y-47811882D01*
X151856420Y-47759870D01*
X151856412Y-47759868D01*
X151653469Y-47719500D01*
X151653465Y-47719500D01*
X151446535Y-47719500D01*
X151446530Y-47719500D01*
X151243587Y-47759868D01*
X151243579Y-47759870D01*
X151052403Y-47839058D01*
X150880342Y-47954024D01*
X150734024Y-48100342D01*
X150619058Y-48272403D01*
X150539870Y-48463579D01*
X150539868Y-48463587D01*
X150499500Y-48666530D01*
X150060499Y-48666530D01*
X150020130Y-48463580D01*
X149940941Y-48272402D01*
X149825977Y-48100345D01*
X149825975Y-48100342D01*
X149679657Y-47954024D01*
X149534694Y-47857164D01*
X149507598Y-47839059D01*
X149441987Y-47811882D01*
X149316420Y-47759870D01*
X149316412Y-47759868D01*
X149113469Y-47719500D01*
X149113465Y-47719500D01*
X148906535Y-47719500D01*
X148906530Y-47719500D01*
X148703587Y-47759868D01*
X148703579Y-47759870D01*
X148512403Y-47839058D01*
X148340342Y-47954024D01*
X148194024Y-48100342D01*
X148079058Y-48272403D01*
X147999870Y-48463579D01*
X147999868Y-48463587D01*
X147959500Y-48666530D01*
X147520499Y-48666530D01*
X147480130Y-48463580D01*
X147400941Y-48272402D01*
X147285977Y-48100345D01*
X147285975Y-48100342D01*
X147139657Y-47954024D01*
X146994694Y-47857164D01*
X146967598Y-47839059D01*
X146901987Y-47811882D01*
X146776420Y-47759870D01*
X146776412Y-47759868D01*
X146573469Y-47719500D01*
X146573465Y-47719500D01*
X146366535Y-47719500D01*
X146366530Y-47719500D01*
X146163587Y-47759868D01*
X146163579Y-47759870D01*
X145972403Y-47839058D01*
X145800342Y-47954024D01*
X145654024Y-48100342D01*
X145539058Y-48272403D01*
X145459870Y-48463579D01*
X145459868Y-48463587D01*
X145419500Y-48666530D01*
X144980499Y-48666530D01*
X144940130Y-48463580D01*
X144860941Y-48272402D01*
X144745977Y-48100345D01*
X144745975Y-48100342D01*
X144599657Y-47954024D01*
X144454694Y-47857164D01*
X144427598Y-47839059D01*
X144361987Y-47811882D01*
X144236420Y-47759870D01*
X144236412Y-47759868D01*
X144033469Y-47719500D01*
X144033465Y-47719500D01*
X143826535Y-47719500D01*
X143826530Y-47719500D01*
X143623587Y-47759868D01*
X143623579Y-47759870D01*
X143432403Y-47839058D01*
X143260342Y-47954024D01*
X143114024Y-48100342D01*
X142999058Y-48272403D01*
X142919870Y-48463579D01*
X142919868Y-48463587D01*
X142879500Y-48666530D01*
X142440499Y-48666530D01*
X142400130Y-48463580D01*
X142320941Y-48272402D01*
X142205977Y-48100345D01*
X142205975Y-48100342D01*
X142059657Y-47954024D01*
X141914694Y-47857164D01*
X141887598Y-47839059D01*
X141821987Y-47811882D01*
X141696420Y-47759870D01*
X141696412Y-47759868D01*
X141493469Y-47719500D01*
X141493465Y-47719500D01*
X141286535Y-47719500D01*
X141286530Y-47719500D01*
X141083587Y-47759868D01*
X141083579Y-47759870D01*
X140892403Y-47839058D01*
X140720342Y-47954024D01*
X140720341Y-47954025D01*
X140569715Y-48104652D01*
X140568474Y-48103411D01*
X140517595Y-48138061D01*
X140447750Y-48139924D01*
X140387985Y-48103730D01*
X140357276Y-48040971D01*
X140355500Y-48020058D01*
X140355500Y-46979941D01*
X140375185Y-46912902D01*
X140427989Y-46867147D01*
X140497147Y-46857203D01*
X140560703Y-46886228D01*
X140569647Y-46895415D01*
X140569715Y-46895348D01*
X140720342Y-47045975D01*
X140720345Y-47045977D01*
X140892402Y-47160941D01*
X141083580Y-47240130D01*
X141237408Y-47270728D01*
X141286530Y-47280499D01*
X141286534Y-47280500D01*
X141286535Y-47280500D01*
X141493466Y-47280500D01*
X141493467Y-47280499D01*
X141696420Y-47240130D01*
X141887598Y-47160941D01*
X142059655Y-47045977D01*
X142205977Y-46899655D01*
X142320941Y-46727598D01*
X142400130Y-46536420D01*
X142440500Y-46333465D01*
X142440500Y-46126535D01*
X142440499Y-46126530D01*
X142879500Y-46126530D01*
X142879500Y-46333469D01*
X142919868Y-46536412D01*
X142919870Y-46536420D01*
X142938329Y-46580985D01*
X142999059Y-46727598D01*
X143056541Y-46813626D01*
X143114024Y-46899657D01*
X143260342Y-47045975D01*
X143260345Y-47045977D01*
X143432402Y-47160941D01*
X143623580Y-47240130D01*
X143777408Y-47270728D01*
X143826530Y-47280499D01*
X143826534Y-47280500D01*
X143826535Y-47280500D01*
X144033466Y-47280500D01*
X144033467Y-47280499D01*
X144236420Y-47240130D01*
X144427598Y-47160941D01*
X144599655Y-47045977D01*
X144745977Y-46899655D01*
X144860941Y-46727598D01*
X144940130Y-46536420D01*
X144980500Y-46333465D01*
X144980500Y-46126535D01*
X144980499Y-46126530D01*
X145419500Y-46126530D01*
X145419500Y-46333469D01*
X145459868Y-46536412D01*
X145459870Y-46536420D01*
X145478329Y-46580985D01*
X145539059Y-46727598D01*
X145596541Y-46813626D01*
X145654024Y-46899657D01*
X145800342Y-47045975D01*
X145800345Y-47045977D01*
X145972402Y-47160941D01*
X146163580Y-47240130D01*
X146317408Y-47270728D01*
X146366530Y-47280499D01*
X146366534Y-47280500D01*
X146366535Y-47280500D01*
X146573466Y-47280500D01*
X146573467Y-47280499D01*
X146776420Y-47240130D01*
X146967598Y-47160941D01*
X147139655Y-47045977D01*
X147285977Y-46899655D01*
X147400941Y-46727598D01*
X147480130Y-46536420D01*
X147520500Y-46333465D01*
X147520500Y-46126535D01*
X147520499Y-46126530D01*
X147959500Y-46126530D01*
X147959500Y-46333469D01*
X147999868Y-46536412D01*
X147999870Y-46536420D01*
X148018329Y-46580985D01*
X148079059Y-46727598D01*
X148136541Y-46813626D01*
X148194024Y-46899657D01*
X148340342Y-47045975D01*
X148340345Y-47045977D01*
X148512402Y-47160941D01*
X148703580Y-47240130D01*
X148857408Y-47270728D01*
X148906530Y-47280499D01*
X148906534Y-47280500D01*
X148906535Y-47280500D01*
X149113466Y-47280500D01*
X149113467Y-47280499D01*
X149316420Y-47240130D01*
X149507598Y-47160941D01*
X149679655Y-47045977D01*
X149825977Y-46899655D01*
X149940941Y-46727598D01*
X150020130Y-46536420D01*
X150060500Y-46333465D01*
X150060500Y-46126535D01*
X150060499Y-46126530D01*
X150499500Y-46126530D01*
X150499500Y-46333469D01*
X150539868Y-46536412D01*
X150539870Y-46536420D01*
X150558329Y-46580985D01*
X150619059Y-46727598D01*
X150676541Y-46813626D01*
X150734024Y-46899657D01*
X150880342Y-47045975D01*
X150880345Y-47045977D01*
X151052402Y-47160941D01*
X151243580Y-47240130D01*
X151397408Y-47270728D01*
X151446530Y-47280499D01*
X151446534Y-47280500D01*
X151446535Y-47280500D01*
X151653466Y-47280500D01*
X151653467Y-47280499D01*
X151856420Y-47240130D01*
X152047598Y-47160941D01*
X152219655Y-47045977D01*
X152365977Y-46899655D01*
X152480941Y-46727598D01*
X152560130Y-46536420D01*
X152600500Y-46333465D01*
X152600500Y-46126535D01*
X152600499Y-46126530D01*
X153039500Y-46126530D01*
X153039500Y-46333469D01*
X153079868Y-46536412D01*
X153079870Y-46536420D01*
X153098329Y-46580985D01*
X153159059Y-46727598D01*
X153216541Y-46813626D01*
X153274024Y-46899657D01*
X153420342Y-47045975D01*
X153420345Y-47045977D01*
X153592402Y-47160941D01*
X153783580Y-47240130D01*
X153937408Y-47270728D01*
X153986530Y-47280499D01*
X153986534Y-47280500D01*
X153986535Y-47280500D01*
X154193466Y-47280500D01*
X154193467Y-47280499D01*
X154396420Y-47240130D01*
X154587598Y-47160941D01*
X154759655Y-47045977D01*
X154905977Y-46899655D01*
X155020941Y-46727598D01*
X155100130Y-46536420D01*
X155140500Y-46333465D01*
X155140500Y-46126535D01*
X155140499Y-46126530D01*
X155579500Y-46126530D01*
X155579500Y-46333469D01*
X155619868Y-46536412D01*
X155619870Y-46536420D01*
X155638329Y-46580985D01*
X155699059Y-46727598D01*
X155756541Y-46813626D01*
X155814024Y-46899657D01*
X155960342Y-47045975D01*
X155960345Y-47045977D01*
X156132402Y-47160941D01*
X156323580Y-47240130D01*
X156477408Y-47270728D01*
X156526530Y-47280499D01*
X156526534Y-47280500D01*
X156526535Y-47280500D01*
X156733466Y-47280500D01*
X156733467Y-47280499D01*
X156936420Y-47240130D01*
X157127598Y-47160941D01*
X157299655Y-47045977D01*
X157445977Y-46899655D01*
X157560941Y-46727598D01*
X157640130Y-46536420D01*
X157680500Y-46333465D01*
X157680500Y-46126535D01*
X157640130Y-45923580D01*
X157560941Y-45732402D01*
X157445977Y-45560345D01*
X157445975Y-45560342D01*
X157299657Y-45414024D01*
X157213626Y-45356541D01*
X157127598Y-45299059D01*
X156936420Y-45219870D01*
X156936412Y-45219868D01*
X156733469Y-45179500D01*
X156733465Y-45179500D01*
X156526535Y-45179500D01*
X156526530Y-45179500D01*
X156323587Y-45219868D01*
X156323579Y-45219870D01*
X156132403Y-45299058D01*
X155960342Y-45414024D01*
X155814024Y-45560342D01*
X155699058Y-45732403D01*
X155619870Y-45923579D01*
X155619868Y-45923587D01*
X155579500Y-46126530D01*
X155140499Y-46126530D01*
X155100130Y-45923580D01*
X155020941Y-45732402D01*
X154905977Y-45560345D01*
X154905975Y-45560342D01*
X154759657Y-45414024D01*
X154673626Y-45356541D01*
X154587598Y-45299059D01*
X154396420Y-45219870D01*
X154396412Y-45219868D01*
X154193469Y-45179500D01*
X154193465Y-45179500D01*
X153986535Y-45179500D01*
X153986530Y-45179500D01*
X153783587Y-45219868D01*
X153783579Y-45219870D01*
X153592403Y-45299058D01*
X153420342Y-45414024D01*
X153274024Y-45560342D01*
X153159058Y-45732403D01*
X153079870Y-45923579D01*
X153079868Y-45923587D01*
X153039500Y-46126530D01*
X152600499Y-46126530D01*
X152560130Y-45923580D01*
X152480941Y-45732402D01*
X152365977Y-45560345D01*
X152365975Y-45560342D01*
X152219657Y-45414024D01*
X152133626Y-45356541D01*
X152047598Y-45299059D01*
X151856420Y-45219870D01*
X151856412Y-45219868D01*
X151653469Y-45179500D01*
X151653465Y-45179500D01*
X151446535Y-45179500D01*
X151446530Y-45179500D01*
X151243587Y-45219868D01*
X151243579Y-45219870D01*
X151052403Y-45299058D01*
X150880342Y-45414024D01*
X150734024Y-45560342D01*
X150619058Y-45732403D01*
X150539870Y-45923579D01*
X150539868Y-45923587D01*
X150499500Y-46126530D01*
X150060499Y-46126530D01*
X150020130Y-45923580D01*
X149940941Y-45732402D01*
X149825977Y-45560345D01*
X149825975Y-45560342D01*
X149679657Y-45414024D01*
X149593626Y-45356541D01*
X149507598Y-45299059D01*
X149316420Y-45219870D01*
X149316412Y-45219868D01*
X149113469Y-45179500D01*
X149113465Y-45179500D01*
X148906535Y-45179500D01*
X148906530Y-45179500D01*
X148703587Y-45219868D01*
X148703579Y-45219870D01*
X148512403Y-45299058D01*
X148340342Y-45414024D01*
X148194024Y-45560342D01*
X148079058Y-45732403D01*
X147999870Y-45923579D01*
X147999868Y-45923587D01*
X147959500Y-46126530D01*
X147520499Y-46126530D01*
X147480130Y-45923580D01*
X147400941Y-45732402D01*
X147285977Y-45560345D01*
X147285975Y-45560342D01*
X147139657Y-45414024D01*
X147053626Y-45356541D01*
X146967598Y-45299059D01*
X146776420Y-45219870D01*
X146776412Y-45219868D01*
X146573469Y-45179500D01*
X146573465Y-45179500D01*
X146366535Y-45179500D01*
X146366530Y-45179500D01*
X146163587Y-45219868D01*
X146163579Y-45219870D01*
X145972403Y-45299058D01*
X145800342Y-45414024D01*
X145654024Y-45560342D01*
X145539058Y-45732403D01*
X145459870Y-45923579D01*
X145459868Y-45923587D01*
X145419500Y-46126530D01*
X144980499Y-46126530D01*
X144940130Y-45923580D01*
X144860941Y-45732402D01*
X144745977Y-45560345D01*
X144745975Y-45560342D01*
X144599657Y-45414024D01*
X144513626Y-45356541D01*
X144427598Y-45299059D01*
X144236420Y-45219870D01*
X144236412Y-45219868D01*
X144033469Y-45179500D01*
X144033465Y-45179500D01*
X143826535Y-45179500D01*
X143826530Y-45179500D01*
X143623587Y-45219868D01*
X143623579Y-45219870D01*
X143432403Y-45299058D01*
X143260342Y-45414024D01*
X143114024Y-45560342D01*
X142999058Y-45732403D01*
X142919870Y-45923579D01*
X142919868Y-45923587D01*
X142879500Y-46126530D01*
X142440499Y-46126530D01*
X142400130Y-45923580D01*
X142320941Y-45732402D01*
X142205977Y-45560345D01*
X142205975Y-45560342D01*
X142059657Y-45414024D01*
X141973626Y-45356541D01*
X141887598Y-45299059D01*
X141696420Y-45219870D01*
X141696412Y-45219868D01*
X141493469Y-45179500D01*
X141493465Y-45179500D01*
X141286535Y-45179500D01*
X141286530Y-45179500D01*
X141083587Y-45219868D01*
X141083579Y-45219870D01*
X140892403Y-45299058D01*
X140720342Y-45414024D01*
X140574024Y-45560342D01*
X140459058Y-45732403D01*
X140379870Y-45923579D01*
X140379868Y-45923585D01*
X140346099Y-46093353D01*
X140313714Y-46155264D01*
X140252998Y-46189838D01*
X140196390Y-46189937D01*
X140178314Y-46185732D01*
X140155633Y-46172576D01*
X140088911Y-46151846D01*
X140031148Y-46142617D01*
X140004578Y-46142202D01*
X139993391Y-46142720D01*
X139977288Y-46138975D01*
X139957940Y-46128047D01*
X139936719Y-46121455D01*
X139928109Y-46111199D01*
X139916451Y-46104615D01*
X139906081Y-46084959D01*
X139891795Y-46067942D01*
X139883970Y-46043050D01*
X139883848Y-46042818D01*
X139883858Y-46042694D01*
X139883763Y-46042390D01*
X139860131Y-45923587D01*
X139860131Y-45923585D01*
X139860130Y-45923580D01*
X139780941Y-45732402D01*
X139665977Y-45560345D01*
X139665975Y-45560342D01*
X139519657Y-45414024D01*
X139433626Y-45356541D01*
X139347598Y-45299059D01*
X139156420Y-45219870D01*
X139156412Y-45219868D01*
X138953469Y-45179500D01*
X138953465Y-45179500D01*
X138746535Y-45179500D01*
X138746530Y-45179500D01*
X138543587Y-45219868D01*
X138543579Y-45219870D01*
X138352403Y-45299058D01*
X138180342Y-45414024D01*
X138034024Y-45560342D01*
X137919058Y-45732403D01*
X137839870Y-45923579D01*
X137839868Y-45923585D01*
X137823396Y-46006397D01*
X137808341Y-46035176D01*
X137794483Y-46064558D01*
X137792238Y-46065961D01*
X137791011Y-46068308D01*
X137762776Y-46084385D01*
X137735243Y-46101604D01*
X137731743Y-46102057D01*
X137730295Y-46102882D01*
X137700249Y-46106196D01*
X137698574Y-46106175D01*
X137698541Y-46106170D01*
X137472455Y-46102638D01*
X137459730Y-46103227D01*
X137456090Y-46103183D01*
X137426020Y-46093949D01*
X137395479Y-46086497D01*
X137392890Y-46083775D01*
X137389298Y-46082672D01*
X137368996Y-46058649D01*
X137347330Y-46035867D01*
X137345635Y-46031007D01*
X137344199Y-46029308D01*
X137343689Y-46025428D01*
X137336004Y-46003388D01*
X137320130Y-45923580D01*
X137240941Y-45732402D01*
X137125977Y-45560345D01*
X137125975Y-45560342D01*
X136979657Y-45414024D01*
X136893626Y-45356541D01*
X136807598Y-45299059D01*
X136616420Y-45219870D01*
X136616412Y-45219868D01*
X136413469Y-45179500D01*
X136413465Y-45179500D01*
X136206535Y-45179500D01*
X136206530Y-45179500D01*
X136003587Y-45219868D01*
X136003579Y-45219870D01*
X135812403Y-45299058D01*
X135640342Y-45414024D01*
X135494024Y-45560342D01*
X135379058Y-45732403D01*
X135299870Y-45923579D01*
X135299868Y-45923584D01*
X135285603Y-45995299D01*
X135270880Y-46023442D01*
X135257678Y-46052333D01*
X135254801Y-46054180D01*
X135253217Y-46057209D01*
X135225617Y-46072925D01*
X135198890Y-46090092D01*
X135194675Y-46090544D01*
X135192501Y-46091783D01*
X135163953Y-46095106D01*
X135155278Y-46095103D01*
X135151079Y-46094500D01*
X134928921Y-46094500D01*
X134919590Y-46095041D01*
X134915966Y-46095041D01*
X134885779Y-46086168D01*
X134855118Y-46079067D01*
X134852513Y-46076391D01*
X134848932Y-46075339D01*
X134828328Y-46051548D01*
X134806380Y-46029003D01*
X134804694Y-46024259D01*
X134803191Y-46022523D01*
X134802590Y-46018336D01*
X134794383Y-45995237D01*
X134780130Y-45923580D01*
X134700941Y-45732402D01*
X134585977Y-45560345D01*
X134585975Y-45560342D01*
X134439657Y-45414024D01*
X134353626Y-45356541D01*
X134267598Y-45299059D01*
X134076420Y-45219870D01*
X134076412Y-45219868D01*
X133873469Y-45179500D01*
X133873465Y-45179500D01*
X133666535Y-45179500D01*
X133666530Y-45179500D01*
X133463587Y-45219868D01*
X133463579Y-45219870D01*
X133272403Y-45299058D01*
X133100342Y-45414024D01*
X132954024Y-45560342D01*
X132839058Y-45732403D01*
X132759870Y-45923579D01*
X132759868Y-45923584D01*
X132745603Y-45995299D01*
X132730817Y-46023562D01*
X132717500Y-46052537D01*
X132714737Y-46054303D01*
X132713217Y-46057209D01*
X132685499Y-46072992D01*
X132658630Y-46090168D01*
X132654581Y-46090598D01*
X132652501Y-46091783D01*
X132623683Y-46095106D01*
X132615148Y-46095085D01*
X132611079Y-46094500D01*
X132375589Y-46094500D01*
X132342122Y-46084583D01*
X132308853Y-46074815D01*
X132308749Y-46074696D01*
X132308598Y-46074651D01*
X132285723Y-46048122D01*
X132263098Y-46022011D01*
X132263031Y-46021804D01*
X132262972Y-46021736D01*
X132262943Y-46021531D01*
X132254275Y-45994691D01*
X132240131Y-45923587D01*
X132240131Y-45923585D01*
X132240130Y-45923580D01*
X132160941Y-45732402D01*
X132045977Y-45560345D01*
X132045975Y-45560342D01*
X131899657Y-45414024D01*
X131813626Y-45356541D01*
X131727598Y-45299059D01*
X131536420Y-45219870D01*
X131536412Y-45219868D01*
X131333469Y-45179500D01*
X131333465Y-45179500D01*
X131126535Y-45179500D01*
X131126530Y-45179500D01*
X130923587Y-45219868D01*
X130923579Y-45219870D01*
X130732403Y-45299058D01*
X130560342Y-45414024D01*
X130414024Y-45560342D01*
X130299058Y-45732403D01*
X130219870Y-45923579D01*
X130219868Y-45923587D01*
X130200774Y-46019579D01*
X130168389Y-46081490D01*
X130123943Y-46111017D01*
X130117600Y-46113473D01*
X130037119Y-46156934D01*
X129984580Y-46202971D01*
X129984575Y-46202976D01*
X129966714Y-46220672D01*
X129963421Y-46225029D01*
X129907294Y-46266640D01*
X129837580Y-46271301D01*
X129776413Y-46237531D01*
X129743213Y-46176053D01*
X129740500Y-46150258D01*
X129740500Y-46126534D01*
X129740499Y-46126530D01*
X129732536Y-46086497D01*
X129700130Y-45923580D01*
X129620941Y-45732402D01*
X129505977Y-45560345D01*
X129505975Y-45560342D01*
X129359657Y-45414024D01*
X129273626Y-45356541D01*
X129187598Y-45299059D01*
X128996420Y-45219870D01*
X128996412Y-45219868D01*
X128793469Y-45179500D01*
X128793465Y-45179500D01*
X128586535Y-45179500D01*
X128586530Y-45179500D01*
X128383587Y-45219868D01*
X128383579Y-45219870D01*
X128192403Y-45299058D01*
X128020342Y-45414024D01*
X127874024Y-45560342D01*
X127759058Y-45732403D01*
X127679870Y-45923579D01*
X127679868Y-45923587D01*
X127639500Y-46126530D01*
X127639500Y-46333469D01*
X127679868Y-46536412D01*
X127679870Y-46536420D01*
X127698329Y-46580985D01*
X127759059Y-46727598D01*
X127816541Y-46813626D01*
X127874024Y-46899657D01*
X128020342Y-47045975D01*
X128020345Y-47045977D01*
X128192402Y-47160941D01*
X128383580Y-47240130D01*
X128537408Y-47270728D01*
X128586530Y-47280499D01*
X128586534Y-47280500D01*
X128586535Y-47280500D01*
X128793466Y-47280500D01*
X128793467Y-47280499D01*
X128996420Y-47240130D01*
X129187598Y-47160941D01*
X129359655Y-47045977D01*
X129505977Y-46899655D01*
X129620941Y-46727598D01*
X129658066Y-46637970D01*
X129701905Y-46583568D01*
X129768199Y-46561503D01*
X129835899Y-46578782D01*
X129883509Y-46629919D01*
X129896624Y-46684738D01*
X129904720Y-48148061D01*
X129904721Y-48148091D01*
X129906631Y-48174926D01*
X129906633Y-48174942D01*
X129911047Y-48207046D01*
X129939798Y-48287052D01*
X129939799Y-48287054D01*
X129966609Y-48330454D01*
X129976519Y-48346497D01*
X129991012Y-48367034D01*
X130062660Y-48423874D01*
X130125687Y-48454029D01*
X130125699Y-48454033D01*
X130126527Y-48454430D01*
X130178505Y-48501120D01*
X130196990Y-48568500D01*
X130194628Y-48590477D01*
X130179500Y-48666536D01*
X130179500Y-48873469D01*
X130196780Y-48960341D01*
X130190553Y-49029933D01*
X130147690Y-49085110D01*
X130134082Y-49093640D01*
X130053606Y-49137097D01*
X130052577Y-49137999D01*
X130001058Y-49183143D01*
X129983202Y-49200833D01*
X129938997Y-49280897D01*
X129938996Y-49280899D01*
X129938996Y-49280900D01*
X129919683Y-49348043D01*
X129911679Y-49405987D01*
X129939418Y-54419653D01*
X129920105Y-54486800D01*
X129867555Y-54532847D01*
X129798452Y-54543173D01*
X129738107Y-54517286D01*
X129443941Y-54282697D01*
X128894749Y-53893024D01*
X128428896Y-53600310D01*
X128324558Y-53534750D01*
X127735180Y-53209012D01*
X127735172Y-53209008D01*
X127735153Y-53208998D01*
X127128486Y-52916843D01*
X127128473Y-52916837D01*
X127128464Y-52916833D01*
X126506321Y-52659133D01*
X125870707Y-52436722D01*
X125767075Y-52406866D01*
X125223612Y-52250297D01*
X124567097Y-52100452D01*
X123903216Y-51987655D01*
X123903169Y-51987649D01*
X123234059Y-51912259D01*
X123234048Y-51912258D01*
X123234045Y-51912258D01*
X122561702Y-51874500D01*
X121888298Y-51874500D01*
X121215955Y-51912258D01*
X121215952Y-51912258D01*
X121215940Y-51912259D01*
X120546830Y-51987649D01*
X120546783Y-51987655D01*
X119882902Y-52100452D01*
X119226387Y-52250297D01*
X118579292Y-52436722D01*
X118403082Y-52498381D01*
X117943679Y-52659133D01*
X117943668Y-52659137D01*
X117943661Y-52659140D01*
X117321536Y-52916833D01*
X117321513Y-52916843D01*
X116714846Y-53208998D01*
X116714816Y-53209014D01*
X116125438Y-53534752D01*
X115555250Y-53893024D01*
X115006058Y-54282697D01*
X114479590Y-54702541D01*
X114479575Y-54702553D01*
X114479566Y-54702561D01*
X114300167Y-54862882D01*
X113977458Y-55151272D01*
X113870065Y-55258665D01*
X113808742Y-55292149D01*
X113739050Y-55287165D01*
X113683117Y-55245293D01*
X113658700Y-55179828D01*
X113673552Y-55111556D01*
X113684001Y-55095506D01*
X113808599Y-54933127D01*
X113933164Y-54717373D01*
X114028502Y-54487207D01*
X114092982Y-54246565D01*
X114125500Y-53999565D01*
X114125500Y-53750435D01*
X114092982Y-53503435D01*
X114028502Y-53262793D01*
X113962401Y-53103211D01*
X113933169Y-53032638D01*
X113933162Y-53032623D01*
X113808599Y-52816873D01*
X113656939Y-52619225D01*
X113656933Y-52619218D01*
X113480781Y-52443066D01*
X113480774Y-52443060D01*
X113283126Y-52291400D01*
X113067376Y-52166837D01*
X113067361Y-52166830D01*
X112837207Y-52071498D01*
X112596561Y-52007017D01*
X112349575Y-51974501D01*
X112349570Y-51974500D01*
X112349565Y-51974500D01*
X112100435Y-51974500D01*
X112100429Y-51974500D01*
X112100424Y-51974501D01*
X111853438Y-52007017D01*
X111612792Y-52071498D01*
X111382638Y-52166830D01*
X111382623Y-52166837D01*
X111166873Y-52291400D01*
X110969225Y-52443060D01*
X110969218Y-52443066D01*
X110793066Y-52619218D01*
X110793060Y-52619225D01*
X110641400Y-52816873D01*
X110516837Y-53032623D01*
X110516830Y-53032638D01*
X110421498Y-53262792D01*
X110357017Y-53503438D01*
X110324501Y-53750424D01*
X110324500Y-53750441D01*
X110324500Y-53999558D01*
X110324501Y-53999575D01*
X110357017Y-54246561D01*
X110421498Y-54487207D01*
X110516830Y-54717361D01*
X110516837Y-54717376D01*
X110641400Y-54933126D01*
X110793060Y-55130774D01*
X110793066Y-55130781D01*
X110969218Y-55306933D01*
X110969225Y-55306939D01*
X111166873Y-55458599D01*
X111382623Y-55583162D01*
X111382638Y-55583169D01*
X111465024Y-55617294D01*
X111612793Y-55678502D01*
X111853435Y-55742982D01*
X112100435Y-55775500D01*
X112100442Y-55775500D01*
X112349558Y-55775500D01*
X112349565Y-55775500D01*
X112596565Y-55742982D01*
X112837207Y-55678502D01*
X113067373Y-55583164D01*
X113283127Y-55458599D01*
X113445499Y-55334006D01*
X113510666Y-55308814D01*
X113579110Y-55322852D01*
X113629100Y-55371666D01*
X113644764Y-55439757D01*
X113621127Y-55505508D01*
X113608665Y-55520065D01*
X113501272Y-55627458D01*
X113440369Y-55695609D01*
X113052561Y-56129566D01*
X113052553Y-56129575D01*
X113052553Y-56129576D01*
X113052541Y-56129590D01*
X112632697Y-56656058D01*
X112243024Y-57205250D01*
X111884752Y-57775438D01*
X111559014Y-58364816D01*
X111558998Y-58364846D01*
X111266843Y-58971513D01*
X111266833Y-58971536D01*
X111009575Y-59592613D01*
X111009133Y-59593679D01*
X110884931Y-59948627D01*
X110786722Y-60229292D01*
X110600297Y-60876387D01*
X110450452Y-61532902D01*
X110337655Y-62196783D01*
X110337649Y-62196830D01*
X110262259Y-62865940D01*
X110262258Y-62865952D01*
X110262258Y-62865955D01*
X110224500Y-63538298D01*
X100775500Y-63538298D01*
X100775500Y-59221153D01*
X102674500Y-59221153D01*
X102674500Y-59378846D01*
X102705261Y-59533489D01*
X102705264Y-59533501D01*
X102765602Y-59679172D01*
X102765609Y-59679185D01*
X102853210Y-59810288D01*
X102853213Y-59810292D01*
X102964707Y-59921786D01*
X102964711Y-59921789D01*
X103095814Y-60009390D01*
X103095827Y-60009397D01*
X103241498Y-60069735D01*
X103241503Y-60069737D01*
X103356508Y-60092613D01*
X103396153Y-60100499D01*
X103396156Y-60100500D01*
X103396158Y-60100500D01*
X104103844Y-60100500D01*
X104103845Y-60100499D01*
X104258497Y-60069737D01*
X104371166Y-60023067D01*
X104404172Y-60009397D01*
X104404172Y-60009396D01*
X104404179Y-60009394D01*
X104535289Y-59921789D01*
X104646789Y-59810289D01*
X104734394Y-59679179D01*
X104794737Y-59533497D01*
X104825500Y-59378842D01*
X104825500Y-59221158D01*
X104825500Y-59221155D01*
X104825499Y-59221153D01*
X104818173Y-59184325D01*
X104794737Y-59066503D01*
X104779439Y-59029569D01*
X104734397Y-58920827D01*
X104734390Y-58920814D01*
X104646789Y-58789711D01*
X104646786Y-58789707D01*
X104535292Y-58678213D01*
X104535288Y-58678210D01*
X104404185Y-58590609D01*
X104404172Y-58590602D01*
X104258501Y-58530264D01*
X104258489Y-58530261D01*
X104103845Y-58499500D01*
X104103842Y-58499500D01*
X103396158Y-58499500D01*
X103396155Y-58499500D01*
X103241510Y-58530261D01*
X103241498Y-58530264D01*
X103095827Y-58590602D01*
X103095814Y-58590609D01*
X102964711Y-58678210D01*
X102964707Y-58678213D01*
X102853213Y-58789707D01*
X102853210Y-58789711D01*
X102765609Y-58920814D01*
X102765602Y-58920827D01*
X102705264Y-59066498D01*
X102705261Y-59066510D01*
X102674500Y-59221153D01*
X100775500Y-59221153D01*
X100775500Y-56737600D01*
X101736076Y-56737600D01*
X101746019Y-56806754D01*
X101751112Y-56831372D01*
X101751112Y-56831373D01*
X101794121Y-56912083D01*
X101794123Y-56912086D01*
X101839882Y-56964895D01*
X101855200Y-56980528D01*
X101857468Y-56982843D01*
X101857469Y-56982844D01*
X101857471Y-56982845D01*
X101937281Y-57027488D01*
X101937285Y-57027490D01*
X102004324Y-57047175D01*
X102062222Y-57055500D01*
X102556357Y-57055500D01*
X102623396Y-57075185D01*
X102669151Y-57127989D01*
X102679095Y-57197147D01*
X102677974Y-57203693D01*
X102674500Y-57221156D01*
X102674500Y-57378846D01*
X102705261Y-57533489D01*
X102705264Y-57533501D01*
X102765602Y-57679172D01*
X102765609Y-57679185D01*
X102853210Y-57810288D01*
X102853213Y-57810292D01*
X102964707Y-57921786D01*
X102964711Y-57921789D01*
X103095814Y-58009390D01*
X103095827Y-58009397D01*
X103208382Y-58056018D01*
X103241503Y-58069737D01*
X103396153Y-58100499D01*
X103396156Y-58100500D01*
X103396158Y-58100500D01*
X104103844Y-58100500D01*
X104103845Y-58100499D01*
X104258497Y-58069737D01*
X104404179Y-58009394D01*
X104535289Y-57921789D01*
X104646789Y-57810289D01*
X104734394Y-57679179D01*
X104794737Y-57533497D01*
X104825500Y-57378842D01*
X104825500Y-57221158D01*
X104825500Y-57221156D01*
X104825500Y-57221155D01*
X104825499Y-57221153D01*
X104811632Y-57151441D01*
X104794737Y-57066503D01*
X104794735Y-57066498D01*
X104734397Y-56920827D01*
X104734390Y-56920814D01*
X104646789Y-56789711D01*
X104646786Y-56789707D01*
X104535292Y-56678213D01*
X104535288Y-56678210D01*
X104404185Y-56590609D01*
X104404172Y-56590602D01*
X104282355Y-56540145D01*
X104276469Y-56535402D01*
X104269104Y-56533709D01*
X104249643Y-56513785D01*
X104227951Y-56496305D01*
X104225563Y-56489132D01*
X104220283Y-56483726D01*
X104214683Y-56456441D01*
X104205886Y-56430010D01*
X104207404Y-56420976D01*
X104206236Y-56415283D01*
X104211702Y-56395404D01*
X104214143Y-56380886D01*
X104216034Y-56375992D01*
X104227504Y-56352463D01*
X104231574Y-56335778D01*
X104234470Y-56328286D01*
X104234483Y-56328268D01*
X104234512Y-56328178D01*
X104234623Y-56327890D01*
X104234624Y-56327891D01*
X104239081Y-56316387D01*
X104243415Y-56304050D01*
X104245480Y-56278793D01*
X104248218Y-56267573D01*
X104248438Y-56258807D01*
X104247116Y-56258773D01*
X104250868Y-56212898D01*
X104250868Y-56212895D01*
X104250803Y-56210793D01*
X104250090Y-56203117D01*
X104249932Y-56199425D01*
X104249975Y-56197740D01*
X104249068Y-56172607D01*
X104248746Y-56171643D01*
X104248341Y-56162132D01*
X104254790Y-56136110D01*
X104257642Y-56109452D01*
X104263067Y-56102712D01*
X104265149Y-56094314D01*
X104284645Y-56075907D01*
X104301455Y-56055026D01*
X104314055Y-56048141D01*
X104315954Y-56046349D01*
X104318058Y-56045954D01*
X104324776Y-56042284D01*
X104404172Y-56009397D01*
X104404172Y-56009396D01*
X104404179Y-56009394D01*
X104535289Y-55921789D01*
X104646789Y-55810289D01*
X104723416Y-55695609D01*
X104777028Y-55650804D01*
X104826518Y-55640500D01*
X105594826Y-55640500D01*
X105594828Y-55640500D01*
X105681428Y-55617295D01*
X105759072Y-55572468D01*
X108891981Y-52439557D01*
X108953302Y-52406074D01*
X109022994Y-52411058D01*
X109057442Y-52430669D01*
X109124747Y-52484883D01*
X109152430Y-52498381D01*
X109187547Y-52515504D01*
X109187553Y-52515507D01*
X109210766Y-52525116D01*
X109210768Y-52525116D01*
X109210772Y-52525118D01*
X109301706Y-52534876D01*
X109371093Y-52526685D01*
X109420202Y-52513604D01*
X109427613Y-52511631D01*
X109427614Y-52511630D01*
X109427616Y-52511630D01*
X114505258Y-50346166D01*
X114507685Y-50345112D01*
X114510553Y-50343845D01*
X114562085Y-50311177D01*
X114614889Y-50265422D01*
X114632843Y-50247831D01*
X114677490Y-50168014D01*
X114697175Y-50100975D01*
X114705500Y-50043077D01*
X114705500Y-49498188D01*
X114703661Y-49470756D01*
X114699242Y-49437949D01*
X114670413Y-49357381D01*
X114662764Y-49344999D01*
X114633701Y-49297951D01*
X114633691Y-49297935D01*
X114619201Y-49277402D01*
X114619198Y-49277399D01*
X114600527Y-49262588D01*
X114547549Y-49220561D01*
X114547547Y-49220560D01*
X114528438Y-49211417D01*
X114476460Y-49164726D01*
X114457976Y-49097346D01*
X114460339Y-49075370D01*
X114500499Y-48873468D01*
X114500500Y-48873466D01*
X114500500Y-48666534D01*
X114500499Y-48666531D01*
X114500499Y-48666530D01*
X114939500Y-48666530D01*
X114939500Y-48873469D01*
X114979868Y-49076412D01*
X114979870Y-49076420D01*
X115039575Y-49220561D01*
X115059059Y-49267598D01*
X115079340Y-49297951D01*
X115174024Y-49439657D01*
X115320342Y-49585975D01*
X115320345Y-49585977D01*
X115492402Y-49700941D01*
X115683580Y-49780130D01*
X115886530Y-49820499D01*
X115886534Y-49820500D01*
X115886535Y-49820500D01*
X116093466Y-49820500D01*
X116093467Y-49820499D01*
X116296420Y-49780130D01*
X116487598Y-49700941D01*
X116659655Y-49585977D01*
X116805977Y-49439655D01*
X116920941Y-49267598D01*
X117000130Y-49076420D01*
X117040500Y-48873465D01*
X117040500Y-48666535D01*
X117040499Y-48666530D01*
X117479500Y-48666530D01*
X117479500Y-48873469D01*
X117519868Y-49076412D01*
X117519870Y-49076420D01*
X117579575Y-49220561D01*
X117599059Y-49267598D01*
X117619340Y-49297951D01*
X117714024Y-49439657D01*
X117860342Y-49585975D01*
X117860345Y-49585977D01*
X118032402Y-49700941D01*
X118223580Y-49780130D01*
X118426530Y-49820499D01*
X118426534Y-49820500D01*
X118426535Y-49820500D01*
X118633466Y-49820500D01*
X118633467Y-49820499D01*
X118836420Y-49780130D01*
X119027598Y-49700941D01*
X119199655Y-49585977D01*
X119345977Y-49439655D01*
X119460941Y-49267598D01*
X119540130Y-49076420D01*
X119580500Y-48873465D01*
X119580500Y-48666535D01*
X119580499Y-48666530D01*
X120019500Y-48666530D01*
X120019500Y-48873469D01*
X120059868Y-49076412D01*
X120059870Y-49076420D01*
X120119575Y-49220561D01*
X120139059Y-49267598D01*
X120159340Y-49297951D01*
X120254024Y-49439657D01*
X120400342Y-49585975D01*
X120400345Y-49585977D01*
X120572402Y-49700941D01*
X120763580Y-49780130D01*
X120966530Y-49820499D01*
X120966534Y-49820500D01*
X120966535Y-49820500D01*
X121173466Y-49820500D01*
X121173467Y-49820499D01*
X121376420Y-49780130D01*
X121567598Y-49700941D01*
X121739655Y-49585977D01*
X121885977Y-49439655D01*
X122000941Y-49267598D01*
X122080130Y-49076420D01*
X122120500Y-48873465D01*
X122120500Y-48666535D01*
X122120499Y-48666530D01*
X122559500Y-48666530D01*
X122559500Y-48873469D01*
X122599868Y-49076412D01*
X122599870Y-49076420D01*
X122659575Y-49220561D01*
X122679059Y-49267598D01*
X122699340Y-49297951D01*
X122794024Y-49439657D01*
X122940342Y-49585975D01*
X122940345Y-49585977D01*
X123112402Y-49700941D01*
X123303580Y-49780130D01*
X123506530Y-49820499D01*
X123506534Y-49820500D01*
X123506535Y-49820500D01*
X123713466Y-49820500D01*
X123713467Y-49820499D01*
X123916420Y-49780130D01*
X124107598Y-49700941D01*
X124279655Y-49585977D01*
X124425977Y-49439655D01*
X124540941Y-49267598D01*
X124620130Y-49076420D01*
X124660500Y-48873465D01*
X124660500Y-48666535D01*
X124660499Y-48666530D01*
X125099500Y-48666530D01*
X125099500Y-48873469D01*
X125139868Y-49076412D01*
X125139870Y-49076420D01*
X125199575Y-49220561D01*
X125219059Y-49267598D01*
X125239340Y-49297951D01*
X125334024Y-49439657D01*
X125480342Y-49585975D01*
X125480345Y-49585977D01*
X125652402Y-49700941D01*
X125843580Y-49780130D01*
X126046530Y-49820499D01*
X126046534Y-49820500D01*
X126046535Y-49820500D01*
X126253466Y-49820500D01*
X126253467Y-49820499D01*
X126456420Y-49780130D01*
X126647598Y-49700941D01*
X126819655Y-49585977D01*
X126965977Y-49439655D01*
X127080941Y-49267598D01*
X127160130Y-49076420D01*
X127200500Y-48873465D01*
X127200500Y-48666535D01*
X127160130Y-48463580D01*
X127080941Y-48272402D01*
X126965977Y-48100345D01*
X126965975Y-48100342D01*
X126819657Y-47954024D01*
X126674694Y-47857164D01*
X126647598Y-47839059D01*
X126581987Y-47811882D01*
X126456420Y-47759870D01*
X126456412Y-47759868D01*
X126253469Y-47719500D01*
X126253465Y-47719500D01*
X126046535Y-47719500D01*
X126046530Y-47719500D01*
X125843587Y-47759868D01*
X125843579Y-47759870D01*
X125652403Y-47839058D01*
X125480342Y-47954024D01*
X125334024Y-48100342D01*
X125219058Y-48272403D01*
X125139870Y-48463579D01*
X125139868Y-48463587D01*
X125099500Y-48666530D01*
X124660499Y-48666530D01*
X124620130Y-48463580D01*
X124540941Y-48272402D01*
X124425977Y-48100345D01*
X124425975Y-48100342D01*
X124279657Y-47954024D01*
X124134694Y-47857164D01*
X124107598Y-47839059D01*
X124041987Y-47811882D01*
X123916420Y-47759870D01*
X123916412Y-47759868D01*
X123713469Y-47719500D01*
X123713465Y-47719500D01*
X123506535Y-47719500D01*
X123506530Y-47719500D01*
X123303587Y-47759868D01*
X123303579Y-47759870D01*
X123112403Y-47839058D01*
X122940342Y-47954024D01*
X122794024Y-48100342D01*
X122679058Y-48272403D01*
X122599870Y-48463579D01*
X122599868Y-48463587D01*
X122559500Y-48666530D01*
X122120499Y-48666530D01*
X122080130Y-48463580D01*
X122000941Y-48272402D01*
X121885977Y-48100345D01*
X121885975Y-48100342D01*
X121739657Y-47954024D01*
X121594694Y-47857164D01*
X121567598Y-47839059D01*
X121501987Y-47811882D01*
X121376420Y-47759870D01*
X121376412Y-47759868D01*
X121173469Y-47719500D01*
X121173465Y-47719500D01*
X120966535Y-47719500D01*
X120966530Y-47719500D01*
X120763587Y-47759868D01*
X120763579Y-47759870D01*
X120572403Y-47839058D01*
X120400342Y-47954024D01*
X120254024Y-48100342D01*
X120139058Y-48272403D01*
X120059870Y-48463579D01*
X120059868Y-48463587D01*
X120019500Y-48666530D01*
X119580499Y-48666530D01*
X119540130Y-48463580D01*
X119460941Y-48272402D01*
X119345977Y-48100345D01*
X119345975Y-48100342D01*
X119199657Y-47954024D01*
X119054694Y-47857164D01*
X119027598Y-47839059D01*
X118961987Y-47811882D01*
X118836420Y-47759870D01*
X118836412Y-47759868D01*
X118633469Y-47719500D01*
X118633465Y-47719500D01*
X118426535Y-47719500D01*
X118426530Y-47719500D01*
X118223587Y-47759868D01*
X118223579Y-47759870D01*
X118032403Y-47839058D01*
X117860342Y-47954024D01*
X117714024Y-48100342D01*
X117599058Y-48272403D01*
X117519870Y-48463579D01*
X117519868Y-48463587D01*
X117479500Y-48666530D01*
X117040499Y-48666530D01*
X117000130Y-48463580D01*
X116920941Y-48272402D01*
X116805977Y-48100345D01*
X116805975Y-48100342D01*
X116659657Y-47954024D01*
X116514694Y-47857164D01*
X116487598Y-47839059D01*
X116421987Y-47811882D01*
X116296420Y-47759870D01*
X116296412Y-47759868D01*
X116093469Y-47719500D01*
X116093465Y-47719500D01*
X115886535Y-47719500D01*
X115886530Y-47719500D01*
X115683587Y-47759868D01*
X115683579Y-47759870D01*
X115492403Y-47839058D01*
X115320342Y-47954024D01*
X115174024Y-48100342D01*
X115059058Y-48272403D01*
X114979870Y-48463579D01*
X114979868Y-48463587D01*
X114939500Y-48666530D01*
X114500499Y-48666530D01*
X114460229Y-48464078D01*
X114466456Y-48394487D01*
X114509319Y-48339309D01*
X114523518Y-48330462D01*
X114562085Y-48309911D01*
X114614889Y-48264156D01*
X114632843Y-48246565D01*
X114677490Y-48166748D01*
X114697175Y-48099709D01*
X114705500Y-48041811D01*
X114705500Y-46627306D01*
X114700212Y-46580985D01*
X114687612Y-46526524D01*
X114684230Y-46513785D01*
X114639113Y-46434232D01*
X114591985Y-46382650D01*
X114573925Y-46365164D01*
X114573924Y-46365163D01*
X114573923Y-46365162D01*
X114566829Y-46361436D01*
X114556445Y-46351380D01*
X114543297Y-46345376D01*
X114531848Y-46327561D01*
X114516637Y-46312831D01*
X114512636Y-46297666D01*
X114505523Y-46286598D01*
X114500500Y-46251663D01*
X114500500Y-46126534D01*
X114500499Y-46126530D01*
X114939500Y-46126530D01*
X114939500Y-46333469D01*
X114979868Y-46536412D01*
X114979870Y-46536420D01*
X114998329Y-46580985D01*
X115059059Y-46727598D01*
X115116541Y-46813626D01*
X115174024Y-46899657D01*
X115320342Y-47045975D01*
X115320345Y-47045977D01*
X115492402Y-47160941D01*
X115683580Y-47240130D01*
X115837408Y-47270728D01*
X115886530Y-47280499D01*
X115886534Y-47280500D01*
X115886535Y-47280500D01*
X116093466Y-47280500D01*
X116093467Y-47280499D01*
X116296420Y-47240130D01*
X116487598Y-47160941D01*
X116659655Y-47045977D01*
X116805977Y-46899655D01*
X116920941Y-46727598D01*
X117000130Y-46536420D01*
X117040500Y-46333465D01*
X117040500Y-46126535D01*
X117040499Y-46126530D01*
X117479500Y-46126530D01*
X117479500Y-46333469D01*
X117519868Y-46536412D01*
X117519870Y-46536420D01*
X117538329Y-46580985D01*
X117599059Y-46727598D01*
X117656541Y-46813626D01*
X117714024Y-46899657D01*
X117860342Y-47045975D01*
X117860345Y-47045977D01*
X118032402Y-47160941D01*
X118223580Y-47240130D01*
X118377408Y-47270728D01*
X118426530Y-47280499D01*
X118426534Y-47280500D01*
X118426535Y-47280500D01*
X118633466Y-47280500D01*
X118633467Y-47280499D01*
X118836420Y-47240130D01*
X119027598Y-47160941D01*
X119199655Y-47045977D01*
X119345977Y-46899655D01*
X119460941Y-46727598D01*
X119540130Y-46536420D01*
X119580500Y-46333465D01*
X119580500Y-46126535D01*
X119580499Y-46126530D01*
X120019500Y-46126530D01*
X120019500Y-46333469D01*
X120059868Y-46536412D01*
X120059870Y-46536420D01*
X120078329Y-46580985D01*
X120139059Y-46727598D01*
X120196541Y-46813626D01*
X120254024Y-46899657D01*
X120400342Y-47045975D01*
X120400345Y-47045977D01*
X120572402Y-47160941D01*
X120763580Y-47240130D01*
X120917408Y-47270728D01*
X120966530Y-47280499D01*
X120966534Y-47280500D01*
X120966535Y-47280500D01*
X121173466Y-47280500D01*
X121173467Y-47280499D01*
X121376420Y-47240130D01*
X121567598Y-47160941D01*
X121739655Y-47045977D01*
X121885977Y-46899655D01*
X122000941Y-46727598D01*
X122080130Y-46536420D01*
X122120500Y-46333465D01*
X122120500Y-46126535D01*
X122120499Y-46126530D01*
X122559500Y-46126530D01*
X122559500Y-46333469D01*
X122599868Y-46536412D01*
X122599870Y-46536420D01*
X122618329Y-46580985D01*
X122679059Y-46727598D01*
X122736541Y-46813626D01*
X122794024Y-46899657D01*
X122940342Y-47045975D01*
X122940345Y-47045977D01*
X123112402Y-47160941D01*
X123303580Y-47240130D01*
X123457408Y-47270728D01*
X123506530Y-47280499D01*
X123506534Y-47280500D01*
X123506535Y-47280500D01*
X123713466Y-47280500D01*
X123713467Y-47280499D01*
X123916420Y-47240130D01*
X124107598Y-47160941D01*
X124279655Y-47045977D01*
X124425977Y-46899655D01*
X124540941Y-46727598D01*
X124620130Y-46536420D01*
X124660500Y-46333465D01*
X124660500Y-46126535D01*
X124660499Y-46126530D01*
X125099500Y-46126530D01*
X125099500Y-46333469D01*
X125139868Y-46536412D01*
X125139870Y-46536420D01*
X125158329Y-46580985D01*
X125219059Y-46727598D01*
X125276541Y-46813626D01*
X125334024Y-46899657D01*
X125480342Y-47045975D01*
X125480345Y-47045977D01*
X125652402Y-47160941D01*
X125843580Y-47240130D01*
X125997408Y-47270728D01*
X126046530Y-47280499D01*
X126046534Y-47280500D01*
X126046535Y-47280500D01*
X126253466Y-47280500D01*
X126253467Y-47280499D01*
X126456420Y-47240130D01*
X126647598Y-47160941D01*
X126819655Y-47045977D01*
X126965977Y-46899655D01*
X127080941Y-46727598D01*
X127160130Y-46536420D01*
X127200500Y-46333465D01*
X127200500Y-46126535D01*
X127160130Y-45923580D01*
X127080941Y-45732402D01*
X126965977Y-45560345D01*
X126965975Y-45560342D01*
X126819657Y-45414024D01*
X126733626Y-45356541D01*
X126647598Y-45299059D01*
X126456420Y-45219870D01*
X126456412Y-45219868D01*
X126253469Y-45179500D01*
X126253465Y-45179500D01*
X126046535Y-45179500D01*
X126046530Y-45179500D01*
X125843587Y-45219868D01*
X125843579Y-45219870D01*
X125652403Y-45299058D01*
X125480342Y-45414024D01*
X125334024Y-45560342D01*
X125219058Y-45732403D01*
X125139870Y-45923579D01*
X125139868Y-45923587D01*
X125099500Y-46126530D01*
X124660499Y-46126530D01*
X124620130Y-45923580D01*
X124540941Y-45732402D01*
X124425977Y-45560345D01*
X124425975Y-45560342D01*
X124279657Y-45414024D01*
X124193626Y-45356541D01*
X124107598Y-45299059D01*
X123916420Y-45219870D01*
X123916412Y-45219868D01*
X123713469Y-45179500D01*
X123713465Y-45179500D01*
X123506535Y-45179500D01*
X123506530Y-45179500D01*
X123303587Y-45219868D01*
X123303579Y-45219870D01*
X123112403Y-45299058D01*
X122940342Y-45414024D01*
X122794024Y-45560342D01*
X122679058Y-45732403D01*
X122599870Y-45923579D01*
X122599868Y-45923587D01*
X122559500Y-46126530D01*
X122120499Y-46126530D01*
X122080130Y-45923580D01*
X122000941Y-45732402D01*
X121885977Y-45560345D01*
X121885975Y-45560342D01*
X121739657Y-45414024D01*
X121653626Y-45356541D01*
X121567598Y-45299059D01*
X121376420Y-45219870D01*
X121376412Y-45219868D01*
X121173469Y-45179500D01*
X121173465Y-45179500D01*
X120966535Y-45179500D01*
X120966530Y-45179500D01*
X120763587Y-45219868D01*
X120763579Y-45219870D01*
X120572403Y-45299058D01*
X120400342Y-45414024D01*
X120254024Y-45560342D01*
X120139058Y-45732403D01*
X120059870Y-45923579D01*
X120059868Y-45923587D01*
X120019500Y-46126530D01*
X119580499Y-46126530D01*
X119540130Y-45923580D01*
X119460941Y-45732402D01*
X119345977Y-45560345D01*
X119345975Y-45560342D01*
X119199657Y-45414024D01*
X119113626Y-45356541D01*
X119027598Y-45299059D01*
X118836420Y-45219870D01*
X118836412Y-45219868D01*
X118633469Y-45179500D01*
X118633465Y-45179500D01*
X118426535Y-45179500D01*
X118426530Y-45179500D01*
X118223587Y-45219868D01*
X118223579Y-45219870D01*
X118032403Y-45299058D01*
X117860342Y-45414024D01*
X117714024Y-45560342D01*
X117599058Y-45732403D01*
X117519870Y-45923579D01*
X117519868Y-45923587D01*
X117479500Y-46126530D01*
X117040499Y-46126530D01*
X117000130Y-45923580D01*
X116920941Y-45732402D01*
X116805977Y-45560345D01*
X116805975Y-45560342D01*
X116659657Y-45414024D01*
X116573626Y-45356541D01*
X116487598Y-45299059D01*
X116296420Y-45219870D01*
X116296412Y-45219868D01*
X116093469Y-45179500D01*
X116093465Y-45179500D01*
X115886535Y-45179500D01*
X115886530Y-45179500D01*
X115683587Y-45219868D01*
X115683579Y-45219870D01*
X115492403Y-45299058D01*
X115320342Y-45414024D01*
X115174024Y-45560342D01*
X115059058Y-45732403D01*
X114979870Y-45923579D01*
X114979868Y-45923587D01*
X114939500Y-46126530D01*
X114500499Y-46126530D01*
X114492536Y-46086497D01*
X114460130Y-45923580D01*
X114380941Y-45732402D01*
X114265977Y-45560345D01*
X114265975Y-45560342D01*
X114119657Y-45414024D01*
X114033626Y-45356541D01*
X113947598Y-45299059D01*
X113756420Y-45219870D01*
X113756412Y-45219868D01*
X113553469Y-45179500D01*
X113553465Y-45179500D01*
X113346535Y-45179500D01*
X113346530Y-45179500D01*
X113143587Y-45219868D01*
X113143579Y-45219870D01*
X112952403Y-45299058D01*
X112780342Y-45414024D01*
X112634024Y-45560342D01*
X112519058Y-45732403D01*
X112439870Y-45923579D01*
X112439868Y-45923587D01*
X112399500Y-46126530D01*
X112399500Y-46338017D01*
X112394632Y-46354592D01*
X112394790Y-46371866D01*
X112384993Y-46387419D01*
X112379815Y-46405056D01*
X112366613Y-46416601D01*
X112357553Y-46430986D01*
X112328037Y-46450337D01*
X112119123Y-46548055D01*
X112050058Y-46558629D01*
X111986240Y-46530184D01*
X111947932Y-46471752D01*
X111944969Y-46411543D01*
X111945314Y-46409809D01*
X111960500Y-46333465D01*
X111960500Y-46126535D01*
X111920130Y-45923580D01*
X111840941Y-45732402D01*
X111725977Y-45560345D01*
X111725975Y-45560342D01*
X111579657Y-45414024D01*
X111493626Y-45356541D01*
X111407598Y-45299059D01*
X111216420Y-45219870D01*
X111216412Y-45219868D01*
X111013469Y-45179500D01*
X111013465Y-45179500D01*
X110806535Y-45179500D01*
X110806530Y-45179500D01*
X110603587Y-45219868D01*
X110603579Y-45219870D01*
X110412403Y-45299058D01*
X110240342Y-45414024D01*
X110094024Y-45560342D01*
X109979058Y-45732403D01*
X109899870Y-45923579D01*
X109899868Y-45923587D01*
X109859500Y-46126530D01*
X109859500Y-46333469D01*
X109899868Y-46536412D01*
X109899870Y-46536420D01*
X109918329Y-46580985D01*
X109979059Y-46727598D01*
X110036541Y-46813626D01*
X110094024Y-46899657D01*
X110240342Y-47045975D01*
X110240345Y-47045977D01*
X110392724Y-47147793D01*
X110437528Y-47201403D01*
X110446236Y-47270728D01*
X110416082Y-47333756D01*
X110376370Y-47363214D01*
X109484402Y-47780425D01*
X109484390Y-47780431D01*
X109436181Y-47811881D01*
X109436181Y-47811882D01*
X109384402Y-47857164D01*
X109367160Y-47874135D01*
X109367158Y-47874137D01*
X109367157Y-47874139D01*
X109322510Y-47953956D01*
X109322510Y-47953957D01*
X109322509Y-47953957D01*
X109302826Y-48020989D01*
X109302825Y-48020994D01*
X109302825Y-48020995D01*
X109297677Y-48056803D01*
X109294500Y-48078896D01*
X109294500Y-49493030D01*
X109274815Y-49560069D01*
X109222011Y-49605824D01*
X109184572Y-49616229D01*
X109149017Y-49620290D01*
X109149013Y-49620290D01*
X109149010Y-49620291D01*
X105821242Y-50390352D01*
X105821240Y-50390352D01*
X105821239Y-50390353D01*
X105767901Y-50410850D01*
X105767880Y-50410860D01*
X105708181Y-50443973D01*
X105662550Y-50478368D01*
X105662543Y-50478374D01*
X105216023Y-50924892D01*
X105198286Y-50945118D01*
X105178603Y-50970769D01*
X105178585Y-50970793D01*
X105173924Y-50977769D01*
X105158510Y-50996549D01*
X105150575Y-51004484D01*
X105124888Y-51024194D01*
X105120100Y-51026958D01*
X105090222Y-51039336D01*
X105084878Y-51040769D01*
X105052762Y-51045000D01*
X103517454Y-51045000D01*
X103500736Y-51045681D01*
X103480632Y-51047321D01*
X103408239Y-51066964D01*
X103345281Y-51097259D01*
X103323337Y-51109525D01*
X103259311Y-51174831D01*
X103222725Y-51234356D01*
X103199500Y-51288042D01*
X102927296Y-52289048D01*
X102924364Y-52301305D01*
X102921283Y-52316187D01*
X102921282Y-52316188D01*
X102919107Y-52387101D01*
X102928696Y-52453794D01*
X102918752Y-52522952D01*
X102879593Y-52571210D01*
X102802850Y-52627849D01*
X102722207Y-52737117D01*
X102722206Y-52737119D01*
X102677353Y-52865298D01*
X102677353Y-52865300D01*
X102674500Y-52895730D01*
X102674500Y-53704276D01*
X102674635Y-53707162D01*
X102673849Y-53707198D01*
X102661121Y-53772571D01*
X102612810Y-53823047D01*
X102604809Y-53827266D01*
X102602621Y-53828319D01*
X102580689Y-53840577D01*
X102580684Y-53840580D01*
X102580682Y-53840582D01*
X102580680Y-53840583D01*
X102580680Y-53840584D01*
X102516653Y-53905888D01*
X102516653Y-53905889D01*
X102480072Y-53965404D01*
X102480068Y-53965413D01*
X102456846Y-54019089D01*
X102456845Y-54019091D01*
X101744267Y-56639542D01*
X101741331Y-56651813D01*
X101738252Y-56666687D01*
X101738251Y-56666688D01*
X101736076Y-56737600D01*
X100775500Y-56737600D01*
X100775500Y-47385837D01*
X102049500Y-47385837D01*
X102049500Y-47614162D01*
X102085215Y-47839660D01*
X102155770Y-48056803D01*
X102232323Y-48207046D01*
X102259421Y-48260228D01*
X102393621Y-48444937D01*
X102555063Y-48606379D01*
X102739772Y-48740579D01*
X102835884Y-48789550D01*
X102943196Y-48844229D01*
X102943198Y-48844229D01*
X102943201Y-48844231D01*
X103033174Y-48873465D01*
X103160339Y-48914784D01*
X103385838Y-48950500D01*
X103385843Y-48950500D01*
X103614162Y-48950500D01*
X103839660Y-48914784D01*
X104056799Y-48844231D01*
X104260228Y-48740579D01*
X104444937Y-48606379D01*
X104606379Y-48444937D01*
X104740579Y-48260228D01*
X104844231Y-48056799D01*
X104914784Y-47839660D01*
X104924166Y-47780425D01*
X104950500Y-47614162D01*
X104950500Y-47385837D01*
X104914784Y-47160339D01*
X104877624Y-47045975D01*
X104844231Y-46943201D01*
X104844229Y-46943198D01*
X104844229Y-46943196D01*
X104740578Y-46739771D01*
X104731734Y-46727598D01*
X104606379Y-46555063D01*
X104444937Y-46393621D01*
X104260228Y-46259421D01*
X104179847Y-46218465D01*
X104056803Y-46155770D01*
X103966813Y-46126530D01*
X107319500Y-46126530D01*
X107319500Y-46333469D01*
X107359868Y-46536412D01*
X107359870Y-46536420D01*
X107378329Y-46580985D01*
X107439059Y-46727598D01*
X107496541Y-46813626D01*
X107554024Y-46899657D01*
X107700342Y-47045975D01*
X107700345Y-47045977D01*
X107872402Y-47160941D01*
X108063580Y-47240130D01*
X108217408Y-47270728D01*
X108266530Y-47280499D01*
X108266534Y-47280500D01*
X108266535Y-47280500D01*
X108473466Y-47280500D01*
X108473467Y-47280499D01*
X108676420Y-47240130D01*
X108867598Y-47160941D01*
X109039655Y-47045977D01*
X109185977Y-46899655D01*
X109300941Y-46727598D01*
X109380130Y-46536420D01*
X109420500Y-46333465D01*
X109420500Y-46126535D01*
X109380130Y-45923580D01*
X109300941Y-45732402D01*
X109185977Y-45560345D01*
X109185975Y-45560342D01*
X109039657Y-45414024D01*
X108953626Y-45356541D01*
X108867598Y-45299059D01*
X108676420Y-45219870D01*
X108676412Y-45219868D01*
X108473469Y-45179500D01*
X108473465Y-45179500D01*
X108266535Y-45179500D01*
X108266530Y-45179500D01*
X108063587Y-45219868D01*
X108063579Y-45219870D01*
X107872403Y-45299058D01*
X107700342Y-45414024D01*
X107554024Y-45560342D01*
X107439058Y-45732403D01*
X107359870Y-45923579D01*
X107359868Y-45923587D01*
X107319500Y-46126530D01*
X103966813Y-46126530D01*
X103839660Y-46085215D01*
X103614162Y-46049500D01*
X103614157Y-46049500D01*
X103385843Y-46049500D01*
X103385838Y-46049500D01*
X103160339Y-46085215D01*
X102943196Y-46155770D01*
X102739771Y-46259421D01*
X102555061Y-46393622D01*
X102393622Y-46555061D01*
X102259421Y-46739771D01*
X102155770Y-46943196D01*
X102085215Y-47160339D01*
X102049500Y-47385837D01*
X100775500Y-47385837D01*
X100775500Y-43719757D01*
X100777027Y-43700360D01*
X100781817Y-43670118D01*
X100787087Y-43636843D01*
X100799072Y-43599955D01*
X100823785Y-43551452D01*
X100846583Y-43520073D01*
X100885073Y-43481583D01*
X100916452Y-43458785D01*
X100964955Y-43434072D01*
X101001843Y-43422087D01*
X101053320Y-43413933D01*
X101065360Y-43412027D01*
X101084757Y-43410500D01*
X159548714Y-43410500D01*
X159615753Y-43430185D01*
G37*
%TD.AperFunction*%
%TD*%
%TA.AperFunction,Conductor*%
%TO.N,12V*%
G36*
X113493981Y-89094685D02*
G01*
X113510507Y-89107388D01*
X120874997Y-95824999D01*
X120874999Y-95824999D01*
X120875000Y-95825000D01*
X121753643Y-95828224D01*
X121785261Y-95832445D01*
X121833982Y-95845500D01*
X121833986Y-95845500D01*
X121946017Y-95845500D01*
X121946018Y-95845500D01*
X121991033Y-95833438D01*
X122023570Y-95829214D01*
X128341912Y-95852401D01*
X128373530Y-95856622D01*
X128443982Y-95875500D01*
X128443985Y-95875500D01*
X128556017Y-95875500D01*
X128556018Y-95875500D01*
X128622178Y-95857772D01*
X128654713Y-95853549D01*
X134376457Y-95874546D01*
X134443422Y-95894476D01*
X134488983Y-95947448D01*
X134500000Y-95998545D01*
X134500000Y-98101000D01*
X134480315Y-98168039D01*
X134427511Y-98213794D01*
X134376000Y-98225000D01*
X122606276Y-98225000D01*
X122593754Y-98224366D01*
X116019856Y-97557090D01*
X115955147Y-97530736D01*
X115920145Y-97486447D01*
X115163374Y-95875499D01*
X114621517Y-94722040D01*
X117636442Y-94722040D01*
X117636442Y-94834076D01*
X117665439Y-94942295D01*
X117721457Y-95039321D01*
X117800679Y-95118543D01*
X117897705Y-95174561D01*
X118005924Y-95203558D01*
X118005926Y-95203558D01*
X118117958Y-95203558D01*
X118117960Y-95203558D01*
X118226179Y-95174561D01*
X118323205Y-95118543D01*
X118402427Y-95039321D01*
X118458445Y-94942295D01*
X118487442Y-94834076D01*
X118487442Y-94722040D01*
X118458445Y-94613821D01*
X118402427Y-94516795D01*
X118323205Y-94437573D01*
X118258521Y-94400227D01*
X118226181Y-94381556D01*
X118226180Y-94381555D01*
X118226179Y-94381555D01*
X118117960Y-94352558D01*
X118005924Y-94352558D01*
X117897705Y-94381555D01*
X117897702Y-94381556D01*
X117800682Y-94437571D01*
X117800676Y-94437575D01*
X117721459Y-94516792D01*
X117721455Y-94516798D01*
X117665440Y-94613818D01*
X117665439Y-94613821D01*
X117636442Y-94722040D01*
X114621517Y-94722040D01*
X113425000Y-92175000D01*
X113425000Y-92174999D01*
X113424998Y-92174998D01*
X111465512Y-91625387D01*
X111406280Y-91588329D01*
X111376485Y-91525131D01*
X111375000Y-91505995D01*
X111375000Y-89199000D01*
X111394685Y-89131961D01*
X111447489Y-89086206D01*
X111499000Y-89075000D01*
X113426942Y-89075000D01*
X113493981Y-89094685D01*
G37*
%TD.AperFunction*%
%TD*%
M02*
