%TF.GenerationSoftware,KiCad,Pcbnew,9.0.5*%
%TF.CreationDate,2025-11-11T22:55:07+01:00*%
%TF.ProjectId,power_motherboard,706f7765-725f-46d6-9f74-686572626f61,rev?*%
%TF.SameCoordinates,Original*%
%TF.FileFunction,Soldermask,Bot*%
%TF.FilePolarity,Negative*%
%FSLAX46Y46*%
G04 Gerber Fmt 4.6, Leading zero omitted, Abs format (unit mm)*
G04 Created by KiCad (PCBNEW 9.0.5) date 2025-11-11 22:55:07*
%MOMM*%
%LPD*%
G01*
G04 APERTURE LIST*
G04 Aperture macros list*
%AMRoundRect*
0 Rectangle with rounded corners*
0 $1 Rounding radius*
0 $2 $3 $4 $5 $6 $7 $8 $9 X,Y pos of 4 corners*
0 Add a 4 corners polygon primitive as box body*
4,1,4,$2,$3,$4,$5,$6,$7,$8,$9,$2,$3,0*
0 Add four circle primitives for the rounded corners*
1,1,$1+$1,$2,$3*
1,1,$1+$1,$4,$5*
1,1,$1+$1,$6,$7*
1,1,$1+$1,$8,$9*
0 Add four rect primitives between the rounded corners*
20,1,$1+$1,$2,$3,$4,$5,0*
20,1,$1+$1,$4,$5,$6,$7,0*
20,1,$1+$1,$6,$7,$8,$9,0*
20,1,$1+$1,$8,$9,$2,$3,0*%
G04 Aperture macros list end*
%ADD10RoundRect,0.250000X-1.550000X0.650000X-1.550000X-0.650000X1.550000X-0.650000X1.550000X0.650000X0*%
%ADD11O,3.600000X1.800000*%
%ADD12RoundRect,0.250000X0.625000X-0.350000X0.625000X0.350000X-0.625000X0.350000X-0.625000X-0.350000X0*%
%ADD13O,1.750000X1.200000*%
%ADD14C,2.700000*%
%ADD15C,1.500000*%
%ADD16C,1.020000*%
%ADD17RoundRect,0.250001X0.499999X-0.499999X0.499999X0.499999X-0.499999X0.499999X-0.499999X-0.499999X0*%
%ADD18RoundRect,0.250000X-0.625000X0.350000X-0.625000X-0.350000X0.625000X-0.350000X0.625000X0.350000X0*%
%ADD19R,1.350000X1.350000*%
%ADD20C,1.350000*%
%ADD21C,3.400000*%
%ADD22RoundRect,0.250000X0.350000X0.625000X-0.350000X0.625000X-0.350000X-0.625000X0.350000X-0.625000X0*%
%ADD23O,1.200000X1.750000*%
%ADD24RoundRect,0.250000X1.550000X-0.650000X1.550000X0.650000X-1.550000X0.650000X-1.550000X-0.650000X0*%
%ADD25R,1.700000X1.700000*%
%ADD26C,1.700000*%
%ADD27RoundRect,0.200000X-0.200000X-0.275000X0.200000X-0.275000X0.200000X0.275000X-0.200000X0.275000X0*%
%ADD28RoundRect,0.250000X-0.300000X0.300000X-0.300000X-0.300000X0.300000X-0.300000X0.300000X0.300000X0*%
%ADD29RoundRect,0.150000X-0.512500X-0.150000X0.512500X-0.150000X0.512500X0.150000X-0.512500X0.150000X0*%
%ADD30RoundRect,0.200000X-0.275000X0.200000X-0.275000X-0.200000X0.275000X-0.200000X0.275000X0.200000X0*%
%ADD31RoundRect,0.162500X0.825000X0.162500X-0.825000X0.162500X-0.825000X-0.162500X0.825000X-0.162500X0*%
%ADD32RoundRect,0.250000X0.300000X0.300000X-0.300000X0.300000X-0.300000X-0.300000X0.300000X-0.300000X0*%
%ADD33RoundRect,0.162500X0.162500X-0.825000X0.162500X0.825000X-0.162500X0.825000X-0.162500X-0.825000X0*%
%ADD34RoundRect,0.200000X0.200000X0.275000X-0.200000X0.275000X-0.200000X-0.275000X0.200000X-0.275000X0*%
%ADD35RoundRect,0.225000X0.250000X-0.225000X0.250000X0.225000X-0.250000X0.225000X-0.250000X-0.225000X0*%
%ADD36RoundRect,0.225000X-0.250000X0.225000X-0.250000X-0.225000X0.250000X-0.225000X0.250000X0.225000X0*%
%ADD37RoundRect,0.225000X0.225000X0.250000X-0.225000X0.250000X-0.225000X-0.250000X0.225000X-0.250000X0*%
G04 APERTURE END LIST*
D10*
%TO.C,BAT_12V_1*%
X132270625Y-93295000D03*
D11*
X132270625Y-97105000D03*
%TD*%
D12*
%TO.C,JAU_1*%
X139625000Y-70350000D03*
D13*
X139625000Y-68350000D03*
%TD*%
D14*
%TO.C,MH2*%
X161500000Y-47500000D03*
%TD*%
D15*
%TO.C,Y1*%
X120425000Y-80400000D03*
X120425000Y-85280000D03*
%TD*%
D16*
%TO.C,J2*%
X113540000Y-99200000D03*
X113540000Y-84200000D03*
D17*
X109600000Y-96200000D03*
D15*
X109600000Y-93200000D03*
X109600000Y-90200000D03*
X109600000Y-87200000D03*
X112600000Y-96200000D03*
X112600000Y-93200000D03*
X112600000Y-90200000D03*
X112600000Y-87200000D03*
%TD*%
D18*
%TO.C,JFAN1*%
X103750000Y-76800000D03*
D13*
X103750000Y-78800000D03*
%TD*%
D18*
%TO.C,LCD1*%
X103750000Y-53300000D03*
D13*
X103750000Y-55300000D03*
X103750000Y-57300000D03*
X103750000Y-59300000D03*
%TD*%
D12*
%TO.C,IO6*%
X139625000Y-63325000D03*
D13*
X139625000Y-61325000D03*
X139625000Y-59325000D03*
X139625000Y-57325000D03*
%TD*%
D19*
%TO.C,JBP_1*%
X145675000Y-91425000D03*
D20*
X147675000Y-91425000D03*
%TD*%
D21*
%TO.C,FAN1*%
X112225000Y-53875000D03*
X112225000Y-73875000D03*
X132225000Y-53875000D03*
X132225000Y-73875000D03*
%TD*%
D22*
%TO.C,IO12*%
X151850000Y-54025000D03*
D23*
X149850000Y-54025000D03*
X147850000Y-54025000D03*
X145850000Y-54025000D03*
%TD*%
D14*
%TO.C,MH3*%
X103500000Y-96500000D03*
%TD*%
%TO.C,MH1*%
X103500000Y-47500000D03*
%TD*%
D22*
%TO.C,TB_1*%
X163025000Y-54000000D03*
D23*
X161025000Y-54000000D03*
X159025000Y-54000000D03*
X157025000Y-54000000D03*
%TD*%
D18*
%TO.C,IO17*%
X103750000Y-65050000D03*
D13*
X103750000Y-67050000D03*
X103750000Y-69050000D03*
X103750000Y-71050000D03*
%TD*%
D10*
%TO.C,V_WALL1*%
X153532500Y-93312500D03*
D11*
X153532500Y-97122500D03*
%TD*%
D14*
%TO.C,MH4*%
X161500000Y-96500000D03*
%TD*%
D24*
%TO.C,BAT_12V_2*%
X124320000Y-97070000D03*
D11*
X124320000Y-93260000D03*
%TD*%
D25*
%TO.C,J1*%
X108370000Y-48770000D03*
D26*
X108370000Y-46230000D03*
X110910000Y-48770000D03*
X110910000Y-46230000D03*
X113450000Y-48770000D03*
X113450000Y-46230000D03*
X115990000Y-48770000D03*
X115990000Y-46230000D03*
X118530000Y-48770000D03*
X118530000Y-46230000D03*
X121070000Y-48770000D03*
X121070000Y-46230000D03*
X123610000Y-48770000D03*
X123610000Y-46230000D03*
X126150000Y-48770000D03*
X126150000Y-46230000D03*
X128690000Y-48770000D03*
X128690000Y-46230000D03*
X131230000Y-48770000D03*
X131230000Y-46230000D03*
X133770000Y-48770000D03*
X133770000Y-46230000D03*
X136310000Y-48770000D03*
X136310000Y-46230000D03*
X138850000Y-48770000D03*
X138850000Y-46230000D03*
X141390000Y-48770000D03*
X141390000Y-46230000D03*
X143930000Y-48770000D03*
X143930000Y-46230000D03*
X146470000Y-48770000D03*
X146470000Y-46230000D03*
X149010000Y-48770000D03*
X149010000Y-46230000D03*
X151550000Y-48770000D03*
X151550000Y-46230000D03*
X154090000Y-48770000D03*
X154090000Y-46230000D03*
X156630000Y-48770000D03*
X156630000Y-46230000D03*
%TD*%
D27*
%TO.C,R_G12VS_1*%
X133890000Y-86580000D03*
X135540000Y-86580000D03*
%TD*%
%TO.C,R_G24VS_1*%
X133855000Y-88260000D03*
X135505000Y-88260000D03*
%TD*%
D28*
%TO.C,D_24V_INV1*%
X127400000Y-91700000D03*
X127400000Y-94500000D03*
%TD*%
D29*
%TO.C,U1*%
X148030000Y-87880000D03*
X148030000Y-86930000D03*
X148030000Y-85980000D03*
X150305000Y-85980000D03*
X150305000Y-86930000D03*
X150305000Y-87880000D03*
%TD*%
D30*
%TO.C,R_SE_1*%
X157580000Y-87520000D03*
X157580000Y-89170000D03*
%TD*%
D31*
%TO.C,Q_24VP_1*%
X120137500Y-91862500D03*
X120137500Y-93132500D03*
X120137500Y-94402500D03*
X120137500Y-95672500D03*
X115062500Y-95672500D03*
X115062500Y-94402500D03*
X115062500Y-93132500D03*
X115062500Y-91862500D03*
%TD*%
D32*
%TO.C,D_12V_INV1*%
X120627500Y-98080000D03*
X117827500Y-98080000D03*
%TD*%
D33*
%TO.C,Q_1*%
X144712500Y-89062500D03*
X143442500Y-89062500D03*
X142172500Y-89062500D03*
X140902500Y-89062500D03*
X140902500Y-83987500D03*
X142172500Y-83987500D03*
X143442500Y-83987500D03*
X144712500Y-83987500D03*
%TD*%
D34*
%TO.C,R_CAN_1*%
X111875000Y-85225000D03*
X110225000Y-85225000D03*
%TD*%
D35*
%TO.C,C_U2*%
X129000000Y-80075000D03*
X129000000Y-78525000D03*
%TD*%
D33*
%TO.C,Q_2*%
X163117500Y-91827500D03*
X161847500Y-91827500D03*
X160577500Y-91827500D03*
X159307500Y-91827500D03*
X159307500Y-86752500D03*
X160577500Y-86752500D03*
X161847500Y-86752500D03*
X163117500Y-86752500D03*
%TD*%
D36*
%TO.C,C_U3*%
X114125000Y-76850000D03*
X114125000Y-78400000D03*
%TD*%
D37*
%TO.C,C_Q_2*%
X123775000Y-85280000D03*
X122225000Y-85280000D03*
%TD*%
%TO.C,C_Q_1*%
X123775000Y-80400000D03*
X122225000Y-80400000D03*
%TD*%
M02*
