M48
; DRILL file {KiCad 9.0.5} date 2025-11-11T22:55:29+0100
; FORMAT={-:-/ absolute / metric / decimal}
; #@! TF.CreationDate,2025-11-11T22:55:29+01:00
; #@! TF.GenerationSoftware,Kicad,Pcbnew,9.0.5
; #@! TF.FileFunction,Plated,1,4,PTH
FMAT,2
METRIC
; #@! TA.AperFunction,Plated,PTH,ViaDrill
T1C0.300
; #@! TA.AperFunction,Plated,PTH,ComponentDrill
T2C0.750
; #@! TA.AperFunction,Plated,PTH,ComponentDrill
T3C0.800
; #@! TA.AperFunction,Plated,PTH,ComponentDrill
T4C1.000
; #@! TA.AperFunction,Plated,PTH,ComponentDrill
T5C1.020
; #@! TA.AperFunction,Plated,PTH,ComponentDrill
T6C1.200
; #@! TA.AperFunction,Plated,PTH,ComponentDrill
T7C2.850
%
G90
G05
T1
X106.45Y-82.2
X109.75Y-49.75
X113.1Y-50.05
X114.7Y-79.6
X114.75Y-80.875
X118.062Y-94.778
X119.9Y-92.45
X119.9Y-93.75
X120.75Y-91.25
X120.75Y-92.44
X120.75Y-93.75
X121.52Y-94.42
X121.54Y-91.88
X121.54Y-93.15
X121.55Y-90.8
X121.89Y-95.42
X121.99Y-91.3
X121.99Y-93.8
X122.01Y-92.49
X122.975Y-83.6
X128.5Y-95.45
X128.95Y-77.5
X129.4Y-88.3
X129.4Y-89.15
X130.0Y-89.85
X131.0Y-89.85
X131.299Y-80.15
X131.3Y-79.5
X131.3Y-81.495
X131.9Y-89.85
X132.45Y-85.7
X132.6Y-88.2
X132.6Y-89.25
X134.875Y-87.525
X136.015Y-64.0
X136.05Y-50.45
X136.05Y-63.15
X136.25Y-51.825
X136.275Y-53.875
X136.671Y-64.021
X136.8Y-62.15
X136.85Y-50.15
X138.005Y-90.265
X138.465Y-89.93
X138.94Y-90.27
X139.512Y-64.587
X140.28Y-82.38
X140.674Y-73.531
X140.9Y-87.47
X140.904Y-81.68
X141.174Y-73.031
X141.528Y-82.38
X141.674Y-73.531
X141.7Y-90.35
X141.7Y-91.35
X142.151Y-81.68
X142.174Y-73.031
X142.2Y-90.85
X142.2Y-91.85
X142.674Y-73.531
X142.7Y-90.35
X142.7Y-91.35
X142.775Y-82.38
X143.174Y-73.031
X143.2Y-90.85
X143.2Y-91.85
X143.26Y-95.19
X143.26Y-96.19
X143.26Y-97.19
X143.26Y-98.19
X143.26Y-99.19
X143.399Y-81.68
X143.674Y-73.531
X143.7Y-90.35
X143.7Y-91.35
X143.76Y-95.69
X143.76Y-96.69
X143.76Y-97.69
X143.76Y-98.69
X143.76Y-99.69
X144.022Y-82.38
X144.2Y-90.85
X144.2Y-91.85
X144.26Y-95.19
X144.3Y-74.1
X144.3Y-75.0
X144.646Y-81.68
X144.7Y-73.7
X144.7Y-74.5
X144.7Y-90.35
X144.76Y-95.69
X144.76Y-96.69
X144.76Y-97.69
X144.76Y-98.69
X144.76Y-99.69
X144.85Y-71.3
X145.26Y-95.19
X145.26Y-97.19
X145.26Y-98.19
X145.26Y-99.19
X145.27Y-82.38
X145.425Y-75.65
X145.76Y-95.69
X145.76Y-96.69
X145.76Y-97.69
X145.76Y-98.69
X145.76Y-99.69
X145.86Y-81.7
X145.894Y-82.922
X145.894Y-84.17
X145.974Y-74.43
X146.26Y-95.19
X146.26Y-97.19
X146.26Y-98.19
X146.26Y-99.19
X146.594Y-82.299
X146.594Y-83.546
X146.625Y-64.225
X146.625Y-65.225
X146.625Y-66.225
X146.725Y-68.575
X146.76Y-95.69
X146.76Y-96.69
X146.76Y-97.69
X146.76Y-98.69
X146.76Y-99.69
X146.8Y-61.0
X146.8Y-62.0
X146.8Y-63.0
X146.825Y-59.2
X146.825Y-60.2
X147.1Y-76.5
X147.1Y-78.4
X147.125Y-64.725
X147.125Y-65.725
X147.125Y-66.725
X147.26Y-95.19
X147.26Y-97.19
X147.26Y-98.19
X147.26Y-99.19
X147.3Y-61.5
X147.3Y-62.5
X147.3Y-63.5
X147.325Y-59.7
X147.325Y-60.7
X147.4Y-89.3
X147.574Y-72.031
X147.625Y-58.5
X147.625Y-64.225
X147.625Y-65.225
X147.625Y-66.225
X147.76Y-95.69
X147.76Y-96.69
X147.76Y-97.69
X147.76Y-98.69
X147.76Y-99.69
X148.125Y-58.0
X148.125Y-64.725
X148.125Y-65.725
X148.125Y-66.725
X148.26Y-95.19
X148.45Y-85.02
X148.625Y-58.5
X148.625Y-64.225
X148.625Y-65.225
X148.625Y-66.225
X148.725Y-90.325
X148.76Y-95.69
X148.76Y-96.69
X148.76Y-97.69
X148.76Y-98.69
X148.76Y-99.69
X148.9Y-76.5
X149.125Y-58.0
X149.125Y-64.725
X149.125Y-65.725
X149.125Y-66.725
X149.185Y-89.99
X149.26Y-95.19
X149.26Y-96.19
X149.26Y-97.19
X149.26Y-98.19
X149.26Y-99.19
X149.66Y-90.33
X149.995Y-58.0
X149.995Y-58.8
X149.995Y-59.6
X149.995Y-60.4
X149.995Y-61.2
X149.995Y-62.0
X149.995Y-62.8
X149.995Y-63.6
X149.995Y-64.4
X149.995Y-65.2
X149.995Y-66.0
X149.995Y-66.8
X149.995Y-67.6
X149.995Y-68.4
X149.995Y-69.2
X149.995Y-70.0
X149.995Y-70.8
X150.395Y-58.4
X150.395Y-60.8
X150.395Y-61.6
X150.395Y-64.0
X150.395Y-64.8
X150.395Y-65.6
X150.395Y-66.4
X150.395Y-67.2
X150.395Y-68.0
X150.395Y-68.8
X150.395Y-69.6
X150.395Y-70.4
X150.795Y-58.0
X150.795Y-61.2
X150.795Y-64.4
X150.795Y-65.2
X150.795Y-66.0
X150.795Y-66.8
X150.795Y-67.6
X150.795Y-68.4
X150.795Y-69.2
X150.795Y-70.0
X150.795Y-70.8
X151.195Y-58.4
X151.195Y-60.8
X151.195Y-61.6
X151.195Y-64.0
X151.195Y-64.8
X151.195Y-65.6
X151.195Y-66.4
X151.195Y-67.2
X151.195Y-68.0
X151.195Y-68.8
X151.195Y-69.6
X151.195Y-70.4
X151.574Y-73.73
X151.595Y-58.0
X151.595Y-58.8
X151.595Y-59.6
X151.595Y-60.4
X151.595Y-61.2
X151.595Y-62.0
X151.595Y-62.8
X151.595Y-63.6
X151.595Y-64.4
X151.595Y-65.2
X151.595Y-66.0
X151.595Y-66.8
X151.595Y-67.6
X151.595Y-68.4
X151.595Y-69.2
X151.595Y-70.0
X151.595Y-70.8
X151.64Y-86.3
X151.64Y-87.89
X151.985Y-66.39
X151.985Y-67.19
X152.3Y-76.4
X152.385Y-65.99
X152.385Y-66.79
X152.385Y-67.59
X152.388Y-58.53
X152.388Y-59.444
X152.388Y-60.359
X152.388Y-61.273
X152.388Y-62.187
X152.388Y-63.101
X152.388Y-64.016
X152.388Y-64.93
X152.674Y-70.23
X152.745Y-57.935
X152.765Y-60.77
X152.765Y-61.68
X152.765Y-64.41
X152.785Y-66.39
X152.785Y-67.19
X152.785Y-68.56
X152.785Y-69.34
X153.1Y-78.2
X153.125Y-68.95
X153.143Y-58.5
X153.143Y-61.243
X153.143Y-63.986
X153.143Y-64.9
X153.185Y-65.99
X153.185Y-66.79
X153.185Y-67.59
X153.5Y-57.925
X153.52Y-60.767
X153.52Y-61.675
X153.52Y-64.4
X153.533Y-68.56
X153.533Y-69.34
X153.585Y-66.39
X153.585Y-67.19
X153.878Y-68.95
X153.898Y-58.5
X153.898Y-59.414
X153.898Y-60.329
X153.898Y-61.243
X153.898Y-62.157
X153.898Y-63.071
X153.898Y-63.986
X153.898Y-64.9
X153.985Y-65.99
X153.985Y-66.79
X153.985Y-67.59
X154.26Y-78.2
X154.28Y-68.56
X154.28Y-69.34
X154.385Y-66.39
X154.385Y-67.19
X154.632Y-68.95
X154.785Y-65.99
X154.785Y-66.79
X154.785Y-67.59
X155.185Y-66.39
X155.185Y-67.19
X155.42Y-78.2
X155.585Y-65.99
X155.585Y-66.79
X155.585Y-67.59
X155.775Y-68.56
X155.775Y-69.34
X155.974Y-76.4
X156.49Y-88.994
X156.572Y-60.36
X156.572Y-61.115
X156.58Y-78.2
X156.6Y-66.25
X156.96Y-66.75
X157.022Y-60.742
X157.235Y-66.25
X157.487Y-60.36
X157.487Y-61.115
X157.595Y-66.75
X157.74Y-78.2
X157.87Y-66.25
X157.931Y-60.737
X158.23Y-66.75
X158.401Y-60.36
X158.401Y-61.115
X158.505Y-66.25
X158.7Y-85.05
X158.839Y-60.737
X158.865Y-66.75
X158.9Y-78.2
X159.14Y-66.25
X159.315Y-60.36
X159.315Y-61.115
X159.324Y-84.35
X159.375Y-90.345
X159.5Y-66.75
X159.747Y-60.737
X159.775Y-66.25
X159.835Y-90.01
X159.947Y-85.05
X160.229Y-60.36
X160.229Y-61.115
X160.31Y-90.35
X160.4Y-71.0
X160.41Y-66.25
X160.571Y-84.35
X160.656Y-60.737
X161.045Y-66.25
X161.144Y-60.36
X161.144Y-61.115
X161.195Y-85.05
X161.233Y-71.0
X161.564Y-60.737
X161.68Y-66.25
X161.819Y-84.35
X162.058Y-60.36
X162.058Y-61.115
X162.067Y-71.0
X162.1Y-78.3
X162.315Y-66.25
X162.442Y-85.05
X162.472Y-60.737
X162.9Y-71.0
X162.95Y-66.25
X162.972Y-60.36
X162.972Y-61.115
X163.066Y-84.35
X163.69Y-85.05
X164.0Y-78.3
X164.0Y-79.3
T2
X103.75Y-53.3
X103.75Y-55.3
X103.75Y-57.3
X103.75Y-59.3
X103.75Y-65.05
X103.75Y-67.05
X103.75Y-69.05
X103.75Y-71.05
X103.75Y-76.8
X103.75Y-78.8
X139.625Y-57.325
X139.625Y-59.325
X139.625Y-61.325
X139.625Y-63.325
X139.625Y-68.35
X139.625Y-70.35
X145.85Y-54.025
X147.85Y-54.025
X149.85Y-54.025
X151.85Y-54.025
X157.025Y-54.0
X159.025Y-54.0
X161.025Y-54.0
X163.025Y-54.0
T3
X120.425Y-80.4
X120.425Y-85.28
X145.675Y-91.425
X147.675Y-91.425
T4
X108.37Y-46.23
X108.37Y-48.77
X110.91Y-46.23
X110.91Y-48.77
X113.45Y-46.23
X113.45Y-48.77
X115.99Y-46.23
X115.99Y-48.77
X118.53Y-46.23
X118.53Y-48.77
X121.07Y-46.23
X121.07Y-48.77
X123.61Y-46.23
X123.61Y-48.77
X126.15Y-46.23
X126.15Y-48.77
X128.69Y-46.23
X128.69Y-48.77
X131.23Y-46.23
X131.23Y-48.77
X133.77Y-46.23
X133.77Y-48.77
X136.31Y-46.23
X136.31Y-48.77
X138.85Y-46.23
X138.85Y-48.77
X141.39Y-46.23
X141.39Y-48.77
X143.93Y-46.23
X143.93Y-48.77
X146.47Y-46.23
X146.47Y-48.77
X149.01Y-46.23
X149.01Y-48.77
X151.55Y-46.23
X151.55Y-48.77
X154.09Y-46.23
X154.09Y-48.77
X156.63Y-46.23
X156.63Y-48.77
T5
X109.6Y-87.2
X109.6Y-90.2
X109.6Y-93.2
X109.6Y-96.2
X112.6Y-87.2
X112.6Y-90.2
X112.6Y-93.2
X112.6Y-96.2
T6
X124.32Y-93.26
X124.32Y-97.07
X132.271Y-93.295
X132.271Y-97.105
X153.532Y-93.312
X153.532Y-97.123
T7
X112.225Y-53.875
X112.225Y-73.875
X132.225Y-53.875
X132.225Y-73.875
M30
