%TF.GenerationSoftware,KiCad,Pcbnew,9.0.5*%
%TF.CreationDate,2025-11-11T22:55:07+01:00*%
%TF.ProjectId,power_motherboard,706f7765-725f-46d6-9f74-686572626f61,rev?*%
%TF.SameCoordinates,Original*%
%TF.FileFunction,Legend,Top*%
%TF.FilePolarity,Positive*%
%FSLAX46Y46*%
G04 Gerber Fmt 4.6, Leading zero omitted, Abs format (unit mm)*
G04 Created by KiCad (PCBNEW 9.0.5) date 2025-11-11 22:55:07*
%MOMM*%
%LPD*%
G01*
G04 APERTURE LIST*
%ADD10C,0.100000*%
%ADD11C,0.150000*%
%ADD12C,0.120000*%
%ADD13C,0.200000*%
G04 APERTURE END LIST*
D10*
X131313095Y-82214895D02*
X131313095Y-82862514D01*
X131313095Y-82862514D02*
X131360714Y-82938704D01*
X131360714Y-82938704D02*
X131408333Y-82976800D01*
X131408333Y-82976800D02*
X131503571Y-83014895D01*
X131503571Y-83014895D02*
X131694047Y-83014895D01*
X131694047Y-83014895D02*
X131789285Y-82976800D01*
X131789285Y-82976800D02*
X131836904Y-82938704D01*
X131836904Y-82938704D02*
X131884523Y-82862514D01*
X131884523Y-82862514D02*
X131884523Y-82214895D01*
X132313095Y-82291085D02*
X132360714Y-82252990D01*
X132360714Y-82252990D02*
X132455952Y-82214895D01*
X132455952Y-82214895D02*
X132694047Y-82214895D01*
X132694047Y-82214895D02*
X132789285Y-82252990D01*
X132789285Y-82252990D02*
X132836904Y-82291085D01*
X132836904Y-82291085D02*
X132884523Y-82367276D01*
X132884523Y-82367276D02*
X132884523Y-82443466D01*
X132884523Y-82443466D02*
X132836904Y-82557752D01*
X132836904Y-82557752D02*
X132265476Y-83014895D01*
X132265476Y-83014895D02*
X132884523Y-83014895D01*
X136289895Y-71016666D02*
X136861323Y-71016666D01*
X136861323Y-71016666D02*
X136975609Y-71064285D01*
X136975609Y-71064285D02*
X137051800Y-71159523D01*
X137051800Y-71159523D02*
X137089895Y-71302380D01*
X137089895Y-71302380D02*
X137089895Y-71397618D01*
X136861323Y-70588094D02*
X136861323Y-70111904D01*
X137089895Y-70683332D02*
X136289895Y-70349999D01*
X136289895Y-70349999D02*
X137089895Y-70016666D01*
X136289895Y-69683332D02*
X136937514Y-69683332D01*
X136937514Y-69683332D02*
X137013704Y-69635713D01*
X137013704Y-69635713D02*
X137051800Y-69588094D01*
X137051800Y-69588094D02*
X137089895Y-69492856D01*
X137089895Y-69492856D02*
X137089895Y-69302380D01*
X137089895Y-69302380D02*
X137051800Y-69207142D01*
X137051800Y-69207142D02*
X137013704Y-69159523D01*
X137013704Y-69159523D02*
X136937514Y-69111904D01*
X136937514Y-69111904D02*
X136289895Y-69111904D01*
X137166085Y-68873809D02*
X137166085Y-68111904D01*
X137089895Y-67349999D02*
X137089895Y-67921427D01*
X137089895Y-67635713D02*
X136289895Y-67635713D01*
X136289895Y-67635713D02*
X136404180Y-67730951D01*
X136404180Y-67730951D02*
X136480371Y-67826189D01*
X136480371Y-67826189D02*
X136518466Y-67921427D01*
D11*
X159136244Y-72285319D02*
X159660053Y-71618652D01*
X159136244Y-71618652D02*
X159660053Y-72285319D01*
X159993387Y-71380557D02*
X160041006Y-71332938D01*
X160041006Y-71332938D02*
X160136244Y-71285319D01*
X160136244Y-71285319D02*
X160374339Y-71285319D01*
X160374339Y-71285319D02*
X160469577Y-71332938D01*
X160469577Y-71332938D02*
X160517196Y-71380557D01*
X160517196Y-71380557D02*
X160564815Y-71475795D01*
X160564815Y-71475795D02*
X160564815Y-71571033D01*
X160564815Y-71571033D02*
X160517196Y-71713890D01*
X160517196Y-71713890D02*
X159945768Y-72285319D01*
X159945768Y-72285319D02*
X160564815Y-72285319D01*
D10*
X156691958Y-59435395D02*
X157215767Y-58902061D01*
X156691958Y-58902061D02*
X157215767Y-59435395D01*
X157549101Y-58711585D02*
X157596720Y-58673490D01*
X157596720Y-58673490D02*
X157691958Y-58635395D01*
X157691958Y-58635395D02*
X157930053Y-58635395D01*
X157930053Y-58635395D02*
X158025291Y-58673490D01*
X158025291Y-58673490D02*
X158072910Y-58711585D01*
X158072910Y-58711585D02*
X158120529Y-58787776D01*
X158120529Y-58787776D02*
X158120529Y-58863966D01*
X158120529Y-58863966D02*
X158072910Y-58978252D01*
X158072910Y-58978252D02*
X157501482Y-59435395D01*
X157501482Y-59435395D02*
X158120529Y-59435395D01*
X158549101Y-59359204D02*
X158596720Y-59397300D01*
X158596720Y-59397300D02*
X158549101Y-59435395D01*
X158549101Y-59435395D02*
X158501482Y-59397300D01*
X158501482Y-59397300D02*
X158549101Y-59359204D01*
X158549101Y-59359204D02*
X158549101Y-59435395D01*
X158977672Y-58711585D02*
X159025291Y-58673490D01*
X159025291Y-58673490D02*
X159120529Y-58635395D01*
X159120529Y-58635395D02*
X159358624Y-58635395D01*
X159358624Y-58635395D02*
X159453862Y-58673490D01*
X159453862Y-58673490D02*
X159501481Y-58711585D01*
X159501481Y-58711585D02*
X159549100Y-58787776D01*
X159549100Y-58787776D02*
X159549100Y-58863966D01*
X159549100Y-58863966D02*
X159501481Y-58978252D01*
X159501481Y-58978252D02*
X158930053Y-59435395D01*
X158930053Y-59435395D02*
X159549100Y-59435395D01*
X105494895Y-92033333D02*
X106066323Y-92033333D01*
X106066323Y-92033333D02*
X106180609Y-92080952D01*
X106180609Y-92080952D02*
X106256800Y-92176190D01*
X106256800Y-92176190D02*
X106294895Y-92319047D01*
X106294895Y-92319047D02*
X106294895Y-92414285D01*
X105571085Y-91604761D02*
X105532990Y-91557142D01*
X105532990Y-91557142D02*
X105494895Y-91461904D01*
X105494895Y-91461904D02*
X105494895Y-91223809D01*
X105494895Y-91223809D02*
X105532990Y-91128571D01*
X105532990Y-91128571D02*
X105571085Y-91080952D01*
X105571085Y-91080952D02*
X105647276Y-91033333D01*
X105647276Y-91033333D02*
X105723466Y-91033333D01*
X105723466Y-91033333D02*
X105837752Y-91080952D01*
X105837752Y-91080952D02*
X106294895Y-91652380D01*
X106294895Y-91652380D02*
X106294895Y-91033333D01*
X106214895Y-79514285D02*
X106786323Y-79514285D01*
X106786323Y-79514285D02*
X106900609Y-79561904D01*
X106900609Y-79561904D02*
X106976800Y-79657142D01*
X106976800Y-79657142D02*
X107014895Y-79799999D01*
X107014895Y-79799999D02*
X107014895Y-79895237D01*
X106595847Y-78704761D02*
X106595847Y-79038094D01*
X107014895Y-79038094D02*
X106214895Y-79038094D01*
X106214895Y-79038094D02*
X106214895Y-78561904D01*
X106786323Y-78228570D02*
X106786323Y-77752380D01*
X107014895Y-78323808D02*
X106214895Y-77990475D01*
X106214895Y-77990475D02*
X107014895Y-77657142D01*
X107014895Y-77323808D02*
X106214895Y-77323808D01*
X106214895Y-77323808D02*
X107014895Y-76752380D01*
X107014895Y-76752380D02*
X106214895Y-76752380D01*
X107014895Y-75752380D02*
X107014895Y-76323808D01*
X107014895Y-76038094D02*
X106214895Y-76038094D01*
X106214895Y-76038094D02*
X106329180Y-76133332D01*
X106329180Y-76133332D02*
X106405371Y-76228570D01*
X106405371Y-76228570D02*
X106443466Y-76323808D01*
X108088095Y-79114895D02*
X108088095Y-79762514D01*
X108088095Y-79762514D02*
X108135714Y-79838704D01*
X108135714Y-79838704D02*
X108183333Y-79876800D01*
X108183333Y-79876800D02*
X108278571Y-79914895D01*
X108278571Y-79914895D02*
X108469047Y-79914895D01*
X108469047Y-79914895D02*
X108564285Y-79876800D01*
X108564285Y-79876800D02*
X108611904Y-79838704D01*
X108611904Y-79838704D02*
X108659523Y-79762514D01*
X108659523Y-79762514D02*
X108659523Y-79114895D01*
X109040476Y-79114895D02*
X109659523Y-79114895D01*
X109659523Y-79114895D02*
X109326190Y-79419657D01*
X109326190Y-79419657D02*
X109469047Y-79419657D01*
X109469047Y-79419657D02*
X109564285Y-79457752D01*
X109564285Y-79457752D02*
X109611904Y-79495847D01*
X109611904Y-79495847D02*
X109659523Y-79572038D01*
X109659523Y-79572038D02*
X109659523Y-79762514D01*
X109659523Y-79762514D02*
X109611904Y-79838704D01*
X109611904Y-79838704D02*
X109564285Y-79876800D01*
X109564285Y-79876800D02*
X109469047Y-79914895D01*
X109469047Y-79914895D02*
X109183333Y-79914895D01*
X109183333Y-79914895D02*
X109088095Y-79876800D01*
X109088095Y-79876800D02*
X109040476Y-79838704D01*
X107014895Y-57466666D02*
X107014895Y-57942856D01*
X107014895Y-57942856D02*
X106214895Y-57942856D01*
X106938704Y-56561904D02*
X106976800Y-56609523D01*
X106976800Y-56609523D02*
X107014895Y-56752380D01*
X107014895Y-56752380D02*
X107014895Y-56847618D01*
X107014895Y-56847618D02*
X106976800Y-56990475D01*
X106976800Y-56990475D02*
X106900609Y-57085713D01*
X106900609Y-57085713D02*
X106824419Y-57133332D01*
X106824419Y-57133332D02*
X106672038Y-57180951D01*
X106672038Y-57180951D02*
X106557752Y-57180951D01*
X106557752Y-57180951D02*
X106405371Y-57133332D01*
X106405371Y-57133332D02*
X106329180Y-57085713D01*
X106329180Y-57085713D02*
X106252990Y-56990475D01*
X106252990Y-56990475D02*
X106214895Y-56847618D01*
X106214895Y-56847618D02*
X106214895Y-56752380D01*
X106214895Y-56752380D02*
X106252990Y-56609523D01*
X106252990Y-56609523D02*
X106291085Y-56561904D01*
X107014895Y-56133332D02*
X106214895Y-56133332D01*
X106214895Y-56133332D02*
X106214895Y-55895237D01*
X106214895Y-55895237D02*
X106252990Y-55752380D01*
X106252990Y-55752380D02*
X106329180Y-55657142D01*
X106329180Y-55657142D02*
X106405371Y-55609523D01*
X106405371Y-55609523D02*
X106557752Y-55561904D01*
X106557752Y-55561904D02*
X106672038Y-55561904D01*
X106672038Y-55561904D02*
X106824419Y-55609523D01*
X106824419Y-55609523D02*
X106900609Y-55657142D01*
X106900609Y-55657142D02*
X106976800Y-55752380D01*
X106976800Y-55752380D02*
X107014895Y-55895237D01*
X107014895Y-55895237D02*
X107014895Y-56133332D01*
X107014895Y-54609523D02*
X107014895Y-55180951D01*
X107014895Y-54895237D02*
X106214895Y-54895237D01*
X106214895Y-54895237D02*
X106329180Y-54990475D01*
X106329180Y-54990475D02*
X106405371Y-55085713D01*
X106405371Y-55085713D02*
X106443466Y-55180951D01*
X137089895Y-61324999D02*
X136289895Y-61324999D01*
X136289895Y-60658333D02*
X136289895Y-60467857D01*
X136289895Y-60467857D02*
X136327990Y-60372619D01*
X136327990Y-60372619D02*
X136404180Y-60277381D01*
X136404180Y-60277381D02*
X136556561Y-60229762D01*
X136556561Y-60229762D02*
X136823228Y-60229762D01*
X136823228Y-60229762D02*
X136975609Y-60277381D01*
X136975609Y-60277381D02*
X137051800Y-60372619D01*
X137051800Y-60372619D02*
X137089895Y-60467857D01*
X137089895Y-60467857D02*
X137089895Y-60658333D01*
X137089895Y-60658333D02*
X137051800Y-60753571D01*
X137051800Y-60753571D02*
X136975609Y-60848809D01*
X136975609Y-60848809D02*
X136823228Y-60896428D01*
X136823228Y-60896428D02*
X136556561Y-60896428D01*
X136556561Y-60896428D02*
X136404180Y-60848809D01*
X136404180Y-60848809D02*
X136327990Y-60753571D01*
X136327990Y-60753571D02*
X136289895Y-60658333D01*
X136289895Y-59372619D02*
X136289895Y-59563095D01*
X136289895Y-59563095D02*
X136327990Y-59658333D01*
X136327990Y-59658333D02*
X136366085Y-59705952D01*
X136366085Y-59705952D02*
X136480371Y-59801190D01*
X136480371Y-59801190D02*
X136632752Y-59848809D01*
X136632752Y-59848809D02*
X136937514Y-59848809D01*
X136937514Y-59848809D02*
X137013704Y-59801190D01*
X137013704Y-59801190D02*
X137051800Y-59753571D01*
X137051800Y-59753571D02*
X137089895Y-59658333D01*
X137089895Y-59658333D02*
X137089895Y-59467857D01*
X137089895Y-59467857D02*
X137051800Y-59372619D01*
X137051800Y-59372619D02*
X137013704Y-59325000D01*
X137013704Y-59325000D02*
X136937514Y-59277381D01*
X136937514Y-59277381D02*
X136747038Y-59277381D01*
X136747038Y-59277381D02*
X136670847Y-59325000D01*
X136670847Y-59325000D02*
X136632752Y-59372619D01*
X136632752Y-59372619D02*
X136594657Y-59467857D01*
X136594657Y-59467857D02*
X136594657Y-59658333D01*
X136594657Y-59658333D02*
X136632752Y-59753571D01*
X136632752Y-59753571D02*
X136670847Y-59801190D01*
X136670847Y-59801190D02*
X136747038Y-59848809D01*
D11*
X142629819Y-93139285D02*
X143344104Y-93139285D01*
X143344104Y-93139285D02*
X143486961Y-93186904D01*
X143486961Y-93186904D02*
X143582200Y-93282142D01*
X143582200Y-93282142D02*
X143629819Y-93424999D01*
X143629819Y-93424999D02*
X143629819Y-93520237D01*
X143106009Y-92329761D02*
X143153628Y-92186904D01*
X143153628Y-92186904D02*
X143201247Y-92139285D01*
X143201247Y-92139285D02*
X143296485Y-92091666D01*
X143296485Y-92091666D02*
X143439342Y-92091666D01*
X143439342Y-92091666D02*
X143534580Y-92139285D01*
X143534580Y-92139285D02*
X143582200Y-92186904D01*
X143582200Y-92186904D02*
X143629819Y-92282142D01*
X143629819Y-92282142D02*
X143629819Y-92663094D01*
X143629819Y-92663094D02*
X142629819Y-92663094D01*
X142629819Y-92663094D02*
X142629819Y-92329761D01*
X142629819Y-92329761D02*
X142677438Y-92234523D01*
X142677438Y-92234523D02*
X142725057Y-92186904D01*
X142725057Y-92186904D02*
X142820295Y-92139285D01*
X142820295Y-92139285D02*
X142915533Y-92139285D01*
X142915533Y-92139285D02*
X143010771Y-92186904D01*
X143010771Y-92186904D02*
X143058390Y-92234523D01*
X143058390Y-92234523D02*
X143106009Y-92329761D01*
X143106009Y-92329761D02*
X143106009Y-92663094D01*
X143629819Y-91663094D02*
X142629819Y-91663094D01*
X142629819Y-91663094D02*
X142629819Y-91282142D01*
X142629819Y-91282142D02*
X142677438Y-91186904D01*
X142677438Y-91186904D02*
X142725057Y-91139285D01*
X142725057Y-91139285D02*
X142820295Y-91091666D01*
X142820295Y-91091666D02*
X142963152Y-91091666D01*
X142963152Y-91091666D02*
X143058390Y-91139285D01*
X143058390Y-91139285D02*
X143106009Y-91186904D01*
X143106009Y-91186904D02*
X143153628Y-91282142D01*
X143153628Y-91282142D02*
X143153628Y-91663094D01*
X143725057Y-90901190D02*
X143725057Y-90139285D01*
X143629819Y-89377380D02*
X143629819Y-89948808D01*
X143629819Y-89663094D02*
X142629819Y-89663094D01*
X142629819Y-89663094D02*
X142772676Y-89758332D01*
X142772676Y-89758332D02*
X142867914Y-89853570D01*
X142867914Y-89853570D02*
X142915533Y-89948808D01*
D10*
X160091958Y-59435395D02*
X160615767Y-58902061D01*
X160091958Y-58902061D02*
X160615767Y-59435395D01*
X160949101Y-58711585D02*
X160996720Y-58673490D01*
X160996720Y-58673490D02*
X161091958Y-58635395D01*
X161091958Y-58635395D02*
X161330053Y-58635395D01*
X161330053Y-58635395D02*
X161425291Y-58673490D01*
X161425291Y-58673490D02*
X161472910Y-58711585D01*
X161472910Y-58711585D02*
X161520529Y-58787776D01*
X161520529Y-58787776D02*
X161520529Y-58863966D01*
X161520529Y-58863966D02*
X161472910Y-58978252D01*
X161472910Y-58978252D02*
X160901482Y-59435395D01*
X160901482Y-59435395D02*
X161520529Y-59435395D01*
X161949101Y-59359204D02*
X161996720Y-59397300D01*
X161996720Y-59397300D02*
X161949101Y-59435395D01*
X161949101Y-59435395D02*
X161901482Y-59397300D01*
X161901482Y-59397300D02*
X161949101Y-59359204D01*
X161949101Y-59359204D02*
X161949101Y-59435395D01*
X162330053Y-58635395D02*
X162949100Y-58635395D01*
X162949100Y-58635395D02*
X162615767Y-58940157D01*
X162615767Y-58940157D02*
X162758624Y-58940157D01*
X162758624Y-58940157D02*
X162853862Y-58978252D01*
X162853862Y-58978252D02*
X162901481Y-59016347D01*
X162901481Y-59016347D02*
X162949100Y-59092538D01*
X162949100Y-59092538D02*
X162949100Y-59283014D01*
X162949100Y-59283014D02*
X162901481Y-59359204D01*
X162901481Y-59359204D02*
X162853862Y-59397300D01*
X162853862Y-59397300D02*
X162758624Y-59435395D01*
X162758624Y-59435395D02*
X162472910Y-59435395D01*
X162472910Y-59435395D02*
X162377672Y-59397300D01*
X162377672Y-59397300D02*
X162330053Y-59359204D01*
X120739285Y-61208609D02*
X120405952Y-61208609D01*
X120405952Y-61732419D02*
X120405952Y-60732419D01*
X120405952Y-60732419D02*
X120882142Y-60732419D01*
X121215476Y-61446704D02*
X121691666Y-61446704D01*
X121120238Y-61732419D02*
X121453571Y-60732419D01*
X121453571Y-60732419D02*
X121786904Y-61732419D01*
X122120238Y-61732419D02*
X122120238Y-60732419D01*
X122120238Y-60732419D02*
X122691666Y-61732419D01*
X122691666Y-61732419D02*
X122691666Y-60732419D01*
X123691666Y-61732419D02*
X123120238Y-61732419D01*
X123405952Y-61732419D02*
X123405952Y-60732419D01*
X123405952Y-60732419D02*
X123310714Y-60875276D01*
X123310714Y-60875276D02*
X123215476Y-60970514D01*
X123215476Y-60970514D02*
X123120238Y-61018133D01*
X144864895Y-59526189D02*
X144064895Y-59526189D01*
X144064895Y-58859523D02*
X144064895Y-58669047D01*
X144064895Y-58669047D02*
X144102990Y-58573809D01*
X144102990Y-58573809D02*
X144179180Y-58478571D01*
X144179180Y-58478571D02*
X144331561Y-58430952D01*
X144331561Y-58430952D02*
X144598228Y-58430952D01*
X144598228Y-58430952D02*
X144750609Y-58478571D01*
X144750609Y-58478571D02*
X144826800Y-58573809D01*
X144826800Y-58573809D02*
X144864895Y-58669047D01*
X144864895Y-58669047D02*
X144864895Y-58859523D01*
X144864895Y-58859523D02*
X144826800Y-58954761D01*
X144826800Y-58954761D02*
X144750609Y-59049999D01*
X144750609Y-59049999D02*
X144598228Y-59097618D01*
X144598228Y-59097618D02*
X144331561Y-59097618D01*
X144331561Y-59097618D02*
X144179180Y-59049999D01*
X144179180Y-59049999D02*
X144102990Y-58954761D01*
X144102990Y-58954761D02*
X144064895Y-58859523D01*
X144864895Y-57478571D02*
X144864895Y-58049999D01*
X144864895Y-57764285D02*
X144064895Y-57764285D01*
X144064895Y-57764285D02*
X144179180Y-57859523D01*
X144179180Y-57859523D02*
X144255371Y-57954761D01*
X144255371Y-57954761D02*
X144293466Y-58049999D01*
X144141085Y-57097618D02*
X144102990Y-57049999D01*
X144102990Y-57049999D02*
X144064895Y-56954761D01*
X144064895Y-56954761D02*
X144064895Y-56716666D01*
X144064895Y-56716666D02*
X144102990Y-56621428D01*
X144102990Y-56621428D02*
X144141085Y-56573809D01*
X144141085Y-56573809D02*
X144217276Y-56526190D01*
X144217276Y-56526190D02*
X144293466Y-56526190D01*
X144293466Y-56526190D02*
X144407752Y-56573809D01*
X144407752Y-56573809D02*
X144864895Y-57145237D01*
X144864895Y-57145237D02*
X144864895Y-56526190D01*
X161558571Y-83762819D02*
X161606190Y-83715200D01*
X161606190Y-83715200D02*
X161749047Y-83667580D01*
X161749047Y-83667580D02*
X161844285Y-83667580D01*
X161844285Y-83667580D02*
X161987142Y-83715200D01*
X161987142Y-83715200D02*
X162082380Y-83810438D01*
X162082380Y-83810438D02*
X162129999Y-83905676D01*
X162129999Y-83905676D02*
X162177618Y-84096152D01*
X162177618Y-84096152D02*
X162177618Y-84239009D01*
X162177618Y-84239009D02*
X162129999Y-84429485D01*
X162129999Y-84429485D02*
X162082380Y-84524723D01*
X162082380Y-84524723D02*
X161987142Y-84619961D01*
X161987142Y-84619961D02*
X161844285Y-84667580D01*
X161844285Y-84667580D02*
X161749047Y-84667580D01*
X161749047Y-84667580D02*
X161606190Y-84619961D01*
X161606190Y-84619961D02*
X161558571Y-84572342D01*
X161177618Y-84572342D02*
X161129999Y-84619961D01*
X161129999Y-84619961D02*
X161034761Y-84667580D01*
X161034761Y-84667580D02*
X160796666Y-84667580D01*
X160796666Y-84667580D02*
X160701428Y-84619961D01*
X160701428Y-84619961D02*
X160653809Y-84572342D01*
X160653809Y-84572342D02*
X160606190Y-84477104D01*
X160606190Y-84477104D02*
X160606190Y-84381866D01*
X160606190Y-84381866D02*
X160653809Y-84239009D01*
X160653809Y-84239009D02*
X161225237Y-83667580D01*
X161225237Y-83667580D02*
X160606190Y-83667580D01*
X159749047Y-84334247D02*
X159749047Y-83667580D01*
X159987142Y-84715200D02*
X160225237Y-84000914D01*
X160225237Y-84000914D02*
X159606190Y-84000914D01*
X159368094Y-84667580D02*
X159034761Y-83667580D01*
X159034761Y-83667580D02*
X158701428Y-84667580D01*
X158606190Y-83572342D02*
X157844285Y-83572342D01*
X157653808Y-84572342D02*
X157606189Y-84619961D01*
X157606189Y-84619961D02*
X157510951Y-84667580D01*
X157510951Y-84667580D02*
X157272856Y-84667580D01*
X157272856Y-84667580D02*
X157177618Y-84619961D01*
X157177618Y-84619961D02*
X157129999Y-84572342D01*
X157129999Y-84572342D02*
X157082380Y-84477104D01*
X157082380Y-84477104D02*
X157082380Y-84381866D01*
X157082380Y-84381866D02*
X157129999Y-84239009D01*
X157129999Y-84239009D02*
X157701427Y-83667580D01*
X157701427Y-83667580D02*
X157082380Y-83667580D01*
X158382143Y-56464895D02*
X158953571Y-56464895D01*
X158667857Y-57264895D02*
X158667857Y-56464895D01*
X159620238Y-56845847D02*
X159763095Y-56883942D01*
X159763095Y-56883942D02*
X159810714Y-56922038D01*
X159810714Y-56922038D02*
X159858333Y-56998228D01*
X159858333Y-56998228D02*
X159858333Y-57112514D01*
X159858333Y-57112514D02*
X159810714Y-57188704D01*
X159810714Y-57188704D02*
X159763095Y-57226800D01*
X159763095Y-57226800D02*
X159667857Y-57264895D01*
X159667857Y-57264895D02*
X159286905Y-57264895D01*
X159286905Y-57264895D02*
X159286905Y-56464895D01*
X159286905Y-56464895D02*
X159620238Y-56464895D01*
X159620238Y-56464895D02*
X159715476Y-56502990D01*
X159715476Y-56502990D02*
X159763095Y-56541085D01*
X159763095Y-56541085D02*
X159810714Y-56617276D01*
X159810714Y-56617276D02*
X159810714Y-56693466D01*
X159810714Y-56693466D02*
X159763095Y-56769657D01*
X159763095Y-56769657D02*
X159715476Y-56807752D01*
X159715476Y-56807752D02*
X159620238Y-56845847D01*
X159620238Y-56845847D02*
X159286905Y-56845847D01*
X160048810Y-57341085D02*
X160810714Y-57341085D01*
X161572619Y-57264895D02*
X161001191Y-57264895D01*
X161286905Y-57264895D02*
X161286905Y-56464895D01*
X161286905Y-56464895D02*
X161191667Y-56579180D01*
X161191667Y-56579180D02*
X161096429Y-56655371D01*
X161096429Y-56655371D02*
X161001191Y-56693466D01*
X107014895Y-69526189D02*
X106214895Y-69526189D01*
X106214895Y-68859523D02*
X106214895Y-68669047D01*
X106214895Y-68669047D02*
X106252990Y-68573809D01*
X106252990Y-68573809D02*
X106329180Y-68478571D01*
X106329180Y-68478571D02*
X106481561Y-68430952D01*
X106481561Y-68430952D02*
X106748228Y-68430952D01*
X106748228Y-68430952D02*
X106900609Y-68478571D01*
X106900609Y-68478571D02*
X106976800Y-68573809D01*
X106976800Y-68573809D02*
X107014895Y-68669047D01*
X107014895Y-68669047D02*
X107014895Y-68859523D01*
X107014895Y-68859523D02*
X106976800Y-68954761D01*
X106976800Y-68954761D02*
X106900609Y-69049999D01*
X106900609Y-69049999D02*
X106748228Y-69097618D01*
X106748228Y-69097618D02*
X106481561Y-69097618D01*
X106481561Y-69097618D02*
X106329180Y-69049999D01*
X106329180Y-69049999D02*
X106252990Y-68954761D01*
X106252990Y-68954761D02*
X106214895Y-68859523D01*
X107014895Y-67478571D02*
X107014895Y-68049999D01*
X107014895Y-67764285D02*
X106214895Y-67764285D01*
X106214895Y-67764285D02*
X106329180Y-67859523D01*
X106329180Y-67859523D02*
X106405371Y-67954761D01*
X106405371Y-67954761D02*
X106443466Y-68049999D01*
X106214895Y-67145237D02*
X106214895Y-66478571D01*
X106214895Y-66478571D02*
X107014895Y-66907142D01*
X158650000Y-91689895D02*
X158983333Y-92489895D01*
X158983333Y-92489895D02*
X159316666Y-91689895D01*
X159411905Y-92566085D02*
X160173809Y-92566085D01*
X160316667Y-91689895D02*
X160554762Y-92489895D01*
X160554762Y-92489895D02*
X160745238Y-91918466D01*
X160745238Y-91918466D02*
X160935714Y-92489895D01*
X160935714Y-92489895D02*
X161173810Y-91689895D01*
X161507143Y-92261323D02*
X161983333Y-92261323D01*
X161411905Y-92489895D02*
X161745238Y-91689895D01*
X161745238Y-91689895D02*
X162078571Y-92489895D01*
X162888095Y-92489895D02*
X162411905Y-92489895D01*
X162411905Y-92489895D02*
X162411905Y-91689895D01*
X163697619Y-92489895D02*
X163221429Y-92489895D01*
X163221429Y-92489895D02*
X163221429Y-91689895D01*
X164554762Y-92489895D02*
X163983334Y-92489895D01*
X164269048Y-92489895D02*
X164269048Y-91689895D01*
X164269048Y-91689895D02*
X164173810Y-91804180D01*
X164173810Y-91804180D02*
X164078572Y-91880371D01*
X164078572Y-91880371D02*
X163983334Y-91918466D01*
X128345847Y-98407143D02*
X128383942Y-98264286D01*
X128383942Y-98264286D02*
X128422038Y-98216667D01*
X128422038Y-98216667D02*
X128498228Y-98169048D01*
X128498228Y-98169048D02*
X128612514Y-98169048D01*
X128612514Y-98169048D02*
X128688704Y-98216667D01*
X128688704Y-98216667D02*
X128726800Y-98264286D01*
X128726800Y-98264286D02*
X128764895Y-98359524D01*
X128764895Y-98359524D02*
X128764895Y-98740476D01*
X128764895Y-98740476D02*
X127964895Y-98740476D01*
X127964895Y-98740476D02*
X127964895Y-98407143D01*
X127964895Y-98407143D02*
X128002990Y-98311905D01*
X128002990Y-98311905D02*
X128041085Y-98264286D01*
X128041085Y-98264286D02*
X128117276Y-98216667D01*
X128117276Y-98216667D02*
X128193466Y-98216667D01*
X128193466Y-98216667D02*
X128269657Y-98264286D01*
X128269657Y-98264286D02*
X128307752Y-98311905D01*
X128307752Y-98311905D02*
X128345847Y-98407143D01*
X128345847Y-98407143D02*
X128345847Y-98740476D01*
X128536323Y-97788095D02*
X128536323Y-97311905D01*
X128764895Y-97883333D02*
X127964895Y-97550000D01*
X127964895Y-97550000D02*
X128764895Y-97216667D01*
X127964895Y-97026190D02*
X127964895Y-96454762D01*
X128764895Y-96740476D02*
X127964895Y-96740476D01*
X128841085Y-96359524D02*
X128841085Y-95597619D01*
X128764895Y-94835714D02*
X128764895Y-95407142D01*
X128764895Y-95121428D02*
X127964895Y-95121428D01*
X127964895Y-95121428D02*
X128079180Y-95216666D01*
X128079180Y-95216666D02*
X128155371Y-95311904D01*
X128155371Y-95311904D02*
X128193466Y-95407142D01*
X128041085Y-94454761D02*
X128002990Y-94407142D01*
X128002990Y-94407142D02*
X127964895Y-94311904D01*
X127964895Y-94311904D02*
X127964895Y-94073809D01*
X127964895Y-94073809D02*
X128002990Y-93978571D01*
X128002990Y-93978571D02*
X128041085Y-93930952D01*
X128041085Y-93930952D02*
X128117276Y-93883333D01*
X128117276Y-93883333D02*
X128193466Y-93883333D01*
X128193466Y-93883333D02*
X128307752Y-93930952D01*
X128307752Y-93930952D02*
X128764895Y-94502380D01*
X128764895Y-94502380D02*
X128764895Y-93883333D01*
X127964895Y-93597618D02*
X128764895Y-93264285D01*
X128764895Y-93264285D02*
X127964895Y-92930952D01*
X128841085Y-92835714D02*
X128841085Y-92073809D01*
X128041085Y-91883332D02*
X128002990Y-91835713D01*
X128002990Y-91835713D02*
X127964895Y-91740475D01*
X127964895Y-91740475D02*
X127964895Y-91502380D01*
X127964895Y-91502380D02*
X128002990Y-91407142D01*
X128002990Y-91407142D02*
X128041085Y-91359523D01*
X128041085Y-91359523D02*
X128117276Y-91311904D01*
X128117276Y-91311904D02*
X128193466Y-91311904D01*
X128193466Y-91311904D02*
X128307752Y-91359523D01*
X128307752Y-91359523D02*
X128764895Y-91930951D01*
X128764895Y-91930951D02*
X128764895Y-91311904D01*
D11*
X147238095Y-64554819D02*
X147238095Y-65364342D01*
X147238095Y-65364342D02*
X147285714Y-65459580D01*
X147285714Y-65459580D02*
X147333333Y-65507200D01*
X147333333Y-65507200D02*
X147428571Y-65554819D01*
X147428571Y-65554819D02*
X147619047Y-65554819D01*
X147619047Y-65554819D02*
X147714285Y-65507200D01*
X147714285Y-65507200D02*
X147761904Y-65459580D01*
X147761904Y-65459580D02*
X147809523Y-65364342D01*
X147809523Y-65364342D02*
X147809523Y-64554819D01*
X148714285Y-64888152D02*
X148714285Y-65554819D01*
X148476190Y-64507200D02*
X148238095Y-65221485D01*
X148238095Y-65221485D02*
X148857142Y-65221485D01*
D12*
%TO.C,R_LED_R_2*%
X137537742Y-51277500D02*
X138012258Y-51277500D01*
X137537742Y-52322500D02*
X138012258Y-52322500D01*
%TO.C,U2*%
X125002500Y-77065000D02*
X129622500Y-77065000D01*
X129622500Y-83835000D02*
X125002500Y-83835000D01*
X123452500Y-77520000D02*
X123122500Y-77760000D01*
X123122500Y-77280000D01*
X123452500Y-77520000D01*
G36*
X123452500Y-77520000D02*
G01*
X123122500Y-77760000D01*
X123122500Y-77280000D01*
X123452500Y-77520000D01*
G37*
%TO.C,CFF1*%
X146953550Y-77100819D02*
X147234710Y-77100819D01*
X146953550Y-78120819D02*
X147234710Y-78120819D01*
%TO.C,BAT_12V_1*%
X129160625Y-90585000D02*
X129160625Y-99815000D01*
X129160625Y-99815000D02*
X136630625Y-99815000D01*
X130020625Y-91795000D02*
X134320625Y-91795000D01*
X130020625Y-92545000D02*
X130020625Y-91795000D01*
X130020625Y-94795000D02*
X130020625Y-94045000D01*
X130020625Y-95605000D02*
X134320625Y-95605000D01*
X130020625Y-96355000D02*
X130020625Y-95605000D01*
X130020625Y-98605000D02*
X130020625Y-97855000D01*
X134320625Y-91795000D02*
X134320625Y-92545000D01*
X134320625Y-92545000D02*
X134670625Y-92545000D01*
X134320625Y-94045000D02*
X134320625Y-94795000D01*
X134320625Y-94795000D02*
X130020625Y-94795000D01*
X134320625Y-95605000D02*
X134320625Y-96355000D01*
X134320625Y-96355000D02*
X134670625Y-96355000D01*
X134320625Y-97855000D02*
X134320625Y-98605000D01*
X134320625Y-98605000D02*
X130020625Y-98605000D01*
X134670625Y-92045000D02*
X135670625Y-91795000D01*
X134670625Y-92545000D02*
X134670625Y-92045000D01*
X134670625Y-94045000D02*
X134320625Y-94045000D01*
X134670625Y-94545000D02*
X134670625Y-94045000D01*
X134670625Y-95855000D02*
X135670625Y-95605000D01*
X134670625Y-96355000D02*
X134670625Y-95855000D01*
X134670625Y-97855000D02*
X134320625Y-97855000D01*
X134670625Y-98355000D02*
X134670625Y-97855000D01*
X135670625Y-91795000D02*
X135670625Y-94795000D01*
X135670625Y-94795000D02*
X134670625Y-94545000D01*
X135670625Y-95605000D02*
X135670625Y-98605000D01*
X135670625Y-98605000D02*
X134670625Y-98355000D01*
X135770625Y-90195000D02*
X137020625Y-90195000D01*
X136630625Y-90585000D02*
X129160625Y-90585000D01*
X136630625Y-99815000D02*
X136630625Y-90585000D01*
X137020625Y-90195000D02*
X137020625Y-92195000D01*
X130020625Y-92545000D02*
G75*
G02*
X130020781Y-94044647I-1700000J-750000D01*
G01*
X130020625Y-96355000D02*
G75*
G02*
X130020781Y-97854647I-1700000J-750000D01*
G01*
%TO.C,JAU_1*%
X137515000Y-71460000D02*
X137515000Y-72710000D01*
X137515000Y-72710000D02*
X138765000Y-72710000D01*
X137615000Y-70650000D02*
X137615000Y-70950000D01*
X137615000Y-70950000D02*
X137815000Y-70950000D01*
X137715000Y-70650000D02*
X137715000Y-70950000D01*
X137815000Y-66290000D02*
X137815000Y-72410000D01*
X137815000Y-69850000D02*
X138425000Y-69850000D01*
X137815000Y-70650000D02*
X137615000Y-70650000D01*
X137815000Y-72410000D02*
X142535000Y-72410000D01*
X138425000Y-66900000D02*
X138425000Y-68850000D01*
X138425000Y-68850000D02*
X137815000Y-68850000D01*
X138425000Y-69850000D02*
X138425000Y-71800000D01*
X138425000Y-71800000D02*
X141925000Y-71800000D01*
X139125000Y-66290000D02*
X139125000Y-66900000D01*
X139125000Y-72410000D02*
X139125000Y-71800000D01*
X140425000Y-66290000D02*
X140425000Y-66900000D01*
X140425000Y-72410000D02*
X140425000Y-71800000D01*
X141425000Y-69250000D02*
X141925000Y-69250000D01*
X141425000Y-69450000D02*
X141425000Y-69250000D01*
X141925000Y-66900000D02*
X138425000Y-66900000D01*
X141925000Y-69350000D02*
X141425000Y-69350000D01*
X141925000Y-69450000D02*
X141425000Y-69450000D01*
X141925000Y-71800000D02*
X141925000Y-66900000D01*
X142535000Y-66290000D02*
X137815000Y-66290000D01*
X142535000Y-72410000D02*
X142535000Y-66290000D01*
%TO.C,Y1*%
X117990000Y-85965000D02*
X117990000Y-79715000D01*
X122860000Y-79715000D02*
X122860000Y-85965000D01*
X117990000Y-79715000D02*
G75*
G02*
X122860000Y-79715000I2435000J0D01*
G01*
X122860000Y-85965000D02*
G75*
G02*
X117990000Y-85965000I-2435000J0D01*
G01*
%TO.C,x2*%
X160184339Y-69351752D02*
X160184339Y-67929248D01*
X162904339Y-69351752D02*
X162904339Y-67929248D01*
%TO.C,x2.2*%
X156784339Y-63079248D02*
X156784339Y-64501752D01*
X159504339Y-63079248D02*
X159504339Y-64501752D01*
%TO.C,J2*%
X107020000Y-83515000D02*
X112770000Y-83515000D01*
X107020000Y-84935000D02*
X107020000Y-83515000D01*
X107020000Y-98465000D02*
X107520000Y-98465000D01*
X107020000Y-99885000D02*
X107020000Y-98465000D01*
X107520000Y-84935000D02*
X107020000Y-84935000D01*
X107520000Y-98465000D02*
X107520000Y-84935000D01*
X112770000Y-99885000D02*
X107020000Y-99885000D01*
X114310000Y-99885000D02*
X114610000Y-99885000D01*
X114610000Y-83515000D02*
X114310000Y-83515000D01*
X114610000Y-99885000D02*
X114610000Y-83515000D01*
%TO.C,R_LED_R_1*%
X137575242Y-53352500D02*
X138049758Y-53352500D01*
X137575242Y-54397500D02*
X138049758Y-54397500D01*
%TO.C,JFAN1*%
X100840000Y-74740000D02*
X100840000Y-80860000D01*
X100840000Y-80860000D02*
X105560000Y-80860000D01*
X101450000Y-75350000D02*
X101450000Y-80250000D01*
X101450000Y-77700000D02*
X101950000Y-77700000D01*
X101450000Y-77800000D02*
X101950000Y-77800000D01*
X101450000Y-80250000D02*
X104950000Y-80250000D01*
X101950000Y-77700000D02*
X101950000Y-77900000D01*
X101950000Y-77900000D02*
X101450000Y-77900000D01*
X102950000Y-74740000D02*
X102950000Y-75350000D01*
X102950000Y-80860000D02*
X102950000Y-80250000D01*
X104250000Y-74740000D02*
X104250000Y-75350000D01*
X104250000Y-80860000D02*
X104250000Y-80250000D01*
X104950000Y-75350000D02*
X101450000Y-75350000D01*
X104950000Y-77300000D02*
X104950000Y-75350000D01*
X104950000Y-78300000D02*
X105560000Y-78300000D01*
X104950000Y-80250000D02*
X104950000Y-78300000D01*
X105560000Y-74740000D02*
X100840000Y-74740000D01*
X105560000Y-76500000D02*
X105760000Y-76500000D01*
X105560000Y-77300000D02*
X104950000Y-77300000D01*
X105560000Y-80860000D02*
X105560000Y-74740000D01*
X105660000Y-76500000D02*
X105660000Y-76200000D01*
X105760000Y-76200000D02*
X105560000Y-76200000D01*
X105760000Y-76500000D02*
X105760000Y-76200000D01*
X105860000Y-74440000D02*
X104610000Y-74440000D01*
X105860000Y-75690000D02*
X105860000Y-74440000D01*
%TO.C,LED_24V1*%
X161114339Y-71545500D02*
X161114339Y-74230500D01*
X163034339Y-71545500D02*
X161114339Y-71545500D01*
X163034339Y-74230500D02*
X163034339Y-71545500D01*
%TO.C,U3*%
X111690000Y-77665000D02*
X115810000Y-77665000D01*
X111690000Y-77760000D02*
X111690000Y-77665000D01*
X111690000Y-82785000D02*
X111690000Y-82690000D01*
X115810000Y-77665000D02*
X115810000Y-77760000D01*
X115810000Y-82690000D02*
X115810000Y-82785000D01*
X115810000Y-82785000D02*
X111690000Y-82785000D01*
X116590000Y-83025000D02*
X116110000Y-83025000D01*
X116350000Y-82695000D01*
X116590000Y-83025000D01*
G36*
X116590000Y-83025000D02*
G01*
X116110000Y-83025000D01*
X116350000Y-82695000D01*
X116590000Y-83025000D01*
G37*
%TO.C,LCD1*%
X100840000Y-51240000D02*
X100840000Y-61360000D01*
X100840000Y-61360000D02*
X105560000Y-61360000D01*
X101450000Y-51850000D02*
X101450000Y-60750000D01*
X101450000Y-54200000D02*
X101950000Y-54200000D01*
X101450000Y-54300000D02*
X101950000Y-54300000D01*
X101450000Y-56200000D02*
X101950000Y-56200000D01*
X101450000Y-56300000D02*
X101950000Y-56300000D01*
X101450000Y-58200000D02*
X101950000Y-58200000D01*
X101450000Y-58300000D02*
X101950000Y-58300000D01*
X101450000Y-60750000D02*
X104950000Y-60750000D01*
X101950000Y-54200000D02*
X101950000Y-54400000D01*
X101950000Y-54400000D02*
X101450000Y-54400000D01*
X101950000Y-56200000D02*
X101950000Y-56400000D01*
X101950000Y-56400000D02*
X101450000Y-56400000D01*
X101950000Y-58200000D02*
X101950000Y-58400000D01*
X101950000Y-58400000D02*
X101450000Y-58400000D01*
X102950000Y-51240000D02*
X102950000Y-51850000D01*
X102950000Y-61360000D02*
X102950000Y-60750000D01*
X104250000Y-51240000D02*
X104250000Y-51850000D01*
X104250000Y-61360000D02*
X104250000Y-60750000D01*
X104950000Y-51850000D02*
X101450000Y-51850000D01*
X104950000Y-53800000D02*
X104950000Y-51850000D01*
X104950000Y-58800000D02*
X105560000Y-58800000D01*
X104950000Y-60750000D02*
X104950000Y-58800000D01*
X105560000Y-51240000D02*
X100840000Y-51240000D01*
X105560000Y-53000000D02*
X105760000Y-53000000D01*
X105560000Y-53800000D02*
X104950000Y-53800000D01*
X105560000Y-61360000D02*
X105560000Y-51240000D01*
X105660000Y-53000000D02*
X105660000Y-52700000D01*
X105760000Y-52700000D02*
X105560000Y-52700000D01*
X105760000Y-53000000D02*
X105760000Y-52700000D01*
X105860000Y-50940000D02*
X104610000Y-50940000D01*
X105860000Y-52190000D02*
X105860000Y-50940000D01*
%TO.C,IO6*%
X137515000Y-64435000D02*
X137515000Y-65685000D01*
X137515000Y-65685000D02*
X138765000Y-65685000D01*
X137615000Y-63625000D02*
X137615000Y-63925000D01*
X137615000Y-63925000D02*
X137815000Y-63925000D01*
X137715000Y-63625000D02*
X137715000Y-63925000D01*
X137815000Y-55265000D02*
X137815000Y-65385000D01*
X137815000Y-62825000D02*
X138425000Y-62825000D01*
X137815000Y-63625000D02*
X137615000Y-63625000D01*
X137815000Y-65385000D02*
X142535000Y-65385000D01*
X138425000Y-55875000D02*
X138425000Y-57825000D01*
X138425000Y-57825000D02*
X137815000Y-57825000D01*
X138425000Y-62825000D02*
X138425000Y-64775000D01*
X138425000Y-64775000D02*
X141925000Y-64775000D01*
X139125000Y-55265000D02*
X139125000Y-55875000D01*
X139125000Y-65385000D02*
X139125000Y-64775000D01*
X140425000Y-55265000D02*
X140425000Y-55875000D01*
X140425000Y-65385000D02*
X140425000Y-64775000D01*
X141425000Y-58225000D02*
X141925000Y-58225000D01*
X141425000Y-58425000D02*
X141425000Y-58225000D01*
X141425000Y-60225000D02*
X141925000Y-60225000D01*
X141425000Y-60425000D02*
X141425000Y-60225000D01*
X141425000Y-62225000D02*
X141925000Y-62225000D01*
X141425000Y-62425000D02*
X141425000Y-62225000D01*
X141925000Y-55875000D02*
X138425000Y-55875000D01*
X141925000Y-58325000D02*
X141425000Y-58325000D01*
X141925000Y-58425000D02*
X141425000Y-58425000D01*
X141925000Y-60325000D02*
X141425000Y-60325000D01*
X141925000Y-60425000D02*
X141425000Y-60425000D01*
X141925000Y-62325000D02*
X141425000Y-62325000D01*
X141925000Y-62425000D02*
X141425000Y-62425000D01*
X141925000Y-64775000D02*
X141925000Y-55875000D01*
X142535000Y-55265000D02*
X137815000Y-55265000D01*
X142535000Y-65385000D02*
X142535000Y-55265000D01*
%TO.C,JBP_1*%
X144615000Y-90365000D02*
X145675000Y-90365000D01*
X144615000Y-91425000D02*
X144615000Y-90365000D01*
X146675000Y-90365000D02*
X148735000Y-90365000D01*
X146675000Y-92485000D02*
X146675000Y-90365000D01*
X146675000Y-92485000D02*
X148735000Y-92485000D01*
X148735000Y-92485000D02*
X148735000Y-90365000D01*
%TO.C,LED_R_2*%
X140075000Y-52660000D02*
X142760000Y-52660000D01*
X142760000Y-50740000D02*
X140075000Y-50740000D01*
X142760000Y-52660000D02*
X142760000Y-50740000D01*
%TO.C,x2.3*%
X160184339Y-63079248D02*
X160184339Y-64501752D01*
X162904339Y-63079248D02*
X162904339Y-64501752D01*
D10*
%TO.C,C12V_1*%
X135450000Y-78875000D02*
X133450000Y-80875000D01*
X143450000Y-80875000D02*
X141450000Y-78875000D01*
D12*
%TO.C,LED_24VS1*%
X116550000Y-97392500D02*
X116550000Y-100077500D01*
X116550000Y-100077500D02*
X118470000Y-100077500D01*
X118470000Y-100077500D02*
X118470000Y-97392500D01*
%TO.C,FAN1*%
D10*
X109425000Y-51075000D02*
X135025000Y-51075000D01*
X135025000Y-76675000D01*
X109425000Y-76675000D01*
X109425000Y-51075000D01*
D12*
%TO.C,IO12*%
X143790000Y-51115000D02*
X143790000Y-55835000D01*
X143790000Y-53225000D02*
X144400000Y-53225000D01*
X143790000Y-54525000D02*
X144400000Y-54525000D01*
X143790000Y-55835000D02*
X153910000Y-55835000D01*
X144400000Y-51725000D02*
X144400000Y-55225000D01*
X144400000Y-55225000D02*
X146350000Y-55225000D01*
X146350000Y-55225000D02*
X146350000Y-55835000D01*
X146750000Y-52225000D02*
X146750000Y-51725000D01*
X146850000Y-51725000D02*
X146850000Y-52225000D01*
X146950000Y-51725000D02*
X146950000Y-52225000D01*
X146950000Y-52225000D02*
X146750000Y-52225000D01*
X148750000Y-52225000D02*
X148750000Y-51725000D01*
X148850000Y-51725000D02*
X148850000Y-52225000D01*
X148950000Y-51725000D02*
X148950000Y-52225000D01*
X148950000Y-52225000D02*
X148750000Y-52225000D01*
X150750000Y-52225000D02*
X150750000Y-51725000D01*
X150850000Y-51725000D02*
X150850000Y-52225000D01*
X150950000Y-51725000D02*
X150950000Y-52225000D01*
X150950000Y-52225000D02*
X150750000Y-52225000D01*
X151350000Y-55225000D02*
X153300000Y-55225000D01*
X151350000Y-55835000D02*
X151350000Y-55225000D01*
X152150000Y-55835000D02*
X152150000Y-56035000D01*
X152150000Y-55935000D02*
X152450000Y-55935000D01*
X152150000Y-56035000D02*
X152450000Y-56035000D01*
X152450000Y-56035000D02*
X152450000Y-55835000D01*
X152960000Y-56135000D02*
X154210000Y-56135000D01*
X153300000Y-51725000D02*
X144400000Y-51725000D01*
X153300000Y-55225000D02*
X153300000Y-51725000D01*
X153910000Y-51115000D02*
X143790000Y-51115000D01*
X153910000Y-53225000D02*
X153300000Y-53225000D01*
X153910000Y-54525000D02*
X153300000Y-54525000D01*
X153910000Y-55835000D02*
X153910000Y-51115000D01*
X154210000Y-56135000D02*
X154210000Y-54885000D01*
%TO.C,R_T1*%
X147487902Y-73927500D02*
X147962418Y-73927500D01*
X147487902Y-74972500D02*
X147962418Y-74972500D01*
%TO.C,R_FBB_1*%
X150547902Y-73927500D02*
X151022418Y-73927500D01*
X150547902Y-74972500D02*
X151022418Y-74972500D01*
%TO.C,R_L24VS1*%
X116717500Y-94912742D02*
X116717500Y-95387258D01*
X117762500Y-94912742D02*
X117762500Y-95387258D01*
%TO.C,R_L12VS1*%
X118247500Y-94887258D02*
X118247500Y-94412742D01*
X119292500Y-94887258D02*
X119292500Y-94412742D01*
%TO.C,R_RESET_2*%
X108187742Y-81645000D02*
X108662258Y-81645000D01*
X108187742Y-82690000D02*
X108662258Y-82690000D01*
D10*
%TO.C,C24V_2*%
X156830000Y-78875000D02*
X154830000Y-80875000D01*
X164830000Y-80875000D02*
X162830000Y-78875000D01*
D12*
%TO.C,TB_1*%
X154965000Y-51090000D02*
X154965000Y-55810000D01*
X154965000Y-53200000D02*
X155575000Y-53200000D01*
X154965000Y-54500000D02*
X155575000Y-54500000D01*
X154965000Y-55810000D02*
X165085000Y-55810000D01*
X155575000Y-51700000D02*
X155575000Y-55200000D01*
X155575000Y-55200000D02*
X157525000Y-55200000D01*
X157525000Y-55200000D02*
X157525000Y-55810000D01*
X157925000Y-52200000D02*
X157925000Y-51700000D01*
X158025000Y-51700000D02*
X158025000Y-52200000D01*
X158125000Y-51700000D02*
X158125000Y-52200000D01*
X158125000Y-52200000D02*
X157925000Y-52200000D01*
X159925000Y-52200000D02*
X159925000Y-51700000D01*
X160025000Y-51700000D02*
X160025000Y-52200000D01*
X160125000Y-51700000D02*
X160125000Y-52200000D01*
X160125000Y-52200000D02*
X159925000Y-52200000D01*
X161925000Y-52200000D02*
X161925000Y-51700000D01*
X162025000Y-51700000D02*
X162025000Y-52200000D01*
X162125000Y-51700000D02*
X162125000Y-52200000D01*
X162125000Y-52200000D02*
X161925000Y-52200000D01*
X162525000Y-55200000D02*
X164475000Y-55200000D01*
X162525000Y-55810000D02*
X162525000Y-55200000D01*
X163325000Y-55810000D02*
X163325000Y-56010000D01*
X163325000Y-55910000D02*
X163625000Y-55910000D01*
X163325000Y-56010000D02*
X163625000Y-56010000D01*
X163625000Y-56010000D02*
X163625000Y-55810000D01*
X164135000Y-56110000D02*
X165385000Y-56110000D01*
X164475000Y-51700000D02*
X155575000Y-51700000D01*
X164475000Y-55200000D02*
X164475000Y-51700000D01*
X165085000Y-51090000D02*
X154965000Y-51090000D01*
X165085000Y-53200000D02*
X164475000Y-53200000D01*
X165085000Y-54500000D02*
X164475000Y-54500000D01*
X165085000Y-55810000D02*
X165085000Y-51090000D01*
X165385000Y-56110000D02*
X165385000Y-54860000D01*
%TO.C,C24_V3*%
X140814339Y-76841752D02*
X140814339Y-75419248D01*
X143534339Y-76841752D02*
X143534339Y-75419248D01*
%TO.C,LED_12VS1*%
X116520000Y-89715000D02*
X116520000Y-92400000D01*
X118440000Y-89715000D02*
X116520000Y-89715000D01*
X118440000Y-92400000D02*
X118440000Y-89715000D01*
D10*
%TO.C,C24V_1*%
X146175000Y-78875000D02*
X144175000Y-80875000D01*
X154175000Y-80875000D02*
X152175000Y-78875000D01*
D12*
%TO.C,IO17*%
X100840000Y-62990000D02*
X100840000Y-73110000D01*
X100840000Y-73110000D02*
X105560000Y-73110000D01*
X101450000Y-63600000D02*
X101450000Y-72500000D01*
X101450000Y-65950000D02*
X101950000Y-65950000D01*
X101450000Y-66050000D02*
X101950000Y-66050000D01*
X101450000Y-67950000D02*
X101950000Y-67950000D01*
X101450000Y-68050000D02*
X101950000Y-68050000D01*
X101450000Y-69950000D02*
X101950000Y-69950000D01*
X101450000Y-70050000D02*
X101950000Y-70050000D01*
X101450000Y-72500000D02*
X104950000Y-72500000D01*
X101950000Y-65950000D02*
X101950000Y-66150000D01*
X101950000Y-66150000D02*
X101450000Y-66150000D01*
X101950000Y-67950000D02*
X101950000Y-68150000D01*
X101950000Y-68150000D02*
X101450000Y-68150000D01*
X101950000Y-69950000D02*
X101950000Y-70150000D01*
X101950000Y-70150000D02*
X101450000Y-70150000D01*
X102950000Y-62990000D02*
X102950000Y-63600000D01*
X102950000Y-73110000D02*
X102950000Y-72500000D01*
X104250000Y-62990000D02*
X104250000Y-63600000D01*
X104250000Y-73110000D02*
X104250000Y-72500000D01*
X104950000Y-63600000D02*
X101450000Y-63600000D01*
X104950000Y-65550000D02*
X104950000Y-63600000D01*
X104950000Y-70550000D02*
X105560000Y-70550000D01*
X104950000Y-72500000D02*
X104950000Y-70550000D01*
X105560000Y-62990000D02*
X100840000Y-62990000D01*
X105560000Y-64750000D02*
X105760000Y-64750000D01*
X105560000Y-65550000D02*
X104950000Y-65550000D01*
X105560000Y-73110000D02*
X105560000Y-62990000D01*
X105660000Y-64750000D02*
X105660000Y-64450000D01*
X105760000Y-64450000D02*
X105560000Y-64450000D01*
X105760000Y-64750000D02*
X105760000Y-64450000D01*
X105860000Y-62690000D02*
X104610000Y-62690000D01*
X105860000Y-63940000D02*
X105860000Y-62690000D01*
%TO.C,LED_R_1*%
X140075000Y-54760000D02*
X142760000Y-54760000D01*
X142760000Y-52840000D02*
X140075000Y-52840000D01*
X142760000Y-54760000D02*
X142760000Y-52840000D01*
%TO.C,V_WALL1*%
X150422500Y-90602500D02*
X150422500Y-99832500D01*
X150422500Y-99832500D02*
X157892500Y-99832500D01*
X151282500Y-91812500D02*
X155582500Y-91812500D01*
X151282500Y-92562500D02*
X151282500Y-91812500D01*
X151282500Y-94812500D02*
X151282500Y-94062500D01*
X151282500Y-95622500D02*
X155582500Y-95622500D01*
X151282500Y-96372500D02*
X151282500Y-95622500D01*
X151282500Y-98622500D02*
X151282500Y-97872500D01*
X155582500Y-91812500D02*
X155582500Y-92562500D01*
X155582500Y-92562500D02*
X155932500Y-92562500D01*
X155582500Y-94062500D02*
X155582500Y-94812500D01*
X155582500Y-94812500D02*
X151282500Y-94812500D01*
X155582500Y-95622500D02*
X155582500Y-96372500D01*
X155582500Y-96372500D02*
X155932500Y-96372500D01*
X155582500Y-97872500D02*
X155582500Y-98622500D01*
X155582500Y-98622500D02*
X151282500Y-98622500D01*
X155932500Y-92062500D02*
X156932500Y-91812500D01*
X155932500Y-92562500D02*
X155932500Y-92062500D01*
X155932500Y-94062500D02*
X155582500Y-94062500D01*
X155932500Y-94562500D02*
X155932500Y-94062500D01*
X155932500Y-95872500D02*
X156932500Y-95622500D01*
X155932500Y-96372500D02*
X155932500Y-95872500D01*
X155932500Y-97872500D02*
X155582500Y-97872500D01*
X155932500Y-98372500D02*
X155932500Y-97872500D01*
X156932500Y-91812500D02*
X156932500Y-94812500D01*
X156932500Y-94812500D02*
X155932500Y-94562500D01*
X156932500Y-95622500D02*
X156932500Y-98622500D01*
X156932500Y-98622500D02*
X155932500Y-98372500D01*
X157032500Y-90212500D02*
X158282500Y-90212500D01*
X157892500Y-90602500D02*
X150422500Y-90602500D01*
X157892500Y-99832500D02*
X157892500Y-90602500D01*
X158282500Y-90212500D02*
X158282500Y-92212500D01*
X151282500Y-92562500D02*
G75*
G02*
X151282656Y-94062147I-1700000J-750000D01*
G01*
X151282500Y-96372500D02*
G75*
G02*
X151282656Y-97872147I-1700000J-750000D01*
G01*
%TO.C,R_FBT_1*%
X146862742Y-75477500D02*
X147337258Y-75477500D01*
X146862742Y-76522500D02*
X147337258Y-76522500D01*
%TO.C,Q_12VP_1*%
X126485000Y-84660000D02*
X130465000Y-84660000D01*
X126485000Y-84760000D02*
X126485000Y-84660000D01*
X126485000Y-89840000D02*
X126485000Y-89740000D01*
X130465000Y-84660000D02*
X130465000Y-84760000D01*
X130465000Y-89740000D02*
X130465000Y-89840000D01*
X130465000Y-89840000D02*
X126485000Y-89840000D01*
X131255000Y-90080000D02*
X130775000Y-90080000D01*
X131015000Y-89750000D01*
X131255000Y-90080000D01*
G36*
X131255000Y-90080000D02*
G01*
X130775000Y-90080000D01*
X131015000Y-89750000D01*
X131255000Y-90080000D01*
G37*
%TO.C,R_RESET_1*%
X132537742Y-77277500D02*
X133012258Y-77277500D01*
X132537742Y-78322500D02*
X133012258Y-78322500D01*
%TO.C,R_L24V1*%
X161551839Y-76830258D02*
X161551839Y-76355742D01*
X162596839Y-76830258D02*
X162596839Y-76355742D01*
%TO.C,BAT_12V_2*%
X119570000Y-100170000D02*
X119570000Y-98170000D01*
X119960000Y-90550000D02*
X119960000Y-99780000D01*
X119960000Y-99780000D02*
X127430000Y-99780000D01*
X120820000Y-100170000D02*
X119570000Y-100170000D01*
X120920000Y-91760000D02*
X121920000Y-92010000D01*
X120920000Y-94760000D02*
X120920000Y-91760000D01*
X120920000Y-95570000D02*
X121920000Y-95820000D01*
X120920000Y-98570000D02*
X120920000Y-95570000D01*
X121920000Y-92010000D02*
X121920000Y-92510000D01*
X121920000Y-92510000D02*
X122270000Y-92510000D01*
X121920000Y-94010000D02*
X121920000Y-94510000D01*
X121920000Y-94510000D02*
X120920000Y-94760000D01*
X121920000Y-95820000D02*
X121920000Y-96320000D01*
X121920000Y-96320000D02*
X122270000Y-96320000D01*
X121920000Y-97820000D02*
X121920000Y-98320000D01*
X121920000Y-98320000D02*
X120920000Y-98570000D01*
X122270000Y-91760000D02*
X126570000Y-91760000D01*
X122270000Y-92510000D02*
X122270000Y-91760000D01*
X122270000Y-94010000D02*
X121920000Y-94010000D01*
X122270000Y-94760000D02*
X122270000Y-94010000D01*
X122270000Y-95570000D02*
X126570000Y-95570000D01*
X122270000Y-96320000D02*
X122270000Y-95570000D01*
X122270000Y-97820000D02*
X121920000Y-97820000D01*
X122270000Y-98570000D02*
X122270000Y-97820000D01*
X126570000Y-91760000D02*
X126570000Y-92510000D01*
X126570000Y-94010000D02*
X126570000Y-94760000D01*
X126570000Y-94760000D02*
X122270000Y-94760000D01*
X126570000Y-95570000D02*
X126570000Y-96320000D01*
X126570000Y-97820000D02*
X126570000Y-98570000D01*
X126570000Y-98570000D02*
X122270000Y-98570000D01*
X127430000Y-90550000D02*
X119960000Y-90550000D01*
X127430000Y-99780000D02*
X127430000Y-90550000D01*
X126570000Y-94010000D02*
G75*
G02*
X126569844Y-92510353I1700000J750000D01*
G01*
X126570000Y-97820000D02*
G75*
G02*
X126569844Y-96320353I1700000J750000D01*
G01*
D13*
%TO.C,U4*%
X145165160Y-57650000D02*
G75*
G02*
X144965160Y-57650000I-100000J0D01*
G01*
X144965160Y-57650000D02*
G75*
G02*
X145165160Y-57650000I100000J0D01*
G01*
%TD*%
M02*
