G04 #@! TF.GenerationSoftware,KiCad,Pcbnew,8.0.8*
G04 #@! TF.CreationDate,2025-02-11T20:33:10+01:00*
G04 #@! TF.ProjectId,power_motherboard,706f7765-725f-46d6-9f74-686572626f61,rev?*
G04 #@! TF.SameCoordinates,Original*
G04 #@! TF.FileFunction,Legend,Bot*
G04 #@! TF.FilePolarity,Positive*
%FSLAX46Y46*%
G04 Gerber Fmt 4.6, Leading zero omitted, Abs format (unit mm)*
G04 Created by KiCad (PCBNEW 8.0.8) date 2025-02-11 20:33:10*
%MOMM*%
%LPD*%
G01*
G04 APERTURE LIST*
G04 Aperture macros list*
%AMRoundRect*
0 Rectangle with rounded corners*
0 $1 Rounding radius*
0 $2 $3 $4 $5 $6 $7 $8 $9 X,Y pos of 4 corners*
0 Add a 4 corners polygon primitive as box body*
4,1,4,$2,$3,$4,$5,$6,$7,$8,$9,$2,$3,0*
0 Add four circle primitives for the rounded corners*
1,1,$1+$1,$2,$3*
1,1,$1+$1,$4,$5*
1,1,$1+$1,$6,$7*
1,1,$1+$1,$8,$9*
0 Add four rect primitives between the rounded corners*
20,1,$1+$1,$2,$3,$4,$5,0*
20,1,$1+$1,$4,$5,$6,$7,0*
20,1,$1+$1,$6,$7,$8,$9,0*
20,1,$1+$1,$8,$9,$2,$3,0*%
G04 Aperture macros list end*
%ADD10C,0.120000*%
G04 #@! TA.AperFunction,ComponentPad*
%ADD11R,0.640000X0.640000*%
G04 #@! TD*
G04 #@! TA.AperFunction,ComponentPad*
%ADD12C,0.640000*%
G04 #@! TD*
G04 #@! TA.AperFunction,ComponentPad*
%ADD13R,1.700000X1.700000*%
G04 #@! TD*
G04 #@! TA.AperFunction,ComponentPad*
%ADD14O,1.700000X1.700000*%
G04 #@! TD*
G04 #@! TA.AperFunction,ComponentPad*
%ADD15RoundRect,0.250000X0.650000X1.550000X-0.650000X1.550000X-0.650000X-1.550000X0.650000X-1.550000X0*%
G04 #@! TD*
G04 #@! TA.AperFunction,ComponentPad*
%ADD16O,1.800000X3.600000*%
G04 #@! TD*
G04 #@! TA.AperFunction,ComponentPad*
%ADD17RoundRect,0.250001X-0.499999X-0.499999X0.499999X-0.499999X0.499999X0.499999X-0.499999X0.499999X0*%
G04 #@! TD*
G04 #@! TA.AperFunction,ComponentPad*
%ADD18C,1.500000*%
G04 #@! TD*
G04 #@! TA.AperFunction,SMDPad,CuDef*
%ADD19RoundRect,0.150000X0.150000X-0.587500X0.150000X0.587500X-0.150000X0.587500X-0.150000X-0.587500X0*%
G04 #@! TD*
G04 #@! TA.AperFunction,SMDPad,CuDef*
%ADD20RoundRect,0.150000X0.200000X-0.150000X0.200000X0.150000X-0.200000X0.150000X-0.200000X-0.150000X0*%
G04 #@! TD*
G04 #@! TA.AperFunction,SMDPad,CuDef*
%ADD21RoundRect,0.150000X0.587500X0.150000X-0.587500X0.150000X-0.587500X-0.150000X0.587500X-0.150000X0*%
G04 #@! TD*
G04 #@! TA.AperFunction,SMDPad,CuDef*
%ADD22RoundRect,0.200000X0.200000X0.275000X-0.200000X0.275000X-0.200000X-0.275000X0.200000X-0.275000X0*%
G04 #@! TD*
G04 #@! TA.AperFunction,SMDPad,CuDef*
%ADD23RoundRect,0.200000X-0.275000X0.200000X-0.275000X-0.200000X0.275000X-0.200000X0.275000X0.200000X0*%
G04 #@! TD*
G04 #@! TA.AperFunction,SMDPad,CuDef*
%ADD24RoundRect,0.150000X-0.150000X-0.200000X0.150000X-0.200000X0.150000X0.200000X-0.150000X0.200000X0*%
G04 #@! TD*
G04 #@! TA.AperFunction,SMDPad,CuDef*
%ADD25RoundRect,0.200000X0.275000X-0.200000X0.275000X0.200000X-0.275000X0.200000X-0.275000X-0.200000X0*%
G04 #@! TD*
G04 #@! TA.AperFunction,SMDPad,CuDef*
%ADD26RoundRect,0.200000X-0.200000X-0.275000X0.200000X-0.275000X0.200000X0.275000X-0.200000X0.275000X0*%
G04 #@! TD*
G04 #@! TA.AperFunction,ViaPad*
%ADD27C,0.300000*%
G04 #@! TD*
G04 #@! TA.AperFunction,ViaPad*
%ADD28C,1.000000*%
G04 #@! TD*
G04 #@! TA.AperFunction,Conductor*
%ADD29C,0.127000*%
G04 #@! TD*
G04 #@! TA.AperFunction,Conductor*
%ADD30C,1.000000*%
G04 #@! TD*
G04 APERTURE END LIST*
D10*
X107040000Y-44900000D02*
X107040000Y-47500000D01*
X107040000Y-44900000D02*
X157960000Y-44900000D01*
X107040000Y-47500000D02*
X109640000Y-47500000D01*
X107040000Y-48770000D02*
X107040000Y-50100000D01*
X107040000Y-50100000D02*
X108370000Y-50100000D01*
X109640000Y-47500000D02*
X109640000Y-50100000D01*
X109640000Y-50100000D02*
X157960000Y-50100000D01*
X157960000Y-44900000D02*
X157960000Y-50100000D01*
X109440000Y-89812500D02*
X109440000Y-89162500D01*
X109440000Y-89812500D02*
X109440000Y-90462500D01*
X112560000Y-89812500D02*
X112560000Y-89162500D01*
X112560000Y-89812500D02*
X112560000Y-91487500D01*
X129400000Y-91440000D02*
X130600000Y-91440000D01*
X129400000Y-93400000D02*
X129400000Y-91440000D01*
X130600000Y-93400000D02*
X130600000Y-91440000D01*
X127250000Y-88690000D02*
X126600000Y-88690000D01*
X127250000Y-88690000D02*
X128925000Y-88690000D01*
X127250000Y-91810000D02*
X126600000Y-91810000D01*
X127250000Y-91810000D02*
X127900000Y-91810000D01*
X103987258Y-69727500D02*
X103512742Y-69727500D01*
X103987258Y-70772500D02*
X103512742Y-70772500D01*
X137977500Y-81512742D02*
X137977500Y-81987258D01*
X139022500Y-81512742D02*
X139022500Y-81987258D01*
X108550000Y-92525000D02*
X110510000Y-92525000D01*
X108550000Y-93725000D02*
X110510000Y-93725000D01*
X110510000Y-92525000D02*
X110510000Y-93725000D01*
X123977500Y-87987258D02*
X123977500Y-87512742D01*
X125022500Y-87987258D02*
X125022500Y-87512742D01*
X106512742Y-69727500D02*
X106987258Y-69727500D01*
X106512742Y-70772500D02*
X106987258Y-70772500D01*
X110477500Y-86562258D02*
X110477500Y-86087742D01*
X111522500Y-86562258D02*
X111522500Y-86087742D01*
X112737258Y-92602500D02*
X112262742Y-92602500D01*
X112737258Y-93647500D02*
X112262742Y-93647500D01*
X129477500Y-89512742D02*
X129477500Y-89987258D01*
X130522500Y-89512742D02*
X130522500Y-89987258D01*
X126762742Y-86352500D02*
X127237258Y-86352500D01*
X126762742Y-87397500D02*
X127237258Y-87397500D01*
D11*
X111000000Y-67950000D03*
D12*
X111000000Y-66680000D03*
D13*
X156250000Y-58210000D03*
D14*
X156250000Y-60750000D03*
X156250000Y-63290000D03*
X156250000Y-65830000D03*
D13*
X143250000Y-58200000D03*
D14*
X143250000Y-60740000D03*
X143250000Y-63280000D03*
X143250000Y-65820000D03*
D15*
X135560000Y-98625000D03*
D16*
X131750000Y-98625000D03*
D13*
X111000000Y-53500000D03*
D14*
X111000000Y-56040000D03*
X111000000Y-58580000D03*
X111000000Y-61120000D03*
D13*
X162750000Y-58210000D03*
D14*
X162750000Y-60750000D03*
X162750000Y-63290000D03*
X162750000Y-65830000D03*
D15*
X113500000Y-98625000D03*
D16*
X109690000Y-98625000D03*
D15*
X124500000Y-98625000D03*
D16*
X120690000Y-98625000D03*
D17*
X128000000Y-80250000D03*
D18*
X131000000Y-80250000D03*
X134000000Y-80250000D03*
X137000000Y-80250000D03*
X128000000Y-83250000D03*
X131000000Y-83250000D03*
X134000000Y-83250000D03*
X137000000Y-83250000D03*
D13*
X148000000Y-52500000D03*
D14*
X150540000Y-52500000D03*
X153080000Y-52500000D03*
X155620000Y-52500000D03*
D13*
X149750000Y-58210000D03*
D14*
X149750000Y-60750000D03*
X149750000Y-63290000D03*
X149750000Y-65830000D03*
D13*
X122725000Y-91500000D03*
D14*
X122725000Y-88960000D03*
D13*
X108370000Y-48770000D03*
D14*
X108370000Y-46230000D03*
X110910000Y-48770000D03*
X110910000Y-46230000D03*
X113450000Y-48770000D03*
X113450000Y-46230000D03*
X115990000Y-48770000D03*
X115990000Y-46230000D03*
X118530000Y-48770000D03*
X118530000Y-46230000D03*
X121070000Y-48770000D03*
X121070000Y-46230000D03*
X123610000Y-48770000D03*
X123610000Y-46230000D03*
X126150000Y-48770000D03*
X126150000Y-46230000D03*
X128690000Y-48770000D03*
X128690000Y-46230000D03*
X131230000Y-48770000D03*
X131230000Y-46230000D03*
X133770000Y-48770000D03*
X133770000Y-46230000D03*
X136310000Y-48770000D03*
X136310000Y-46230000D03*
X138850000Y-48770000D03*
X138850000Y-46230000D03*
X141390000Y-48770000D03*
X141390000Y-46230000D03*
X143930000Y-48770000D03*
X143930000Y-46230000D03*
X146470000Y-48770000D03*
X146470000Y-46230000D03*
X149010000Y-48770000D03*
X149010000Y-46230000D03*
X151550000Y-48770000D03*
X151550000Y-46230000D03*
X154090000Y-48770000D03*
X154090000Y-46230000D03*
X156630000Y-48770000D03*
X156630000Y-46230000D03*
D19*
X111950000Y-90750000D03*
X110050000Y-90750000D03*
X111000000Y-88875000D03*
D20*
X130000000Y-92000000D03*
X130000000Y-93400000D03*
D21*
X128187500Y-89300000D03*
X128187500Y-91200000D03*
X126312500Y-90250000D03*
D22*
X104575000Y-70250000D03*
X102925000Y-70250000D03*
D23*
X138500000Y-80925000D03*
X138500000Y-82575000D03*
D24*
X109950000Y-93125000D03*
X108550000Y-93125000D03*
D25*
X124500000Y-88575000D03*
X124500000Y-86925000D03*
D26*
X105925000Y-70250000D03*
X107575000Y-70250000D03*
D25*
X111000000Y-87150000D03*
X111000000Y-85500000D03*
D22*
X113325000Y-93125000D03*
X111675000Y-93125000D03*
D23*
X130000000Y-88925000D03*
X130000000Y-90575000D03*
D26*
X126175000Y-86875000D03*
X127825000Y-86875000D03*
D27*
X140250000Y-66750000D03*
X140090000Y-58250000D03*
X147500000Y-69000000D03*
X139750000Y-56750000D03*
X140840000Y-59500000D03*
X159250000Y-67750000D03*
X164250000Y-68000000D03*
X138500000Y-60750000D03*
X115000000Y-93500000D03*
X158500000Y-99000000D03*
X105000000Y-71250000D03*
X140000000Y-68000000D03*
X101750000Y-102000000D03*
X111500000Y-70500000D03*
X157500000Y-71500000D03*
X134750000Y-102625000D03*
X146500000Y-69250000D03*
X145600000Y-82600000D03*
X108000000Y-72250000D03*
X106500000Y-75250000D03*
X115500000Y-77250000D03*
X110400000Y-88000000D03*
X101500000Y-84750000D03*
X106500000Y-73250000D03*
X149135000Y-78615000D03*
X148750000Y-72000000D03*
X132250000Y-77500000D03*
X113750000Y-76000000D03*
X111600000Y-86000000D03*
X105750000Y-91375000D03*
X141500000Y-72750000D03*
X164000000Y-93000000D03*
X154500000Y-67500000D03*
X105500000Y-69000000D03*
X112500000Y-67750000D03*
X145600000Y-84000000D03*
X102250000Y-84750000D03*
X145750000Y-76150000D03*
X109200000Y-102400000D03*
X151000000Y-73000000D03*
X100750000Y-84750000D03*
X140250000Y-82500000D03*
X151500000Y-75500000D03*
X108500000Y-70250000D03*
X150500000Y-90500000D03*
X143250000Y-77000000D03*
X145750000Y-73750000D03*
X105250000Y-69500000D03*
X163500000Y-78000000D03*
X159250000Y-78000000D03*
X103750000Y-73750000D03*
X139250000Y-88375000D03*
X105500000Y-68250000D03*
X145400000Y-85600000D03*
X102200000Y-92600000D03*
X157000000Y-67500000D03*
X114750000Y-94275000D03*
X134750000Y-101625000D03*
X150500000Y-82500000D03*
X151000000Y-69500000D03*
X114250000Y-67250000D03*
X147000000Y-87600000D03*
X124750000Y-93250000D03*
X128750000Y-95375000D03*
X116750000Y-91375000D03*
X124400000Y-102800000D03*
X125859264Y-87857594D03*
X127750000Y-93500000D03*
X125400000Y-89400000D03*
X125000000Y-91000000D03*
X127750000Y-90500000D03*
X133200000Y-103000000D03*
X123600000Y-93000000D03*
X128750000Y-92500000D03*
X111000000Y-90125000D03*
X123812147Y-88062147D03*
X111000000Y-87750000D03*
D28*
X112250000Y-77500000D03*
X115500000Y-83250000D03*
X113250000Y-78500000D03*
X115500000Y-80250000D03*
X115500000Y-81750000D03*
X114250000Y-79500000D03*
D27*
X148000000Y-78500000D03*
D28*
X102000000Y-70250000D03*
D27*
X109000000Y-75000000D03*
D29*
X111250000Y-93125000D02*
X111675000Y-93125000D01*
X110750000Y-92625000D02*
X111250000Y-93125000D01*
X109950000Y-93125000D02*
X110250000Y-93125000D01*
X111675000Y-93125000D02*
X111675000Y-92962500D01*
X110050000Y-91675000D02*
X110050000Y-90750000D01*
X110750000Y-92375000D02*
X110050000Y-91675000D01*
X110250000Y-93125000D02*
X110750000Y-92625000D01*
X110750000Y-92625000D02*
X110750000Y-92375000D01*
D30*
X158107000Y-45618206D02*
X158107000Y-47293000D01*
X106893000Y-50247000D02*
X106820000Y-50174000D01*
X123610000Y-46230000D02*
X122133000Y-44753000D01*
X158107000Y-47293000D02*
X156630000Y-48770000D01*
X147533000Y-44753000D02*
X145407000Y-44753000D01*
X145407000Y-44753000D02*
X143930000Y-46230000D01*
X110053000Y-62067000D02*
X110053000Y-84603000D01*
X129753000Y-44753000D02*
X125087000Y-44753000D01*
X111000000Y-61120000D02*
X110053000Y-62067000D01*
D29*
X135500000Y-78250000D02*
X133500000Y-80250000D01*
D30*
X157241794Y-44753000D02*
X158107000Y-45618206D01*
D29*
X110000000Y-94375000D02*
X108750000Y-94375000D01*
D30*
X110053000Y-84603000D02*
X111000000Y-85550000D01*
X149750000Y-63290000D02*
X153080000Y-59960000D01*
X106820000Y-45587968D02*
X107727968Y-44680000D01*
X131230000Y-46230000D02*
X132707000Y-44753000D01*
X111000000Y-61120000D02*
X114061794Y-58058206D01*
D29*
X111250000Y-95625000D02*
X110000000Y-94375000D01*
D30*
X132707000Y-44753000D02*
X142453000Y-44753000D01*
X151530000Y-54050000D02*
X153080000Y-52500000D01*
X107727968Y-44680000D02*
X111900000Y-44680000D01*
X153080000Y-59960000D02*
X153080000Y-52500000D01*
X106820000Y-50174000D02*
X106820000Y-45587968D01*
X125087000Y-44753000D02*
X123610000Y-46230000D01*
X111900000Y-44680000D02*
X113450000Y-46230000D01*
X144130000Y-54050000D02*
X151530000Y-54050000D01*
X149750000Y-63290000D02*
X156250000Y-63290000D01*
X118078794Y-48770000D02*
X118530000Y-48770000D01*
X153080000Y-52320000D02*
X156630000Y-48770000D01*
X153080000Y-52500000D02*
X153080000Y-52320000D01*
D29*
X108750000Y-93125000D02*
X108550000Y-93125000D01*
D30*
X150487000Y-44753000D02*
X157241794Y-44753000D01*
X149010000Y-46230000D02*
X147533000Y-44753000D01*
D29*
X108500000Y-70250000D02*
X107575000Y-70250000D01*
X107575000Y-70250000D02*
X107575000Y-70105000D01*
D30*
X118530000Y-48770000D02*
X117053000Y-50247000D01*
D29*
X112750000Y-95625000D02*
X111250000Y-95625000D01*
D30*
X149740000Y-63280000D02*
X149750000Y-63290000D01*
D29*
X113500000Y-98625000D02*
X113500000Y-96375000D01*
D30*
X131230000Y-46230000D02*
X129753000Y-44753000D01*
X117053000Y-50247000D02*
X106893000Y-50247000D01*
D29*
X113500000Y-96375000D02*
X112750000Y-95625000D01*
D30*
X143250000Y-63280000D02*
X149740000Y-63280000D01*
X114061794Y-52787000D02*
X118078794Y-48770000D01*
D29*
X142250000Y-78250000D02*
X135500000Y-78250000D01*
D30*
X142453000Y-44753000D02*
X143930000Y-46230000D01*
X114061794Y-58058206D02*
X114061794Y-52787000D01*
X138850000Y-48770000D02*
X144130000Y-54050000D01*
X122133000Y-44753000D02*
X114927000Y-44753000D01*
D29*
X110000000Y-94375000D02*
X108750000Y-93125000D01*
X107575000Y-70105000D02*
X111000000Y-66680000D01*
X108750000Y-94375000D02*
X105750000Y-91375000D01*
D30*
X149010000Y-46230000D02*
X150487000Y-44753000D01*
X114927000Y-44753000D02*
X113450000Y-46230000D01*
D29*
X129625000Y-90450000D02*
X129750000Y-90325000D01*
X128387500Y-91000000D02*
X128187500Y-91200000D01*
X129375000Y-91200000D02*
X129200000Y-91200000D01*
X130000000Y-90575000D02*
X129375000Y-91200000D01*
X129450000Y-91200000D02*
X129200000Y-91200000D01*
X129200000Y-91200000D02*
X128187500Y-91200000D01*
X130000000Y-91750000D02*
X129450000Y-91200000D01*
X130000000Y-92000000D02*
X130000000Y-91750000D01*
X128750000Y-91000000D02*
X128387500Y-91000000D01*
X130000000Y-93400000D02*
X124800000Y-93400000D01*
D30*
X117250000Y-91375000D02*
X116750000Y-91375000D01*
D29*
X128075000Y-86875000D02*
X128259500Y-87059500D01*
D30*
X124500000Y-98625000D02*
X122037500Y-96162500D01*
D29*
X124800000Y-93400000D02*
X122037500Y-96162500D01*
D30*
X122037500Y-96162500D02*
X117250000Y-91375000D01*
D29*
X113250000Y-93125000D02*
X111950000Y-91825000D01*
X111625000Y-90750000D02*
X111000000Y-90125000D01*
X111950000Y-91825000D02*
X111950000Y-90750000D01*
X113325000Y-93125000D02*
X113250000Y-93125000D01*
X111950000Y-90750000D02*
X111625000Y-90750000D01*
X124500000Y-88575000D02*
X126075000Y-88575000D01*
X123812147Y-88062147D02*
X123812853Y-88062147D01*
X128187500Y-89300000D02*
X128237500Y-89250000D01*
X126075000Y-88575000D02*
X126750000Y-89250000D01*
X128137500Y-89250000D02*
X128187500Y-89300000D01*
X129000000Y-89250000D02*
X129325000Y-88925000D01*
X126750000Y-89250000D02*
X128137500Y-89250000D01*
X128237500Y-89250000D02*
X129000000Y-89250000D01*
X129325000Y-88925000D02*
X130000000Y-88925000D01*
X123812147Y-88062147D02*
X124325000Y-88575000D01*
X111000000Y-88875000D02*
X111000000Y-87200000D01*
X125075000Y-86875000D02*
X125000000Y-86950000D01*
X124468460Y-86925000D02*
X125000000Y-86925000D01*
X122725000Y-88960000D02*
X122725000Y-88668460D01*
X123000000Y-88665000D02*
X123290000Y-88665000D01*
X126425000Y-86875000D02*
X125075000Y-86875000D01*
X122725000Y-88668460D02*
X124468460Y-86925000D01*
X122725000Y-91500000D02*
X123975000Y-90250000D01*
X123975000Y-90250000D02*
X126312500Y-90250000D01*
X137325000Y-80250000D02*
X138000000Y-80925000D01*
X136500000Y-80250000D02*
X137325000Y-80250000D01*
X137325000Y-83250000D02*
X136500000Y-83250000D01*
X138000000Y-82575000D02*
X137325000Y-83250000D01*
D30*
X102425000Y-70250000D02*
X102000000Y-70250000D01*
D29*
X143250000Y-60740000D02*
X139990000Y-60740000D01*
X131081146Y-51831146D02*
X124131146Y-51831146D01*
X124131146Y-51831146D02*
X121070000Y-48770000D01*
X139990000Y-60740000D02*
X131081146Y-51831146D01*
X109000000Y-75000000D02*
X109000000Y-74196185D01*
X104575000Y-70250000D02*
X105925000Y-70250000D01*
X105053815Y-70250000D02*
X104575000Y-70250000D01*
X109000000Y-74196185D02*
X105053815Y-70250000D01*
G04 #@! TA.AperFunction,Conductor*
G36*
X131856581Y-77269685D02*
G01*
X131902336Y-77322489D01*
X131912280Y-77391647D01*
X131912015Y-77393398D01*
X131895131Y-77499998D01*
X131895131Y-77500002D01*
X131912498Y-77609658D01*
X131912500Y-77609661D01*
X131962905Y-77708587D01*
X131963677Y-77709359D01*
X131964315Y-77710527D01*
X131968644Y-77716486D01*
X131967874Y-77717045D01*
X131997164Y-77770678D01*
X132000000Y-77797044D01*
X132000000Y-82470500D01*
X131980315Y-82537539D01*
X131927511Y-82583294D01*
X131876000Y-82594500D01*
X131743920Y-82594500D01*
X131676881Y-82574815D01*
X131665260Y-82566357D01*
X131612231Y-82522836D01*
X131530626Y-82455864D01*
X131530623Y-82455862D01*
X131365502Y-82367604D01*
X131186333Y-82313253D01*
X131186331Y-82313252D01*
X131000000Y-82294901D01*
X130813668Y-82313252D01*
X130813666Y-82313253D01*
X130634497Y-82367604D01*
X130469376Y-82455862D01*
X130469373Y-82455864D01*
X130369854Y-82537539D01*
X130334743Y-82566353D01*
X130270436Y-82593666D01*
X130256080Y-82594500D01*
X129451361Y-82594500D01*
X129429381Y-82595678D01*
X129403034Y-82598511D01*
X129403032Y-82598512D01*
X129326521Y-82622470D01*
X129326518Y-82622471D01*
X129326516Y-82622471D01*
X129326511Y-82622474D01*
X129265200Y-82655952D01*
X129265192Y-82655957D01*
X129218382Y-82690998D01*
X129218371Y-82691008D01*
X129050251Y-82859127D01*
X128988927Y-82892611D01*
X128919236Y-82887627D01*
X128863302Y-82845755D01*
X128853212Y-82829898D01*
X128794137Y-82719376D01*
X128794135Y-82719373D01*
X128675357Y-82574642D01*
X128530626Y-82455864D01*
X128530623Y-82455862D01*
X128365502Y-82367604D01*
X128186333Y-82313253D01*
X128186331Y-82313252D01*
X128000000Y-82294901D01*
X127813668Y-82313252D01*
X127813666Y-82313253D01*
X127634497Y-82367604D01*
X127469376Y-82455862D01*
X127469373Y-82455864D01*
X127324642Y-82574642D01*
X127205864Y-82719373D01*
X127205862Y-82719376D01*
X127117604Y-82884497D01*
X127063253Y-83063666D01*
X127063252Y-83063668D01*
X127044901Y-83250000D01*
X127063252Y-83436331D01*
X127063253Y-83436333D01*
X127117604Y-83615502D01*
X127205862Y-83780623D01*
X127205864Y-83780626D01*
X127324642Y-83925357D01*
X127469373Y-84044135D01*
X127469376Y-84044137D01*
X127558546Y-84091798D01*
X127634499Y-84132396D01*
X127706496Y-84154236D01*
X127764934Y-84192533D01*
X127793390Y-84256345D01*
X127794500Y-84272896D01*
X127794500Y-86145146D01*
X127795717Y-86163715D01*
X127796258Y-86171973D01*
X127800481Y-86204053D01*
X127800482Y-86204059D01*
X127800483Y-86204061D01*
X127804114Y-86214354D01*
X127828751Y-86284191D01*
X127865110Y-86343845D01*
X127865112Y-86343848D01*
X127865115Y-86343852D01*
X127902355Y-86388957D01*
X127915698Y-86401087D01*
X127953480Y-86428304D01*
X128002186Y-86455595D01*
X128002189Y-86455596D01*
X128002194Y-86455599D01*
X128018023Y-86462239D01*
X128022462Y-86464203D01*
X128024219Y-86465022D01*
X128024223Y-86465025D01*
X128075901Y-86489122D01*
X128128337Y-86535292D01*
X128135875Y-86549097D01*
X128150102Y-86579606D01*
X128150105Y-86579611D01*
X128170865Y-86614601D01*
X128199838Y-86653952D01*
X128199839Y-86653954D01*
X128214348Y-86670041D01*
X128227088Y-86684168D01*
X129794127Y-88108748D01*
X129830490Y-88168408D01*
X129828826Y-88238258D01*
X129789663Y-88296120D01*
X129725434Y-88323623D01*
X129710721Y-88324500D01*
X129693484Y-88324500D01*
X129617345Y-88336558D01*
X129599696Y-88339354D01*
X129486658Y-88396950D01*
X129486657Y-88396951D01*
X129486652Y-88396954D01*
X129396954Y-88486652D01*
X129396951Y-88486657D01*
X129390152Y-88500000D01*
X126373352Y-88500000D01*
X126224544Y-88351192D01*
X126127513Y-88311000D01*
X125267869Y-88311000D01*
X125200830Y-88291315D01*
X125157385Y-88243296D01*
X125103050Y-88136658D01*
X125103046Y-88136654D01*
X125103045Y-88136652D01*
X125013347Y-88046954D01*
X125013344Y-88046952D01*
X125013342Y-88046950D01*
X124936517Y-88007805D01*
X124900301Y-87989352D01*
X124806524Y-87974500D01*
X124236851Y-87974500D01*
X124169812Y-87954815D01*
X124126366Y-87906795D01*
X124099242Y-87853560D01*
X124099238Y-87853556D01*
X124099237Y-87853554D01*
X124093928Y-87848245D01*
X124060443Y-87786922D01*
X124065427Y-87717230D01*
X124093926Y-87672884D01*
X124204993Y-87561817D01*
X124266316Y-87528333D01*
X124292674Y-87525499D01*
X124806517Y-87525499D01*
X124806518Y-87525499D01*
X124900304Y-87510646D01*
X125013342Y-87453050D01*
X125103050Y-87363342D01*
X125160646Y-87250304D01*
X125161707Y-87243601D01*
X125191636Y-87180468D01*
X125250948Y-87143536D01*
X125284181Y-87139000D01*
X125461860Y-87139000D01*
X125528899Y-87158685D01*
X125574654Y-87211489D01*
X125584333Y-87243601D01*
X125589354Y-87275304D01*
X125646950Y-87388342D01*
X125646952Y-87388344D01*
X125646954Y-87388347D01*
X125736652Y-87478045D01*
X125736654Y-87478046D01*
X125736658Y-87478050D01*
X125849694Y-87535645D01*
X125849698Y-87535647D01*
X125943475Y-87550499D01*
X125943481Y-87550500D01*
X126406518Y-87550499D01*
X126500304Y-87535646D01*
X126613342Y-87478050D01*
X126703050Y-87388342D01*
X126760646Y-87275304D01*
X126760646Y-87275302D01*
X126760647Y-87275301D01*
X126775499Y-87181524D01*
X126775500Y-87181519D01*
X126775499Y-86568482D01*
X126760646Y-86474696D01*
X126703050Y-86361658D01*
X126703046Y-86361654D01*
X126703045Y-86361652D01*
X126613347Y-86271954D01*
X126613344Y-86271952D01*
X126613342Y-86271950D01*
X126536517Y-86232805D01*
X126500301Y-86214352D01*
X126406524Y-86199500D01*
X125943482Y-86199500D01*
X125862519Y-86212323D01*
X125849696Y-86214354D01*
X125736658Y-86271950D01*
X125736657Y-86271951D01*
X125736652Y-86271954D01*
X125646954Y-86361652D01*
X125646951Y-86361657D01*
X125646950Y-86361658D01*
X125594518Y-86464562D01*
X125589353Y-86474698D01*
X125584332Y-86506399D01*
X125554402Y-86569533D01*
X125495091Y-86606464D01*
X125461859Y-86611000D01*
X125242393Y-86611000D01*
X125175354Y-86591315D01*
X125131909Y-86543296D01*
X125119841Y-86519612D01*
X125103050Y-86486658D01*
X125103047Y-86486655D01*
X125103045Y-86486652D01*
X125013347Y-86396954D01*
X125013344Y-86396952D01*
X125013342Y-86396950D01*
X124909132Y-86343852D01*
X124900301Y-86339352D01*
X124806524Y-86324500D01*
X124193482Y-86324500D01*
X124112519Y-86337323D01*
X124099696Y-86339354D01*
X123986658Y-86396950D01*
X123986657Y-86396951D01*
X123986652Y-86396954D01*
X123896954Y-86486652D01*
X123896951Y-86486657D01*
X123896950Y-86486658D01*
X123877751Y-86524337D01*
X123839352Y-86599698D01*
X123824500Y-86693475D01*
X123824500Y-87144243D01*
X123804815Y-87211282D01*
X123788181Y-87231924D01*
X123109680Y-87910425D01*
X123048357Y-87943910D01*
X122986005Y-87941405D01*
X122930932Y-87924699D01*
X122930933Y-87924699D01*
X122745282Y-87906414D01*
X122725000Y-87904417D01*
X122724999Y-87904417D01*
X122519067Y-87924699D01*
X122354895Y-87974500D01*
X122334345Y-87980734D01*
X122321043Y-87984769D01*
X122210898Y-88043643D01*
X122138550Y-88082315D01*
X122138548Y-88082316D01*
X122138547Y-88082317D01*
X121978589Y-88213589D01*
X121847317Y-88373547D01*
X121847315Y-88373550D01*
X121834807Y-88396951D01*
X121779725Y-88500000D01*
X118750000Y-88500000D01*
X118750000Y-77374000D01*
X118769685Y-77306961D01*
X118822489Y-77261206D01*
X118874000Y-77250000D01*
X131789542Y-77250000D01*
X131856581Y-77269685D01*
G37*
G04 #@! TD.AperFunction*
G04 #@! TA.AperFunction,Conductor*
G36*
X132414482Y-82819685D02*
G01*
X132436550Y-82837768D01*
X133199821Y-83626482D01*
X133218101Y-83650713D01*
X133286177Y-83768623D01*
X133409603Y-83905702D01*
X133558833Y-84014124D01*
X133558834Y-84014124D01*
X133558835Y-84014125D01*
X133565210Y-84016964D01*
X133603879Y-84044010D01*
X136011719Y-86532110D01*
X138365108Y-88963944D01*
X138397582Y-89025806D01*
X138400000Y-89050175D01*
X138400000Y-98951306D01*
X138380315Y-99018345D01*
X138366866Y-99035682D01*
X136958394Y-100552499D01*
X135931530Y-101658353D01*
X135836794Y-101760376D01*
X135776753Y-101796108D01*
X135745928Y-101800000D01*
X135148701Y-101800000D01*
X135081662Y-101780315D01*
X135035907Y-101727511D01*
X135025963Y-101658353D01*
X135026585Y-101654467D01*
X135031781Y-101624999D01*
X135014788Y-101528627D01*
X135014788Y-101528625D01*
X134965857Y-101443875D01*
X134965853Y-101443872D01*
X134890889Y-101380968D01*
X134798933Y-101347500D01*
X134798931Y-101347500D01*
X134701069Y-101347500D01*
X134701066Y-101347500D01*
X134609115Y-101380967D01*
X134609108Y-101380971D01*
X134534145Y-101443872D01*
X134534140Y-101443878D01*
X134485213Y-101528622D01*
X134485211Y-101528627D01*
X134468219Y-101624999D01*
X134473415Y-101654467D01*
X134465671Y-101723906D01*
X134421615Y-101778136D01*
X134355234Y-101799938D01*
X134351299Y-101800000D01*
X132444263Y-101800000D01*
X132377224Y-101780315D01*
X132365742Y-101771971D01*
X132351570Y-101760376D01*
X130245479Y-100037210D01*
X130206058Y-99979523D01*
X130200000Y-99941239D01*
X130200000Y-97623795D01*
X130722500Y-97623795D01*
X130722500Y-99626204D01*
X130761984Y-99824703D01*
X130761986Y-99824711D01*
X130839439Y-100011701D01*
X130839444Y-100011710D01*
X130951887Y-100179992D01*
X130951890Y-100179996D01*
X131095003Y-100323109D01*
X131095007Y-100323112D01*
X131263289Y-100435555D01*
X131263295Y-100435558D01*
X131263296Y-100435559D01*
X131450289Y-100513014D01*
X131648795Y-100552499D01*
X131648799Y-100552500D01*
X131648800Y-100552500D01*
X131851201Y-100552500D01*
X131851202Y-100552499D01*
X132049711Y-100513014D01*
X132236704Y-100435559D01*
X132404993Y-100323112D01*
X132548112Y-100179993D01*
X132660559Y-100011704D01*
X132738014Y-99824711D01*
X132777500Y-99626200D01*
X132777500Y-97623800D01*
X132738014Y-97425289D01*
X132660559Y-97238296D01*
X132660558Y-97238295D01*
X132660555Y-97238289D01*
X132548112Y-97070007D01*
X132548109Y-97070003D01*
X132404996Y-96926890D01*
X132404992Y-96926887D01*
X132236710Y-96814444D01*
X132236701Y-96814439D01*
X132049711Y-96736986D01*
X132049703Y-96736984D01*
X131851204Y-96697500D01*
X131851200Y-96697500D01*
X131648800Y-96697500D01*
X131648795Y-96697500D01*
X131450296Y-96736984D01*
X131450288Y-96736986D01*
X131263298Y-96814439D01*
X131263289Y-96814444D01*
X131095007Y-96926887D01*
X131095003Y-96926890D01*
X130951890Y-97070003D01*
X130951887Y-97070007D01*
X130839444Y-97238289D01*
X130839439Y-97238298D01*
X130761986Y-97425288D01*
X130761984Y-97425296D01*
X130722500Y-97623795D01*
X130200000Y-97623795D01*
X130200000Y-93934145D01*
X130219685Y-93867106D01*
X130272489Y-93821351D01*
X130273915Y-93820710D01*
X130359542Y-93782903D01*
X130432903Y-93709542D01*
X130474808Y-93614634D01*
X130477500Y-93591432D01*
X130477500Y-93208568D01*
X130474808Y-93185366D01*
X130432903Y-93090458D01*
X130359542Y-93017097D01*
X130359540Y-93017096D01*
X130273914Y-92979289D01*
X130220538Y-92934203D01*
X130200010Y-92867417D01*
X130200000Y-92865854D01*
X130200000Y-92534145D01*
X130219685Y-92467106D01*
X130272489Y-92421351D01*
X130273915Y-92420710D01*
X130359542Y-92382903D01*
X130432903Y-92309542D01*
X130474808Y-92214634D01*
X130477500Y-92191432D01*
X130477500Y-91808568D01*
X130474808Y-91785366D01*
X130432903Y-91690458D01*
X130359542Y-91617097D01*
X130359540Y-91617096D01*
X130273914Y-91579289D01*
X130220538Y-91534203D01*
X130200010Y-91467417D01*
X130200000Y-91465854D01*
X130200000Y-91226068D01*
X130219685Y-91159029D01*
X130272489Y-91113274D01*
X130309474Y-91103955D01*
X130309352Y-91103028D01*
X130313371Y-91102499D01*
X130313374Y-91102499D01*
X130361071Y-91096221D01*
X130465744Y-91047411D01*
X130547411Y-90965744D01*
X130596221Y-90861071D01*
X130602500Y-90813375D01*
X130602499Y-90336626D01*
X130596221Y-90288929D01*
X130547411Y-90184256D01*
X130465744Y-90102589D01*
X130409882Y-90076540D01*
X130361072Y-90053779D01*
X130361068Y-90053778D01*
X130309351Y-90046970D01*
X130309563Y-90045354D01*
X130250256Y-90023619D01*
X130208067Y-89967925D01*
X130200000Y-89923930D01*
X130200000Y-89576068D01*
X130219685Y-89509029D01*
X130272489Y-89463274D01*
X130309474Y-89453955D01*
X130309352Y-89453028D01*
X130313371Y-89452499D01*
X130313374Y-89452499D01*
X130361071Y-89446221D01*
X130465744Y-89397411D01*
X130547411Y-89315744D01*
X130596221Y-89211071D01*
X130602500Y-89163375D01*
X130602499Y-88686626D01*
X130596221Y-88638929D01*
X130547411Y-88534256D01*
X130465744Y-88452589D01*
X130409882Y-88426540D01*
X130361072Y-88403779D01*
X130361068Y-88403778D01*
X130309351Y-88396970D01*
X130309563Y-88395354D01*
X130250256Y-88373619D01*
X130208067Y-88317925D01*
X130200000Y-88273930D01*
X130200000Y-88199999D01*
X128365322Y-86532110D01*
X128336351Y-86492762D01*
X128320399Y-86458555D01*
X128297411Y-86409256D01*
X128215744Y-86327589D01*
X128111071Y-86278779D01*
X128111070Y-86278778D01*
X128111066Y-86278777D01*
X128102638Y-86276320D01*
X128053932Y-86249029D01*
X128040589Y-86236899D01*
X128004225Y-86177238D01*
X128000000Y-86145146D01*
X128000000Y-84251362D01*
X128019685Y-84184323D01*
X128036310Y-84163690D01*
X128041195Y-84158804D01*
X128102510Y-84125314D01*
X128272656Y-84089150D01*
X128441167Y-84014124D01*
X128590397Y-83905702D01*
X128713823Y-83768623D01*
X128806052Y-83608878D01*
X128863053Y-83433448D01*
X128869797Y-83369281D01*
X128896379Y-83304669D01*
X128905418Y-83294581D01*
X129363681Y-82836319D01*
X129425004Y-82802834D01*
X129451362Y-82800000D01*
X132347443Y-82800000D01*
X132414482Y-82819685D01*
G37*
G04 #@! TD.AperFunction*
G04 #@! TA.AperFunction,Conductor*
G36*
X164892539Y-43770185D02*
G01*
X164938294Y-43822989D01*
X164949500Y-43874500D01*
X164949500Y-103425500D01*
X164929815Y-103492539D01*
X164877011Y-103538294D01*
X164825500Y-103549500D01*
X134579500Y-103549500D01*
X134512461Y-103529815D01*
X134466706Y-103477011D01*
X134455500Y-103425500D01*
X134455500Y-102129500D01*
X134450803Y-102085816D01*
X134450801Y-102085807D01*
X134450518Y-102083174D01*
X134462922Y-102014414D01*
X134503289Y-101971054D01*
X134502114Y-101969552D01*
X134512868Y-101961133D01*
X134581115Y-101907712D01*
X134625171Y-101853482D01*
X134639797Y-101833041D01*
X134639801Y-101833029D01*
X134642330Y-101828153D01*
X134690657Y-101777693D01*
X134758593Y-101761370D01*
X134824569Y-101784367D01*
X134861850Y-101826898D01*
X134862519Y-101828153D01*
X134880602Y-101862086D01*
X134926361Y-101914895D01*
X134943943Y-101932839D01*
X134943947Y-101932843D01*
X134943948Y-101932844D01*
X134943950Y-101932845D01*
X135016407Y-101973375D01*
X135023764Y-101977490D01*
X135090803Y-101997175D01*
X135148701Y-102005500D01*
X135148705Y-102005500D01*
X135745936Y-102005500D01*
X135755734Y-102004883D01*
X135771670Y-102003881D01*
X135802495Y-101999989D01*
X135881848Y-101972701D01*
X135941889Y-101936969D01*
X135987383Y-101900209D01*
X136082119Y-101798186D01*
X137108983Y-100692332D01*
X138517455Y-99175515D01*
X138529238Y-99161641D01*
X138542687Y-99144304D01*
X138577490Y-99076243D01*
X138597175Y-99009204D01*
X138605500Y-98951306D01*
X138605500Y-89050175D01*
X138604496Y-89029884D01*
X138602078Y-89005515D01*
X138579536Y-88930291D01*
X138547062Y-88868429D01*
X138512781Y-88821035D01*
X136159392Y-86389201D01*
X134205149Y-84369817D01*
X134172675Y-84307956D01*
X134178801Y-84238355D01*
X134221584Y-84183115D01*
X134258257Y-84164928D01*
X134365501Y-84132396D01*
X134530625Y-84044136D01*
X134675357Y-83925357D01*
X134794136Y-83780625D01*
X134882396Y-83615501D01*
X134936747Y-83436331D01*
X134955099Y-83250000D01*
X136044901Y-83250000D01*
X136063252Y-83436331D01*
X136063253Y-83436333D01*
X136117604Y-83615502D01*
X136205862Y-83780623D01*
X136205864Y-83780626D01*
X136324642Y-83925357D01*
X136469373Y-84044135D01*
X136469376Y-84044137D01*
X136634495Y-84132394D01*
X136634499Y-84132396D01*
X136801696Y-84183115D01*
X136813666Y-84186746D01*
X136813668Y-84186747D01*
X136830374Y-84188392D01*
X137000000Y-84205099D01*
X137186331Y-84186747D01*
X137365501Y-84132396D01*
X137530625Y-84044136D01*
X137675357Y-83925357D01*
X137794136Y-83780625D01*
X137882396Y-83615501D01*
X137936747Y-83436331D01*
X137953093Y-83270361D01*
X137979254Y-83205576D01*
X138036288Y-83165217D01*
X138095895Y-83160044D01*
X138099696Y-83160646D01*
X138193481Y-83175500D01*
X138806518Y-83175499D01*
X138900304Y-83160646D01*
X139013342Y-83103050D01*
X139103050Y-83013342D01*
X139160646Y-82900304D01*
X139160646Y-82900302D01*
X139160647Y-82900301D01*
X139175499Y-82806524D01*
X139175500Y-82806519D01*
X139175499Y-82343482D01*
X139160646Y-82249696D01*
X139103050Y-82136658D01*
X139103046Y-82136654D01*
X139103045Y-82136652D01*
X139013347Y-82046954D01*
X139013344Y-82046952D01*
X139013342Y-82046950D01*
X138936517Y-82007805D01*
X138900301Y-81989352D01*
X138806524Y-81974500D01*
X138193482Y-81974500D01*
X138112519Y-81987323D01*
X138099696Y-81989354D01*
X137986658Y-82046950D01*
X137986657Y-82046951D01*
X137986652Y-82046954D01*
X137896954Y-82136652D01*
X137896951Y-82136657D01*
X137839352Y-82249698D01*
X137839352Y-82249699D01*
X137824466Y-82343689D01*
X137794537Y-82406824D01*
X137789674Y-82411972D01*
X137728269Y-82473377D01*
X137666946Y-82506862D01*
X137597254Y-82501878D01*
X137561924Y-82481550D01*
X137530625Y-82455864D01*
X137530619Y-82455860D01*
X137365502Y-82367604D01*
X137186333Y-82313253D01*
X137186331Y-82313252D01*
X137000000Y-82294901D01*
X136813668Y-82313252D01*
X136813666Y-82313253D01*
X136634497Y-82367604D01*
X136469376Y-82455862D01*
X136469373Y-82455864D01*
X136324642Y-82574642D01*
X136205864Y-82719373D01*
X136205862Y-82719376D01*
X136117604Y-82884497D01*
X136063253Y-83063666D01*
X136063252Y-83063668D01*
X136044901Y-83250000D01*
X134955099Y-83250000D01*
X134936747Y-83063669D01*
X134882396Y-82884499D01*
X134827648Y-82782072D01*
X134794137Y-82719376D01*
X134794135Y-82719373D01*
X134675357Y-82574642D01*
X134530626Y-82455864D01*
X134530623Y-82455862D01*
X134365502Y-82367604D01*
X134186333Y-82313253D01*
X134186331Y-82313252D01*
X134000000Y-82294901D01*
X133813668Y-82313252D01*
X133813666Y-82313253D01*
X133634497Y-82367604D01*
X133469376Y-82455862D01*
X133469373Y-82455864D01*
X133324642Y-82574642D01*
X133205864Y-82719373D01*
X133205862Y-82719376D01*
X133117604Y-82884496D01*
X133095295Y-82958039D01*
X133056997Y-83016477D01*
X132993185Y-83044933D01*
X132924118Y-83034372D01*
X132887528Y-83008274D01*
X132584229Y-82694865D01*
X132584227Y-82694863D01*
X132584223Y-82694859D01*
X132575677Y-82686991D01*
X132566817Y-82678833D01*
X132566807Y-82678825D01*
X132566798Y-82678816D01*
X132566149Y-82678284D01*
X132544733Y-82660735D01*
X132544731Y-82660734D01*
X132544730Y-82660733D01*
X132512898Y-82643916D01*
X132472381Y-82622510D01*
X132405346Y-82602826D01*
X132405342Y-82602825D01*
X132405341Y-82602825D01*
X132347443Y-82594500D01*
X132347439Y-82594500D01*
X132329500Y-82594500D01*
X132262461Y-82574815D01*
X132216706Y-82522011D01*
X132205500Y-82470500D01*
X132205500Y-80250000D01*
X136044901Y-80250000D01*
X136063252Y-80436331D01*
X136063253Y-80436333D01*
X136117604Y-80615502D01*
X136205862Y-80780623D01*
X136205864Y-80780626D01*
X136324642Y-80925357D01*
X136469373Y-81044135D01*
X136469376Y-81044137D01*
X136555574Y-81090210D01*
X136634499Y-81132396D01*
X136813666Y-81186746D01*
X136813668Y-81186747D01*
X136830374Y-81188392D01*
X137000000Y-81205099D01*
X137186331Y-81186747D01*
X137365501Y-81132396D01*
X137530625Y-81044136D01*
X137561922Y-81018450D01*
X137626230Y-80991136D01*
X137695098Y-81002926D01*
X137728269Y-81026621D01*
X137789676Y-81088028D01*
X137823161Y-81149351D01*
X137824469Y-81156313D01*
X137824500Y-81156515D01*
X137824501Y-81156518D01*
X137839354Y-81250304D01*
X137896950Y-81363342D01*
X137896952Y-81363344D01*
X137896954Y-81363347D01*
X137986652Y-81453045D01*
X137986654Y-81453046D01*
X137986658Y-81453050D01*
X138099694Y-81510645D01*
X138099698Y-81510647D01*
X138193475Y-81525499D01*
X138193481Y-81525500D01*
X138806518Y-81525499D01*
X138900304Y-81510646D01*
X139013342Y-81453050D01*
X139103050Y-81363342D01*
X139160646Y-81250304D01*
X139160646Y-81250302D01*
X139160647Y-81250301D01*
X139173481Y-81169264D01*
X139175500Y-81156519D01*
X139175499Y-80693482D01*
X139160646Y-80599696D01*
X139103050Y-80486658D01*
X139103046Y-80486654D01*
X139103045Y-80486652D01*
X139013347Y-80396954D01*
X139013344Y-80396952D01*
X139013342Y-80396950D01*
X138936517Y-80357805D01*
X138900301Y-80339352D01*
X138806524Y-80324500D01*
X138193481Y-80324500D01*
X138095892Y-80339956D01*
X138026599Y-80331000D01*
X137973147Y-80286002D01*
X137953093Y-80229636D01*
X137950223Y-80200500D01*
X137936747Y-80063669D01*
X137882396Y-79884499D01*
X137852160Y-79827931D01*
X137794137Y-79719376D01*
X137794135Y-79719373D01*
X137675357Y-79574642D01*
X137530626Y-79455864D01*
X137530623Y-79455862D01*
X137365502Y-79367604D01*
X137186333Y-79313253D01*
X137186331Y-79313252D01*
X137000000Y-79294901D01*
X136813668Y-79313252D01*
X136813666Y-79313253D01*
X136634497Y-79367604D01*
X136469376Y-79455862D01*
X136469373Y-79455864D01*
X136324642Y-79574642D01*
X136205864Y-79719373D01*
X136205862Y-79719376D01*
X136117604Y-79884497D01*
X136063253Y-80063666D01*
X136063252Y-80063668D01*
X136044901Y-80250000D01*
X132205500Y-80250000D01*
X132205500Y-78499997D01*
X147645131Y-78499997D01*
X147645131Y-78500002D01*
X147662498Y-78609658D01*
X147712904Y-78708585D01*
X147712909Y-78708592D01*
X147791407Y-78787090D01*
X147791410Y-78787092D01*
X147791413Y-78787095D01*
X147871557Y-78827930D01*
X147890341Y-78837501D01*
X147999998Y-78854869D01*
X148000000Y-78854869D01*
X148000002Y-78854869D01*
X148109658Y-78837501D01*
X148109659Y-78837500D01*
X148109661Y-78837500D01*
X148208587Y-78787095D01*
X148287095Y-78708587D01*
X148337500Y-78609661D01*
X148337500Y-78609659D01*
X148337501Y-78609658D01*
X148354869Y-78500002D01*
X148354869Y-78499997D01*
X148337501Y-78390341D01*
X148337500Y-78390339D01*
X148287095Y-78291413D01*
X148287092Y-78291410D01*
X148287090Y-78291407D01*
X148208592Y-78212909D01*
X148208588Y-78212906D01*
X148208587Y-78212905D01*
X148184241Y-78200500D01*
X148109658Y-78162498D01*
X148000002Y-78145131D01*
X147999998Y-78145131D01*
X147890341Y-78162498D01*
X147791414Y-78212904D01*
X147791407Y-78212909D01*
X147712909Y-78291407D01*
X147712904Y-78291414D01*
X147662498Y-78390341D01*
X147645131Y-78499997D01*
X132205500Y-78499997D01*
X132205500Y-77797045D01*
X132204322Y-77775088D01*
X132204321Y-77775067D01*
X132201485Y-77748701D01*
X132177521Y-77672182D01*
X132176126Y-77669627D01*
X132169294Y-77657116D01*
X132169290Y-77657101D01*
X132141901Y-77606959D01*
X132141898Y-77606953D01*
X132140650Y-77604668D01*
X132139019Y-77601578D01*
X132119291Y-77562858D01*
X132107306Y-77525977D01*
X132107178Y-77525171D01*
X132106264Y-77519404D01*
X132106264Y-77480605D01*
X132114985Y-77425546D01*
X132114989Y-77425515D01*
X132115021Y-77425318D01*
X132115119Y-77424678D01*
X132115201Y-77424149D01*
X132115466Y-77422398D01*
X132115688Y-77362400D01*
X132105744Y-77293242D01*
X132100652Y-77268627D01*
X132057642Y-77187915D01*
X132011887Y-77135111D01*
X132011881Y-77135104D01*
X131994299Y-77117160D01*
X131994298Y-77117159D01*
X131994296Y-77117157D01*
X131994294Y-77117156D01*
X131994292Y-77117154D01*
X131914482Y-77072511D01*
X131914477Y-77072509D01*
X131847445Y-77052826D01*
X131847441Y-77052825D01*
X131847440Y-77052825D01*
X131789542Y-77044500D01*
X118874000Y-77044500D01*
X118873992Y-77044500D01*
X118830313Y-77049197D01*
X118778825Y-77060397D01*
X118768627Y-77062890D01*
X118768624Y-77062891D01*
X118687916Y-77105899D01*
X118687913Y-77105901D01*
X118635104Y-77151660D01*
X118617160Y-77169242D01*
X118617154Y-77169249D01*
X118572511Y-77249059D01*
X118572509Y-77249064D01*
X118552826Y-77316096D01*
X118552825Y-77316101D01*
X118552825Y-77316102D01*
X118550665Y-77331128D01*
X118544500Y-77374003D01*
X118544500Y-91379480D01*
X118524815Y-91446519D01*
X118472011Y-91492274D01*
X118402853Y-91502218D01*
X118339297Y-91473193D01*
X118332819Y-91467161D01*
X117696545Y-90830887D01*
X117581807Y-90754222D01*
X117454332Y-90701421D01*
X117454322Y-90701418D01*
X117318996Y-90674500D01*
X117318994Y-90674500D01*
X117318993Y-90674500D01*
X116681007Y-90674500D01*
X116681005Y-90674500D01*
X116545677Y-90701418D01*
X116545667Y-90701421D01*
X116418195Y-90754221D01*
X116418182Y-90754228D01*
X116303458Y-90830885D01*
X116303454Y-90830888D01*
X116205888Y-90928454D01*
X116205885Y-90928458D01*
X116129228Y-91043182D01*
X116129221Y-91043195D01*
X116076421Y-91170667D01*
X116076418Y-91170677D01*
X116049500Y-91306004D01*
X116049500Y-91306007D01*
X116049500Y-91443993D01*
X116049500Y-91443995D01*
X116049499Y-91443995D01*
X116076418Y-91579322D01*
X116076421Y-91579332D01*
X116129221Y-91706804D01*
X116129228Y-91706817D01*
X116205885Y-91821541D01*
X116205888Y-91821545D01*
X116303454Y-91919111D01*
X116303458Y-91919114D01*
X116418182Y-91995771D01*
X116418195Y-91995778D01*
X116545667Y-92048578D01*
X116545672Y-92048580D01*
X116545676Y-92048580D01*
X116545677Y-92048581D01*
X116681004Y-92075500D01*
X116681007Y-92075500D01*
X116908481Y-92075500D01*
X116975520Y-92095185D01*
X116996162Y-92111819D01*
X118508181Y-93623837D01*
X118541666Y-93685160D01*
X118544500Y-93711518D01*
X118544500Y-103425500D01*
X118524815Y-103492539D01*
X118472011Y-103538294D01*
X118420500Y-103549500D01*
X100174500Y-103549500D01*
X100107461Y-103529815D01*
X100061706Y-103477011D01*
X100050500Y-103425500D01*
X100050500Y-97638389D01*
X108589500Y-97638389D01*
X108589500Y-99611611D01*
X108616598Y-99782701D01*
X108670127Y-99947445D01*
X108748768Y-100101788D01*
X108850586Y-100241928D01*
X108973072Y-100364414D01*
X109113212Y-100466232D01*
X109267555Y-100544873D01*
X109432299Y-100598402D01*
X109603389Y-100625500D01*
X109603390Y-100625500D01*
X109776610Y-100625500D01*
X109776611Y-100625500D01*
X109947701Y-100598402D01*
X110112445Y-100544873D01*
X110266788Y-100466232D01*
X110406928Y-100364414D01*
X110529414Y-100241928D01*
X110631232Y-100101788D01*
X110709873Y-99947445D01*
X110763402Y-99782701D01*
X110790500Y-99611611D01*
X110790500Y-97638389D01*
X110763402Y-97467299D01*
X110709873Y-97302555D01*
X110631232Y-97148212D01*
X110529414Y-97008072D01*
X110406928Y-96885586D01*
X110266788Y-96783768D01*
X110112445Y-96705127D01*
X109947701Y-96651598D01*
X109947699Y-96651597D01*
X109947698Y-96651597D01*
X109816271Y-96630781D01*
X109776611Y-96624500D01*
X109603389Y-96624500D01*
X109563728Y-96630781D01*
X109432302Y-96651597D01*
X109267552Y-96705128D01*
X109113211Y-96783768D01*
X109033256Y-96841859D01*
X108973072Y-96885586D01*
X108973070Y-96885588D01*
X108973069Y-96885588D01*
X108850588Y-97008069D01*
X108850588Y-97008070D01*
X108850586Y-97008072D01*
X108806859Y-97068256D01*
X108748768Y-97148211D01*
X108670128Y-97302552D01*
X108616597Y-97467302D01*
X108589500Y-97638389D01*
X100050500Y-97638389D01*
X100050500Y-92891739D01*
X109449500Y-92891739D01*
X109449500Y-93358260D01*
X109459426Y-93426391D01*
X109510803Y-93531485D01*
X109593514Y-93614196D01*
X109593515Y-93614196D01*
X109593517Y-93614198D01*
X109698607Y-93665573D01*
X109732673Y-93670536D01*
X109766739Y-93675500D01*
X109766740Y-93675500D01*
X110133261Y-93675500D01*
X110155971Y-93672191D01*
X110201393Y-93665573D01*
X110306483Y-93614198D01*
X110389198Y-93531483D01*
X110440573Y-93426393D01*
X110450500Y-93358260D01*
X110450500Y-93349214D01*
X110470185Y-93282175D01*
X110486819Y-93261533D01*
X110662320Y-93086031D01*
X110723641Y-93052548D01*
X110793332Y-93057532D01*
X110837680Y-93086033D01*
X111038181Y-93286534D01*
X111071666Y-93347857D01*
X111074500Y-93374213D01*
X111074500Y-93431516D01*
X111084649Y-93495596D01*
X111089354Y-93525304D01*
X111146950Y-93638342D01*
X111146952Y-93638344D01*
X111146954Y-93638347D01*
X111236652Y-93728045D01*
X111236654Y-93728046D01*
X111236658Y-93728050D01*
X111349694Y-93785645D01*
X111349698Y-93785647D01*
X111443475Y-93800499D01*
X111443481Y-93800500D01*
X111906518Y-93800499D01*
X112000304Y-93785646D01*
X112113342Y-93728050D01*
X112203050Y-93638342D01*
X112260646Y-93525304D01*
X112260646Y-93525302D01*
X112260647Y-93525301D01*
X112275499Y-93431524D01*
X112275500Y-93431519D01*
X112275499Y-92823212D01*
X112295183Y-92756174D01*
X112347987Y-92710419D01*
X112417146Y-92700475D01*
X112480702Y-92729500D01*
X112487180Y-92735532D01*
X112688181Y-92936533D01*
X112721666Y-92997856D01*
X112724500Y-93024214D01*
X112724500Y-93431517D01*
X112735292Y-93499657D01*
X112739354Y-93525304D01*
X112796950Y-93638342D01*
X112796952Y-93638344D01*
X112796954Y-93638347D01*
X112886652Y-93728045D01*
X112886654Y-93728046D01*
X112886658Y-93728050D01*
X112999694Y-93785645D01*
X112999698Y-93785647D01*
X113093475Y-93800499D01*
X113093481Y-93800500D01*
X113556518Y-93800499D01*
X113650304Y-93785646D01*
X113763342Y-93728050D01*
X113853050Y-93638342D01*
X113910646Y-93525304D01*
X113910646Y-93525302D01*
X113910647Y-93525301D01*
X113925499Y-93431524D01*
X113925500Y-93431519D01*
X113925499Y-92818482D01*
X113910646Y-92724696D01*
X113853050Y-92611658D01*
X113853046Y-92611654D01*
X113853045Y-92611652D01*
X113763347Y-92521954D01*
X113763344Y-92521952D01*
X113763342Y-92521950D01*
X113668531Y-92473641D01*
X113650301Y-92464352D01*
X113556524Y-92449500D01*
X113093480Y-92449500D01*
X113030164Y-92459528D01*
X112960871Y-92450571D01*
X112923088Y-92424735D01*
X112303448Y-91805095D01*
X112269963Y-91743772D01*
X112274947Y-91674080D01*
X112303448Y-91629732D01*
X112306481Y-91626698D01*
X112306483Y-91626698D01*
X112389198Y-91543983D01*
X112440573Y-91438893D01*
X112450500Y-91370760D01*
X112450500Y-90129240D01*
X112440573Y-90061107D01*
X112389198Y-89956017D01*
X112389196Y-89956015D01*
X112389196Y-89956014D01*
X112306485Y-89873303D01*
X112201391Y-89821926D01*
X112133261Y-89812000D01*
X112133260Y-89812000D01*
X111766740Y-89812000D01*
X111766739Y-89812000D01*
X111698608Y-89821926D01*
X111593514Y-89873303D01*
X111510799Y-89956018D01*
X111510705Y-89956151D01*
X111510528Y-89956289D01*
X111503536Y-89963282D01*
X111502690Y-89962436D01*
X111455726Y-89999269D01*
X111386164Y-90005818D01*
X111324104Y-89973719D01*
X111299309Y-89940386D01*
X111290972Y-89924023D01*
X111278079Y-89855355D01*
X111304358Y-89790615D01*
X111347001Y-89756333D01*
X111356483Y-89751698D01*
X111439198Y-89668983D01*
X111490573Y-89563893D01*
X111500500Y-89495760D01*
X111500500Y-88254240D01*
X111490573Y-88186107D01*
X111439198Y-88081017D01*
X111439196Y-88081015D01*
X111439196Y-88081014D01*
X111360814Y-88002632D01*
X111327329Y-87941309D01*
X111332313Y-87871617D01*
X111337305Y-87860259D01*
X111337501Y-87859658D01*
X111343470Y-87821972D01*
X111373399Y-87758837D01*
X111409644Y-87730886D01*
X111513342Y-87678050D01*
X111603050Y-87588342D01*
X111660646Y-87475304D01*
X111660646Y-87475302D01*
X111660647Y-87475301D01*
X111675499Y-87381524D01*
X111675500Y-87381519D01*
X111675499Y-86918482D01*
X111660646Y-86824696D01*
X111603050Y-86711658D01*
X111603046Y-86711654D01*
X111603045Y-86711652D01*
X111513347Y-86621954D01*
X111513344Y-86621952D01*
X111513342Y-86621950D01*
X111436517Y-86582805D01*
X111400301Y-86564352D01*
X111306524Y-86549500D01*
X110693482Y-86549500D01*
X110612519Y-86562323D01*
X110599696Y-86564354D01*
X110486658Y-86621950D01*
X110486657Y-86621951D01*
X110486652Y-86621954D01*
X110396954Y-86711652D01*
X110396951Y-86711657D01*
X110339352Y-86824698D01*
X110324500Y-86918475D01*
X110324500Y-87381517D01*
X110335292Y-87449657D01*
X110339354Y-87475304D01*
X110396950Y-87588342D01*
X110396952Y-87588344D01*
X110396954Y-87588347D01*
X110486652Y-87678045D01*
X110486654Y-87678046D01*
X110486658Y-87678050D01*
X110590352Y-87730885D01*
X110641147Y-87778859D01*
X110656529Y-87821969D01*
X110662499Y-87859660D01*
X110665514Y-87868937D01*
X110664010Y-87869425D01*
X110674885Y-87927322D01*
X110648611Y-87992063D01*
X110639186Y-88002632D01*
X110560802Y-88081016D01*
X110509426Y-88186108D01*
X110499500Y-88254239D01*
X110499500Y-89495760D01*
X110509426Y-89563891D01*
X110560803Y-89668985D01*
X110643515Y-89751697D01*
X110652998Y-89756333D01*
X110704581Y-89803460D01*
X110722496Y-89870994D01*
X110709026Y-89924025D01*
X110700693Y-89940381D01*
X110652721Y-89991178D01*
X110584900Y-90007976D01*
X110518764Y-89985441D01*
X110496467Y-89963278D01*
X110496464Y-89963282D01*
X110495283Y-89962101D01*
X110489289Y-89956143D01*
X110489199Y-89956017D01*
X110406485Y-89873303D01*
X110301391Y-89821926D01*
X110233261Y-89812000D01*
X110233260Y-89812000D01*
X109866740Y-89812000D01*
X109866739Y-89812000D01*
X109798608Y-89821926D01*
X109693514Y-89873303D01*
X109610803Y-89956014D01*
X109559426Y-90061108D01*
X109549500Y-90129239D01*
X109549500Y-91370760D01*
X109559426Y-91438891D01*
X109610803Y-91543985D01*
X109693513Y-91626695D01*
X109693514Y-91626695D01*
X109693517Y-91626698D01*
X109718573Y-91638946D01*
X109770153Y-91686071D01*
X109785729Y-91726154D01*
X109785998Y-91727509D01*
X109792735Y-91743772D01*
X109826192Y-91824544D01*
X109826193Y-91824545D01*
X110413966Y-92412318D01*
X110447451Y-92473641D01*
X110442467Y-92543333D01*
X110413966Y-92587680D01*
X110408956Y-92592690D01*
X110347633Y-92626175D01*
X110277941Y-92621191D01*
X110266821Y-92616412D01*
X110201393Y-92584427D01*
X110201391Y-92584426D01*
X110133261Y-92574500D01*
X110133260Y-92574500D01*
X109766740Y-92574500D01*
X109766739Y-92574500D01*
X109698608Y-92584426D01*
X109593514Y-92635803D01*
X109510803Y-92718514D01*
X109459426Y-92823608D01*
X109449500Y-92891739D01*
X100050500Y-92891739D01*
X100050500Y-77500000D01*
X111544355Y-77500000D01*
X111564859Y-77668869D01*
X111564860Y-77668874D01*
X111625182Y-77827931D01*
X111633658Y-77840210D01*
X111721817Y-77967929D01*
X111794219Y-78032071D01*
X111849150Y-78080736D01*
X111999773Y-78159789D01*
X111999775Y-78159790D01*
X112164944Y-78200500D01*
X112335054Y-78200500D01*
X112335056Y-78200500D01*
X112414844Y-78180834D01*
X112484644Y-78183903D01*
X112541706Y-78224222D01*
X112567911Y-78288992D01*
X112565435Y-78323643D01*
X112565764Y-78323683D01*
X112564957Y-78330322D01*
X112564917Y-78330894D01*
X112564860Y-78331122D01*
X112544355Y-78500000D01*
X112564859Y-78668869D01*
X112564860Y-78668874D01*
X112625182Y-78827931D01*
X112687475Y-78918177D01*
X112721817Y-78967929D01*
X112794219Y-79032071D01*
X112849150Y-79080736D01*
X112999773Y-79159789D01*
X112999775Y-79159790D01*
X113164944Y-79200500D01*
X113335054Y-79200500D01*
X113335056Y-79200500D01*
X113414844Y-79180834D01*
X113484644Y-79183903D01*
X113541706Y-79224222D01*
X113567911Y-79288992D01*
X113565435Y-79323643D01*
X113565764Y-79323683D01*
X113564957Y-79330322D01*
X113564917Y-79330894D01*
X113564860Y-79331122D01*
X113544355Y-79500000D01*
X113564859Y-79668869D01*
X113564860Y-79668874D01*
X113625182Y-79827931D01*
X113664229Y-79884499D01*
X113721817Y-79967929D01*
X113827505Y-80061560D01*
X113849150Y-80080736D01*
X113999773Y-80159789D01*
X113999775Y-80159790D01*
X114164944Y-80200500D01*
X114335056Y-80200500D01*
X114500225Y-80159790D01*
X114616875Y-80098566D01*
X114685380Y-80084841D01*
X114750434Y-80110333D01*
X114791378Y-80166948D01*
X114797595Y-80223306D01*
X114794355Y-80249995D01*
X114794355Y-80249999D01*
X114814859Y-80418869D01*
X114814860Y-80418874D01*
X114875182Y-80577931D01*
X114901116Y-80615502D01*
X114971817Y-80717929D01*
X115042588Y-80780626D01*
X115099150Y-80830736D01*
X115212456Y-80890204D01*
X115262669Y-80938789D01*
X115278643Y-81006808D01*
X115255308Y-81072665D01*
X115212456Y-81109796D01*
X115099150Y-81169263D01*
X114971816Y-81282072D01*
X114875182Y-81422068D01*
X114814860Y-81581125D01*
X114814859Y-81581130D01*
X114794355Y-81750000D01*
X114814859Y-81918869D01*
X114814860Y-81918874D01*
X114875182Y-82077931D01*
X114915719Y-82136658D01*
X114971817Y-82217929D01*
X115058701Y-82294901D01*
X115099150Y-82330736D01*
X115212456Y-82390204D01*
X115262669Y-82438789D01*
X115278643Y-82506808D01*
X115255308Y-82572665D01*
X115212456Y-82609796D01*
X115099150Y-82669263D01*
X114971816Y-82782072D01*
X114875182Y-82922068D01*
X114814860Y-83081125D01*
X114814859Y-83081130D01*
X114794355Y-83250000D01*
X114814859Y-83418869D01*
X114814860Y-83418874D01*
X114875182Y-83577931D01*
X114901116Y-83615502D01*
X114971817Y-83717929D01*
X115042588Y-83780626D01*
X115099150Y-83830736D01*
X115249773Y-83909789D01*
X115249775Y-83909790D01*
X115414944Y-83950500D01*
X115585056Y-83950500D01*
X115750225Y-83909790D01*
X115829692Y-83868081D01*
X115900849Y-83830736D01*
X115900850Y-83830734D01*
X115900852Y-83830734D01*
X116028183Y-83717929D01*
X116124818Y-83577930D01*
X116185140Y-83418872D01*
X116205645Y-83250000D01*
X116185140Y-83081128D01*
X116124818Y-82922070D01*
X116098884Y-82884499D01*
X116090476Y-82872318D01*
X116028183Y-82782071D01*
X115900852Y-82669266D01*
X115900850Y-82669265D01*
X115900849Y-82669264D01*
X115787543Y-82609796D01*
X115737331Y-82561212D01*
X115721356Y-82493193D01*
X115744691Y-82427335D01*
X115787543Y-82390204D01*
X115830603Y-82367604D01*
X115900852Y-82330734D01*
X116028183Y-82217929D01*
X116124818Y-82077930D01*
X116185140Y-81918872D01*
X116205645Y-81750000D01*
X116185140Y-81581128D01*
X116124818Y-81422070D01*
X116028183Y-81282071D01*
X115900852Y-81169266D01*
X115900850Y-81169265D01*
X115900849Y-81169264D01*
X115787543Y-81109796D01*
X115737331Y-81061212D01*
X115721356Y-80993193D01*
X115744691Y-80927335D01*
X115787543Y-80890204D01*
X115817699Y-80874376D01*
X115900852Y-80830734D01*
X116028183Y-80717929D01*
X116124818Y-80577930D01*
X116185140Y-80418872D01*
X116205645Y-80250000D01*
X116185140Y-80081128D01*
X116124818Y-79922070D01*
X116098884Y-79884499D01*
X116059837Y-79827930D01*
X116028183Y-79782071D01*
X115900852Y-79669266D01*
X115900849Y-79669263D01*
X115750226Y-79590210D01*
X115585056Y-79549500D01*
X115414944Y-79549500D01*
X115249773Y-79590210D01*
X115133126Y-79651432D01*
X115064618Y-79665158D01*
X114999564Y-79639665D01*
X114958620Y-79583050D01*
X114952404Y-79526689D01*
X114955645Y-79500000D01*
X114935140Y-79331128D01*
X114874818Y-79172070D01*
X114778183Y-79032071D01*
X114650852Y-78919266D01*
X114650849Y-78919263D01*
X114500226Y-78840210D01*
X114335056Y-78799500D01*
X114164944Y-78799500D01*
X114164942Y-78799500D01*
X114085156Y-78819165D01*
X114015354Y-78816095D01*
X113958292Y-78775775D01*
X113932087Y-78711006D01*
X113934566Y-78676357D01*
X113934236Y-78676317D01*
X113935048Y-78669627D01*
X113935087Y-78669086D01*
X113935140Y-78668870D01*
X113935140Y-78668869D01*
X113955645Y-78500000D01*
X113935140Y-78331128D01*
X113874818Y-78172070D01*
X113868212Y-78162500D01*
X113811773Y-78080734D01*
X113778183Y-78032071D01*
X113650852Y-77919266D01*
X113650849Y-77919263D01*
X113500226Y-77840210D01*
X113335056Y-77799500D01*
X113164944Y-77799500D01*
X113164942Y-77799500D01*
X113085156Y-77819165D01*
X113015354Y-77816095D01*
X112958292Y-77775775D01*
X112932087Y-77711006D01*
X112934566Y-77676357D01*
X112934236Y-77676317D01*
X112935048Y-77669627D01*
X112935087Y-77669086D01*
X112935140Y-77668870D01*
X112936569Y-77657101D01*
X112955645Y-77500000D01*
X112935140Y-77331128D01*
X112929441Y-77316102D01*
X112904016Y-77249059D01*
X112874818Y-77172070D01*
X112860726Y-77151655D01*
X112836912Y-77117154D01*
X112778183Y-77032071D01*
X112650852Y-76919266D01*
X112650849Y-76919263D01*
X112500226Y-76840210D01*
X112335056Y-76799500D01*
X112164944Y-76799500D01*
X111999773Y-76840210D01*
X111849150Y-76919263D01*
X111721816Y-77032072D01*
X111625182Y-77172068D01*
X111564860Y-77331125D01*
X111564859Y-77331130D01*
X111544355Y-77500000D01*
X100050500Y-77500000D01*
X100050500Y-70250000D01*
X101294355Y-70250000D01*
X101296141Y-70264712D01*
X101298596Y-70284926D01*
X101299500Y-70299873D01*
X101299500Y-70318991D01*
X101306882Y-70356105D01*
X101308360Y-70365347D01*
X101314859Y-70418870D01*
X101314860Y-70418871D01*
X101320678Y-70434212D01*
X101326354Y-70453995D01*
X101326420Y-70454327D01*
X101326420Y-70454329D01*
X101348046Y-70506538D01*
X101349427Y-70510019D01*
X101375182Y-70577930D01*
X101375183Y-70577931D01*
X101419983Y-70642836D01*
X101421035Y-70644385D01*
X101455885Y-70696541D01*
X101459751Y-70701252D01*
X101459371Y-70701563D01*
X101466061Y-70709590D01*
X101471817Y-70717929D01*
X101471817Y-70717930D01*
X101516845Y-70757821D01*
X101522299Y-70762955D01*
X101553458Y-70794114D01*
X101564154Y-70801261D01*
X101577485Y-70811543D01*
X101599148Y-70830734D01*
X101599150Y-70830735D01*
X101599151Y-70830736D01*
X101635836Y-70849990D01*
X101647097Y-70856681D01*
X101668189Y-70870775D01*
X101697398Y-70882874D01*
X101707559Y-70887633D01*
X101722093Y-70895261D01*
X101749772Y-70909789D01*
X101749774Y-70909789D01*
X101749775Y-70909790D01*
X101763457Y-70913162D01*
X101771791Y-70915216D01*
X101789571Y-70921052D01*
X101795672Y-70923580D01*
X101845023Y-70933396D01*
X101850473Y-70934609D01*
X101914944Y-70950500D01*
X101914945Y-70950500D01*
X102493995Y-70950500D01*
X102630676Y-70923312D01*
X102674263Y-70922456D01*
X102693481Y-70925500D01*
X103156518Y-70925499D01*
X103250304Y-70910646D01*
X103363342Y-70853050D01*
X103453050Y-70763342D01*
X103510646Y-70650304D01*
X103510646Y-70650302D01*
X103510647Y-70650301D01*
X103525499Y-70556524D01*
X103525500Y-70556519D01*
X103525499Y-69943482D01*
X103525498Y-69943475D01*
X103974500Y-69943475D01*
X103974500Y-70556517D01*
X103977892Y-70577931D01*
X103989354Y-70650304D01*
X104046950Y-70763342D01*
X104046952Y-70763344D01*
X104046954Y-70763347D01*
X104136652Y-70853045D01*
X104136654Y-70853046D01*
X104136658Y-70853050D01*
X104248014Y-70909789D01*
X104249698Y-70910647D01*
X104343475Y-70925499D01*
X104343481Y-70925500D01*
X104806518Y-70925499D01*
X104900304Y-70910646D01*
X105013342Y-70853050D01*
X105060748Y-70805643D01*
X105122067Y-70772160D01*
X105191758Y-70777143D01*
X105236108Y-70805645D01*
X108699681Y-74269218D01*
X108733166Y-74330541D01*
X108736000Y-74356899D01*
X108736000Y-74719335D01*
X108716315Y-74786374D01*
X108713006Y-74791213D01*
X108662498Y-74890341D01*
X108645131Y-74999997D01*
X108645131Y-75000002D01*
X108662498Y-75109658D01*
X108712904Y-75208585D01*
X108712909Y-75208592D01*
X108791407Y-75287090D01*
X108791410Y-75287092D01*
X108791413Y-75287095D01*
X108857954Y-75320999D01*
X108890341Y-75337501D01*
X108999998Y-75354869D01*
X109000000Y-75354869D01*
X109000002Y-75354869D01*
X109109658Y-75337501D01*
X109109659Y-75337500D01*
X109109661Y-75337500D01*
X109208587Y-75287095D01*
X109287095Y-75208587D01*
X109337500Y-75109661D01*
X109337500Y-75109659D01*
X109337501Y-75109658D01*
X109354869Y-75000002D01*
X109354869Y-74999997D01*
X109337501Y-74890341D01*
X109282664Y-74782717D01*
X109284039Y-74782016D01*
X109264202Y-74726406D01*
X109264000Y-74719335D01*
X109264000Y-74143673D01*
X109264000Y-74143672D01*
X109223808Y-74046641D01*
X109149544Y-73972377D01*
X106263342Y-71086175D01*
X106229857Y-71024852D01*
X106234841Y-70955160D01*
X106276713Y-70899227D01*
X106294718Y-70888015D01*
X106363342Y-70853050D01*
X106453050Y-70763342D01*
X106510646Y-70650304D01*
X106510646Y-70650302D01*
X106510647Y-70650301D01*
X106525499Y-70556524D01*
X106525500Y-70556519D01*
X106525499Y-69943482D01*
X106510646Y-69849696D01*
X106453050Y-69736658D01*
X106453046Y-69736654D01*
X106453045Y-69736652D01*
X106363347Y-69646954D01*
X106363344Y-69646952D01*
X106363342Y-69646950D01*
X106286517Y-69607805D01*
X106250301Y-69589352D01*
X106156524Y-69574500D01*
X105693482Y-69574500D01*
X105612519Y-69587323D01*
X105599696Y-69589354D01*
X105486658Y-69646950D01*
X105486657Y-69646951D01*
X105486652Y-69646954D01*
X105396954Y-69736652D01*
X105396949Y-69736659D01*
X105360483Y-69808226D01*
X105312508Y-69859022D01*
X105244687Y-69875816D01*
X105178552Y-69853278D01*
X105139516Y-69808226D01*
X105103050Y-69736658D01*
X105103047Y-69736655D01*
X105103045Y-69736652D01*
X105013347Y-69646954D01*
X105013344Y-69646952D01*
X105013342Y-69646950D01*
X104936517Y-69607805D01*
X104900301Y-69589352D01*
X104806524Y-69574500D01*
X104343482Y-69574500D01*
X104262519Y-69587323D01*
X104249696Y-69589354D01*
X104136658Y-69646950D01*
X104136657Y-69646951D01*
X104136652Y-69646954D01*
X104046954Y-69736652D01*
X104046951Y-69736657D01*
X104046950Y-69736658D01*
X104046748Y-69737055D01*
X103989352Y-69849698D01*
X103974500Y-69943475D01*
X103525498Y-69943475D01*
X103510646Y-69849696D01*
X103453050Y-69736658D01*
X103453046Y-69736654D01*
X103453045Y-69736652D01*
X103363347Y-69646954D01*
X103363344Y-69646952D01*
X103363342Y-69646950D01*
X103286517Y-69607805D01*
X103250301Y-69589352D01*
X103156524Y-69574500D01*
X102693479Y-69574500D01*
X102693475Y-69574501D01*
X102674257Y-69577544D01*
X102630675Y-69576687D01*
X102493997Y-69549500D01*
X102493993Y-69549500D01*
X102085056Y-69549500D01*
X101914944Y-69549500D01*
X101914940Y-69549500D01*
X101850486Y-69565386D01*
X101845006Y-69566606D01*
X101795673Y-69576419D01*
X101789566Y-69578949D01*
X101771797Y-69584781D01*
X101749776Y-69590209D01*
X101707561Y-69612365D01*
X101697393Y-69617127D01*
X101668187Y-69629225D01*
X101647091Y-69643320D01*
X101635837Y-69650008D01*
X101599147Y-69669266D01*
X101599144Y-69669268D01*
X101577486Y-69688454D01*
X101564166Y-69698729D01*
X101553464Y-69705880D01*
X101553458Y-69705886D01*
X101522287Y-69737055D01*
X101516838Y-69742183D01*
X101471820Y-69782067D01*
X101466053Y-69790421D01*
X101459391Y-69798447D01*
X101459753Y-69798744D01*
X101455887Y-69803455D01*
X101421023Y-69855631D01*
X101419973Y-69857177D01*
X101375185Y-69922063D01*
X101375181Y-69922071D01*
X101349436Y-69989953D01*
X101348058Y-69993428D01*
X101326419Y-70045673D01*
X101326418Y-70045678D01*
X101326353Y-70046006D01*
X101320680Y-70065781D01*
X101314859Y-70081129D01*
X101308362Y-70134640D01*
X101306884Y-70143881D01*
X101299500Y-70181006D01*
X101299500Y-70200125D01*
X101298596Y-70215071D01*
X101294355Y-70250000D01*
X100050500Y-70250000D01*
X100050500Y-67610247D01*
X110479500Y-67610247D01*
X110479500Y-68289752D01*
X110491131Y-68348229D01*
X110491132Y-68348230D01*
X110535447Y-68414552D01*
X110601769Y-68458867D01*
X110601770Y-68458868D01*
X110660247Y-68470499D01*
X110660250Y-68470500D01*
X110660252Y-68470500D01*
X111339750Y-68470500D01*
X111339751Y-68470499D01*
X111354568Y-68467552D01*
X111398229Y-68458868D01*
X111398229Y-68458867D01*
X111398231Y-68458867D01*
X111464552Y-68414552D01*
X111508867Y-68348231D01*
X111508867Y-68348229D01*
X111508868Y-68348229D01*
X111520499Y-68289752D01*
X111520500Y-68289750D01*
X111520500Y-67610249D01*
X111520499Y-67610247D01*
X111508868Y-67551770D01*
X111508867Y-67551769D01*
X111464552Y-67485447D01*
X111398230Y-67441132D01*
X111398229Y-67441131D01*
X111339752Y-67429500D01*
X111339748Y-67429500D01*
X110660252Y-67429500D01*
X110660247Y-67429500D01*
X110601770Y-67441131D01*
X110601769Y-67441132D01*
X110535447Y-67485447D01*
X110491132Y-67551769D01*
X110491131Y-67551770D01*
X110479500Y-67610247D01*
X100050500Y-67610247D01*
X100050500Y-63750000D01*
X114144485Y-63750000D01*
X114164543Y-64439342D01*
X114164543Y-64439346D01*
X114220908Y-65083590D01*
X114224648Y-65126341D01*
X114324597Y-65808689D01*
X114324598Y-65808697D01*
X114324600Y-65808706D01*
X114464047Y-66484050D01*
X114464051Y-66484067D01*
X114642537Y-67150187D01*
X114642544Y-67150210D01*
X114859455Y-67804812D01*
X115101688Y-68414552D01*
X115114075Y-68445730D01*
X115405525Y-69070745D01*
X115405531Y-69070757D01*
X115405536Y-69070766D01*
X115732816Y-69677746D01*
X115732829Y-69677768D01*
X116094848Y-70264691D01*
X116094858Y-70264705D01*
X116094862Y-70264712D01*
X116490416Y-70829623D01*
X116491296Y-70830736D01*
X116864266Y-71302433D01*
X116918149Y-71370578D01*
X117376611Y-71885748D01*
X117376613Y-71885750D01*
X117376629Y-71885767D01*
X117864232Y-72373370D01*
X117864249Y-72373386D01*
X117864252Y-72373389D01*
X118379422Y-72831851D01*
X118920377Y-73259584D01*
X119485288Y-73655138D01*
X120072243Y-74017177D01*
X120679255Y-74344475D01*
X121304270Y-74635925D01*
X121945175Y-74890540D01*
X122599800Y-75107459D01*
X123265930Y-75285948D01*
X123265946Y-75285951D01*
X123265949Y-75285952D01*
X123271485Y-75287095D01*
X123941311Y-75425403D01*
X124623659Y-75525352D01*
X125310663Y-75585457D01*
X126000000Y-75605515D01*
X126689337Y-75585457D01*
X127376341Y-75525352D01*
X128058689Y-75425403D01*
X128734070Y-75285948D01*
X129400200Y-75107459D01*
X130054825Y-74890540D01*
X130695730Y-74635925D01*
X131320745Y-74344475D01*
X131927758Y-74017177D01*
X132514712Y-73655138D01*
X133079623Y-73259584D01*
X133620578Y-72831851D01*
X134135748Y-72373389D01*
X134623389Y-71885748D01*
X135081851Y-71370578D01*
X135509584Y-70829623D01*
X135905138Y-70264712D01*
X136267177Y-69677758D01*
X136594475Y-69070745D01*
X136627465Y-68999997D01*
X147145131Y-68999997D01*
X147145131Y-69000002D01*
X147162498Y-69109658D01*
X147212904Y-69208585D01*
X147212909Y-69208592D01*
X147291407Y-69287090D01*
X147291410Y-69287092D01*
X147291413Y-69287095D01*
X147390339Y-69337500D01*
X147390341Y-69337501D01*
X147499998Y-69354869D01*
X147500000Y-69354869D01*
X147500002Y-69354869D01*
X147609658Y-69337501D01*
X147609659Y-69337500D01*
X147609661Y-69337500D01*
X147708587Y-69287095D01*
X147787095Y-69208587D01*
X147837500Y-69109661D01*
X147837500Y-69109659D01*
X147837501Y-69109658D01*
X147854869Y-69000002D01*
X147854869Y-68999997D01*
X147837501Y-68890341D01*
X147837500Y-68890339D01*
X147787095Y-68791413D01*
X147787092Y-68791410D01*
X147787090Y-68791407D01*
X147708592Y-68712909D01*
X147708588Y-68712906D01*
X147708587Y-68712905D01*
X147704743Y-68710946D01*
X147609658Y-68662498D01*
X147500002Y-68645131D01*
X147499998Y-68645131D01*
X147390341Y-68662498D01*
X147291414Y-68712904D01*
X147291407Y-68712909D01*
X147212909Y-68791407D01*
X147212904Y-68791414D01*
X147162498Y-68890341D01*
X147145131Y-68999997D01*
X136627465Y-68999997D01*
X136885925Y-68445730D01*
X137140540Y-67804825D01*
X137158708Y-67749997D01*
X158895131Y-67749997D01*
X158895131Y-67750002D01*
X158912498Y-67859658D01*
X158962904Y-67958585D01*
X158962909Y-67958592D01*
X159041407Y-68037090D01*
X159041410Y-68037092D01*
X159041413Y-68037095D01*
X159140339Y-68087500D01*
X159140341Y-68087501D01*
X159249998Y-68104869D01*
X159250000Y-68104869D01*
X159250002Y-68104869D01*
X159359658Y-68087501D01*
X159359659Y-68087500D01*
X159359661Y-68087500D01*
X159458587Y-68037095D01*
X159495685Y-67999997D01*
X163895131Y-67999997D01*
X163895131Y-68000002D01*
X163912498Y-68109658D01*
X163962904Y-68208585D01*
X163962909Y-68208592D01*
X164041407Y-68287090D01*
X164041410Y-68287092D01*
X164041413Y-68287095D01*
X164140339Y-68337500D01*
X164140341Y-68337501D01*
X164249998Y-68354869D01*
X164250000Y-68354869D01*
X164250002Y-68354869D01*
X164359658Y-68337501D01*
X164359659Y-68337500D01*
X164359661Y-68337500D01*
X164458587Y-68287095D01*
X164537095Y-68208587D01*
X164587500Y-68109661D01*
X164587500Y-68109659D01*
X164587501Y-68109658D01*
X164604869Y-68000002D01*
X164604869Y-67999997D01*
X164587501Y-67890341D01*
X164571867Y-67859658D01*
X164537095Y-67791413D01*
X164537092Y-67791410D01*
X164537090Y-67791407D01*
X164458592Y-67712909D01*
X164458588Y-67712906D01*
X164458587Y-67712905D01*
X164454743Y-67710946D01*
X164359658Y-67662498D01*
X164250002Y-67645131D01*
X164249998Y-67645131D01*
X164140341Y-67662498D01*
X164041414Y-67712904D01*
X164041407Y-67712909D01*
X163962909Y-67791407D01*
X163962904Y-67791414D01*
X163912498Y-67890341D01*
X163895131Y-67999997D01*
X159495685Y-67999997D01*
X159537095Y-67958587D01*
X159587500Y-67859661D01*
X159587500Y-67859659D01*
X159587501Y-67859658D01*
X159604869Y-67750002D01*
X159604869Y-67749997D01*
X159587501Y-67640341D01*
X159542372Y-67551770D01*
X159537095Y-67541413D01*
X159537092Y-67541410D01*
X159537090Y-67541407D01*
X159458592Y-67462909D01*
X159458588Y-67462906D01*
X159458587Y-67462905D01*
X159393026Y-67429500D01*
X159359658Y-67412498D01*
X159250002Y-67395131D01*
X159249998Y-67395131D01*
X159140341Y-67412498D01*
X159041414Y-67462904D01*
X159041407Y-67462909D01*
X158962909Y-67541407D01*
X158962904Y-67541414D01*
X158912498Y-67640341D01*
X158895131Y-67749997D01*
X137158708Y-67749997D01*
X137357459Y-67150200D01*
X137464693Y-66749997D01*
X139895131Y-66749997D01*
X139895131Y-66750002D01*
X139912498Y-66859658D01*
X139962904Y-66958585D01*
X139962909Y-66958592D01*
X140041407Y-67037090D01*
X140041410Y-67037092D01*
X140041413Y-67037095D01*
X140140339Y-67087500D01*
X140140341Y-67087501D01*
X140249998Y-67104869D01*
X140250000Y-67104869D01*
X140250002Y-67104869D01*
X140359658Y-67087501D01*
X140359659Y-67087500D01*
X140359661Y-67087500D01*
X140458587Y-67037095D01*
X140537095Y-66958587D01*
X140587500Y-66859661D01*
X140587500Y-66859659D01*
X140587501Y-66859658D01*
X140604869Y-66750002D01*
X140604869Y-66749997D01*
X140587501Y-66640341D01*
X140587500Y-66640339D01*
X140537095Y-66541413D01*
X140537092Y-66541410D01*
X140537090Y-66541407D01*
X140458592Y-66462909D01*
X140458588Y-66462906D01*
X140458587Y-66462905D01*
X140452142Y-66459621D01*
X140359658Y-66412498D01*
X140250002Y-66395131D01*
X140249998Y-66395131D01*
X140140341Y-66412498D01*
X140041414Y-66462904D01*
X140041407Y-66462909D01*
X139962909Y-66541407D01*
X139962904Y-66541414D01*
X139912498Y-66640341D01*
X139895131Y-66749997D01*
X137464693Y-66749997D01*
X137535948Y-66484070D01*
X137673067Y-65820000D01*
X142194417Y-65820000D01*
X142214699Y-66025932D01*
X142217733Y-66035934D01*
X142274768Y-66223954D01*
X142372315Y-66406450D01*
X142406969Y-66448677D01*
X142503589Y-66566410D01*
X142593673Y-66640339D01*
X142663550Y-66697685D01*
X142846046Y-66795232D01*
X143044066Y-66855300D01*
X143044065Y-66855300D01*
X143062529Y-66857118D01*
X143250000Y-66875583D01*
X143455934Y-66855300D01*
X143653954Y-66795232D01*
X143836450Y-66697685D01*
X143996410Y-66566410D01*
X144127685Y-66406450D01*
X144225232Y-66223954D01*
X144285300Y-66025934D01*
X144304598Y-65830000D01*
X148694417Y-65830000D01*
X148714699Y-66035932D01*
X148714700Y-66035934D01*
X148774768Y-66233954D01*
X148872315Y-66416450D01*
X148872317Y-66416452D01*
X149003589Y-66576410D01*
X149100209Y-66655702D01*
X149163550Y-66707685D01*
X149346046Y-66805232D01*
X149544066Y-66865300D01*
X149544065Y-66865300D01*
X149562529Y-66867118D01*
X149750000Y-66885583D01*
X149955934Y-66865300D01*
X150153954Y-66805232D01*
X150336450Y-66707685D01*
X150496410Y-66576410D01*
X150627685Y-66416450D01*
X150725232Y-66233954D01*
X150785300Y-66035934D01*
X150805583Y-65830000D01*
X155194417Y-65830000D01*
X155214699Y-66035932D01*
X155214700Y-66035934D01*
X155274768Y-66233954D01*
X155372315Y-66416450D01*
X155372317Y-66416452D01*
X155503589Y-66576410D01*
X155600209Y-66655702D01*
X155663550Y-66707685D01*
X155846046Y-66805232D01*
X156044066Y-66865300D01*
X156044065Y-66865300D01*
X156062529Y-66867118D01*
X156250000Y-66885583D01*
X156455934Y-66865300D01*
X156653954Y-66805232D01*
X156836450Y-66707685D01*
X156996410Y-66576410D01*
X157127685Y-66416450D01*
X157225232Y-66233954D01*
X157285300Y-66035934D01*
X157305583Y-65830000D01*
X157285300Y-65624066D01*
X157225232Y-65426046D01*
X157127685Y-65243550D01*
X157031495Y-65126341D01*
X156996410Y-65083589D01*
X156836452Y-64952317D01*
X156836453Y-64952317D01*
X156836450Y-64952315D01*
X156653954Y-64854768D01*
X156455934Y-64794700D01*
X156455932Y-64794699D01*
X156455934Y-64794699D01*
X156250000Y-64774417D01*
X156044067Y-64794699D01*
X155846043Y-64854769D01*
X155735898Y-64913643D01*
X155663550Y-64952315D01*
X155663548Y-64952316D01*
X155663547Y-64952317D01*
X155503589Y-65083589D01*
X155372317Y-65243547D01*
X155274769Y-65426043D01*
X155214699Y-65624067D01*
X155194417Y-65830000D01*
X150805583Y-65830000D01*
X150785300Y-65624066D01*
X150725232Y-65426046D01*
X150627685Y-65243550D01*
X150531495Y-65126341D01*
X150496410Y-65083589D01*
X150336452Y-64952317D01*
X150336453Y-64952317D01*
X150336450Y-64952315D01*
X150153954Y-64854768D01*
X149955934Y-64794700D01*
X149955932Y-64794699D01*
X149955934Y-64794699D01*
X149750000Y-64774417D01*
X149544067Y-64794699D01*
X149346043Y-64854769D01*
X149235898Y-64913643D01*
X149163550Y-64952315D01*
X149163548Y-64952316D01*
X149163547Y-64952317D01*
X149003589Y-65083589D01*
X148872317Y-65243547D01*
X148774769Y-65426043D01*
X148714699Y-65624067D01*
X148694417Y-65830000D01*
X144304598Y-65830000D01*
X144305583Y-65820000D01*
X144285300Y-65614066D01*
X144225232Y-65416046D01*
X144127685Y-65233550D01*
X144075702Y-65170209D01*
X143996410Y-65073589D01*
X143878677Y-64976969D01*
X143836450Y-64942315D01*
X143653954Y-64844768D01*
X143455934Y-64784700D01*
X143455932Y-64784699D01*
X143455934Y-64784699D01*
X143250000Y-64764417D01*
X143044067Y-64784699D01*
X142846043Y-64844769D01*
X142735898Y-64903643D01*
X142663550Y-64942315D01*
X142663548Y-64942316D01*
X142663547Y-64942317D01*
X142503589Y-65073589D01*
X142372317Y-65233547D01*
X142372315Y-65233550D01*
X142366970Y-65243550D01*
X142274769Y-65416043D01*
X142274768Y-65416045D01*
X142274768Y-65416046D01*
X142271735Y-65426046D01*
X142214699Y-65614067D01*
X142194417Y-65820000D01*
X137673067Y-65820000D01*
X137675403Y-65808689D01*
X137775352Y-65126341D01*
X137835457Y-64439337D01*
X137855515Y-63750000D01*
X137842130Y-63290000D01*
X161694417Y-63290000D01*
X161714699Y-63495932D01*
X161714700Y-63495934D01*
X161774768Y-63693954D01*
X161872315Y-63876450D01*
X161872317Y-63876452D01*
X162003589Y-64036410D01*
X162100209Y-64115702D01*
X162163550Y-64167685D01*
X162346046Y-64265232D01*
X162544066Y-64325300D01*
X162544065Y-64325300D01*
X162562529Y-64327118D01*
X162750000Y-64345583D01*
X162955934Y-64325300D01*
X163153954Y-64265232D01*
X163336450Y-64167685D01*
X163496410Y-64036410D01*
X163627685Y-63876450D01*
X163725232Y-63693954D01*
X163785300Y-63495934D01*
X163805583Y-63290000D01*
X163785300Y-63084066D01*
X163725232Y-62886046D01*
X163627685Y-62703550D01*
X163575702Y-62640209D01*
X163496410Y-62543589D01*
X163336452Y-62412317D01*
X163336453Y-62412317D01*
X163336450Y-62412315D01*
X163153954Y-62314768D01*
X162955934Y-62254700D01*
X162955932Y-62254699D01*
X162955934Y-62254699D01*
X162750000Y-62234417D01*
X162544067Y-62254699D01*
X162346043Y-62314769D01*
X162235898Y-62373643D01*
X162163550Y-62412315D01*
X162163548Y-62412316D01*
X162163547Y-62412317D01*
X162003589Y-62543589D01*
X161872317Y-62703547D01*
X161774769Y-62886043D01*
X161714699Y-63084067D01*
X161694417Y-63290000D01*
X137842130Y-63290000D01*
X137835457Y-63060663D01*
X137775352Y-62373659D01*
X137675403Y-61691311D01*
X137535948Y-61015930D01*
X137357459Y-60349800D01*
X137265886Y-60073451D01*
X137263485Y-60003625D01*
X137299217Y-59943584D01*
X137319791Y-59928124D01*
X138164887Y-59421067D01*
X138232498Y-59403456D01*
X138298900Y-59425194D01*
X138316363Y-59439716D01*
X139212691Y-60336043D01*
X139840456Y-60963808D01*
X139937487Y-61004000D01*
X140042512Y-61004000D01*
X142140349Y-61004000D01*
X142207388Y-61023685D01*
X142253143Y-61076489D01*
X142259009Y-61092004D01*
X142274768Y-61143954D01*
X142372315Y-61326450D01*
X142406969Y-61368677D01*
X142503589Y-61486410D01*
X142600209Y-61565702D01*
X142663550Y-61617685D01*
X142846046Y-61715232D01*
X143044066Y-61775300D01*
X143044065Y-61775300D01*
X143062529Y-61777118D01*
X143250000Y-61795583D01*
X143455934Y-61775300D01*
X143653954Y-61715232D01*
X143836450Y-61617685D01*
X143996410Y-61486410D01*
X144127685Y-61326450D01*
X144225232Y-61143954D01*
X144285300Y-60945934D01*
X144304598Y-60750000D01*
X148694417Y-60750000D01*
X148714699Y-60955932D01*
X148729280Y-61003999D01*
X148774768Y-61153954D01*
X148872315Y-61336450D01*
X148872317Y-61336452D01*
X149003589Y-61496410D01*
X149100209Y-61575702D01*
X149163550Y-61627685D01*
X149346046Y-61725232D01*
X149544066Y-61785300D01*
X149544065Y-61785300D01*
X149562529Y-61787118D01*
X149750000Y-61805583D01*
X149955934Y-61785300D01*
X150153954Y-61725232D01*
X150336450Y-61627685D01*
X150496410Y-61496410D01*
X150627685Y-61336450D01*
X150725232Y-61153954D01*
X150785300Y-60955934D01*
X150805583Y-60750000D01*
X155194417Y-60750000D01*
X155214699Y-60955932D01*
X155229280Y-61003999D01*
X155274768Y-61153954D01*
X155372315Y-61336450D01*
X155372317Y-61336452D01*
X155503589Y-61496410D01*
X155600209Y-61575702D01*
X155663550Y-61627685D01*
X155846046Y-61725232D01*
X156044066Y-61785300D01*
X156044065Y-61785300D01*
X156062529Y-61787118D01*
X156250000Y-61805583D01*
X156455934Y-61785300D01*
X156653954Y-61725232D01*
X156836450Y-61627685D01*
X156996410Y-61496410D01*
X157127685Y-61336450D01*
X157225232Y-61153954D01*
X157285300Y-60955934D01*
X157305583Y-60750000D01*
X161694417Y-60750000D01*
X161714699Y-60955932D01*
X161729280Y-61003999D01*
X161774768Y-61153954D01*
X161872315Y-61336450D01*
X161872317Y-61336452D01*
X162003589Y-61496410D01*
X162100209Y-61575702D01*
X162163550Y-61627685D01*
X162346046Y-61725232D01*
X162544066Y-61785300D01*
X162544065Y-61785300D01*
X162562529Y-61787118D01*
X162750000Y-61805583D01*
X162955934Y-61785300D01*
X163153954Y-61725232D01*
X163336450Y-61627685D01*
X163496410Y-61496410D01*
X163627685Y-61336450D01*
X163725232Y-61153954D01*
X163785300Y-60955934D01*
X163805583Y-60750000D01*
X163785300Y-60544066D01*
X163725232Y-60346046D01*
X163627685Y-60163550D01*
X163553746Y-60073454D01*
X163496410Y-60003589D01*
X163378677Y-59906969D01*
X163336450Y-59872315D01*
X163153954Y-59774768D01*
X162955934Y-59714700D01*
X162955932Y-59714699D01*
X162955934Y-59714699D01*
X162750000Y-59694417D01*
X162544067Y-59714699D01*
X162346043Y-59774769D01*
X162235898Y-59833643D01*
X162163550Y-59872315D01*
X162163548Y-59872316D01*
X162163547Y-59872317D01*
X162003589Y-60003589D01*
X161872317Y-60163547D01*
X161774769Y-60346043D01*
X161714699Y-60544067D01*
X161694417Y-60750000D01*
X157305583Y-60750000D01*
X157285300Y-60544066D01*
X157225232Y-60346046D01*
X157127685Y-60163550D01*
X157053746Y-60073454D01*
X156996410Y-60003589D01*
X156878677Y-59906969D01*
X156836450Y-59872315D01*
X156653954Y-59774768D01*
X156455934Y-59714700D01*
X156455932Y-59714699D01*
X156455934Y-59714699D01*
X156250000Y-59694417D01*
X156044067Y-59714699D01*
X155846043Y-59774769D01*
X155735898Y-59833643D01*
X155663550Y-59872315D01*
X155663548Y-59872316D01*
X155663547Y-59872317D01*
X155503589Y-60003589D01*
X155372317Y-60163547D01*
X155274769Y-60346043D01*
X155214699Y-60544067D01*
X155194417Y-60750000D01*
X150805583Y-60750000D01*
X150785300Y-60544066D01*
X150725232Y-60346046D01*
X150627685Y-60163550D01*
X150553746Y-60073454D01*
X150496410Y-60003589D01*
X150378677Y-59906969D01*
X150336450Y-59872315D01*
X150153954Y-59774768D01*
X149955934Y-59714700D01*
X149955932Y-59714699D01*
X149955934Y-59714699D01*
X149750000Y-59694417D01*
X149544067Y-59714699D01*
X149346043Y-59774769D01*
X149235898Y-59833643D01*
X149163550Y-59872315D01*
X149163548Y-59872316D01*
X149163547Y-59872317D01*
X149003589Y-60003589D01*
X148872317Y-60163547D01*
X148774769Y-60346043D01*
X148714699Y-60544067D01*
X148694417Y-60750000D01*
X144304598Y-60750000D01*
X144305583Y-60740000D01*
X144285300Y-60534066D01*
X144225232Y-60336046D01*
X144127685Y-60153550D01*
X144061952Y-60073454D01*
X143996410Y-59993589D01*
X143878677Y-59896969D01*
X143836450Y-59862315D01*
X143653954Y-59764768D01*
X143455934Y-59704700D01*
X143455932Y-59704699D01*
X143455934Y-59704699D01*
X143250000Y-59684417D01*
X143044067Y-59704699D01*
X142846043Y-59764769D01*
X142804275Y-59787095D01*
X142663550Y-59862315D01*
X142663548Y-59862316D01*
X142663547Y-59862317D01*
X142503589Y-59993589D01*
X142372317Y-60153547D01*
X142372315Y-60153550D01*
X142366970Y-60163550D01*
X142274769Y-60336043D01*
X142274767Y-60336048D01*
X142259009Y-60387996D01*
X142220712Y-60446434D01*
X142156899Y-60474891D01*
X142140349Y-60476000D01*
X140150714Y-60476000D01*
X140083675Y-60456315D01*
X140063033Y-60439681D01*
X139123349Y-59499997D01*
X140485131Y-59499997D01*
X140485131Y-59500002D01*
X140502498Y-59609658D01*
X140552904Y-59708585D01*
X140552909Y-59708592D01*
X140631407Y-59787090D01*
X140631410Y-59787092D01*
X140631413Y-59787095D01*
X140730339Y-59837500D01*
X140730341Y-59837501D01*
X140839998Y-59854869D01*
X140840000Y-59854869D01*
X140840002Y-59854869D01*
X140949658Y-59837501D01*
X140949659Y-59837500D01*
X140949661Y-59837500D01*
X141048587Y-59787095D01*
X141127095Y-59708587D01*
X141177500Y-59609661D01*
X141177500Y-59609659D01*
X141177501Y-59609658D01*
X141194869Y-59500002D01*
X141194869Y-59499997D01*
X141177501Y-59390341D01*
X141159191Y-59354406D01*
X141127095Y-59291413D01*
X141127092Y-59291410D01*
X141127090Y-59291407D01*
X141048592Y-59212909D01*
X141048588Y-59212906D01*
X141048587Y-59212905D01*
X141012567Y-59194552D01*
X140949658Y-59162498D01*
X140840002Y-59145131D01*
X140839998Y-59145131D01*
X140730341Y-59162498D01*
X140631414Y-59212904D01*
X140631407Y-59212909D01*
X140552909Y-59291407D01*
X140552904Y-59291414D01*
X140502498Y-59390341D01*
X140485131Y-59499997D01*
X139123349Y-59499997D01*
X137873349Y-58249997D01*
X139735131Y-58249997D01*
X139735131Y-58250002D01*
X139752498Y-58359658D01*
X139802904Y-58458585D01*
X139802909Y-58458592D01*
X139881407Y-58537090D01*
X139881410Y-58537092D01*
X139881413Y-58537095D01*
X139980339Y-58587500D01*
X139980341Y-58587501D01*
X140089998Y-58604869D01*
X140090000Y-58604869D01*
X140090002Y-58604869D01*
X140199658Y-58587501D01*
X140199659Y-58587500D01*
X140199661Y-58587500D01*
X140298587Y-58537095D01*
X140377095Y-58458587D01*
X140427500Y-58359661D01*
X140427500Y-58359659D01*
X140427501Y-58359658D01*
X140444869Y-58250002D01*
X140444869Y-58249997D01*
X140427501Y-58140341D01*
X140427500Y-58140339D01*
X140377095Y-58041413D01*
X140377092Y-58041410D01*
X140377090Y-58041407D01*
X140298592Y-57962909D01*
X140298588Y-57962906D01*
X140298587Y-57962905D01*
X140294743Y-57960946D01*
X140199658Y-57912498D01*
X140090002Y-57895131D01*
X140089998Y-57895131D01*
X139980341Y-57912498D01*
X139881414Y-57962904D01*
X139881407Y-57962909D01*
X139802909Y-58041407D01*
X139802904Y-58041414D01*
X139752498Y-58140341D01*
X139735131Y-58249997D01*
X137873349Y-58249997D01*
X136953599Y-57330247D01*
X142199500Y-57330247D01*
X142199500Y-59069752D01*
X142211131Y-59128229D01*
X142211132Y-59128230D01*
X142255447Y-59194552D01*
X142321769Y-59238867D01*
X142321770Y-59238868D01*
X142380247Y-59250499D01*
X142380250Y-59250500D01*
X142380252Y-59250500D01*
X144119750Y-59250500D01*
X144119751Y-59250499D01*
X144134568Y-59247552D01*
X144178229Y-59238868D01*
X144178229Y-59238867D01*
X144178231Y-59238867D01*
X144244552Y-59194552D01*
X144288867Y-59128231D01*
X144288867Y-59128229D01*
X144288868Y-59128229D01*
X144300499Y-59069752D01*
X144300500Y-59069750D01*
X144300500Y-57340247D01*
X148699500Y-57340247D01*
X148699500Y-59079752D01*
X148711131Y-59138229D01*
X148711132Y-59138230D01*
X148755447Y-59204552D01*
X148821769Y-59248867D01*
X148821770Y-59248868D01*
X148880247Y-59260499D01*
X148880250Y-59260500D01*
X148880252Y-59260500D01*
X150619750Y-59260500D01*
X150619751Y-59260499D01*
X150634568Y-59257552D01*
X150678229Y-59248868D01*
X150678229Y-59248867D01*
X150678231Y-59248867D01*
X150744552Y-59204552D01*
X150788867Y-59138231D01*
X150788867Y-59138229D01*
X150788868Y-59138229D01*
X150800499Y-59079752D01*
X150800500Y-59079750D01*
X150800500Y-57340249D01*
X150800499Y-57340247D01*
X155199500Y-57340247D01*
X155199500Y-59079752D01*
X155211131Y-59138229D01*
X155211132Y-59138230D01*
X155255447Y-59204552D01*
X155321769Y-59248867D01*
X155321770Y-59248868D01*
X155380247Y-59260499D01*
X155380250Y-59260500D01*
X155380252Y-59260500D01*
X157119750Y-59260500D01*
X157119751Y-59260499D01*
X157134568Y-59257552D01*
X157178229Y-59248868D01*
X157178229Y-59248867D01*
X157178231Y-59248867D01*
X157244552Y-59204552D01*
X157288867Y-59138231D01*
X157288867Y-59138229D01*
X157288868Y-59138229D01*
X157300499Y-59079752D01*
X157300500Y-59079750D01*
X157300500Y-57340249D01*
X157300499Y-57340247D01*
X161699500Y-57340247D01*
X161699500Y-59079752D01*
X161711131Y-59138229D01*
X161711132Y-59138230D01*
X161755447Y-59204552D01*
X161821769Y-59248867D01*
X161821770Y-59248868D01*
X161880247Y-59260499D01*
X161880250Y-59260500D01*
X161880252Y-59260500D01*
X163619750Y-59260500D01*
X163619751Y-59260499D01*
X163634568Y-59257552D01*
X163678229Y-59248868D01*
X163678229Y-59248867D01*
X163678231Y-59248867D01*
X163744552Y-59204552D01*
X163788867Y-59138231D01*
X163788867Y-59138229D01*
X163788868Y-59138229D01*
X163800499Y-59079752D01*
X163800500Y-59079750D01*
X163800500Y-57340249D01*
X163800499Y-57340247D01*
X163788868Y-57281770D01*
X163788867Y-57281769D01*
X163744552Y-57215447D01*
X163678230Y-57171132D01*
X163678229Y-57171131D01*
X163619752Y-57159500D01*
X163619748Y-57159500D01*
X161880252Y-57159500D01*
X161880247Y-57159500D01*
X161821770Y-57171131D01*
X161821769Y-57171132D01*
X161755447Y-57215447D01*
X161711132Y-57281769D01*
X161711131Y-57281770D01*
X161699500Y-57340247D01*
X157300499Y-57340247D01*
X157288868Y-57281770D01*
X157288867Y-57281769D01*
X157244552Y-57215447D01*
X157178230Y-57171132D01*
X157178229Y-57171131D01*
X157119752Y-57159500D01*
X157119748Y-57159500D01*
X155380252Y-57159500D01*
X155380247Y-57159500D01*
X155321770Y-57171131D01*
X155321769Y-57171132D01*
X155255447Y-57215447D01*
X155211132Y-57281769D01*
X155211131Y-57281770D01*
X155199500Y-57340247D01*
X150800499Y-57340247D01*
X150788868Y-57281770D01*
X150788867Y-57281769D01*
X150744552Y-57215447D01*
X150678230Y-57171132D01*
X150678229Y-57171131D01*
X150619752Y-57159500D01*
X150619748Y-57159500D01*
X148880252Y-57159500D01*
X148880247Y-57159500D01*
X148821770Y-57171131D01*
X148821769Y-57171132D01*
X148755447Y-57215447D01*
X148711132Y-57281769D01*
X148711131Y-57281770D01*
X148699500Y-57340247D01*
X144300500Y-57340247D01*
X144300500Y-57330249D01*
X144300499Y-57330247D01*
X144288868Y-57271770D01*
X144288867Y-57271769D01*
X144244552Y-57205447D01*
X144178230Y-57161132D01*
X144178229Y-57161131D01*
X144119752Y-57149500D01*
X144119748Y-57149500D01*
X142380252Y-57149500D01*
X142380247Y-57149500D01*
X142321770Y-57161131D01*
X142321769Y-57161132D01*
X142255447Y-57205447D01*
X142211132Y-57271769D01*
X142211131Y-57271770D01*
X142199500Y-57330247D01*
X136953599Y-57330247D01*
X136373349Y-56749997D01*
X139395131Y-56749997D01*
X139395131Y-56750002D01*
X139412498Y-56859658D01*
X139462904Y-56958585D01*
X139462909Y-56958592D01*
X139541407Y-57037090D01*
X139541410Y-57037092D01*
X139541413Y-57037095D01*
X139616395Y-57075300D01*
X139640341Y-57087501D01*
X139749998Y-57104869D01*
X139750000Y-57104869D01*
X139750002Y-57104869D01*
X139859658Y-57087501D01*
X139859659Y-57087500D01*
X139859661Y-57087500D01*
X139958587Y-57037095D01*
X140037095Y-56958587D01*
X140087500Y-56859661D01*
X140087500Y-56859659D01*
X140087501Y-56859658D01*
X140104869Y-56750002D01*
X140104869Y-56749997D01*
X140087501Y-56640341D01*
X140080423Y-56626450D01*
X140037095Y-56541413D01*
X140037092Y-56541410D01*
X140037090Y-56541407D01*
X139958592Y-56462909D01*
X139958588Y-56462906D01*
X139958587Y-56462905D01*
X139954743Y-56460946D01*
X139859658Y-56412498D01*
X139750002Y-56395131D01*
X139749998Y-56395131D01*
X139640341Y-56412498D01*
X139541414Y-56462904D01*
X139541407Y-56462909D01*
X139462909Y-56541407D01*
X139462904Y-56541414D01*
X139412498Y-56640341D01*
X139395131Y-56749997D01*
X136373349Y-56749997D01*
X131253599Y-51630247D01*
X146949500Y-51630247D01*
X146949500Y-53369752D01*
X146961131Y-53428229D01*
X146961132Y-53428230D01*
X147005447Y-53494552D01*
X147071769Y-53538867D01*
X147071770Y-53538868D01*
X147130247Y-53550499D01*
X147130250Y-53550500D01*
X147130252Y-53550500D01*
X148869750Y-53550500D01*
X148869751Y-53550499D01*
X148884568Y-53547552D01*
X148928229Y-53538868D01*
X148928229Y-53538867D01*
X148928231Y-53538867D01*
X148994552Y-53494552D01*
X149038867Y-53428231D01*
X149038867Y-53428229D01*
X149038868Y-53428229D01*
X149050499Y-53369752D01*
X149050500Y-53369750D01*
X149050500Y-52500000D01*
X149484417Y-52500000D01*
X149504699Y-52705932D01*
X149504700Y-52705934D01*
X149564768Y-52903954D01*
X149662315Y-53086450D01*
X149662317Y-53086452D01*
X149793589Y-53246410D01*
X149890209Y-53325702D01*
X149953550Y-53377685D01*
X150136046Y-53475232D01*
X150334066Y-53535300D01*
X150334065Y-53535300D01*
X150352529Y-53537118D01*
X150540000Y-53555583D01*
X150745934Y-53535300D01*
X150943954Y-53475232D01*
X151126450Y-53377685D01*
X151286410Y-53246410D01*
X151417685Y-53086450D01*
X151515232Y-52903954D01*
X151575300Y-52705934D01*
X151595583Y-52500000D01*
X154564417Y-52500000D01*
X154584699Y-52705932D01*
X154584700Y-52705934D01*
X154644768Y-52903954D01*
X154742315Y-53086450D01*
X154742317Y-53086452D01*
X154873589Y-53246410D01*
X154970209Y-53325702D01*
X155033550Y-53377685D01*
X155216046Y-53475232D01*
X155414066Y-53535300D01*
X155414065Y-53535300D01*
X155432529Y-53537118D01*
X155620000Y-53555583D01*
X155825934Y-53535300D01*
X156023954Y-53475232D01*
X156206450Y-53377685D01*
X156366410Y-53246410D01*
X156497685Y-53086450D01*
X156595232Y-52903954D01*
X156655300Y-52705934D01*
X156675583Y-52500000D01*
X156655300Y-52294066D01*
X156595232Y-52096046D01*
X156497685Y-51913550D01*
X156445702Y-51850209D01*
X156366410Y-51753589D01*
X156216121Y-51630252D01*
X156206450Y-51622315D01*
X156036554Y-51531502D01*
X156023956Y-51524769D01*
X156023955Y-51524768D01*
X156023954Y-51524768D01*
X155825934Y-51464700D01*
X155825932Y-51464699D01*
X155825934Y-51464699D01*
X155620000Y-51444417D01*
X155414067Y-51464699D01*
X155216043Y-51524769D01*
X155136763Y-51567146D01*
X155033550Y-51622315D01*
X155033548Y-51622316D01*
X155033547Y-51622317D01*
X154873589Y-51753589D01*
X154742317Y-51913547D01*
X154644769Y-52096043D01*
X154584699Y-52294067D01*
X154564417Y-52500000D01*
X151595583Y-52500000D01*
X151575300Y-52294066D01*
X151515232Y-52096046D01*
X151417685Y-51913550D01*
X151365702Y-51850209D01*
X151286410Y-51753589D01*
X151136121Y-51630252D01*
X151126450Y-51622315D01*
X150956554Y-51531502D01*
X150943956Y-51524769D01*
X150943955Y-51524768D01*
X150943954Y-51524768D01*
X150745934Y-51464700D01*
X150745932Y-51464699D01*
X150745934Y-51464699D01*
X150540000Y-51444417D01*
X150334067Y-51464699D01*
X150136043Y-51524769D01*
X150056763Y-51567146D01*
X149953550Y-51622315D01*
X149953548Y-51622316D01*
X149953547Y-51622317D01*
X149793589Y-51753589D01*
X149662317Y-51913547D01*
X149564769Y-52096043D01*
X149504699Y-52294067D01*
X149484417Y-52500000D01*
X149050500Y-52500000D01*
X149050500Y-51630249D01*
X149050499Y-51630247D01*
X149038868Y-51571770D01*
X149038867Y-51571769D01*
X148994552Y-51505447D01*
X148928230Y-51461132D01*
X148928229Y-51461131D01*
X148869752Y-51449500D01*
X148869748Y-51449500D01*
X147130252Y-51449500D01*
X147130247Y-51449500D01*
X147071770Y-51461131D01*
X147071769Y-51461132D01*
X147005447Y-51505447D01*
X146961132Y-51571769D01*
X146961131Y-51571770D01*
X146949500Y-51630247D01*
X131253599Y-51630247D01*
X131230691Y-51607339D01*
X131230690Y-51607338D01*
X131133659Y-51567146D01*
X124291860Y-51567146D01*
X124224821Y-51547461D01*
X124204179Y-51530827D01*
X122041317Y-49367965D01*
X122007832Y-49306642D01*
X122012816Y-49236950D01*
X122019638Y-49221835D01*
X122045232Y-49173954D01*
X122105300Y-48975934D01*
X122125583Y-48770000D01*
X122554417Y-48770000D01*
X122574699Y-48975932D01*
X122574700Y-48975934D01*
X122634768Y-49173954D01*
X122732315Y-49356450D01*
X122732317Y-49356452D01*
X122863589Y-49516410D01*
X122960209Y-49595702D01*
X123023550Y-49647685D01*
X123206046Y-49745232D01*
X123404066Y-49805300D01*
X123404065Y-49805300D01*
X123422529Y-49807118D01*
X123610000Y-49825583D01*
X123815934Y-49805300D01*
X124013954Y-49745232D01*
X124196450Y-49647685D01*
X124356410Y-49516410D01*
X124487685Y-49356450D01*
X124585232Y-49173954D01*
X124645300Y-48975934D01*
X124665583Y-48770000D01*
X125094417Y-48770000D01*
X125114699Y-48975932D01*
X125114700Y-48975934D01*
X125174768Y-49173954D01*
X125272315Y-49356450D01*
X125272317Y-49356452D01*
X125403589Y-49516410D01*
X125500209Y-49595702D01*
X125563550Y-49647685D01*
X125746046Y-49745232D01*
X125944066Y-49805300D01*
X125944065Y-49805300D01*
X125962529Y-49807118D01*
X126150000Y-49825583D01*
X126355934Y-49805300D01*
X126553954Y-49745232D01*
X126736450Y-49647685D01*
X126896410Y-49516410D01*
X127027685Y-49356450D01*
X127125232Y-49173954D01*
X127185300Y-48975934D01*
X127205583Y-48770000D01*
X127634417Y-48770000D01*
X127654699Y-48975932D01*
X127654700Y-48975934D01*
X127714768Y-49173954D01*
X127812315Y-49356450D01*
X127812317Y-49356452D01*
X127943589Y-49516410D01*
X128040209Y-49595702D01*
X128103550Y-49647685D01*
X128286046Y-49745232D01*
X128484066Y-49805300D01*
X128484065Y-49805300D01*
X128502529Y-49807118D01*
X128690000Y-49825583D01*
X128895934Y-49805300D01*
X129093954Y-49745232D01*
X129276450Y-49647685D01*
X129436410Y-49516410D01*
X129567685Y-49356450D01*
X129665232Y-49173954D01*
X129725300Y-48975934D01*
X129745583Y-48770000D01*
X130174417Y-48770000D01*
X130194699Y-48975932D01*
X130194700Y-48975934D01*
X130254768Y-49173954D01*
X130352315Y-49356450D01*
X130352317Y-49356452D01*
X130483589Y-49516410D01*
X130580209Y-49595702D01*
X130643550Y-49647685D01*
X130826046Y-49745232D01*
X131024066Y-49805300D01*
X131024065Y-49805300D01*
X131042529Y-49807118D01*
X131230000Y-49825583D01*
X131435934Y-49805300D01*
X131633954Y-49745232D01*
X131816450Y-49647685D01*
X131976410Y-49516410D01*
X132107685Y-49356450D01*
X132205232Y-49173954D01*
X132265300Y-48975934D01*
X132285583Y-48770000D01*
X132714417Y-48770000D01*
X132734699Y-48975932D01*
X132734700Y-48975934D01*
X132794768Y-49173954D01*
X132892315Y-49356450D01*
X132892317Y-49356452D01*
X133023589Y-49516410D01*
X133120209Y-49595702D01*
X133183550Y-49647685D01*
X133366046Y-49745232D01*
X133564066Y-49805300D01*
X133564065Y-49805300D01*
X133582529Y-49807118D01*
X133770000Y-49825583D01*
X133975934Y-49805300D01*
X134173954Y-49745232D01*
X134356450Y-49647685D01*
X134516410Y-49516410D01*
X134647685Y-49356450D01*
X134745232Y-49173954D01*
X134805300Y-48975934D01*
X134825583Y-48770000D01*
X135254417Y-48770000D01*
X135274699Y-48975932D01*
X135274700Y-48975934D01*
X135334768Y-49173954D01*
X135432315Y-49356450D01*
X135432317Y-49356452D01*
X135563589Y-49516410D01*
X135660209Y-49595702D01*
X135723550Y-49647685D01*
X135906046Y-49745232D01*
X136104066Y-49805300D01*
X136104065Y-49805300D01*
X136122529Y-49807118D01*
X136310000Y-49825583D01*
X136515934Y-49805300D01*
X136713954Y-49745232D01*
X136896450Y-49647685D01*
X137056410Y-49516410D01*
X137187685Y-49356450D01*
X137285232Y-49173954D01*
X137345300Y-48975934D01*
X137365583Y-48770000D01*
X140334417Y-48770000D01*
X140354699Y-48975932D01*
X140354700Y-48975934D01*
X140414768Y-49173954D01*
X140512315Y-49356450D01*
X140512317Y-49356452D01*
X140643589Y-49516410D01*
X140740209Y-49595702D01*
X140803550Y-49647685D01*
X140986046Y-49745232D01*
X141184066Y-49805300D01*
X141184065Y-49805300D01*
X141202529Y-49807118D01*
X141390000Y-49825583D01*
X141595934Y-49805300D01*
X141793954Y-49745232D01*
X141976450Y-49647685D01*
X142136410Y-49516410D01*
X142267685Y-49356450D01*
X142365232Y-49173954D01*
X142425300Y-48975934D01*
X142445583Y-48770000D01*
X142874417Y-48770000D01*
X142894699Y-48975932D01*
X142894700Y-48975934D01*
X142954768Y-49173954D01*
X143052315Y-49356450D01*
X143052317Y-49356452D01*
X143183589Y-49516410D01*
X143280209Y-49595702D01*
X143343550Y-49647685D01*
X143526046Y-49745232D01*
X143724066Y-49805300D01*
X143724065Y-49805300D01*
X143742529Y-49807118D01*
X143930000Y-49825583D01*
X144135934Y-49805300D01*
X144333954Y-49745232D01*
X144516450Y-49647685D01*
X144676410Y-49516410D01*
X144807685Y-49356450D01*
X144905232Y-49173954D01*
X144965300Y-48975934D01*
X144985583Y-48770000D01*
X145414417Y-48770000D01*
X145434699Y-48975932D01*
X145434700Y-48975934D01*
X145494768Y-49173954D01*
X145592315Y-49356450D01*
X145592317Y-49356452D01*
X145723589Y-49516410D01*
X145820209Y-49595702D01*
X145883550Y-49647685D01*
X146066046Y-49745232D01*
X146264066Y-49805300D01*
X146264065Y-49805300D01*
X146282529Y-49807118D01*
X146470000Y-49825583D01*
X146675934Y-49805300D01*
X146873954Y-49745232D01*
X147056450Y-49647685D01*
X147216410Y-49516410D01*
X147347685Y-49356450D01*
X147445232Y-49173954D01*
X147505300Y-48975934D01*
X147525583Y-48770000D01*
X147954417Y-48770000D01*
X147974699Y-48975932D01*
X147974700Y-48975934D01*
X148034768Y-49173954D01*
X148132315Y-49356450D01*
X148132317Y-49356452D01*
X148263589Y-49516410D01*
X148360209Y-49595702D01*
X148423550Y-49647685D01*
X148606046Y-49745232D01*
X148804066Y-49805300D01*
X148804065Y-49805300D01*
X148822529Y-49807118D01*
X149010000Y-49825583D01*
X149215934Y-49805300D01*
X149413954Y-49745232D01*
X149596450Y-49647685D01*
X149756410Y-49516410D01*
X149887685Y-49356450D01*
X149985232Y-49173954D01*
X150045300Y-48975934D01*
X150065583Y-48770000D01*
X150494417Y-48770000D01*
X150514699Y-48975932D01*
X150514700Y-48975934D01*
X150574768Y-49173954D01*
X150672315Y-49356450D01*
X150672317Y-49356452D01*
X150803589Y-49516410D01*
X150900209Y-49595702D01*
X150963550Y-49647685D01*
X151146046Y-49745232D01*
X151344066Y-49805300D01*
X151344065Y-49805300D01*
X151362529Y-49807118D01*
X151550000Y-49825583D01*
X151755934Y-49805300D01*
X151953954Y-49745232D01*
X152136450Y-49647685D01*
X152296410Y-49516410D01*
X152427685Y-49356450D01*
X152525232Y-49173954D01*
X152585300Y-48975934D01*
X152605583Y-48770000D01*
X153034417Y-48770000D01*
X153054699Y-48975932D01*
X153054700Y-48975934D01*
X153114768Y-49173954D01*
X153212315Y-49356450D01*
X153212317Y-49356452D01*
X153343589Y-49516410D01*
X153440209Y-49595702D01*
X153503550Y-49647685D01*
X153686046Y-49745232D01*
X153884066Y-49805300D01*
X153884065Y-49805300D01*
X153902529Y-49807118D01*
X154090000Y-49825583D01*
X154295934Y-49805300D01*
X154493954Y-49745232D01*
X154676450Y-49647685D01*
X154836410Y-49516410D01*
X154967685Y-49356450D01*
X155065232Y-49173954D01*
X155125300Y-48975934D01*
X155145583Y-48770000D01*
X155125300Y-48564066D01*
X155065232Y-48366046D01*
X154967685Y-48183550D01*
X154915702Y-48120209D01*
X154836410Y-48023589D01*
X154686121Y-47900252D01*
X154676450Y-47892315D01*
X154493954Y-47794768D01*
X154295934Y-47734700D01*
X154295932Y-47734699D01*
X154295934Y-47734699D01*
X154090000Y-47714417D01*
X153884067Y-47734699D01*
X153686043Y-47794769D01*
X153598114Y-47841769D01*
X153503550Y-47892315D01*
X153503548Y-47892316D01*
X153503547Y-47892317D01*
X153343589Y-48023589D01*
X153212317Y-48183547D01*
X153114769Y-48366043D01*
X153054699Y-48564067D01*
X153034417Y-48770000D01*
X152605583Y-48770000D01*
X152585300Y-48564066D01*
X152525232Y-48366046D01*
X152427685Y-48183550D01*
X152375702Y-48120209D01*
X152296410Y-48023589D01*
X152146121Y-47900252D01*
X152136450Y-47892315D01*
X151953954Y-47794768D01*
X151755934Y-47734700D01*
X151755932Y-47734699D01*
X151755934Y-47734699D01*
X151550000Y-47714417D01*
X151344067Y-47734699D01*
X151146043Y-47794769D01*
X151058114Y-47841769D01*
X150963550Y-47892315D01*
X150963548Y-47892316D01*
X150963547Y-47892317D01*
X150803589Y-48023589D01*
X150672317Y-48183547D01*
X150574769Y-48366043D01*
X150514699Y-48564067D01*
X150494417Y-48770000D01*
X150065583Y-48770000D01*
X150045300Y-48564066D01*
X149985232Y-48366046D01*
X149887685Y-48183550D01*
X149835702Y-48120209D01*
X149756410Y-48023589D01*
X149606121Y-47900252D01*
X149596450Y-47892315D01*
X149413954Y-47794768D01*
X149215934Y-47734700D01*
X149215932Y-47734699D01*
X149215934Y-47734699D01*
X149010000Y-47714417D01*
X148804067Y-47734699D01*
X148606043Y-47794769D01*
X148518114Y-47841769D01*
X148423550Y-47892315D01*
X148423548Y-47892316D01*
X148423547Y-47892317D01*
X148263589Y-48023589D01*
X148132317Y-48183547D01*
X148034769Y-48366043D01*
X147974699Y-48564067D01*
X147954417Y-48770000D01*
X147525583Y-48770000D01*
X147505300Y-48564066D01*
X147445232Y-48366046D01*
X147347685Y-48183550D01*
X147295702Y-48120209D01*
X147216410Y-48023589D01*
X147066121Y-47900252D01*
X147056450Y-47892315D01*
X146873954Y-47794768D01*
X146675934Y-47734700D01*
X146675932Y-47734699D01*
X146675934Y-47734699D01*
X146470000Y-47714417D01*
X146264067Y-47734699D01*
X146066043Y-47794769D01*
X145978114Y-47841769D01*
X145883550Y-47892315D01*
X145883548Y-47892316D01*
X145883547Y-47892317D01*
X145723589Y-48023589D01*
X145592317Y-48183547D01*
X145494769Y-48366043D01*
X145434699Y-48564067D01*
X145414417Y-48770000D01*
X144985583Y-48770000D01*
X144965300Y-48564066D01*
X144905232Y-48366046D01*
X144807685Y-48183550D01*
X144755702Y-48120209D01*
X144676410Y-48023589D01*
X144526121Y-47900252D01*
X144516450Y-47892315D01*
X144333954Y-47794768D01*
X144135934Y-47734700D01*
X144135932Y-47734699D01*
X144135934Y-47734699D01*
X143930000Y-47714417D01*
X143724067Y-47734699D01*
X143526043Y-47794769D01*
X143438114Y-47841769D01*
X143343550Y-47892315D01*
X143343548Y-47892316D01*
X143343547Y-47892317D01*
X143183589Y-48023589D01*
X143052317Y-48183547D01*
X142954769Y-48366043D01*
X142894699Y-48564067D01*
X142874417Y-48770000D01*
X142445583Y-48770000D01*
X142425300Y-48564066D01*
X142365232Y-48366046D01*
X142267685Y-48183550D01*
X142215702Y-48120209D01*
X142136410Y-48023589D01*
X141986121Y-47900252D01*
X141976450Y-47892315D01*
X141793954Y-47794768D01*
X141595934Y-47734700D01*
X141595932Y-47734699D01*
X141595934Y-47734699D01*
X141390000Y-47714417D01*
X141184067Y-47734699D01*
X140986043Y-47794769D01*
X140898114Y-47841769D01*
X140803550Y-47892315D01*
X140803548Y-47892316D01*
X140803547Y-47892317D01*
X140643589Y-48023589D01*
X140512317Y-48183547D01*
X140414769Y-48366043D01*
X140354699Y-48564067D01*
X140334417Y-48770000D01*
X137365583Y-48770000D01*
X137345300Y-48564066D01*
X137285232Y-48366046D01*
X137187685Y-48183550D01*
X137135702Y-48120209D01*
X137056410Y-48023589D01*
X136906121Y-47900252D01*
X136896450Y-47892315D01*
X136713954Y-47794768D01*
X136515934Y-47734700D01*
X136515932Y-47734699D01*
X136515934Y-47734699D01*
X136310000Y-47714417D01*
X136104067Y-47734699D01*
X135906043Y-47794769D01*
X135818114Y-47841769D01*
X135723550Y-47892315D01*
X135723548Y-47892316D01*
X135723547Y-47892317D01*
X135563589Y-48023589D01*
X135432317Y-48183547D01*
X135334769Y-48366043D01*
X135274699Y-48564067D01*
X135254417Y-48770000D01*
X134825583Y-48770000D01*
X134805300Y-48564066D01*
X134745232Y-48366046D01*
X134647685Y-48183550D01*
X134595702Y-48120209D01*
X134516410Y-48023589D01*
X134366121Y-47900252D01*
X134356450Y-47892315D01*
X134173954Y-47794768D01*
X133975934Y-47734700D01*
X133975932Y-47734699D01*
X133975934Y-47734699D01*
X133770000Y-47714417D01*
X133564067Y-47734699D01*
X133366043Y-47794769D01*
X133278114Y-47841769D01*
X133183550Y-47892315D01*
X133183548Y-47892316D01*
X133183547Y-47892317D01*
X133023589Y-48023589D01*
X132892317Y-48183547D01*
X132794769Y-48366043D01*
X132734699Y-48564067D01*
X132714417Y-48770000D01*
X132285583Y-48770000D01*
X132265300Y-48564066D01*
X132205232Y-48366046D01*
X132107685Y-48183550D01*
X132055702Y-48120209D01*
X131976410Y-48023589D01*
X131826121Y-47900252D01*
X131816450Y-47892315D01*
X131633954Y-47794768D01*
X131435934Y-47734700D01*
X131435932Y-47734699D01*
X131435934Y-47734699D01*
X131230000Y-47714417D01*
X131024067Y-47734699D01*
X130826043Y-47794769D01*
X130738114Y-47841769D01*
X130643550Y-47892315D01*
X130643548Y-47892316D01*
X130643547Y-47892317D01*
X130483589Y-48023589D01*
X130352317Y-48183547D01*
X130254769Y-48366043D01*
X130194699Y-48564067D01*
X130174417Y-48770000D01*
X129745583Y-48770000D01*
X129725300Y-48564066D01*
X129665232Y-48366046D01*
X129567685Y-48183550D01*
X129515702Y-48120209D01*
X129436410Y-48023589D01*
X129286121Y-47900252D01*
X129276450Y-47892315D01*
X129093954Y-47794768D01*
X128895934Y-47734700D01*
X128895932Y-47734699D01*
X128895934Y-47734699D01*
X128690000Y-47714417D01*
X128484067Y-47734699D01*
X128286043Y-47794769D01*
X128198114Y-47841769D01*
X128103550Y-47892315D01*
X128103548Y-47892316D01*
X128103547Y-47892317D01*
X127943589Y-48023589D01*
X127812317Y-48183547D01*
X127714769Y-48366043D01*
X127654699Y-48564067D01*
X127634417Y-48770000D01*
X127205583Y-48770000D01*
X127185300Y-48564066D01*
X127125232Y-48366046D01*
X127027685Y-48183550D01*
X126975702Y-48120209D01*
X126896410Y-48023589D01*
X126746121Y-47900252D01*
X126736450Y-47892315D01*
X126553954Y-47794768D01*
X126355934Y-47734700D01*
X126355932Y-47734699D01*
X126355934Y-47734699D01*
X126150000Y-47714417D01*
X125944067Y-47734699D01*
X125746043Y-47794769D01*
X125658114Y-47841769D01*
X125563550Y-47892315D01*
X125563548Y-47892316D01*
X125563547Y-47892317D01*
X125403589Y-48023589D01*
X125272317Y-48183547D01*
X125174769Y-48366043D01*
X125114699Y-48564067D01*
X125094417Y-48770000D01*
X124665583Y-48770000D01*
X124645300Y-48564066D01*
X124585232Y-48366046D01*
X124487685Y-48183550D01*
X124435702Y-48120209D01*
X124356410Y-48023589D01*
X124206121Y-47900252D01*
X124196450Y-47892315D01*
X124013954Y-47794768D01*
X123815934Y-47734700D01*
X123815932Y-47734699D01*
X123815934Y-47734699D01*
X123610000Y-47714417D01*
X123404067Y-47734699D01*
X123206043Y-47794769D01*
X123118114Y-47841769D01*
X123023550Y-47892315D01*
X123023548Y-47892316D01*
X123023547Y-47892317D01*
X122863589Y-48023589D01*
X122732317Y-48183547D01*
X122634769Y-48366043D01*
X122574699Y-48564067D01*
X122554417Y-48770000D01*
X122125583Y-48770000D01*
X122105300Y-48564066D01*
X122045232Y-48366046D01*
X121947685Y-48183550D01*
X121895702Y-48120209D01*
X121816410Y-48023589D01*
X121666121Y-47900252D01*
X121656450Y-47892315D01*
X121473954Y-47794768D01*
X121275934Y-47734700D01*
X121275932Y-47734699D01*
X121275934Y-47734699D01*
X121070000Y-47714417D01*
X120864067Y-47734699D01*
X120666043Y-47794769D01*
X120578114Y-47841769D01*
X120483550Y-47892315D01*
X120483548Y-47892316D01*
X120483547Y-47892317D01*
X120323589Y-48023589D01*
X120192317Y-48183547D01*
X120094769Y-48366043D01*
X120034699Y-48564067D01*
X120014417Y-48770000D01*
X120034699Y-48975932D01*
X120034700Y-48975934D01*
X120094768Y-49173954D01*
X120192315Y-49356450D01*
X120192317Y-49356452D01*
X120323589Y-49516410D01*
X120420209Y-49595702D01*
X120483550Y-49647685D01*
X120666046Y-49745232D01*
X120864066Y-49805300D01*
X120864065Y-49805300D01*
X120882529Y-49807118D01*
X121070000Y-49825583D01*
X121275934Y-49805300D01*
X121473954Y-49745232D01*
X121521829Y-49719641D01*
X121590229Y-49705397D01*
X121655474Y-49730395D01*
X121667965Y-49741317D01*
X123828372Y-51901724D01*
X123861857Y-51963047D01*
X123856873Y-52032739D01*
X123815001Y-52088672D01*
X123765766Y-52110843D01*
X123265949Y-52214047D01*
X123265932Y-52214051D01*
X122599812Y-52392537D01*
X122599789Y-52392544D01*
X121945187Y-52609455D01*
X121304288Y-52864067D01*
X121304258Y-52864080D01*
X120679267Y-53155519D01*
X120679233Y-53155536D01*
X120072256Y-53482815D01*
X119485288Y-53844862D01*
X118920376Y-54240416D01*
X118920371Y-54240420D01*
X118379442Y-54668132D01*
X118379431Y-54668141D01*
X117864249Y-55126613D01*
X117864232Y-55126629D01*
X117376629Y-55614232D01*
X117376613Y-55614249D01*
X116918141Y-56129431D01*
X116918132Y-56129442D01*
X116490420Y-56670371D01*
X116490416Y-56670376D01*
X116198344Y-57087500D01*
X116094862Y-57235288D01*
X115866964Y-57604768D01*
X115732815Y-57822256D01*
X115405536Y-58429233D01*
X115405519Y-58429267D01*
X115114080Y-59054258D01*
X115114067Y-59054288D01*
X114859455Y-59695187D01*
X114642544Y-60349789D01*
X114642537Y-60349812D01*
X114464051Y-61015932D01*
X114464047Y-61015949D01*
X114324600Y-61691293D01*
X114324598Y-61691304D01*
X114324597Y-61691311D01*
X114233274Y-62314769D01*
X114224648Y-62373661D01*
X114224646Y-62373679D01*
X114164543Y-63060653D01*
X114164543Y-63060657D01*
X114144485Y-63750000D01*
X100050500Y-63750000D01*
X100050500Y-58580000D01*
X109944417Y-58580000D01*
X109964699Y-58785932D01*
X109964700Y-58785934D01*
X110024768Y-58983954D01*
X110122315Y-59166450D01*
X110122317Y-59166452D01*
X110253589Y-59326410D01*
X110343260Y-59400000D01*
X110413550Y-59457685D01*
X110596046Y-59555232D01*
X110794066Y-59615300D01*
X110794065Y-59615300D01*
X110812529Y-59617118D01*
X111000000Y-59635583D01*
X111205934Y-59615300D01*
X111403954Y-59555232D01*
X111586450Y-59457685D01*
X111746410Y-59326410D01*
X111877685Y-59166450D01*
X111975232Y-58983954D01*
X112035300Y-58785934D01*
X112055583Y-58580000D01*
X112035300Y-58374066D01*
X111975232Y-58176046D01*
X111877685Y-57993550D01*
X111825702Y-57930209D01*
X111746410Y-57833589D01*
X111586452Y-57702317D01*
X111586453Y-57702317D01*
X111586450Y-57702315D01*
X111403954Y-57604768D01*
X111205934Y-57544700D01*
X111205932Y-57544699D01*
X111205934Y-57544699D01*
X111000000Y-57524417D01*
X110794067Y-57544699D01*
X110596043Y-57604769D01*
X110485898Y-57663643D01*
X110413550Y-57702315D01*
X110413548Y-57702316D01*
X110413547Y-57702317D01*
X110253589Y-57833589D01*
X110147461Y-57962909D01*
X110122315Y-57993550D01*
X110096731Y-58041414D01*
X110024769Y-58176043D01*
X109964699Y-58374067D01*
X109944417Y-58580000D01*
X100050500Y-58580000D01*
X100050500Y-56040000D01*
X109944417Y-56040000D01*
X109964699Y-56245932D01*
X109964700Y-56245934D01*
X110024768Y-56443954D01*
X110122315Y-56626450D01*
X110133715Y-56640341D01*
X110253589Y-56786410D01*
X110342843Y-56859658D01*
X110413550Y-56917685D01*
X110596046Y-57015232D01*
X110794066Y-57075300D01*
X110794065Y-57075300D01*
X110812529Y-57077118D01*
X111000000Y-57095583D01*
X111205934Y-57075300D01*
X111403954Y-57015232D01*
X111586450Y-56917685D01*
X111746410Y-56786410D01*
X111877685Y-56626450D01*
X111975232Y-56443954D01*
X112035300Y-56245934D01*
X112055583Y-56040000D01*
X112035300Y-55834066D01*
X111975232Y-55636046D01*
X111877685Y-55453550D01*
X111825702Y-55390209D01*
X111746410Y-55293589D01*
X111586452Y-55162317D01*
X111586453Y-55162317D01*
X111586450Y-55162315D01*
X111403954Y-55064768D01*
X111205934Y-55004700D01*
X111205932Y-55004699D01*
X111205934Y-55004699D01*
X111000000Y-54984417D01*
X110794067Y-55004699D01*
X110596043Y-55064769D01*
X110485898Y-55123643D01*
X110413550Y-55162315D01*
X110413548Y-55162316D01*
X110413547Y-55162317D01*
X110253589Y-55293589D01*
X110122317Y-55453547D01*
X110024769Y-55636043D01*
X109964699Y-55834067D01*
X109944417Y-56040000D01*
X100050500Y-56040000D01*
X100050500Y-52630247D01*
X109949500Y-52630247D01*
X109949500Y-54369752D01*
X109961131Y-54428229D01*
X109961132Y-54428230D01*
X110005447Y-54494552D01*
X110071769Y-54538867D01*
X110071770Y-54538868D01*
X110130247Y-54550499D01*
X110130250Y-54550500D01*
X110130252Y-54550500D01*
X111869750Y-54550500D01*
X111869751Y-54550499D01*
X111884568Y-54547552D01*
X111928229Y-54538868D01*
X111928229Y-54538867D01*
X111928231Y-54538867D01*
X111994552Y-54494552D01*
X112038867Y-54428231D01*
X112038867Y-54428229D01*
X112038868Y-54428229D01*
X112050499Y-54369752D01*
X112050500Y-54369750D01*
X112050500Y-52630249D01*
X112050499Y-52630247D01*
X112038868Y-52571770D01*
X112038867Y-52571769D01*
X111994552Y-52505447D01*
X111928230Y-52461132D01*
X111928229Y-52461131D01*
X111869752Y-52449500D01*
X111869748Y-52449500D01*
X110130252Y-52449500D01*
X110130247Y-52449500D01*
X110071770Y-52461131D01*
X110071769Y-52461132D01*
X110005447Y-52505447D01*
X109961132Y-52571769D01*
X109961131Y-52571770D01*
X109949500Y-52630247D01*
X100050500Y-52630247D01*
X100050500Y-47900247D01*
X107319500Y-47900247D01*
X107319500Y-49639752D01*
X107331131Y-49698229D01*
X107331132Y-49698230D01*
X107375447Y-49764552D01*
X107441769Y-49808867D01*
X107441770Y-49808868D01*
X107500247Y-49820499D01*
X107500250Y-49820500D01*
X107500252Y-49820500D01*
X109239750Y-49820500D01*
X109239751Y-49820499D01*
X109254568Y-49817552D01*
X109298229Y-49808868D01*
X109298229Y-49808867D01*
X109298231Y-49808867D01*
X109364552Y-49764552D01*
X109408867Y-49698231D01*
X109408867Y-49698229D01*
X109408868Y-49698229D01*
X109420499Y-49639752D01*
X109420500Y-49639750D01*
X109420500Y-48770000D01*
X109854417Y-48770000D01*
X109874699Y-48975932D01*
X109874700Y-48975934D01*
X109934768Y-49173954D01*
X110032315Y-49356450D01*
X110032317Y-49356452D01*
X110163589Y-49516410D01*
X110260209Y-49595702D01*
X110323550Y-49647685D01*
X110506046Y-49745232D01*
X110704066Y-49805300D01*
X110704065Y-49805300D01*
X110722529Y-49807118D01*
X110910000Y-49825583D01*
X111115934Y-49805300D01*
X111313954Y-49745232D01*
X111496450Y-49647685D01*
X111656410Y-49516410D01*
X111787685Y-49356450D01*
X111885232Y-49173954D01*
X111945300Y-48975934D01*
X111965583Y-48770000D01*
X112394417Y-48770000D01*
X112414699Y-48975932D01*
X112414700Y-48975934D01*
X112474768Y-49173954D01*
X112572315Y-49356450D01*
X112572317Y-49356452D01*
X112703589Y-49516410D01*
X112800209Y-49595702D01*
X112863550Y-49647685D01*
X113046046Y-49745232D01*
X113244066Y-49805300D01*
X113244065Y-49805300D01*
X113262529Y-49807118D01*
X113450000Y-49825583D01*
X113655934Y-49805300D01*
X113853954Y-49745232D01*
X114036450Y-49647685D01*
X114196410Y-49516410D01*
X114327685Y-49356450D01*
X114425232Y-49173954D01*
X114485300Y-48975934D01*
X114505583Y-48770000D01*
X114934417Y-48770000D01*
X114954699Y-48975932D01*
X114954700Y-48975934D01*
X115014768Y-49173954D01*
X115112315Y-49356450D01*
X115112317Y-49356452D01*
X115243589Y-49516410D01*
X115340209Y-49595702D01*
X115403550Y-49647685D01*
X115586046Y-49745232D01*
X115784066Y-49805300D01*
X115784065Y-49805300D01*
X115802529Y-49807118D01*
X115990000Y-49825583D01*
X116195934Y-49805300D01*
X116393954Y-49745232D01*
X116576450Y-49647685D01*
X116736410Y-49516410D01*
X116867685Y-49356450D01*
X116965232Y-49173954D01*
X117025300Y-48975934D01*
X117045583Y-48770000D01*
X117025300Y-48564066D01*
X116965232Y-48366046D01*
X116867685Y-48183550D01*
X116815702Y-48120209D01*
X116736410Y-48023589D01*
X116586121Y-47900252D01*
X116576450Y-47892315D01*
X116393954Y-47794768D01*
X116195934Y-47734700D01*
X116195932Y-47734699D01*
X116195934Y-47734699D01*
X115990000Y-47714417D01*
X115784067Y-47734699D01*
X115586043Y-47794769D01*
X115498114Y-47841769D01*
X115403550Y-47892315D01*
X115403548Y-47892316D01*
X115403547Y-47892317D01*
X115243589Y-48023589D01*
X115112317Y-48183547D01*
X115014769Y-48366043D01*
X114954699Y-48564067D01*
X114934417Y-48770000D01*
X114505583Y-48770000D01*
X114485300Y-48564066D01*
X114425232Y-48366046D01*
X114327685Y-48183550D01*
X114275702Y-48120209D01*
X114196410Y-48023589D01*
X114046121Y-47900252D01*
X114036450Y-47892315D01*
X113853954Y-47794768D01*
X113655934Y-47734700D01*
X113655932Y-47734699D01*
X113655934Y-47734699D01*
X113450000Y-47714417D01*
X113244067Y-47734699D01*
X113046043Y-47794769D01*
X112958114Y-47841769D01*
X112863550Y-47892315D01*
X112863548Y-47892316D01*
X112863547Y-47892317D01*
X112703589Y-48023589D01*
X112572317Y-48183547D01*
X112474769Y-48366043D01*
X112414699Y-48564067D01*
X112394417Y-48770000D01*
X111965583Y-48770000D01*
X111945300Y-48564066D01*
X111885232Y-48366046D01*
X111787685Y-48183550D01*
X111735702Y-48120209D01*
X111656410Y-48023589D01*
X111506121Y-47900252D01*
X111496450Y-47892315D01*
X111313954Y-47794768D01*
X111115934Y-47734700D01*
X111115932Y-47734699D01*
X111115934Y-47734699D01*
X110910000Y-47714417D01*
X110704067Y-47734699D01*
X110506043Y-47794769D01*
X110418114Y-47841769D01*
X110323550Y-47892315D01*
X110323548Y-47892316D01*
X110323547Y-47892317D01*
X110163589Y-48023589D01*
X110032317Y-48183547D01*
X109934769Y-48366043D01*
X109874699Y-48564067D01*
X109854417Y-48770000D01*
X109420500Y-48770000D01*
X109420500Y-47900249D01*
X109420499Y-47900247D01*
X109408868Y-47841770D01*
X109408867Y-47841769D01*
X109364552Y-47775447D01*
X109298230Y-47731132D01*
X109298229Y-47731131D01*
X109239752Y-47719500D01*
X109239748Y-47719500D01*
X107500252Y-47719500D01*
X107500247Y-47719500D01*
X107441770Y-47731131D01*
X107441769Y-47731132D01*
X107375447Y-47775447D01*
X107331132Y-47841769D01*
X107331131Y-47841770D01*
X107319500Y-47900247D01*
X100050500Y-47900247D01*
X100050500Y-46230000D01*
X107314417Y-46230000D01*
X107334699Y-46435932D01*
X107334700Y-46435934D01*
X107394768Y-46633954D01*
X107492315Y-46816450D01*
X107492317Y-46816452D01*
X107623589Y-46976410D01*
X107720209Y-47055702D01*
X107783550Y-47107685D01*
X107966046Y-47205232D01*
X108164066Y-47265300D01*
X108164065Y-47265300D01*
X108182529Y-47267118D01*
X108370000Y-47285583D01*
X108575934Y-47265300D01*
X108773954Y-47205232D01*
X108956450Y-47107685D01*
X109116410Y-46976410D01*
X109247685Y-46816450D01*
X109345232Y-46633954D01*
X109405300Y-46435934D01*
X109425583Y-46230000D01*
X109854417Y-46230000D01*
X109874699Y-46435932D01*
X109874700Y-46435934D01*
X109934768Y-46633954D01*
X110032315Y-46816450D01*
X110032317Y-46816452D01*
X110163589Y-46976410D01*
X110260209Y-47055702D01*
X110323550Y-47107685D01*
X110506046Y-47205232D01*
X110704066Y-47265300D01*
X110704065Y-47265300D01*
X110722529Y-47267118D01*
X110910000Y-47285583D01*
X111115934Y-47265300D01*
X111313954Y-47205232D01*
X111496450Y-47107685D01*
X111656410Y-46976410D01*
X111787685Y-46816450D01*
X111885232Y-46633954D01*
X111945300Y-46435934D01*
X111965583Y-46230000D01*
X114934417Y-46230000D01*
X114954699Y-46435932D01*
X114954700Y-46435934D01*
X115014768Y-46633954D01*
X115112315Y-46816450D01*
X115112317Y-46816452D01*
X115243589Y-46976410D01*
X115340209Y-47055702D01*
X115403550Y-47107685D01*
X115586046Y-47205232D01*
X115784066Y-47265300D01*
X115784065Y-47265300D01*
X115802529Y-47267118D01*
X115990000Y-47285583D01*
X116195934Y-47265300D01*
X116393954Y-47205232D01*
X116576450Y-47107685D01*
X116736410Y-46976410D01*
X116867685Y-46816450D01*
X116965232Y-46633954D01*
X117025300Y-46435934D01*
X117045583Y-46230000D01*
X117474417Y-46230000D01*
X117494699Y-46435932D01*
X117494700Y-46435934D01*
X117554768Y-46633954D01*
X117652315Y-46816450D01*
X117652317Y-46816452D01*
X117783589Y-46976410D01*
X117880209Y-47055702D01*
X117943550Y-47107685D01*
X118126046Y-47205232D01*
X118324066Y-47265300D01*
X118324065Y-47265300D01*
X118342529Y-47267118D01*
X118530000Y-47285583D01*
X118735934Y-47265300D01*
X118933954Y-47205232D01*
X119116450Y-47107685D01*
X119276410Y-46976410D01*
X119407685Y-46816450D01*
X119505232Y-46633954D01*
X119565300Y-46435934D01*
X119585583Y-46230000D01*
X120014417Y-46230000D01*
X120034699Y-46435932D01*
X120034700Y-46435934D01*
X120094768Y-46633954D01*
X120192315Y-46816450D01*
X120192317Y-46816452D01*
X120323589Y-46976410D01*
X120420209Y-47055702D01*
X120483550Y-47107685D01*
X120666046Y-47205232D01*
X120864066Y-47265300D01*
X120864065Y-47265300D01*
X120882529Y-47267118D01*
X121070000Y-47285583D01*
X121275934Y-47265300D01*
X121473954Y-47205232D01*
X121656450Y-47107685D01*
X121816410Y-46976410D01*
X121947685Y-46816450D01*
X122045232Y-46633954D01*
X122105300Y-46435934D01*
X122125583Y-46230000D01*
X125094417Y-46230000D01*
X125114699Y-46435932D01*
X125114700Y-46435934D01*
X125174768Y-46633954D01*
X125272315Y-46816450D01*
X125272317Y-46816452D01*
X125403589Y-46976410D01*
X125500209Y-47055702D01*
X125563550Y-47107685D01*
X125746046Y-47205232D01*
X125944066Y-47265300D01*
X125944065Y-47265300D01*
X125962529Y-47267118D01*
X126150000Y-47285583D01*
X126355934Y-47265300D01*
X126553954Y-47205232D01*
X126736450Y-47107685D01*
X126896410Y-46976410D01*
X127027685Y-46816450D01*
X127125232Y-46633954D01*
X127185300Y-46435934D01*
X127205583Y-46230000D01*
X127634417Y-46230000D01*
X127654699Y-46435932D01*
X127654700Y-46435934D01*
X127714768Y-46633954D01*
X127812315Y-46816450D01*
X127812317Y-46816452D01*
X127943589Y-46976410D01*
X128040209Y-47055702D01*
X128103550Y-47107685D01*
X128286046Y-47205232D01*
X128484066Y-47265300D01*
X128484065Y-47265300D01*
X128502529Y-47267118D01*
X128690000Y-47285583D01*
X128895934Y-47265300D01*
X129093954Y-47205232D01*
X129276450Y-47107685D01*
X129436410Y-46976410D01*
X129567685Y-46816450D01*
X129665232Y-46633954D01*
X129725300Y-46435934D01*
X129745583Y-46230000D01*
X132714417Y-46230000D01*
X132734699Y-46435932D01*
X132734700Y-46435934D01*
X132794768Y-46633954D01*
X132892315Y-46816450D01*
X132892317Y-46816452D01*
X133023589Y-46976410D01*
X133120209Y-47055702D01*
X133183550Y-47107685D01*
X133366046Y-47205232D01*
X133564066Y-47265300D01*
X133564065Y-47265300D01*
X133582529Y-47267118D01*
X133770000Y-47285583D01*
X133975934Y-47265300D01*
X134173954Y-47205232D01*
X134356450Y-47107685D01*
X134516410Y-46976410D01*
X134647685Y-46816450D01*
X134745232Y-46633954D01*
X134805300Y-46435934D01*
X134825583Y-46230000D01*
X135254417Y-46230000D01*
X135274699Y-46435932D01*
X135274700Y-46435934D01*
X135334768Y-46633954D01*
X135432315Y-46816450D01*
X135432317Y-46816452D01*
X135563589Y-46976410D01*
X135660209Y-47055702D01*
X135723550Y-47107685D01*
X135906046Y-47205232D01*
X136104066Y-47265300D01*
X136104065Y-47265300D01*
X136122529Y-47267118D01*
X136310000Y-47285583D01*
X136515934Y-47265300D01*
X136713954Y-47205232D01*
X136896450Y-47107685D01*
X137056410Y-46976410D01*
X137187685Y-46816450D01*
X137285232Y-46633954D01*
X137345300Y-46435934D01*
X137365583Y-46230000D01*
X137794417Y-46230000D01*
X137814699Y-46435932D01*
X137814700Y-46435934D01*
X137874768Y-46633954D01*
X137972315Y-46816450D01*
X137972317Y-46816452D01*
X138103589Y-46976410D01*
X138200209Y-47055702D01*
X138263550Y-47107685D01*
X138446046Y-47205232D01*
X138644066Y-47265300D01*
X138644065Y-47265300D01*
X138662529Y-47267118D01*
X138850000Y-47285583D01*
X139055934Y-47265300D01*
X139253954Y-47205232D01*
X139436450Y-47107685D01*
X139596410Y-46976410D01*
X139727685Y-46816450D01*
X139825232Y-46633954D01*
X139885300Y-46435934D01*
X139905583Y-46230000D01*
X140334417Y-46230000D01*
X140354699Y-46435932D01*
X140354700Y-46435934D01*
X140414768Y-46633954D01*
X140512315Y-46816450D01*
X140512317Y-46816452D01*
X140643589Y-46976410D01*
X140740209Y-47055702D01*
X140803550Y-47107685D01*
X140986046Y-47205232D01*
X141184066Y-47265300D01*
X141184065Y-47265300D01*
X141202529Y-47267118D01*
X141390000Y-47285583D01*
X141595934Y-47265300D01*
X141793954Y-47205232D01*
X141976450Y-47107685D01*
X142136410Y-46976410D01*
X142267685Y-46816450D01*
X142365232Y-46633954D01*
X142425300Y-46435934D01*
X142445583Y-46230000D01*
X145414417Y-46230000D01*
X145434699Y-46435932D01*
X145434700Y-46435934D01*
X145494768Y-46633954D01*
X145592315Y-46816450D01*
X145592317Y-46816452D01*
X145723589Y-46976410D01*
X145820209Y-47055702D01*
X145883550Y-47107685D01*
X146066046Y-47205232D01*
X146264066Y-47265300D01*
X146264065Y-47265300D01*
X146282529Y-47267118D01*
X146470000Y-47285583D01*
X146675934Y-47265300D01*
X146873954Y-47205232D01*
X147056450Y-47107685D01*
X147216410Y-46976410D01*
X147347685Y-46816450D01*
X147445232Y-46633954D01*
X147505300Y-46435934D01*
X147525583Y-46230000D01*
X150494417Y-46230000D01*
X150514699Y-46435932D01*
X150514700Y-46435934D01*
X150574768Y-46633954D01*
X150672315Y-46816450D01*
X150672317Y-46816452D01*
X150803589Y-46976410D01*
X150900209Y-47055702D01*
X150963550Y-47107685D01*
X151146046Y-47205232D01*
X151344066Y-47265300D01*
X151344065Y-47265300D01*
X151362529Y-47267118D01*
X151550000Y-47285583D01*
X151755934Y-47265300D01*
X151953954Y-47205232D01*
X152136450Y-47107685D01*
X152296410Y-46976410D01*
X152427685Y-46816450D01*
X152525232Y-46633954D01*
X152585300Y-46435934D01*
X152605583Y-46230000D01*
X153034417Y-46230000D01*
X153054699Y-46435932D01*
X153054700Y-46435934D01*
X153114768Y-46633954D01*
X153212315Y-46816450D01*
X153212317Y-46816452D01*
X153343589Y-46976410D01*
X153440209Y-47055702D01*
X153503550Y-47107685D01*
X153686046Y-47205232D01*
X153884066Y-47265300D01*
X153884065Y-47265300D01*
X153902529Y-47267118D01*
X154090000Y-47285583D01*
X154295934Y-47265300D01*
X154493954Y-47205232D01*
X154676450Y-47107685D01*
X154836410Y-46976410D01*
X154967685Y-46816450D01*
X155065232Y-46633954D01*
X155125300Y-46435934D01*
X155145583Y-46230000D01*
X155574417Y-46230000D01*
X155594699Y-46435932D01*
X155594700Y-46435934D01*
X155654768Y-46633954D01*
X155752315Y-46816450D01*
X155752317Y-46816452D01*
X155883589Y-46976410D01*
X155980209Y-47055702D01*
X156043550Y-47107685D01*
X156226046Y-47205232D01*
X156424066Y-47265300D01*
X156424065Y-47265300D01*
X156442529Y-47267118D01*
X156630000Y-47285583D01*
X156835934Y-47265300D01*
X157033954Y-47205232D01*
X157216450Y-47107685D01*
X157376410Y-46976410D01*
X157507685Y-46816450D01*
X157605232Y-46633954D01*
X157665300Y-46435934D01*
X157685583Y-46230000D01*
X157665300Y-46024066D01*
X157605232Y-45826046D01*
X157507685Y-45643550D01*
X157455702Y-45580209D01*
X157376410Y-45483589D01*
X157216452Y-45352317D01*
X157216453Y-45352317D01*
X157216450Y-45352315D01*
X157033954Y-45254768D01*
X156835934Y-45194700D01*
X156835932Y-45194699D01*
X156835934Y-45194699D01*
X156630000Y-45174417D01*
X156424067Y-45194699D01*
X156226043Y-45254769D01*
X156115898Y-45313643D01*
X156043550Y-45352315D01*
X156043548Y-45352316D01*
X156043547Y-45352317D01*
X155883589Y-45483589D01*
X155752317Y-45643547D01*
X155654769Y-45826043D01*
X155594699Y-46024067D01*
X155574417Y-46230000D01*
X155145583Y-46230000D01*
X155125300Y-46024066D01*
X155065232Y-45826046D01*
X154967685Y-45643550D01*
X154915702Y-45580209D01*
X154836410Y-45483589D01*
X154676452Y-45352317D01*
X154676453Y-45352317D01*
X154676450Y-45352315D01*
X154493954Y-45254768D01*
X154295934Y-45194700D01*
X154295932Y-45194699D01*
X154295934Y-45194699D01*
X154090000Y-45174417D01*
X153884067Y-45194699D01*
X153686043Y-45254769D01*
X153575898Y-45313643D01*
X153503550Y-45352315D01*
X153503548Y-45352316D01*
X153503547Y-45352317D01*
X153343589Y-45483589D01*
X153212317Y-45643547D01*
X153114769Y-45826043D01*
X153054699Y-46024067D01*
X153034417Y-46230000D01*
X152605583Y-46230000D01*
X152585300Y-46024066D01*
X152525232Y-45826046D01*
X152427685Y-45643550D01*
X152375702Y-45580209D01*
X152296410Y-45483589D01*
X152136452Y-45352317D01*
X152136453Y-45352317D01*
X152136450Y-45352315D01*
X151953954Y-45254768D01*
X151755934Y-45194700D01*
X151755932Y-45194699D01*
X151755934Y-45194699D01*
X151550000Y-45174417D01*
X151344067Y-45194699D01*
X151146043Y-45254769D01*
X151035898Y-45313643D01*
X150963550Y-45352315D01*
X150963548Y-45352316D01*
X150963547Y-45352317D01*
X150803589Y-45483589D01*
X150672317Y-45643547D01*
X150574769Y-45826043D01*
X150514699Y-46024067D01*
X150494417Y-46230000D01*
X147525583Y-46230000D01*
X147505300Y-46024066D01*
X147445232Y-45826046D01*
X147347685Y-45643550D01*
X147295702Y-45580209D01*
X147216410Y-45483589D01*
X147056452Y-45352317D01*
X147056453Y-45352317D01*
X147056450Y-45352315D01*
X146873954Y-45254768D01*
X146675934Y-45194700D01*
X146675932Y-45194699D01*
X146675934Y-45194699D01*
X146470000Y-45174417D01*
X146264067Y-45194699D01*
X146066043Y-45254769D01*
X145955898Y-45313643D01*
X145883550Y-45352315D01*
X145883548Y-45352316D01*
X145883547Y-45352317D01*
X145723589Y-45483589D01*
X145592317Y-45643547D01*
X145494769Y-45826043D01*
X145434699Y-46024067D01*
X145414417Y-46230000D01*
X142445583Y-46230000D01*
X142425300Y-46024066D01*
X142365232Y-45826046D01*
X142267685Y-45643550D01*
X142215702Y-45580209D01*
X142136410Y-45483589D01*
X141976452Y-45352317D01*
X141976453Y-45352317D01*
X141976450Y-45352315D01*
X141793954Y-45254768D01*
X141595934Y-45194700D01*
X141595932Y-45194699D01*
X141595934Y-45194699D01*
X141390000Y-45174417D01*
X141184067Y-45194699D01*
X140986043Y-45254769D01*
X140875898Y-45313643D01*
X140803550Y-45352315D01*
X140803548Y-45352316D01*
X140803547Y-45352317D01*
X140643589Y-45483589D01*
X140512317Y-45643547D01*
X140414769Y-45826043D01*
X140354699Y-46024067D01*
X140334417Y-46230000D01*
X139905583Y-46230000D01*
X139885300Y-46024066D01*
X139825232Y-45826046D01*
X139727685Y-45643550D01*
X139675702Y-45580209D01*
X139596410Y-45483589D01*
X139436452Y-45352317D01*
X139436453Y-45352317D01*
X139436450Y-45352315D01*
X139253954Y-45254768D01*
X139055934Y-45194700D01*
X139055932Y-45194699D01*
X139055934Y-45194699D01*
X138850000Y-45174417D01*
X138644067Y-45194699D01*
X138446043Y-45254769D01*
X138335898Y-45313643D01*
X138263550Y-45352315D01*
X138263548Y-45352316D01*
X138263547Y-45352317D01*
X138103589Y-45483589D01*
X137972317Y-45643547D01*
X137874769Y-45826043D01*
X137814699Y-46024067D01*
X137794417Y-46230000D01*
X137365583Y-46230000D01*
X137345300Y-46024066D01*
X137285232Y-45826046D01*
X137187685Y-45643550D01*
X137135702Y-45580209D01*
X137056410Y-45483589D01*
X136896452Y-45352317D01*
X136896453Y-45352317D01*
X136896450Y-45352315D01*
X136713954Y-45254768D01*
X136515934Y-45194700D01*
X136515932Y-45194699D01*
X136515934Y-45194699D01*
X136310000Y-45174417D01*
X136104067Y-45194699D01*
X135906043Y-45254769D01*
X135795898Y-45313643D01*
X135723550Y-45352315D01*
X135723548Y-45352316D01*
X135723547Y-45352317D01*
X135563589Y-45483589D01*
X135432317Y-45643547D01*
X135334769Y-45826043D01*
X135274699Y-46024067D01*
X135254417Y-46230000D01*
X134825583Y-46230000D01*
X134805300Y-46024066D01*
X134745232Y-45826046D01*
X134647685Y-45643550D01*
X134595702Y-45580209D01*
X134516410Y-45483589D01*
X134356452Y-45352317D01*
X134356453Y-45352317D01*
X134356450Y-45352315D01*
X134173954Y-45254768D01*
X133975934Y-45194700D01*
X133975932Y-45194699D01*
X133975934Y-45194699D01*
X133770000Y-45174417D01*
X133564067Y-45194699D01*
X133366043Y-45254769D01*
X133255898Y-45313643D01*
X133183550Y-45352315D01*
X133183548Y-45352316D01*
X133183547Y-45352317D01*
X133023589Y-45483589D01*
X132892317Y-45643547D01*
X132794769Y-45826043D01*
X132734699Y-46024067D01*
X132714417Y-46230000D01*
X129745583Y-46230000D01*
X129725300Y-46024066D01*
X129665232Y-45826046D01*
X129567685Y-45643550D01*
X129515702Y-45580209D01*
X129436410Y-45483589D01*
X129276452Y-45352317D01*
X129276453Y-45352317D01*
X129276450Y-45352315D01*
X129093954Y-45254768D01*
X128895934Y-45194700D01*
X128895932Y-45194699D01*
X128895934Y-45194699D01*
X128690000Y-45174417D01*
X128484067Y-45194699D01*
X128286043Y-45254769D01*
X128175898Y-45313643D01*
X128103550Y-45352315D01*
X128103548Y-45352316D01*
X128103547Y-45352317D01*
X127943589Y-45483589D01*
X127812317Y-45643547D01*
X127714769Y-45826043D01*
X127654699Y-46024067D01*
X127634417Y-46230000D01*
X127205583Y-46230000D01*
X127185300Y-46024066D01*
X127125232Y-45826046D01*
X127027685Y-45643550D01*
X126975702Y-45580209D01*
X126896410Y-45483589D01*
X126736452Y-45352317D01*
X126736453Y-45352317D01*
X126736450Y-45352315D01*
X126553954Y-45254768D01*
X126355934Y-45194700D01*
X126355932Y-45194699D01*
X126355934Y-45194699D01*
X126150000Y-45174417D01*
X125944067Y-45194699D01*
X125746043Y-45254769D01*
X125635898Y-45313643D01*
X125563550Y-45352315D01*
X125563548Y-45352316D01*
X125563547Y-45352317D01*
X125403589Y-45483589D01*
X125272317Y-45643547D01*
X125174769Y-45826043D01*
X125114699Y-46024067D01*
X125094417Y-46230000D01*
X122125583Y-46230000D01*
X122105300Y-46024066D01*
X122045232Y-45826046D01*
X121947685Y-45643550D01*
X121895702Y-45580209D01*
X121816410Y-45483589D01*
X121656452Y-45352317D01*
X121656453Y-45352317D01*
X121656450Y-45352315D01*
X121473954Y-45254768D01*
X121275934Y-45194700D01*
X121275932Y-45194699D01*
X121275934Y-45194699D01*
X121070000Y-45174417D01*
X120864067Y-45194699D01*
X120666043Y-45254769D01*
X120555898Y-45313643D01*
X120483550Y-45352315D01*
X120483548Y-45352316D01*
X120483547Y-45352317D01*
X120323589Y-45483589D01*
X120192317Y-45643547D01*
X120094769Y-45826043D01*
X120034699Y-46024067D01*
X120014417Y-46230000D01*
X119585583Y-46230000D01*
X119565300Y-46024066D01*
X119505232Y-45826046D01*
X119407685Y-45643550D01*
X119355702Y-45580209D01*
X119276410Y-45483589D01*
X119116452Y-45352317D01*
X119116453Y-45352317D01*
X119116450Y-45352315D01*
X118933954Y-45254768D01*
X118735934Y-45194700D01*
X118735932Y-45194699D01*
X118735934Y-45194699D01*
X118530000Y-45174417D01*
X118324067Y-45194699D01*
X118126043Y-45254769D01*
X118015898Y-45313643D01*
X117943550Y-45352315D01*
X117943548Y-45352316D01*
X117943547Y-45352317D01*
X117783589Y-45483589D01*
X117652317Y-45643547D01*
X117554769Y-45826043D01*
X117494699Y-46024067D01*
X117474417Y-46230000D01*
X117045583Y-46230000D01*
X117025300Y-46024066D01*
X116965232Y-45826046D01*
X116867685Y-45643550D01*
X116815702Y-45580209D01*
X116736410Y-45483589D01*
X116576452Y-45352317D01*
X116576453Y-45352317D01*
X116576450Y-45352315D01*
X116393954Y-45254768D01*
X116195934Y-45194700D01*
X116195932Y-45194699D01*
X116195934Y-45194699D01*
X115990000Y-45174417D01*
X115784067Y-45194699D01*
X115586043Y-45254769D01*
X115475898Y-45313643D01*
X115403550Y-45352315D01*
X115403548Y-45352316D01*
X115403547Y-45352317D01*
X115243589Y-45483589D01*
X115112317Y-45643547D01*
X115014769Y-45826043D01*
X114954699Y-46024067D01*
X114934417Y-46230000D01*
X111965583Y-46230000D01*
X111945300Y-46024066D01*
X111885232Y-45826046D01*
X111787685Y-45643550D01*
X111735702Y-45580209D01*
X111656410Y-45483589D01*
X111496452Y-45352317D01*
X111496453Y-45352317D01*
X111496450Y-45352315D01*
X111313954Y-45254768D01*
X111115934Y-45194700D01*
X111115932Y-45194699D01*
X111115934Y-45194699D01*
X110910000Y-45174417D01*
X110704067Y-45194699D01*
X110506043Y-45254769D01*
X110395898Y-45313643D01*
X110323550Y-45352315D01*
X110323548Y-45352316D01*
X110323547Y-45352317D01*
X110163589Y-45483589D01*
X110032317Y-45643547D01*
X109934769Y-45826043D01*
X109874699Y-46024067D01*
X109854417Y-46230000D01*
X109425583Y-46230000D01*
X109405300Y-46024066D01*
X109345232Y-45826046D01*
X109247685Y-45643550D01*
X109195702Y-45580209D01*
X109116410Y-45483589D01*
X108956452Y-45352317D01*
X108956453Y-45352317D01*
X108956450Y-45352315D01*
X108773954Y-45254768D01*
X108575934Y-45194700D01*
X108575932Y-45194699D01*
X108575934Y-45194699D01*
X108370000Y-45174417D01*
X108164067Y-45194699D01*
X107966043Y-45254769D01*
X107855898Y-45313643D01*
X107783550Y-45352315D01*
X107783548Y-45352316D01*
X107783547Y-45352317D01*
X107623589Y-45483589D01*
X107492317Y-45643547D01*
X107394769Y-45826043D01*
X107334699Y-46024067D01*
X107314417Y-46230000D01*
X100050500Y-46230000D01*
X100050500Y-43874500D01*
X100070185Y-43807461D01*
X100122989Y-43761706D01*
X100174500Y-43750500D01*
X164825500Y-43750500D01*
X164892539Y-43770185D01*
G37*
G04 #@! TD.AperFunction*
G04 #@! TA.AperFunction,Conductor*
G36*
X121749769Y-88556043D02*
G01*
X121689699Y-88754067D01*
X121669417Y-88960000D01*
X121689699Y-89165932D01*
X121719734Y-89264944D01*
X121749768Y-89363954D01*
X121847315Y-89546450D01*
X121847317Y-89546452D01*
X121978589Y-89706410D01*
X122075209Y-89785702D01*
X122138550Y-89837685D01*
X122321046Y-89935232D01*
X122519066Y-89995300D01*
X122519065Y-89995300D01*
X122537529Y-89997118D01*
X122725000Y-90015583D01*
X122930934Y-89995300D01*
X123128954Y-89935232D01*
X123311450Y-89837685D01*
X123471410Y-89706410D01*
X123602685Y-89546450D01*
X123700232Y-89363954D01*
X123760300Y-89165934D01*
X123760534Y-89163552D01*
X123761006Y-89162383D01*
X123761489Y-89159958D01*
X123761948Y-89160049D01*
X123786687Y-89098763D01*
X123843716Y-89058398D01*
X123913516Y-89055272D01*
X123971619Y-89088012D01*
X123986652Y-89103045D01*
X123986654Y-89103046D01*
X123986658Y-89103050D01*
X124098346Y-89159958D01*
X124099698Y-89160647D01*
X124193475Y-89175499D01*
X124193481Y-89175500D01*
X124806518Y-89175499D01*
X124900304Y-89160646D01*
X125013342Y-89103050D01*
X125103050Y-89013342D01*
X125157385Y-88906703D01*
X125205359Y-88855909D01*
X125267869Y-88839000D01*
X125914286Y-88839000D01*
X125981325Y-88858685D01*
X126001967Y-88875319D01*
X126526192Y-89399544D01*
X126600456Y-89473808D01*
X126690098Y-89510939D01*
X126744501Y-89554781D01*
X126766565Y-89621075D01*
X126749285Y-89688774D01*
X126698148Y-89736384D01*
X126642644Y-89749500D01*
X125691739Y-89749500D01*
X125623608Y-89759426D01*
X125518514Y-89810803D01*
X125435802Y-89893515D01*
X125424585Y-89916461D01*
X125377457Y-89968043D01*
X125313185Y-89986000D01*
X124027513Y-89986000D01*
X123922487Y-89986000D01*
X123922485Y-89986000D01*
X123922483Y-89986001D01*
X123825458Y-90026188D01*
X123825456Y-90026190D01*
X123438466Y-90413181D01*
X123377143Y-90446666D01*
X123350785Y-90449500D01*
X121855247Y-90449500D01*
X121796770Y-90461131D01*
X121796769Y-90461132D01*
X121730447Y-90505447D01*
X121686132Y-90571769D01*
X121686131Y-90571770D01*
X121674500Y-90630247D01*
X121674500Y-92369752D01*
X121686131Y-92428229D01*
X121686132Y-92428230D01*
X121730447Y-92494552D01*
X121796769Y-92538867D01*
X121796770Y-92538868D01*
X121855247Y-92550499D01*
X121855250Y-92550500D01*
X121855252Y-92550500D01*
X123594750Y-92550500D01*
X123594751Y-92550499D01*
X123609568Y-92547552D01*
X123653229Y-92538868D01*
X123653229Y-92538867D01*
X123653231Y-92538867D01*
X123719552Y-92494552D01*
X123763867Y-92428231D01*
X123763867Y-92428229D01*
X123763868Y-92428229D01*
X123775499Y-92369752D01*
X123775500Y-92369750D01*
X123775500Y-90874214D01*
X123795185Y-90807175D01*
X123811819Y-90786533D01*
X124048034Y-90550319D01*
X124109357Y-90516834D01*
X124135715Y-90514000D01*
X125313185Y-90514000D01*
X125380224Y-90533685D01*
X125424585Y-90583539D01*
X125435802Y-90606484D01*
X125518514Y-90689196D01*
X125518515Y-90689196D01*
X125518517Y-90689198D01*
X125623607Y-90740573D01*
X125657673Y-90745536D01*
X125691739Y-90750500D01*
X125691740Y-90750500D01*
X126933261Y-90750500D01*
X126955971Y-90747191D01*
X127001393Y-90740573D01*
X127106483Y-90689198D01*
X127189198Y-90606483D01*
X127240573Y-90501393D01*
X127250500Y-90433260D01*
X127250500Y-90066740D01*
X127240573Y-89998607D01*
X127189198Y-89893517D01*
X127189196Y-89893515D01*
X127189196Y-89893514D01*
X127106485Y-89810803D01*
X127001390Y-89759425D01*
X126992193Y-89756584D01*
X126993309Y-89752970D01*
X126946662Y-89731562D01*
X126908996Y-89672714D01*
X126909126Y-89602845D01*
X126947009Y-89544137D01*
X127010618Y-89515230D01*
X127028038Y-89514000D01*
X127163742Y-89514000D01*
X127230781Y-89533685D01*
X127275142Y-89583538D01*
X127284580Y-89602845D01*
X127310803Y-89656485D01*
X127393514Y-89739196D01*
X127393515Y-89739196D01*
X127393517Y-89739198D01*
X127498607Y-89790573D01*
X127532673Y-89795536D01*
X127566739Y-89800500D01*
X127566740Y-89800500D01*
X128808261Y-89800500D01*
X128830971Y-89797191D01*
X128876393Y-89790573D01*
X128981483Y-89739198D01*
X129064198Y-89656483D01*
X129115573Y-89551393D01*
X129117080Y-89541052D01*
X129146224Y-89477551D01*
X129152088Y-89471263D01*
X129240800Y-89382551D01*
X129302120Y-89349068D01*
X129371812Y-89354052D01*
X129416160Y-89382553D01*
X129486652Y-89453045D01*
X129486654Y-89453046D01*
X129486658Y-89453050D01*
X129599696Y-89510646D01*
X129599698Y-89510647D01*
X129693475Y-89525499D01*
X129693481Y-89525500D01*
X129870500Y-89525499D01*
X129937539Y-89545183D01*
X129983294Y-89597987D01*
X129994500Y-89649499D01*
X129994500Y-89850500D01*
X129974815Y-89917539D01*
X129922011Y-89963294D01*
X129870501Y-89974500D01*
X129693482Y-89974500D01*
X129612519Y-89987323D01*
X129599696Y-89989354D01*
X129486658Y-90046950D01*
X129486657Y-90046951D01*
X129486652Y-90046954D01*
X129396954Y-90136652D01*
X129396951Y-90136657D01*
X129339352Y-90249698D01*
X129324500Y-90343475D01*
X129324501Y-90811390D01*
X129322252Y-90811390D01*
X129309802Y-90870650D01*
X129260750Y-90920406D01*
X129200549Y-90936000D01*
X129186815Y-90936000D01*
X129119776Y-90916315D01*
X129075415Y-90866461D01*
X129064197Y-90843515D01*
X128981485Y-90760803D01*
X128876391Y-90709426D01*
X128808261Y-90699500D01*
X128808260Y-90699500D01*
X127566740Y-90699500D01*
X127566739Y-90699500D01*
X127498608Y-90709426D01*
X127393514Y-90760803D01*
X127310803Y-90843514D01*
X127259426Y-90948608D01*
X127249500Y-91016739D01*
X127249500Y-91383260D01*
X127259426Y-91451391D01*
X127310803Y-91556485D01*
X127393514Y-91639196D01*
X127393515Y-91639196D01*
X127393517Y-91639198D01*
X127498607Y-91690573D01*
X127532673Y-91695536D01*
X127566739Y-91700500D01*
X127566740Y-91700500D01*
X128808261Y-91700500D01*
X128830971Y-91697191D01*
X128876393Y-91690573D01*
X128981483Y-91639198D01*
X129064198Y-91556483D01*
X129075415Y-91533539D01*
X129122543Y-91481957D01*
X129186815Y-91464000D01*
X129289286Y-91464000D01*
X129356325Y-91483685D01*
X129376967Y-91500319D01*
X129451273Y-91574625D01*
X129484758Y-91635948D01*
X129479774Y-91705640D01*
X129474993Y-91716766D01*
X129459426Y-91748608D01*
X129449500Y-91816739D01*
X129449500Y-92183260D01*
X129459426Y-92251391D01*
X129510803Y-92356485D01*
X129593514Y-92439196D01*
X129593515Y-92439196D01*
X129593517Y-92439198D01*
X129698607Y-92490573D01*
X129732673Y-92495536D01*
X129766739Y-92500500D01*
X129766740Y-92500500D01*
X129870500Y-92500500D01*
X129937539Y-92520185D01*
X129983294Y-92572989D01*
X129994500Y-92624500D01*
X129994500Y-92866043D01*
X129994503Y-92867186D01*
X129994513Y-92868727D01*
X129994513Y-92868731D01*
X130003579Y-92927792D01*
X130003580Y-92927794D01*
X130024108Y-92994580D01*
X130032948Y-93018110D01*
X130032949Y-93018112D01*
X130087930Y-93091191D01*
X130087931Y-93091192D01*
X130141307Y-93136278D01*
X130190909Y-93167280D01*
X130198082Y-93170447D01*
X130251459Y-93215530D01*
X130271990Y-93282315D01*
X130272000Y-93283883D01*
X130272000Y-93516116D01*
X130252315Y-93583155D01*
X130199511Y-93628910D01*
X130198089Y-93629549D01*
X130191059Y-93632652D01*
X130189631Y-93633289D01*
X130188229Y-93633920D01*
X130188228Y-93633920D01*
X130137919Y-93666041D01*
X130137914Y-93666044D01*
X130085105Y-93711805D01*
X130067160Y-93729387D01*
X130067154Y-93729394D01*
X130022511Y-93809204D01*
X130022509Y-93809209D01*
X130002826Y-93876241D01*
X129994500Y-93934148D01*
X129994500Y-99941233D01*
X129997024Y-99973347D01*
X129997027Y-99973370D01*
X130003082Y-100011638D01*
X130036391Y-100095470D01*
X130036392Y-100095472D01*
X130075806Y-100153148D01*
X130075809Y-100153151D01*
X130075811Y-100153154D01*
X130115349Y-100196258D01*
X131925442Y-101677244D01*
X132211293Y-101911122D01*
X132211295Y-101911124D01*
X132221440Y-101919424D01*
X132221441Y-101919426D01*
X132235613Y-101931021D01*
X132244935Y-101938211D01*
X132256417Y-101946555D01*
X132319326Y-101977490D01*
X132386365Y-101997175D01*
X132444263Y-102005500D01*
X132444267Y-102005500D01*
X134126000Y-102005500D01*
X134193039Y-102025185D01*
X134238794Y-102077989D01*
X134250000Y-102129500D01*
X134250000Y-103425500D01*
X134230315Y-103492539D01*
X134177511Y-103538294D01*
X134126000Y-103549500D01*
X118874000Y-103549500D01*
X118806961Y-103529815D01*
X118761206Y-103477011D01*
X118750000Y-103425500D01*
X118750000Y-97638389D01*
X119589500Y-97638389D01*
X119589500Y-99611611D01*
X119616598Y-99782701D01*
X119670127Y-99947445D01*
X119748768Y-100101788D01*
X119850586Y-100241928D01*
X119973072Y-100364414D01*
X120113212Y-100466232D01*
X120267555Y-100544873D01*
X120432299Y-100598402D01*
X120603389Y-100625500D01*
X120603390Y-100625500D01*
X120776610Y-100625500D01*
X120776611Y-100625500D01*
X120947701Y-100598402D01*
X121112445Y-100544873D01*
X121266788Y-100466232D01*
X121406928Y-100364414D01*
X121529414Y-100241928D01*
X121631232Y-100101788D01*
X121709873Y-99947445D01*
X121763402Y-99782701D01*
X121790500Y-99611611D01*
X121790500Y-97638389D01*
X121763402Y-97467299D01*
X121709873Y-97302555D01*
X121631232Y-97148212D01*
X121529414Y-97008072D01*
X121406928Y-96885586D01*
X121266788Y-96783768D01*
X121112445Y-96705127D01*
X120947701Y-96651598D01*
X120947699Y-96651597D01*
X120947698Y-96651597D01*
X120816271Y-96630781D01*
X120776611Y-96624500D01*
X120603389Y-96624500D01*
X120563728Y-96630781D01*
X120432302Y-96651597D01*
X120267552Y-96705128D01*
X120113211Y-96783768D01*
X120033256Y-96841859D01*
X119973072Y-96885586D01*
X119973070Y-96885588D01*
X119973069Y-96885588D01*
X119850588Y-97008069D01*
X119850588Y-97008070D01*
X119850586Y-97008072D01*
X119806859Y-97068256D01*
X119748768Y-97148211D01*
X119670128Y-97302552D01*
X119616597Y-97467302D01*
X119589500Y-97638389D01*
X118750000Y-97638389D01*
X118750000Y-88500000D01*
X121779725Y-88500000D01*
X121749769Y-88556043D01*
G37*
G04 #@! TD.AperFunction*
G04 #@! TA.AperFunction,Conductor*
G36*
X129338417Y-88601533D02*
G01*
X129290442Y-88652328D01*
X129275387Y-88659797D01*
X129178108Y-88700093D01*
X129178101Y-88700096D01*
X129175456Y-88701191D01*
X129067165Y-88809482D01*
X129005842Y-88842966D01*
X128936150Y-88837982D01*
X128925024Y-88833201D01*
X128876391Y-88809426D01*
X128808261Y-88799500D01*
X128808260Y-88799500D01*
X127566740Y-88799500D01*
X127566739Y-88799500D01*
X127498608Y-88809426D01*
X127393514Y-88860803D01*
X127304637Y-88949681D01*
X127243314Y-88983166D01*
X127216956Y-88986000D01*
X126910714Y-88986000D01*
X126843675Y-88966315D01*
X126823033Y-88949681D01*
X126373352Y-88500000D01*
X129390151Y-88500000D01*
X129338417Y-88601533D01*
G37*
G04 #@! TD.AperFunction*
M02*
